<?xml version="1.0" standalone="no"?>
<!DOCTYPE svg PUBLIC "-//W3C//DTD SVG 20010904//EN"
 "http://www.w3.org/TR/2001/REC-SVG-20010904/DTD/svg10.dtd">
<svg version="1.0" xmlns="http://www.w3.org/2000/svg"
 width="425.000000pt" height="291.000000pt" viewBox="0 0 425.000000 291.000000"
 preserveAspectRatio="xMidYMid meet">
<metadata>
Created by potrace 1.15, written by Peter Selinger 2001-2017
</metadata>
<g transform="translate(0.000000,291.000000) scale(0.100000,-0.100000)"
fill="#000000" stroke="none">
<path d="M886 2899 c-353 -52 -610 -226 -751 -509 -190 -379 -178 -801 33
-1165 131 -226 401 -386 753 -445 61 -11 67 -14 72 -38 3 -15 31 -184 62 -377
31 -192 61 -354 66 -360 6 -6 14 -4 23 5 8 8 72 182 144 385 l129 370 989 5
989 6 96 26 c208 56 348 136 471 267 289 307 370 825 194 1233 -136 315 -329
481 -665 572 l-116 31 -1215 1 c-668 1 -1241 -2 -1274 -7z m2429 -39 c286 -33
532 -159 673 -345 93 -124 171 -311 203 -485 18 -101 13 -319 -9 -425 -78
-362 -281 -613 -587 -724 -188 -68 -129 -64 -1220 -70 l-990 -6 -120 -342
c-89 -253 -122 -336 -127 -320 -4 12 -30 163 -58 336 -28 173 -53 317 -55 321
-2 4 -39 13 -82 20 -273 44 -535 169 -661 316 -91 107 -177 298 -214 474 -23
110 -27 317 -9 420 46 253 166 479 326 613 126 106 343 193 536 216 108 12
2284 13 2394 1z"/>
</g>
</svg>
