<?xml version="1.0" encoding="UTF-8"?>
<svg width="201px" height="45px" viewBox="0 0 201 45" version="1.1" xmlns="http://www.w3.org/2000/svg" xmlns:xlink="http://www.w3.org/1999/xlink">
    <!-- Generator: Sketch 52.6 (67491) - http://www.bohemiancoding.com/sketch -->
    <title>Group 4</title>
    <desc>Created with Sketch.</desc>
    <g id="Application-Portal-Mockups" stroke="none" stroke-width="1" fill="none" fill-rule="evenodd">
        <g id="Login-Screen" transform="translate(-621.000000, -325.000000)" fill="#000000">
            <g id="Window" transform="translate(544.000000, 291.000000)">
                <g id="Group-4" transform="translate(77.000000, 34.000000)">
                    <path d="M34.8467337,43.4831461 L26.5810409,43.4831461 L26.5810409,25.6617169 L8.20622738,25.6617169 L8.20622738,43.4831461 L0,43.4831461 L0,0.505617978 L8.20622738,0.505617978 L8.20622738,17.7814932 L26.5810409,17.7814932 L26.5810409,0.505617978 L34.8467337,0.505617978 L34.8467337,43.4831461 Z M38.8869347,35.9512821 C38.8869347,30.5709634 42.7576488,27.5751041 47.6407035,26.8414242 L54.8461867,25.7409045 C56.5135713,25.4963445 57.0495163,24.6403847 57.0495163,23.601005 C57.0495163,21.4611055 55.4416812,19.6880459 52.1069121,19.6880459 C48.6530441,19.6880459 46.7474618,21.9502254 46.509264,24.5792448 L39.4824292,23.0507451 C39.9588247,18.3429662 44.1868355,13.1460674 52.0473627,13.1460674 C61.3370765,13.1460674 64.7909445,18.5263862 64.7909445,24.5792448 L64.7909445,39.3751213 C64.7909445,40.9647609 64.9695929,43.1046604 65.1482412,44.1440402 L57.8832086,44.1440402 C57.7045602,43.3492204 57.5854613,41.6984408 57.5854613,40.536781 C56.0967251,42.9212405 53.2979011,45 48.9507914,45 C42.6980993,45 38.8869347,40.659061 38.8869347,35.9512821 Z M50.7256632,38.4269663 C54.0141989,38.4269663 57.0678392,36.8208857 57.0678392,31.6457369 L57.0678392,30.3370787 L50.5494916,31.3483146 C48.5528807,31.6457369 46.9673367,32.7759418 46.9673367,35.0363516 C46.9673367,36.7614012 48.2005376,38.4269663 50.7256632,38.4269663 Z M82.6227302,20.6518791 C78.5494805,20.6518791 75.1351389,23.6419992 75.1351389,29.0730337 C75.1351389,34.5040682 78.6093813,37.5552112 82.6826309,37.5552112 C86.7558806,37.5552112 88.7925055,34.8091825 89.4514135,32.4903138 L96.459799,34.8702053 C95.1419829,39.8740798 90.5296267,45 82.6826309,45 C73.997025,45 67.1683417,38.2874855 67.1683417,29.0730337 C67.1683417,19.7975591 73.8772235,13.1460674 82.443028,13.1460674 C90.4697259,13.1460674 95.0221815,18.2109647 96.2800968,23.2758621 L89.1519099,25.7167764 C88.4331011,23.2148392 86.5761784,20.6518791 82.6227302,20.6518791 Z M127.531969,13.9338258 L115.742099,26.3661618 L127.771357,43.4831461 L118.016287,43.4831461 L110.23617,32.1919424 L106.944583,35.6753988 L106.944583,43.4831461 L98.9849246,43.4831461 L98.9849246,0 L106.944583,0 L106.944583,24.9247315 L117.118581,13.9338258 L127.531969,13.9338258 Z M157.481478,11.0784388 L150.148288,13.3663773 C149.734317,11.0182299 147.841881,7.34548661 142.519405,7.34548661 C138.557116,7.34548661 135.955017,9.9344696 135.955017,12.7642882 C135.955017,15.1124356 137.433482,16.9789117 140.508691,17.5810007 L146.363416,18.72497 C153.992299,20.2301926 158.072864,25.2877408 158.072864,31.3086315 C158.072864,37.8714023 152.691249,44.494382 142.933375,44.494382 C131.815313,44.494382 126.906806,37.2091043 126.256281,31.1280047 L133.826026,29.0809019 C134.180858,33.2955254 137.078651,37.0886865 142.992514,37.0886865 C147.368772,37.0886865 149.793456,34.860957 149.793456,31.8505116 C149.793456,29.3819465 147.960159,27.4552614 144.707534,26.7929635 L138.85281,25.5887853 C132.170144,24.2039805 127.853024,19.8087303 127.853024,13.3663773 C127.853024,5.78005504 134.53569,0 142.460266,0 C152.63211,0 156.53526,6.26172629 157.481478,11.0784388 Z M181.582478,44.494382 C169.860925,44.494382 160.092965,35.8845084 160.092965,22.2772955 C160.092965,8.67008256 170.216124,0 181.464079,0 C193.067232,0 199.046408,7.2250688 200.704001,14.1490931 L193.008032,16.6176582 C192.001636,12.5234526 188.745649,8.00778459 181.464079,8.00778459 C175.188904,8.00778459 168.558531,12.5836615 168.558531,22.2772955 C168.558531,31.3688404 174.833705,36.3661796 181.582478,36.3661796 C188.745649,36.3661796 192.238435,31.609676 193.363231,27.6358882 L201,29.9840355 C199.401606,36.5468063 193.363231,44.494382 181.582478,44.494382 Z" id="HackSC-Copy-4"></path>
                </g>
            </g>
        </g>
    </g>
</svg>