<svg xmlns="http://www.w3.org/2000/svg" viewBox="0 0 319.62 208.33"><defs><style>.cls-1{fill:#fff;}</style></defs><title>BostonHacksLogo2_White</title><g id="Layer_4" data-name="Layer 4"><path class="cls-1" d="M140.74,243.47a6.47,6.47,0,0,1-3.24-12.08l88.34-51a6.47,6.47,0,1,1,6.47,11.21L144,242.6A6.43,6.43,0,0,1,140.74,243.47Z" transform="translate(-56.19 -111.84)"/><path class="cls-1" d="M181.77,244.62a6.47,6.47,0,0,1-3.24-12.08l39.7-22.93a6.48,6.48,0,1,1,6.48,11.22L185,243.75A6.43,6.43,0,0,1,181.77,244.62Z" transform="translate(-56.19 -111.84)"/><path class="cls-1" d="M184.89,168.31a6.48,6.48,0,0,1-3.24-12.09L205,142.72a6.47,6.47,0,1,1,6.47,11.21l-23.39,13.51A6.43,6.43,0,0,1,184.89,168.31Z" transform="translate(-56.19 -111.84)"/><path class="cls-1" d="M212,177.76a6.48,6.48,0,0,1-3.25-12.08L232.35,152a6.47,6.47,0,1,1,6.47,11.21l-23.64,13.65A6.43,6.43,0,0,1,212,177.76Z" transform="translate(-56.19 -111.84)"/><path class="cls-1" d="M163.13,206a6.47,6.47,0,0,1-3.24-12.08l31.09-18a6.48,6.48,0,0,1,6.47,11.22l-31.09,18A6.43,6.43,0,0,1,163.13,206Z" transform="translate(-56.19 -111.84)"/><path class="cls-1" d="M258.76,243.69a6.47,6.47,0,0,1-5.61-3.24l-19.1-33.08a6.48,6.48,0,0,1,11.22-6.47L264.37,234a6.48,6.48,0,0,1-5.61,9.71Z" transform="translate(-56.19 -111.84)"/><path class="cls-1" d="M258.38,200.44a6.47,6.47,0,0,1-5.61-3.24L242,178.62a6.48,6.48,0,0,1,11.22-6.48L264,190.73a6.47,6.47,0,0,1-5.6,9.71Z" transform="translate(-56.19 -111.84)"/><path class="cls-1" d="M226.26,144.79a6.48,6.48,0,0,1-5.62-3.24l-11.55-20a6.48,6.48,0,1,1,11.22-6.48l11.55,20a6.48,6.48,0,0,1-5.6,9.71Z" transform="translate(-56.19 -111.84)"/><path class="cls-1" d="M283.26,243.53a6.47,6.47,0,0,1-5.61-3.24l-14.18-24.56a6.47,6.47,0,0,1,11.21-6.47l14.18,24.56a6.46,6.46,0,0,1-2.37,8.84A6.4,6.4,0,0,1,283.26,243.53Z" transform="translate(-56.19 -111.84)"/><path class="cls-1" d="M224.73,244.66a6.47,6.47,0,0,1-3.25-12.08l7.84-4.53a6.48,6.48,0,0,1,6.47,11.22L228,243.79A6.43,6.43,0,0,1,224.73,244.66Z" transform="translate(-56.19 -111.84)"/><path class="cls-1" d="M56.19,319.63V280.35h11.6q6.31,0,9.57,2.61t3.27,7.68a8.67,8.67,0,0,1-1.66,5.3,9,9,0,0,1-4.55,3.22A9.51,9.51,0,0,1,82,308.57a10.21,10.21,0,0,1-3.36,8.13q-3.36,2.93-9.34,2.93ZM59.51,298h9.06A10.22,10.22,0,0,0,75,296a6.68,6.68,0,0,0,2.28-5.47c0-2.53-.78-4.39-2.36-5.58s-4-1.8-7.13-1.8H59.51Zm0,2.8v16.05h9.95a10,10,0,0,0,6.76-2.17,7.55,7.55,0,0,0,2.49-6,7.26,7.26,0,0,0-2.38-5.74,9.62,9.62,0,0,0-6.6-2.12Z" transform="translate(-56.19 -111.84)"/><path class="cls-1" d="M87.51,304.6A17.17,17.17,0,0,1,89.14,297a12.28,12.28,0,0,1,11.37-7.12A12,12,0,0,1,110,294q3.61,4.08,3.61,10.83v.67a17.32,17.32,0,0,1-1.63,7.62,12.16,12.16,0,0,1-4.6,5.22,12.62,12.62,0,0,1-6.77,1.83,12,12,0,0,1-9.43-4.08q-3.61-4.09-3.62-10.83Zm3.23.89a13.28,13.28,0,0,0,2.71,8.59,9.17,9.17,0,0,0,14.19,0,13.66,13.66,0,0,0,2.71-8.86v-.62a14.78,14.78,0,0,0-1.24-6.12,10,10,0,0,0-3.48-4.3,8.85,8.85,0,0,0-5.12-1.53,8.61,8.61,0,0,0-7,3.39,13.67,13.67,0,0,0-2.73,8.86Z" transform="translate(-56.19 -111.84)"/><path class="cls-1" d="M137.7,312.21a4.59,4.59,0,0,0-1.93-3.86,14.86,14.86,0,0,0-5.81-2.28,26.32,26.32,0,0,1-6-1.89,8,8,0,0,1-3.18-2.6,6.49,6.49,0,0,1-1-3.72,7,7,0,0,1,2.89-5.71A11.64,11.64,0,0,1,130,289.9a12,12,0,0,1,7.83,2.42,7.74,7.74,0,0,1,3,6.29h-3.24a5.25,5.25,0,0,0-2.15-4.26,9.65,9.65,0,0,0-10.51-.28,4.35,4.35,0,0,0-1.93,3.68,4,4,0,0,0,1.6,3.39,16.89,16.89,0,0,0,5.85,2.19,27.88,27.88,0,0,1,6.37,2.13,8.28,8.28,0,0,1,3.14,2.73A7.48,7.48,0,0,1,138,318a12.7,12.7,0,0,1-7.78,2.21,13.1,13.1,0,0,1-8.27-2.46,7.62,7.62,0,0,1-3.17-6.25H122a5.6,5.6,0,0,0,2.38,4.41,9.8,9.8,0,0,0,5.82,1.58,9.14,9.14,0,0,0,5.44-1.48A4.45,4.45,0,0,0,137.7,312.21Z" transform="translate(-56.19 -111.84)"/><path class="cls-1" d="M153.21,283v7.47h6v2.64h-6v19.47a6.05,6.05,0,0,0,.88,3.62,3.39,3.39,0,0,0,2.92,1.19,20.18,20.18,0,0,0,2.62-.27l.13,2.62a10.59,10.59,0,0,1-3.45.45q-3.31,0-4.83-1.92a9.14,9.14,0,0,1-1.51-5.68V293.08h-5.36v-2.64H150V283Z" transform="translate(-56.19 -111.84)"/><path class="cls-1" d="M163.62,304.6a17.17,17.17,0,0,1,1.63-7.58,12.28,12.28,0,0,1,11.37-7.12,12,12,0,0,1,9.44,4.09q3.62,4.08,3.62,10.83v.67a17.32,17.32,0,0,1-1.64,7.62,12.13,12.13,0,0,1-4.59,5.22,12.65,12.65,0,0,1-6.77,1.83,12,12,0,0,1-9.43-4.08q-3.63-4.09-3.63-10.83Zm3.24.89a13.22,13.22,0,0,0,2.71,8.59,9.17,9.17,0,0,0,14.19,0,13.72,13.72,0,0,0,2.71-8.86v-.62a14.94,14.94,0,0,0-1.24-6.12,10,10,0,0,0-3.48-4.3,8.89,8.89,0,0,0-5.13-1.53,8.62,8.62,0,0,0-7,3.39,13.72,13.72,0,0,0-2.72,8.86Z" transform="translate(-56.19 -111.84)"/><path class="cls-1" d="M199.41,290.44l.11,5a11.53,11.53,0,0,1,4.1-4.11A10.6,10.6,0,0,1,209,289.9q4.69,0,7,2.65t2.32,7.92v19.16h-3.21V300.45q0-3.92-1.66-5.83t-5.22-1.91a8.16,8.16,0,0,0-5.3,1.87,10.92,10.92,0,0,0-3.41,5.06v20h-3.21V290.44Z" transform="translate(-56.19 -111.84)"/><path class="cls-1" d="M257.94,319.63h-8.09V302.79H234.07v16.84H226V280.35h8.09v15.92h15.78V280.35h8.09Z" transform="translate(-56.19 -111.84)"/><path class="cls-1" d="M281.41,319.63a9,9,0,0,1-.79-2.62,9.42,9.42,0,0,1-7.36,3.15,10.34,10.34,0,0,1-7.11-2.48,8,8,0,0,1-2.81-6.25,8.26,8.26,0,0,1,3.43-7.13q3.45-2.48,9.94-2.5h3.59v-1.68a4.82,4.82,0,0,0-1-3.23,4.07,4.07,0,0,0-3.27-1.22,4.62,4.62,0,0,0-3.09.95,3.19,3.19,0,0,0-1.12,2.59H264a7.81,7.81,0,0,1,1.57-4.7,10.36,10.36,0,0,1,4.42-3.38,16.12,16.12,0,0,1,6.42-1.23c3.6,0,6.45.91,8.56,2.71a9.47,9.47,0,0,1,3.17,7.62v12.65a14.07,14.07,0,0,0,1.16,6.29v.46ZM275,314.2a6.62,6.62,0,0,0,3.18-.77,5.07,5.07,0,0,0,2.16-2.06v-5h-2.91q-5.85,0-6.23,4l0,.46a3.1,3.1,0,0,0,1,2.4A4,4,0,0,0,275,314.2Z" transform="translate(-56.19 -111.84)"/><path class="cls-1" d="M306.25,313.88a5.08,5.08,0,0,0,3.5-1.19,4.16,4.16,0,0,0,1.41-3.15h7.31a10,10,0,0,1-1.62,5.43,10.62,10.62,0,0,1-4.36,3.83,13.6,13.6,0,0,1-6.11,1.36q-6.25,0-9.87-4t-3.61-11v-.52q0-6.74,3.58-10.76t9.85-4a12.26,12.26,0,0,1,8.78,3.12,11,11,0,0,1,3.36,8.29h-7.31a5.37,5.37,0,0,0-1.41-3.7,4.65,4.65,0,0,0-3.56-1.42,4.71,4.71,0,0,0-4.11,2q-1.4,2-1.39,6.44v.81q0,4.51,1.38,6.49A4.75,4.75,0,0,0,306.25,313.88Z" transform="translate(-56.19 -111.84)"/><path class="cls-1" d="M333.52,307.92l-2.81,2.8v8.91h-7.79V278.2h7.79v22.95l1.51-1.94,7.47-8.77h9.36l-10.54,12.17,11.46,17h-9Z" transform="translate(-56.19 -111.84)"/><path class="cls-1" d="M368.23,311.56a2.51,2.51,0,0,0-1.42-2.25,16,16,0,0,0-4.54-1.47q-10.41-2.19-10.41-8.85a8,8,0,0,1,3.22-6.49,13,13,0,0,1,8.43-2.6c3.7,0,6.67.87,8.89,2.62a8.24,8.24,0,0,1,3.33,6.8h-7.8a3.78,3.78,0,0,0-1.08-2.77,4.55,4.55,0,0,0-3.37-1.09,4.64,4.64,0,0,0-3.05.89,2.82,2.82,0,0,0-1.07,2.26,2.38,2.38,0,0,0,1.22,2.09,12.73,12.73,0,0,0,4.14,1.38,33.38,33.38,0,0,1,4.91,1.31q6.18,2.26,6.18,7.85a7.61,7.61,0,0,1-3.43,6.46,14.79,14.79,0,0,1-8.84,2.46,15.49,15.49,0,0,1-6.52-1.3,11,11,0,0,1-4.46-3.59,8.33,8.33,0,0,1-1.62-4.92h7.39a4.08,4.08,0,0,0,1.54,3.18,6.08,6.08,0,0,0,3.83,1.11,5.67,5.67,0,0,0,3.38-.85A2.64,2.64,0,0,0,368.23,311.56Z" transform="translate(-56.19 -111.84)"/></g></svg>