<svg version="1.1" id="Layer_1" xmlns="http://www.w3.org/2000/svg" xmlns:xlink="http://www.w3.org/1999/xlink" x="0px" y="0px"
	 viewBox="0 0 1000 1000" enable-background="new 0 0 1000 1000" xml:space="preserve">
  <path d="M352 980l-2-55c-2-40-3-55-5-56l-10-5a378 378 0 0 1-69-39 1223 1223 0 0 0-97 53c-2 1-4-2-57-69l-55-71 37-42 38-41-7-20a339 339 0 0 1-18-67L0 536l10-89 11-89 2-1a5056 5056 0 0 1 110-3l5-12c8-17 20-39 30-55l9-14-25-45-27-49-2-3 71-55 71-55 42 36 40 37 17-6c25-9 48-16 66-18 3-1 4-1 5-4A7006 7006 0 0 0 465 9l1-3 89 11 89 10v3l3 55 2 53 13 5a412 412 0 0 1 66 39 1363 1363 0 0 0 98-51l111 141-38 42-37 40 5 11a372 372 0 0 1 20 77l53 15 53 16-11 89-11 90h-11a16591 16591 0 0 1-94 3 406 406 0 0 1-36 63l-11 17 27 49 27 49-70 56-71 55-42-38-41-37-17 6c-21 7-32 10-53 15l-17 4-16 52-16 54a7814 7814 0 0 1-178-20z" fill="gray"/>
  <g style="line-height:0%">
    <path d="M331 542l-41-183-55 12-19 124-70-104-54 12 40 183 39-9-29-132 81 121 17-4 22-144 29 132zm207-46L426 328l-48 11-30 199 44-10 5-34 78-17 18 28zm-81-51l-57 13 11-85zm254 12l-99-80 53-102-48 11-46 96-18-82-39 9 40 183 39-9-12-56 10-20 72 61zm148-33l-8-34-91 20-9-42 89-19-8-34-88 19-9-38 90-20-7-35-130 29 41 183z" style="-inkscape-font-specification:'Proxima Nova'" font-weight="700" font-size="281" font-family="Proxima Nova" letter-spacing="0" word-spacing="0" fill="#fff"/>
  </g>
  <g style="line-height:0%">
    <path d="M264 772c55-12 87-61 75-116a94 94 0 0 0-117-73 94 94 0 0 0-74 116c12 55 61 85 116 73zm-7-35c-34 8-62-13-69-47-8-35 8-65 42-73 34-7 61 14 69 48 7 34-9 65-42 72zm294-32l-40-183-40 9 16 71-86 20-16-72-39 8 41 183 39-8-17-77 86-20 17 77zm75-17l-41-183-39 9 41 183zm44-4l22-208-25 5-22 209zm170-40c55-12 86-61 74-116a94 94 0 0 0-116-73 94 94 0 0 0-75 116c12 55 61 85 117 73zm-8-34c-34 7-61-14-69-48s8-65 42-73c34-7 61 14 69 48s-8 65-42 73z" style="-inkscape-font-specification:'Proxima Nova'" font-weight="700" font-size="281" font-family="Proxima Nova" letter-spacing="0" word-spacing="0" fill="#fff"/>
  </g>
</svg>
