<?xml version="1.0" encoding="UTF-8" standalone="no"?>
<!-- Generator: Adobe Illustrator 19.0.0, SVG Export Plug-In . SVG Version: 6.00 Build 0)  -->

<svg
   xmlns:dc="http://purl.org/dc/elements/1.1/"
   xmlns:cc="http://creativecommons.org/ns#"
   xmlns:rdf="http://www.w3.org/1999/02/22-rdf-syntax-ns#"
   xmlns:svg="http://www.w3.org/2000/svg"
   xmlns="http://www.w3.org/2000/svg"
   xmlns:sodipodi="http://sodipodi.sourceforge.net/DTD/sodipodi-0.dtd"
   xmlns:inkscape="http://www.inkscape.org/namespaces/inkscape"
   version="1.1"
   id="Ebene_1"
   x="0px"
   y="0px"
   viewBox="-95 -80.1 1000 1000"
   xml:space="preserve"
   sodipodi:docname="hb_logo-w.svg"
   width="1000"
   height="1000"
   inkscape:version="0.92.2 (5c3e80d, 2017-08-06)"><metadata
     id="metadata8908"><rdf:RDF><cc:Work
         rdf:about=""><dc:format>image/svg+xml</dc:format><dc:type
           rdf:resource="http://purl.org/dc/dcmitype/StillImage" /><dc:title></dc:title></cc:Work></rdf:RDF></metadata><defs
     id="defs8906" /><sodipodi:namedview
     pagecolor="#ffffff"
     bordercolor="#666666"
     borderopacity="1"
     objecttolerance="10"
     gridtolerance="10"
     guidetolerance="10"
     inkscape:pageopacity="0"
     inkscape:pageshadow="2"
     inkscape:window-width="1200"
     inkscape:window-height="1857"
     id="namedview8904"
     showgrid="false"
     fit-margin-top="0"
     fit-margin-left="0"
     fit-margin-right="0"
     fit-margin-bottom="0"
     inkscape:zoom="0.566"
     inkscape:cx="485.39458"
     inkscape:cy="226.7"
     inkscape:window-x="1912"
     inkscape:window-y="32"
     inkscape:window-maximized="1"
     inkscape:current-layer="Ebene_1" /><g
     id="g13657"
     transform="matrix(1.3084964,0,0,1.3084964,40.518335,-424.08019)"><g
       transform="translate(-132.9,273.30002)"
       style="fill:#ffffff"
       id="XMLID_282_"><path
         inkscape:connector-curvature="0"
         style="fill:#ffffff"
         d="m 350.6,250.4 c 4.8,-0.1 9.6,-0.2 14.3,-0.2 l 9.5,-9.5 -32.9,-32.6 -32.2,32.1 9.6,9.8 z"
         id="XMLID_255_" /><path
         inkscape:connector-curvature="0"
         style="fill:#ffffff"
         d="m 518,252.2 3.2,-0.1 c 0.1,-1.5 0.2,-2.9 0.3,-4.4 l -5.4,-5.4 -10.3,10.3 c 4,-0.2 8.1,-0.3 12.2,-0.4 z"
         id="XMLID_254_" /><path
         inkscape:connector-curvature="0"
         style="fill:#ffffff"
         d="m 522.2,236.2 -4,3.9 3.5,3.5 c 0.2,-2.5 0.3,-5 0.5,-7.4 z"
         id="XMLID_253_" /><path
         inkscape:connector-curvature="0"
         style="fill:#ffffff"
         d="m 376.8,170.6 c -0.1,0 -0.2,0 -0.4,0.1 l 0.1,0.1 z"
         id="XMLID_252_" /><path
         inkscape:connector-curvature="0"
         style="fill:#ffffff"
         d="m 579.9,241.5 c 6.1,8 11.7,16.5 16.6,25.3 l 10.3,-0.6 c -7.7,-13.9 -16.8,-26.9 -27.2,-38.8 0,1.6 0.1,3.2 0.1,4.8 z"
         id="XMLID_251_" /><path
         inkscape:connector-curvature="0"
         style="fill:#ffffff"
         d="m 416.1,160.6 c 39.8,0 77.1,11.4 108.7,31 0.1,-1.7 0.2,-3.5 0.3,-5.2 0.1,-1.1 0.1,-2.2 0.2,-3.3 -31.8,-18.4 -68.7,-28.9 -108.1,-28.9 -89.9,0 -167,54.9 -199.6,133 l 8.5,-0.5 c 31.3,-74 104.7,-126.1 190,-126.1 z"
         id="XMLID_250_" /><path
         inkscape:connector-curvature="0"
         style="fill:#ffffff"
         d="m 374.2,171.1 c -17,3.6 -33.3,9.5 -48.4,17.2 l 15.7,15.5 z"
         id="XMLID_249_" /><path
         inkscape:connector-curvature="0"
         style="fill:#ffffff"
         d="m 322.4,273.8 v 0 c -0.1,0 -0.2,0 -0.3,0 -1.3,0 -2.7,0.2 -4.3,0.7 -0.3,0.1 -0.6,0.2 -1,0.3 -1.1,0.4 -2.2,0.8 -3.1,1.4 -0.2,0.1 -0.4,0.2 -0.6,0.3 -1.8,1.2 -3.2,3 -4.4,5.7 l 26.5,-1.4 c -4.1,-5.7 -9.2,-7 -12.8,-7 z"
         id="XMLID_248_" /><path
         inkscape:connector-curvature="0"
         style="fill:#ffffff"
         d="m 391.6,250.6 c 4.4,0.2 8.8,0.3 13.2,0.5 8.5,0.3 17.1,0.6 25.8,0.9 l 12.5,-12.5 -31.5,-31.5 -32.7,32.7 9.9,9.8 c 0.9,0 1.8,0.1 2.8,0.1 z"
         id="XMLID_247_" /><polygon
         style="fill:#ffffff"
         points="446.6,173 413.7,205.9 445.2,237.4 478.2,204.5 "
         id="XMLID_246_" /><path
         inkscape:connector-curvature="0"
         style="fill:#ffffff"
         d="m 461,253.1 c 3.2,0 6.6,0.1 10,0.1 10,0 20.2,-0.2 30.3,-0.5 l 12.6,-12.6 -33.5,-33.5 -32.9,32.9 z"
         id="XMLID_245_" /><path
         inkscape:connector-curvature="0"
         style="fill:#ffffff"
         d="m 445.5,169.8 1.1,1.1 1.1,-1.1 32.6,32.5 17.6,-17.6 2.2,2.2 -17.6,17.6 33.5,33.4 6.4,-6.4 c 0.1,-2.5 0.3,-5 0.4,-7.4 0.5,-8.4 1,-17 1.5,-25.6 -31.2,-20.2 -68.4,-31.9 -108.3,-31.9 -13,0 -25.7,1.2 -38.1,3.6 l 33.4,33.4 z"
         id="XMLID_244_" /><path
         inkscape:connector-curvature="0"
         style="fill:#ffffff"
         d="m 579.2,267.8 10.5,-0.6 c -3,-5.3 -6.3,-10.4 -9.8,-15.4 l -0.2,10.8 c 0.1,1.8 -0.1,3.6 -0.5,5.2 z"
         id="XMLID_243_" /><path
         inkscape:connector-curvature="0"
         style="fill:#ffffff"
         d="m 274.2,283.3 c -4.2,-6.8 -9.7,-8.3 -13.5,-8.3 -2.3,0 -4.6,0.5 -6.8,1.4 -0.8,0.3 -1.6,0.5 -2.4,0.5 -1.3,0 -2.6,-0.4 -3.6,-1.2 -1.7,-1.3 -2.7,-3.4 -2.4,-5.6 0.2,-1.4 0.6,-3.1 1.3,-5.3 0,-0.1 0.1,-0.3 0.1,-0.4 -0.1,-1.4 0.2,-2.9 1,-4.1 v 0 c 1,-1.4 2.8,-4.2 3.6,-5.5 0.5,-0.8 1.1,-1.4 1.9,-1.9 l 3.8,-2.5 c 1,-0.6 2.1,-1 3.3,-1 0,0 0,0 0.1,0 l 34.8,0.4 9.6,-9.5 -22,-22.6 c -21.2,19 -38.4,42.4 -50,68.7 l 41.8,-2.2 c -0.3,-0.4 -0.4,-0.6 -0.6,-0.9 z"
         id="XMLID_242_" /><polygon
         style="fill:#ffffff"
         points="299.7,249.9 314.5,250 307.1,242.4 "
         id="XMLID_241_" /><path
         inkscape:connector-curvature="0"
         style="fill:#ffffff"
         d="m 376.6,242.8 -7.4,7.4 c 5.1,0 10.1,0.1 15,0.2 z"
         id="XMLID_240_" /><path
         inkscape:connector-curvature="0"
         style="fill:#ffffff"
         d="m 385.7,576.5 4.9,-4.9 c -3.9,-0.5 -7.8,-1.1 -11.6,-1.8 z"
         id="XMLID_238_" /><polygon
         style="fill:#ffffff"
         points="376.6,173.1 343.7,205.9 376.6,238.5 409.4,205.9 "
         id="XMLID_237_" /><path
         inkscape:connector-curvature="0"
         style="fill:#ffffff"
         d="m 456.6,253 -11.4,-11.3 -10.5,10.5 c 3.1,0.1 6.2,0.3 9.4,0.4 4,0.2 8.2,0.3 12.5,0.4 z"
         id="XMLID_236_" /><path
         inkscape:connector-curvature="0"
         style="fill:#ffffff"
         d="m 455.8,576.3 9,-9 c -4.9,1.2 -9.9,2.2 -15,3 z"
         id="XMLID_235_" /><path
         inkscape:connector-curvature="0"
         style="fill:#ffffff"
         d="m 290.7,221.1 16.5,17 32.1,-32.1 -16.3,-16.2 0.2,-0.2 c -13.7,7.2 -26.4,15.9 -38,26 z"
         id="XMLID_234_" /><path
         inkscape:connector-curvature="0"
         style="fill:#ffffff"
         d="m 252.3,502.5 0.2,-10.2 c -1.3,-1.7 -2.6,-3.4 -3.9,-5.2 l -12.9,0.7 c 5.1,7.9 10.7,15.4 16.8,22.6 l -0.2,-7 z"
         id="XMLID_233_" /><path
         inkscape:connector-curvature="0"
         style="fill:#ffffff"
         d="m 384,272.5 c -3.2,0 -6.4,1 -9.2,2.7 -1.3,0.8 -2.5,2.1 -3.5,3.7 l 23.8,-1.3 c -3.7,-4.1 -7.9,-5.1 -11.1,-5.1 z"
         id="XMLID_232_" /><rect
         style="fill:#ffffff"
         height="0.1"
         width="23.700001"
         transform="matrix(-0.6976,-0.7165,0.7165,-0.6976,343.0401,603.951)"
         y="229.5"
         x="287.10001"
         id="XMLID_231_" /><polygon
         style="fill:#ffffff"
         points="309.3,240.2 309.3,240.3 318.8,250.1 318.9,250.1 "
         id="XMLID_230_" /><path
         inkscape:connector-curvature="0"
         style="fill:#ffffff"
         d="m 718.8,387.4 66.2,-66.7 -66.1,-4.9 -25.7,144.1 c 0.3,1.7 -0.2,3.5 -1.4,4.9 l -28.8,33.3 72,5.3 z"
         id="XMLID_229_" /><polygon
         style="fill:#ffffff"
         points="655.8,487.8 676.3,464.2 658.9,465.1 "
         id="XMLID_228_" /><path
         inkscape:connector-curvature="0"
         style="fill:#ffffff"
         d="m 108.3,494.6 h -0.8 l 25.9,-145.2 -70.9,4.5 31.9,112.8 -56.5,75.1 98.1,-6.2 -26.6,-37.8 c -0.7,-1 -1,-2.1 -1.1,-3.2 z"
         id="XMLID_227_" /><polygon
         style="fill:#ffffff"
         points="143.2,492.7 121.6,493.9 143.2,524.5 "
         id="XMLID_226_" /><path
         inkscape:connector-curvature="0"
         style="fill:#ffffff"
         d="m 531.5,158 c 0.7,-4.5 1.4,-9 1.9,-13.5 1.9,-14.6 3.8,-29.1 5.5,-40.8 0.4,-2.3 1.8,-3.7 3.6,-3.7 0.6,0 2.7,0.2 3.4,3.1 l 4.9,29.9 3.5,-22 c 0.2,-1.5 1.5,-2.5 2.9,-2.6 0,0 0,0 0.1,0 1.4,0 2.7,1 3,2.4 1.3,6.3 2.6,12.6 3.9,18.9 l 9.7,47.5 c 0.9,4.2 1.6,11.2 1.7,15.5 0.2,10.5 0.5,21 0.7,31.4 1.1,1.1 2.1,2.3 3.1,3.5 -0.3,-11.6 -0.5,-23.3 -0.8,-35 -0.1,-4.6 -0.9,-11.6 -1.8,-16.1 -1.8,-8.6 -3.5,-17.2 -5.2,-25.8 L 567.2,129 c -1.2,-6 -2.5,-12.1 -3.7,-18.1 l -0.2,-0.8 c -0.6,-2.8 -3.1,-4.9 -6,-4.9 h -0.1 c -2.9,0.1 -5.4,2.2 -5.9,5.1 l -0.5,3.4 -1.8,-11 c 0,-0.2 -0.1,-0.3 -0.1,-0.5 -1,-4 -4,-5.4 -6.4,-5.4 v 0 0 c -3.3,0 -6,2.5 -6.6,6.2 -1.7,12 -3.7,26.5 -5.5,41 -0.6,4.5 -1.3,9 -1.9,13.4 -1.3,8.3 -2.5,16.9 -3.2,25.6 1,0.6 2,1.1 2.9,1.7 0.7,-9 2,-18 3.3,-26.7 z"
         id="XMLID_225_" /><path
         inkscape:connector-curvature="0"
         style="fill:#ffffff"
         d="m 459.7,256.1 -3.1,-3.1 c -4.3,-0.1 -8.5,-0.2 -12.5,-0.4 -3.1,-0.1 -6.2,-0.3 -9.4,-0.4 l -2.9,2.9 c 4.1,0.2 8.1,0.3 12.1,0.5 5.1,0.3 10.3,0.4 15.8,0.5 z"
         id="XMLID_224_" /><path
         inkscape:connector-curvature="0"
         style="fill:#ffffff"
         d="m 522.4,231.6 3.3,-3.2 c 0.1,-1.3 0.2,-2.7 0.2,-4 0.5,-7.9 1,-15.9 1.4,-23.8 -1,-0.7 -2,-1.3 -2.9,-1.9 -0.5,8.6 -1,17.2 -1.5,25.6 -0.2,2.3 -0.3,4.8 -0.5,7.3 z"
         id="XMLID_223_" /><path
         inkscape:connector-curvature="0"
         style="fill:#ffffff"
         d="m 367.6,253.2 c 6.8,0 13.5,0.1 19.9,0.3 l -3.2,-3.1 c -4.9,-0.1 -9.9,-0.2 -15,-0.2 l -3.1,3 c 0.5,0.1 0.9,0 1.4,0 z"
         id="XMLID_222_" /><path
         inkscape:connector-curvature="0"
         style="fill:#ffffff"
         d="m 576.1,268 3.2,-0.2 c 0.3,-1.6 0.5,-3.3 0.5,-5.1 l 0.2,-10.8 c -1,-1.4 -2,-2.8 -3,-4.1 l -0.2,15 c -0.1,1.8 -0.3,3.5 -0.7,5.2 z"
         id="XMLID_221_" /><path
         inkscape:connector-curvature="0"
         style="fill:#ffffff"
         d="m 576.6,233.1 0.1,4.5 c 1.1,1.3 2.1,2.6 3.1,4 l -0.2,-9.2 c 0,-1.6 -0.1,-3.2 -0.1,-4.8 -1,-1.2 -2.1,-2.3 -3.1,-3.5 0.1,3 0.2,6 0.2,9 z"
         id="XMLID_220_" /><path
         inkscape:connector-curvature="0"
         style="fill:#ffffff"
         d="m 524.8,191.6 c 1,0.6 2,1.2 2.9,1.9 0.1,-2.3 0.3,-4.6 0.4,-6.9 0,-0.6 0.1,-1.2 0.1,-1.8 -1,-0.6 -2,-1.2 -2.9,-1.7 -0.1,1.1 -0.2,2.2 -0.2,3.3 -0.1,1.7 -0.2,3.5 -0.3,5.2 z"
         id="XMLID_219_" /><path
         inkscape:connector-curvature="0"
         style="fill:#ffffff"
         d="m 278.1,283.6 c -0.5,-0.6 -0.9,-1.2 -1.2,-1.7 -5,-8.1 -11.5,-9.8 -16.2,-9.8 -2.7,0 -5.5,0.6 -8,1.7 -0.4,0.2 -0.8,0.2 -1.2,0.2 -0.6,0 -1.3,-0.2 -1.8,-0.6 -0.9,-0.7 -1.3,-1.7 -1.2,-2.8 0.1,-1.2 0.7,-3.1 1.2,-4.8 0.1,-0.4 0.2,-0.7 0.3,-1.1 -0.2,-0.9 -0.1,-1.8 0.4,-2.6 v 0 c 0.3,-0.5 2.7,-3.9 3.7,-5.7 0.2,-0.4 0.6,-0.7 0.9,-1 l 3.8,-2.5 c 0.5,-0.3 1.1,-0.5 1.7,-0.5 0,0 14.5,0.2 31.8,0.3 l 3,-3 -34.8,-0.4 c 0,0 0,0 -0.1,0 -1.2,0 -2.3,0.3 -3.3,1 l -3.8,2.5 c -0.8,0.5 -1.4,1.2 -1.9,1.9 -0.8,1.4 -2.7,4.1 -3.6,5.5 v 0 c -0.8,1.2 -1.2,2.7 -1,4.1 0,0.1 -0.1,0.3 -0.1,0.4 -0.7,2.2 -1.1,3.9 -1.3,5.3 -0.3,2.2 0.7,4.3 2.4,5.6 1.1,0.8 2.4,1.2 3.6,1.2 0.8,0 1.6,-0.2 2.4,-0.5 2.2,-0.9 4.6,-1.4 6.8,-1.4 3.8,0 9.3,1.4 13.5,8.3 0.2,0.2 0.3,0.5 0.5,0.8 l 3.6,-0.2 z"
         id="XMLID_218_" /><path
         inkscape:connector-curvature="0"
         style="fill:#ffffff"
         d="m 448.7,272.3 c -3.5,0.3 -6.3,1.3 -8.5,3 l 23.7,-1.3 c -3.1,-1.3 -6.7,-1.9 -10.8,-1.9 -1.3,-0.1 -2.8,0 -4.4,0.2 z"
         id="XMLID_217_" /><path
         inkscape:connector-curvature="0"
         style="fill:#ffffff"
         d="m 338.6,280.6 c -4.9,-8.1 -11.5,-9.8 -16.2,-9.8 0,0 -0.3,0 -0.4,0 -1.5,0 -3.2,0.3 -5.1,0.8 -0.3,0.1 -0.7,0.2 -1.1,0.3 -1.3,0.4 -2.6,1 -3.7,1.7 -0.2,0.1 -0.3,0.2 -0.5,0.3 -2.6,1.6 -4.5,4.2 -6.1,7.9 -0.1,0.2 -0.2,0.5 -0.3,0.7 l 3.4,-0.2 c 1.2,-2.6 2.7,-4.5 4.4,-5.7 0.2,-0.1 0.4,-0.2 0.6,-0.3 1,-0.6 2,-1 3.1,-1.4 0.4,-0.1 0.7,-0.2 1,-0.3 1.6,-0.4 3,-0.7 4.3,-0.7 0.1,0 0.2,0 0.3,0 v 0 c 3.6,0 8.7,1.3 12.7,7 l 3.5,-0.2 c 0.1,-0.1 0.1,-0.1 0.1,-0.1 z"
         id="XMLID_216_" /><path
         inkscape:connector-curvature="0"
         style="fill:#ffffff"
         d="m 524.6,246.5 c 0.3,-4.5 0.5,-9.1 0.8,-13.6 l -3.3,3.2 c -0.1,2.5 -0.3,5 -0.4,7.5 z"
         id="XMLID_215_" /><path
         inkscape:connector-curvature="0"
         style="fill:#ffffff"
         d="m 521.2,252.1 -3.2,0.1 c -4,0.1 -8.1,0.3 -12.2,0.4 l -3.1,3.1 c 5.2,-0.1 10.3,-0.3 15.4,-0.5 l 6.1,-0.2 c 0.1,-1.5 0.2,-3 0.3,-4.4 l -2.9,-2.9 c -0.2,1.4 -0.3,2.9 -0.4,4.4 z"
         id="XMLID_214_" /><path
         inkscape:connector-curvature="0"
         style="fill:#ffffff"
         d="m 350.7,253.4 c 3.6,-0.1 7.4,-0.1 11.2,-0.2 l 3.1,-3.1 c -4.8,0 -9.6,0.1 -14.3,0.2 L 319,250 l 3,3.1 c 15.9,0.2 28.7,0.3 28.7,0.3 z"
         id="XMLID_213_" /><path
         inkscape:connector-curvature="0"
         style="fill:#ffffff"
         d="m 471,253.2 c -3.5,0 -6.8,0 -10,-0.1 l 3.1,3.1 c 2.3,0 4.6,0 6.9,0 9,0 18.1,-0.2 27.1,-0.4 l 3.1,-3.1 c -10,0.2 -20.1,0.5 -30.2,0.5 z"
         id="XMLID_212_" /><path
         inkscape:connector-curvature="0"
         style="fill:#ffffff"
         d="m 384,269.5 c -3.7,0 -7.6,1.1 -10.8,3.2 -2.2,1.4 -4,3.5 -5.4,6.5 l 3.6,-0.2 c 1,-1.6 2.2,-2.9 3.5,-3.7 2.7,-1.7 6,-2.7 9.2,-2.7 3.2,0 7.4,1 11.2,5.1 l 3.8,-0.2 c -5,-6.6 -10.8,-8 -15.1,-8 z"
         id="XMLID_211_" /><path
         inkscape:connector-curvature="0"
         style="fill:#ffffff"
         d="m 404.8,254.1 c 7.5,0.3 15.2,0.5 22.9,0.8 l 2.9,-2.9 c -8.7,-0.3 -17.3,-0.6 -25.8,-0.9 -4.4,-0.1 -8.8,-0.3 -13.2,-0.5 -1,0 -1.9,-0.1 -2.9,-0.1 l 3.2,3.2 z"
         id="XMLID_210_" /><path
         inkscape:connector-curvature="0"
         style="fill:#ffffff"
         d="m 314.5,250 -14.8,-0.2 -3,3 c 6.9,0.1 14,0.1 20.8,0.2 z"
         id="XMLID_209_" /><path
         inkscape:connector-curvature="0"
         style="fill:#ffffff"
         d="m 321.9,253.1 -3,-3.1 h -0.2 l 3,3.1 c 0.1,0 0.2,0 0.2,0 z"
         id="XMLID_208_" /><path
         inkscape:connector-curvature="0"
         style="fill:#ffffff"
         d="m 314.6,250 h -0.2 l 3,3.1 c 0.1,0 0.1,0 0.2,0 z"
         id="XMLID_207_" /><path
         inkscape:connector-curvature="0"
         style="fill:#ffffff"
         d="m 321.8,253.1 -3,-3.1 h -4.1 l 3,3.1 c 1.3,0 2.7,0 4.1,0 z"
         id="XMLID_206_" /><path
         inkscape:connector-curvature="0"
         style="fill:#ffffff"
         d="m 391.5,253.6 h 0.4 l -3.2,-3.2 c -1.5,0 -3,-0.1 -4.5,-0.1 l 3.2,3.1 c 1.4,0.2 2.8,0.2 4.1,0.2 z"
         id="XMLID_205_" /><path
         inkscape:connector-curvature="0"
         style="fill:#ffffff"
         d="m 459.7,256.1 c 1.4,0 2.9,0 4.4,0.1 l -3.1,-3.1 c -1.5,0 -3,-0.1 -4.4,-0.1 z"
         id="XMLID_204_" /><path
         inkscape:connector-curvature="0"
         style="fill:#ffffff"
         d="m 521.5,247.7 2.9,2.9 c 0.1,-1.4 0.2,-2.7 0.2,-4.1 l -2.9,-2.9 c -0.1,1.4 -0.1,2.7 -0.2,4.1 z"
         id="XMLID_203_" /><path
         inkscape:connector-curvature="0"
         style="fill:#ffffff"
         d="m 366.2,253.3 3.1,-3 c -0.6,0 -1.1,0 -1.7,0 -0.9,0 -1.8,0 -2.6,0 l -3.1,3.1 c 1.4,-0.1 2.9,-0.1 4.3,-0.1 z"
         id="XMLID_202_" /><path
         inkscape:connector-curvature="0"
         style="fill:#ffffff"
         d="m 296.6,252.9 3,-3 h -4.3 l -3,3 c 1.5,-0.1 2.9,0 4.3,0 z"
         id="XMLID_201_" /><path
         inkscape:connector-curvature="0"
         style="fill:#ffffff"
         d="m 431.8,255.1 2.9,-2.9 c -1.4,-0.1 -2.8,-0.1 -4.2,-0.2 l -2.9,2.9 c 1.4,0.1 2.8,0.1 4.2,0.2 z"
         id="XMLID_200_" /><path
         inkscape:connector-curvature="0"
         style="fill:#ffffff"
         d="m 525.4,232.9 c 0.1,-1.5 0.2,-3.1 0.3,-4.6 l -3.3,3.2 c -0.1,1.5 -0.2,3.1 -0.3,4.6 z"
         id="XMLID_199_" /><path
         inkscape:connector-curvature="0"
         style="fill:#ffffff"
         d="m 501.3,252.7 -3.1,3.1 c 1.5,0 3,-0.1 4.4,-0.1 l 3.1,-3.1 c -1.4,0 -2.9,0 -4.4,0.1 z"
         id="XMLID_198_" /><path
         inkscape:connector-curvature="0"
         style="fill:#ffffff"
         d="m 536.5,144.8 c 1.7,-12.9 3.6,-27.8 5.5,-40.8 0.1,-0.5 0.3,-1.1 0.6,-1.1 0.2,0 0.3,0.2 0.5,0.8 2.5,15.6 5.1,31 7.6,46.5 0.3,0 0.2,0 0.6,0 2.1,-12.9 4.1,-25.9 6.2,-38.8 1.3,6.3 2.6,12.6 3.9,18.8 3.2,15.8 6.4,31.7 9.7,47.5 0.8,4.1 1.6,10.8 1.7,15 0.2,9.3 0.4,18.7 0.6,28 1.1,1.1 2.1,2.2 3.1,3.3 -0.2,-10.5 -0.5,-21 -0.7,-31.4 -0.1,-4.3 -0.9,-11.3 -1.7,-15.5 l -9.7,-47.5 c -1.3,-6.3 -2.6,-12.6 -3.9,-18.9 -0.3,-1.4 -1.5,-2.4 -3,-2.4 0,0 0,0 -0.1,0 -1.5,0 -2.7,1.1 -2.9,2.6 l -3.5,22 -4.9,-29.9 c -0.7,-2.9 -2.8,-3.1 -3.4,-3.1 -1.8,0 -3.2,1.4 -3.6,3.7 -1.7,11.7 -3.6,26.2 -5.5,40.8 -0.6,4.5 -1.3,9 -1.9,13.5 -1.3,8.7 -2.7,17.8 -3.3,26.8 1,0.6 2,1.2 2.9,1.8 0.7,-14 3.4,-27.8 5.2,-41.7 z"
         id="XMLID_197_" /><path
         inkscape:connector-curvature="0"
         style="fill:#ffffff"
         d="m 252.9,263.8 v 0 0 c 0,0 0,0.1 0,0 0,0.1 0,0.1 0,0 z"
         id="XMLID_196_" /><path
         inkscape:connector-curvature="0"
         style="fill:#ffffff"
         d="m 341.1,278.9 c -5,-8.1 -12,-11.2 -18.7,-11.2 -0.1,0 -0.3,0 -0.4,0 v 0 c -2,0 -4,0.4 -5.9,0.9 -0.4,0.1 -0.8,0.3 -1.2,0.4 -1.5,0.5 -2.9,1.2 -4.3,1.9 -0.2,0.1 -0.4,0.2 -0.6,0.3 -3.4,2.1 -5.6,5.4 -7.3,9.2 -0.1,0.4 -0.3,0.6 -0.5,0.8 v 0.1 l -0.5,1.2 3.5,-0.2 c 0.1,-0.2 0.3,-0.5 0.3,-0.7 1.6,-3.7 3.6,-6.3 6.1,-7.9 0.2,-0.1 0.4,-0.2 0.5,-0.3 1.2,-0.7 2.4,-1.2 3.7,-1.7 0.4,-0.1 0.7,-0.2 1.1,-0.3 1.9,-0.5 3.6,-0.8 5.1,-0.8 0.1,0 0.4,0 0.4,0 4.6,0 11.2,1.7 16.2,9.8 0,0 0,0.1 0.1,0.1 l 3.6,-0.2 c -0.5,-0.3 -0.8,-0.8 -1.2,-1.4 z"
         id="XMLID_195_" /><path
         inkscape:connector-curvature="0"
         style="fill:#ffffff"
         d="m 464.1,256.2 3.1,3.1 c 1.3,0 2.6,0 3.8,0 8,0 16,-0.1 24,-0.3 l 3.1,-3.1 c -9,0.2 -18.1,0.4 -27.1,0.4 -2.4,-0.1 -4.7,-0.1 -6.9,-0.1 z"
         id="XMLID_194_" /><path
         inkscape:connector-curvature="0"
         style="fill:#ffffff"
         d="m 350.7,253.4 c 0,0 -12.8,-0.1 -28.8,-0.3 l 3,3.1 25.7,0.3 c 2.7,-0.1 5.4,-0.1 8.1,-0.1 l 3.1,-3.1 c -3.8,0 -7.5,0.1 -11.1,0.1 z"
         id="XMLID_193_" /><path
         inkscape:connector-curvature="0"
         style="fill:#ffffff"
         d="m 384,266.4 c -4.5,0 -8.9,1.4 -12.4,3.6 -3.4,2.1 -5.6,5.4 -7.2,9.2 l 3.4,-0.2 c 1.5,-3 3.2,-5.1 5.4,-6.5 3.2,-2 7.1,-3.2 10.8,-3.2 4.2,0 10.1,1.4 14.9,7.9 l 3.6,-0.2 c -4.9,-7.6 -11.9,-10.6 -18.5,-10.6 z"
         id="XMLID_192_" /><path
         inkscape:connector-curvature="0"
         style="fill:#ffffff"
         d="m 573.6,233.7 c 1.1,1.3 2.1,2.5 3.1,3.8 l -0.1,-4.5 c -0.1,-3 -0.1,-6 -0.2,-9 -1,-1.1 -2.1,-2.2 -3.1,-3.3 0.1,4.4 0.2,8.7 0.3,13 z"
         id="XMLID_191_" /><path
         inkscape:connector-curvature="0"
         style="fill:#ffffff"
         d="m 404.8,254.1 -12.9,-0.4 3.2,3.2 c 9.9,0.3 19.7,0.7 29.6,1 l 3,-2.9 c -7.8,-0.4 -15.4,-0.6 -22.9,-0.9 z"
         id="XMLID_190_" /><path
         inkscape:connector-curvature="0"
         style="fill:#ffffff"
         d="m 443.9,255.6 c -4,-0.2 -8.1,-0.4 -12.1,-0.5 l -2.9,2.9 c 5,0.2 10,0.4 14.9,0.6 6.3,0.3 12.7,0.5 19,0.5 l -3.1,-3.1 c -5.5,0 -10.7,-0.1 -15.8,-0.4 z"
         id="XMLID_189_" /><path
         inkscape:connector-curvature="0"
         style="fill:#ffffff"
         d="m 524.1,255 -6.1,0.2 c -5.1,0.2 -10.3,0.3 -15.4,0.5 l -3.1,3.1 c 8.4,-0.2 16.7,-0.5 25.1,-0.8 1.7,-0.1 2.5,-0.5 2.6,-2.6 0,-0.7 0.1,-1.3 0.1,-2 l -2.9,-2.9 c -0.1,1.5 -0.2,3 -0.3,4.5 z"
         id="XMLID_188_" /><path
         inkscape:connector-curvature="0"
         style="fill:#ffffff"
         d="m 524.6,246.5 2.9,2.9 c 0.4,-6.6 0.8,-13.1 1.2,-19.7 l -3.3,3.2 c -0.3,4.5 -0.5,9.1 -0.8,13.6 z"
         id="XMLID_187_" /><path
         inkscape:connector-curvature="0"
         style="fill:#ffffff"
         d="m 573.9,246.9 -0.2,15.9 c 0,1.9 -0.2,3.7 -0.8,5.4 l 3.2,-0.2 c 0.4,-1.7 0.6,-3.4 0.6,-5.2 l 0.2,-15 c -1,-1.4 -2,-2.7 -3.1,-4.1 0,0.8 0,1.6 0.1,2.4 z"
         id="XMLID_186_" /><path
         inkscape:connector-curvature="0"
         style="fill:#ffffff"
         d="m 320.5,256.2 -3,-3.1 c -6.8,-0.1 -13.9,-0.1 -20.8,-0.2 l -3,3 z"
         id="XMLID_185_" /><path
         inkscape:connector-curvature="0"
         style="fill:#ffffff"
         d="m 525.7,228.3 3.3,-3.2 c 0.5,-7.5 0.9,-15 1.3,-22.6 -1,-0.7 -2,-1.3 -2.9,-2 -0.5,7.9 -0.9,15.9 -1.4,23.8 -0.2,1.3 -0.2,2.7 -0.3,4 z"
         id="XMLID_184_" /><path
         inkscape:connector-curvature="0"
         style="fill:#ffffff"
         d="m 367.6,253.2 c -0.5,0 -0.9,0 -1.4,0 l -3.1,3.1 c 1.5,0 2.9,0 4.4,0 7.6,0 15.4,0.1 23,0.4 l -3.2,-3.2 c -6.3,-0.2 -12.9,-0.3 -19.7,-0.3 z"
         id="XMLID_183_" /><path
         inkscape:connector-curvature="0"
         style="fill:#ffffff"
         d="m 453.1,269 c -1.5,0 -3.1,0.1 -4.7,0.2 -5.1,0.5 -9.5,2.3 -12.9,6.3 l 4.7,-0.2 c 2.3,-1.7 5.1,-2.7 8.5,-3 1.6,-0.1 3,-0.2 4.4,-0.2 4.1,0 7.7,0.6 10.8,1.9 l 5.7,-0.3 c -5,-3.5 -10.6,-4.7 -16.5,-4.7 z"
         id="XMLID_182_" /><path
         inkscape:connector-curvature="0"
         style="fill:#ffffff"
         d="m 280.5,281.7 c -0.4,-0.5 -0.7,-1 -1.1,-1.6 -5,-8.1 -12,-11.2 -18.7,-11.2 -3.2,0 -6.4,0.7 -9.3,1.9 0.2,-2 2.2,-7.5 1.8,-7.5 -0.1,0 -0.2,0.1 -0.3,0.4 v 0 0 0 c 0,0 0,0 0,-0.1 0.3,-0.5 2.7,-4 3.8,-5.8 l 3.8,-2.5 28.8,0.3 3,-3 c -17.3,-0.2 -31.8,-0.3 -31.8,-0.3 -0.6,0 -1.2,0.2 -1.7,0.5 l -3.8,2.5 c -0.4,0.3 -0.7,0.6 -0.9,1 -1.1,1.7 -3.4,5.2 -3.7,5.7 v 0 c -0.5,0.7 -0.7,1.7 -0.4,2.6 -0.1,0.3 -0.2,0.7 -0.3,1.1 -0.5,1.8 -1.1,3.6 -1.2,4.8 -0.1,1.1 0.3,2.2 1.2,2.8 0.5,0.4 1.2,0.6 1.8,0.6 0.4,0 0.8,-0.1 1.2,-0.2 2.6,-1.1 5.4,-1.7 8,-1.7 4.6,0 11.2,1.7 16.2,9.8 0.3,0.5 0.7,1.2 1.2,1.7 l 0.2,0.3 3.5,-0.2 z"
         id="XMLID_181_" /><path
         inkscape:connector-curvature="0"
         style="fill:#ffffff"
         d="m 531.2,186.8 c 0,-0.1 0,-0.1 0,-0.2 -1,-0.6 -2,-1.2 -2.9,-1.8 0,0.6 -0.1,1.2 -0.1,1.8 -0.1,2.3 -0.3,4.6 -0.4,6.9 1,0.6 2,1.3 2.9,1.9 0.2,-2.9 0.3,-5.8 0.5,-8.6 z"
         id="XMLID_180_" /><path
         inkscape:connector-curvature="0"
         style="fill:#ffffff"
         d="m 321.8,253.1 3,3.1 h 0.2 l -3,-3.1 c -0.1,0 -0.2,0 -0.2,0 z"
         id="XMLID_179_" /><path
         inkscape:connector-curvature="0"
         style="fill:#ffffff"
         d="m 317.6,253.1 c -0.1,0 -0.1,0 -0.2,0 l 3,3.1 h 0.2 z"
         id="XMLID_178_" /><path
         inkscape:connector-curvature="0"
         style="fill:#ffffff"
         d="m 321.8,253.1 c -1.4,0 -2.7,0 -4.1,0 l 3,3.1 h 4.1 z"
         id="XMLID_177_" /><path
         inkscape:connector-curvature="0"
         style="fill:#ffffff"
         d="m 391.5,253.6 c -1.3,0 -2.7,-0.1 -4.1,-0.1 l 3.2,3.2 c 0.3,0 0.5,0 0.8,0 1.2,0 2.5,0.1 3.7,0.1 l -3.2,-3.2 z"
         id="XMLID_176_" /><path
         inkscape:connector-curvature="0"
         style="fill:#ffffff"
         d="m 462.8,259.2 c 1.5,0 2.9,0 4.4,0 l -3.1,-3.1 c -1.5,0 -2.9,0 -4.4,-0.1 z"
         id="XMLID_175_" /><path
         inkscape:connector-curvature="0"
         style="fill:#ffffff"
         d="m 524.4,250.6 2.9,2.9 c 0.1,-1.4 0.2,-2.7 0.2,-4.1 l -2.9,-2.9 c -0.1,1.4 -0.2,2.7 -0.2,4.1 z"
         id="XMLID_174_" /><path
         inkscape:connector-curvature="0"
         style="fill:#ffffff"
         d="m 361.9,253.3 -3.1,3.1 c 1.4,0 2.9,0 4.4,0 l 3.1,-3.1 c -1.5,0 -3,0 -4.4,0 z"
         id="XMLID_173_" /><path
         inkscape:connector-curvature="0"
         style="fill:#ffffff"
         d="m 293.6,255.9 3,-3 c -1.4,0 -2.9,0 -4.3,0 l -3,3 z"
         id="XMLID_172_" /><path
         inkscape:connector-curvature="0"
         style="fill:#ffffff"
         d="m 427.6,254.9 -3,2.9 c 1.4,0.1 2.8,0.1 4.2,0.2 l 2.9,-2.9 c -1.3,-0.1 -2.7,-0.1 -4.1,-0.2 z"
         id="XMLID_171_" /><path
         inkscape:connector-curvature="0"
         style="fill:#ffffff"
         d="m 528.7,229.7 c 0.1,-1.5 0.2,-3.1 0.3,-4.6 l -3.3,3.2 c -0.1,1.5 -0.2,3.1 -0.3,4.6 z"
         id="XMLID_170_" /><path
         inkscape:connector-curvature="0"
         style="fill:#ffffff"
         d="m 498.1,255.8 -3.1,3.1 c 1.5,0 3,-0.1 4.4,-0.1 l 3.1,-3.1 c -1.4,0 -2.9,0.1 -4.4,0.1 z"
         id="XMLID_169_" /><path
         inkscape:connector-curvature="0"
         style="fill:#ffffff"
         d="m 548.8,533.4 -4.7,-4.9 c -0.4,0.3 -0.8,0.6 -1.2,0.9 l 4.8,5 2.2,-2.1 -4.6,-4.8 c -0.4,0.3 -0.8,0.6 -1.2,1 z"
         id="XMLID_168_" /><polygon
         style="fill:#ffffff"
         points="525.1,507.1 525.2,507 517.9,499.5 517.7,499.5 "
         id="XMLID_167_" /><path
         inkscape:connector-curvature="0"
         style="fill:#ffffff"
         d="m 527.3,509.3 13.6,14 c 0,0 0.1,0 0.1,-0.1 z"
         id="XMLID_166_" /><path
         inkscape:connector-curvature="0"
         style="fill:#ffffff"
         d="m 508.2,560.8 -6.3,-6.3 c -0.5,0.2 -1,0.5 -1.5,0.7 l 6.8,6.7 2.1,-2.2 -5.9,-5.9 c -0.5,0.2 -1,0.5 -1.5,0.7 z"
         id="XMLID_165_" /><path
         inkscape:connector-curvature="0"
         style="fill:#ffffff"
         d="m 445.8,499 8.8,8.7 1.1,-1.1 -7.6,-7.5 c -0.8,0 -1.5,-0.1 -2.3,-0.1 z"
         id="XMLID_164_" /><polygon
         style="fill:#ffffff"
         points="456.8,509.8 489.7,542.5 490.8,541.4 457.8,508.8 "
         id="XMLID_163_" /><path
         inkscape:connector-curvature="0"
         style="fill:#ffffff"
         d="m 490.8,545.7 4.9,4.9 c 0.5,-0.2 1,-0.4 1.5,-0.7 l -5.3,-5.3 z"
         id="XMLID_162_" /><polygon
         style="fill:#ffffff"
         points="455.7,510.9 488.6,543.5 489.7,542.5 456.8,509.8 "
         id="XMLID_161_" /><path
         inkscape:connector-curvature="0"
         style="fill:#ffffff"
         d="m 443.6,499 9.9,9.8 1.1,-1.1 -8.8,-8.7 c -0.7,0 -1.5,0 -2.2,0 z"
         id="XMLID_160_" /><path
         inkscape:connector-curvature="0"
         style="fill:#ffffff"
         d="m 491.9,544.6 5.3,5.3 c 0.5,-0.2 1,-0.4 1.5,-0.7 l -5.7,-5.7 z"
         id="XMLID_159_" /><path
         inkscape:connector-curvature="0"
         style="fill:#ffffff"
         d="m 455.7,578.6 v 0 l -1.1,-1.1 0.1,-0.1 -6.7,-6.7 c -0.6,0.1 -1.3,0.2 -1.9,0.3 l 8.7,8.7 z"
         id="XMLID_158_" /><path
         inkscape:connector-curvature="0"
         style="fill:#ffffff"
         d="m 449.8,570.4 c -0.6,0.1 -1.2,0.2 -1.9,0.3 l 6.7,6.7 1.1,-1.1 z"
         id="XMLID_157_" /><path
         inkscape:connector-curvature="0"
         style="fill:#ffffff"
         d="m 421.9,544.7 20.7,20.6 c 0.6,-0.1 1.3,-0.2 1.9,-0.3 L 423,543.6 Z"
         id="XMLID_156_" /><path
         inkscape:connector-curvature="0"
         style="fill:#ffffff"
         d="m 373.5,496.4 12.5,12.5 1.1,-1.1 -11.4,-11.3 c -0.7,-0.1 -1.4,-0.1 -2.2,-0.1 z"
         id="XMLID_155_" /><path
         inkscape:connector-curvature="0"
         style="fill:#ffffff"
         d="m 371.3,496.4 13.6,13.6 1.1,-1.1 -12.5,-12.5 c -0.7,0 -1.4,0 -2.2,0 z"
         id="XMLID_154_" /><polygon
         style="fill:#ffffff"
         points="388.2,511 419.7,542.5 420.8,541.4 389.2,510 "
         id="XMLID_153_" /><polygon
         style="fill:#ffffff"
         points="387.1,512.1 418.6,543.6 419.7,542.5 388.2,511 "
         id="XMLID_152_" /><path
         inkscape:connector-curvature="0"
         style="fill:#ffffff"
         d="m 420.8,545.7 19.8,19.8 c 0.6,-0.1 1.3,-0.2 1.9,-0.2 l -20.7,-20.6 z"
         id="XMLID_151_" /><path
         inkscape:connector-curvature="0"
         style="fill:#ffffff"
         d="m 385.7,576.5 -6.7,-6.7 c -0.9,-0.2 -1.8,-0.3 -2.7,-0.5 l 9.3,9.3 0.1,-0.1 -1,-1 z"
         id="XMLID_150_" /><path
         inkscape:connector-curvature="0"
         style="fill:#ffffff"
         d="m 373.6,568.7 11,10.9 1.1,-1.1 -9.3,-9.3 c -1,-0.1 -1.9,-0.3 -2.8,-0.5 z"
         id="XMLID_149_" /><polygon
         style="fill:#ffffff"
         points="316.3,511.5 349.8,545 350.9,543.9 317.4,510.4 "
         id="XMLID_148_" /><path
         inkscape:connector-curvature="0"
         style="fill:#ffffff"
         d="m 352,547.1 13.4,13.4 c 1,0.3 1.9,0.5 2.9,0.7 L 353.1,546 Z"
         id="XMLID_147_" /><path
         inkscape:connector-curvature="0"
         style="fill:#ffffff"
         d="m 310.7,503.8 4.5,4.5 1.1,-1.1 -5.4,-5.4 c -0.1,0.7 -0.1,1.3 -0.2,2 z"
         id="XMLID_146_" /><path
         inkscape:connector-curvature="0"
         style="fill:#ffffff"
         d="m 310.6,505.9 3.5,3.5 1.1,-1.1 -4.5,-4.5 c 0,0.7 -0.1,1.4 -0.1,2.1 z"
         id="XMLID_145_" /><path
         inkscape:connector-curvature="0"
         style="fill:#ffffff"
         d="m 353.1,546.1 15.2,15.2 c 0.9,0.2 1.9,0.5 2.8,0.7 l -17,-16.9 z"
         id="XMLID_144_" /><polygon
         style="fill:#ffffff"
         points="317.4,510.4 350.9,543.9 352,542.8 318.4,509.4 "
         id="XMLID_143_" /><path
         inkscape:connector-curvature="0"
         style="fill:#ffffff"
         d="m 390.6,571.6 -4.9,4.9 1,1 -1,1 0.1,0.1 6.8,-6.8 c -0.7,-0.1 -1.4,-0.2 -2,-0.2 z"
         id="XMLID_142_" /><path
         inkscape:connector-curvature="0"
         style="fill:#ffffff"
         d="m 385.7,578.6 1.1,1.1 7.7,-7.7 c -0.7,-0.1 -1.3,-0.1 -1.9,-0.2 z"
         id="XMLID_141_" /><path
         inkscape:connector-curvature="0"
         style="fill:#ffffff"
         d="m 419.7,544.7 -21.6,21.6 c 0.7,0.1 1.3,0.1 2,0.2 l 20.7,-20.6 z"
         id="XMLID_140_" /><path
         inkscape:connector-curvature="0"
         style="fill:#ffffff"
         d="m 464.7,499.3 c -0.6,0 -1.1,0 -1.7,0 l -7.4,7.4 1.1,1.1 8.4,-8.4 c -0.1,-0.1 -0.2,-0.1 -0.4,-0.1 z"
         id="XMLID_139_" /><path
         inkscape:connector-curvature="0"
         style="fill:#ffffff"
         d="m 465.2,499.3 -8.4,8.4 1.1,1.1 9.5,-9.5 c -0.8,0 -1.5,0 -2.2,0 z"
         id="XMLID_138_" /><polygon
         style="fill:#ffffff"
         points="422.9,543.6 455.7,510.9 454.6,509.8 421.9,542.5 "
         id="XMLID_137_" /><polygon
         style="fill:#ffffff"
         points="421.9,542.5 454.6,509.8 453.5,508.8 420.8,541.4 "
         id="XMLID_136_" /><path
         inkscape:connector-curvature="0"
         style="fill:#ffffff"
         d="M 418.6,543.6 396.1,566 c 0.7,0.1 1.3,0.1 2,0.2 l 21.6,-21.6 z"
         id="XMLID_135_" /><polygon
         style="fill:#ffffff"
         points="455.7,508.8 456.8,509.8 457.8,508.8 456.8,507.7 "
         id="XMLID_134_" /><polygon
         style="fill:#ffffff"
         points="454.6,509.8 455.7,508.8 454.6,507.7 453.5,508.8 "
         id="XMLID_133_" /><polygon
         style="fill:#ffffff"
         points="454.6,507.7 455.7,508.8 456.8,507.7 455.7,506.6 "
         id="XMLID_132_" /><polygon
         style="fill:#ffffff"
         points="454.6,509.8 455.7,510.9 456.8,509.8 455.7,508.8 "
         id="XMLID_131_" /><rect
         style="fill:#ffffff"
         height="1.5"
         width="1.5"
         transform="matrix(0.7078,0.7064,-0.7064,0.7078,507.7397,-138.094)"
         y="544"
         x="420"
         id="XMLID_130_" /><rect
         style="fill:#ffffff"
         height="1.5"
         width="1.5"
         transform="matrix(0.7078,0.7064,-0.7064,0.7078,507.2863,-139.1495)"
         y="542.90002"
         x="421.10001"
         id="XMLID_129_" /><rect
         style="fill:#ffffff"
         height="1.5"
         width="1.5"
         transform="matrix(-0.7078,0.7064,-0.7064,-0.7078,1100.6498,631.9541)"
         y="542.90002"
         x="418.89999"
         id="XMLID_128_" /><rect
         style="fill:#ffffff"
         height="1.5"
         width="1.5"
         transform="matrix(0.7078,0.7064,-0.7064,0.7078,506.2015,-138.7625)"
         y="541.79999"
         x="420.10001"
         id="XMLID_127_" /><rect
         style="fill:#ffffff"
         height="1.4"
         width="1.4"
         transform="matrix(-0.7078,0.7064,-0.7064,-0.7078,1066.6077,713.7432)"
         y="576.79999"
         x="385"
         id="XMLID_126_" /><path
         inkscape:connector-curvature="0"
         style="fill:#ffffff"
         d="m 456.8,577.4 v 0 l -1,1.2 v 0 0 l -0.1,0.1 1,1 13.8,-13.8 c -1,0.3 -2,0.5 -2.9,0.8 z"
         id="XMLID_125_" /><path
         inkscape:connector-curvature="0"
         style="fill:#ffffff"
         d="m 455.8,576.3 1.1,1.1 10.8,-10.8 c -1,0.2 -1.9,0.5 -2.9,0.7 z"
         id="XMLID_124_" /><polygon
         style="fill:#ffffff"
         points="493,543.5 525.1,511.4 524,510.3 491.9,542.4 "
         id="XMLID_123_" /><path
         inkscape:connector-curvature="0"
         style="fill:#ffffff"
         d="m 489.7,544.6 -13.1,13.1 c 1.1,-0.3 2.1,-0.7 3.2,-1 l 11,-11 z"
         id="XMLID_122_" /><path
         inkscape:connector-curvature="0"
         style="fill:#ffffff"
         d="m 488.6,543.5 -15.2,15.1 c 1,-0.3 2.1,-0.6 3.1,-1 l 13.1,-13.1 z"
         id="XMLID_121_" /><polygon
         style="fill:#ffffff"
         points="527.3,509.2 536.9,499.7 534.8,499.6 526.3,508.1 "
         id="XMLID_120_" /><polygon
         style="fill:#ffffff"
         points="491.9,542.4 524,510.3 523,509.3 490.8,541.4 "
         id="XMLID_119_" /><polygon
         style="fill:#ffffff"
         points="526.3,508.1 534.8,499.6 532.6,499.6 525.2,507 "
         id="XMLID_118_" /><rect
         style="fill:#ffffff"
         height="0.1"
         width="1.5"
         transform="matrix(0.6976,0.7165,-0.7165,0.6976,522.7076,-223.1209)"
         y="507.60001"
         x="524.90002"
         id="XMLID_117_" /><rect
         style="fill:#ffffff"
         height="0.1"
         width="1.5"
         transform="matrix(0.6976,0.7165,-0.7165,0.6976,523.7798,-223.5367)"
         y="508.70001"
         x="526"
         id="XMLID_116_" /><polygon
         style="fill:#ffffff"
         points="490.8,543.5 491.9,542.4 490.8,541.4 489.7,542.5 "
         id="XMLID_115_" /><polygon
         style="fill:#ffffff"
         points="491.9,544.6 493,543.5 491.9,542.4 490.8,543.5 "
         id="XMLID_114_" /><polygon
         style="fill:#ffffff"
         points="488.6,543.5 489.7,544.6 490.8,543.5 489.7,542.5 "
         id="XMLID_113_" /><polygon
         style="fill:#ffffff"
         points="490.8,545.7 491.9,544.6 490.8,543.5 489.7,544.6 "
         id="XMLID_112_" /><rect
         style="fill:#ffffff"
         height="1.5"
         width="1.5"
         transform="matrix(0.7078,0.7064,-0.7064,0.7078,541.0504,-153.2505)"
         y="576.59998"
         x="455"
         id="XMLID_111_" /><rect
         style="fill:#ffffff"
         height="0.1"
         width="0.1"
         transform="matrix(-0.7079,0.7063,-0.7063,-0.7079,1186.9491,666.1564)"
         y="578.5"
         x="455.70001"
         id="XMLID_110_" /><rect
         style="fill:#ffffff"
         height="0.1"
         width="1.5"
         transform="matrix(0.7071,0.7071,-0.7071,0.7071,542.0579,-152.5508)"
         y="578"
         x="454.39999"
         id="XMLID_109_" /><rect
         style="fill:#ffffff"
         height="0.1"
         width="1.5"
         transform="matrix(0.7071,-0.7071,0.7071,0.7071,-275.0624,492.001)"
         y="578"
         x="455.60001"
         id="XMLID_108_" /><path
         inkscape:connector-curvature="0"
         style="fill:#ffffff"
         d="m 333.3,563.6 5.5,-5.5 c -0.5,-0.2 -1,-0.4 -1.5,-0.6 l -5.1,5.1 2.2,2.2 6,-6 c -0.5,-0.2 -1,-0.4 -1.5,-0.6 z"
         id="XMLID_107_" /><polygon
         style="fill:#ffffff"
         points="353.1,543.9 386,511 384.9,510 352,542.8 "
         id="XMLID_106_" /><path
         inkscape:connector-curvature="0"
         style="fill:#ffffff"
         d="m 349.8,545 -7.8,7.8 c 0.5,0.2 1,0.4 1.5,0.6 l 7.4,-7.3 z"
         id="XMLID_105_" /><path
         inkscape:connector-curvature="0"
         style="fill:#ffffff"
         d="m 399.7,497.4 -11.5,11.5 1.1,1.1 12.5,-12.5 c -0.8,-0.1 -1.4,-0.1 -2.1,-0.1 z"
         id="XMLID_104_" /><path
         inkscape:connector-curvature="0"
         style="fill:#ffffff"
         d="m 397.6,497.3 -10.5,10.5 1.1,1.1 11.5,-11.5 c -0.7,0 -1.4,-0.1 -2.1,-0.1 z"
         id="XMLID_103_" /><path
         inkscape:connector-curvature="0"
         style="fill:#ffffff"
         d="m 350.9,546.1 -7.4,7.3 c 0.5,0.2 1,0.4 1.6,0.6 l 6.9,-6.9 z"
         id="XMLID_102_" /><polygon
         style="fill:#ffffff"
         points="354.1,545 387.1,512.1 386,511 353.1,543.9 "
         id="XMLID_101_" /><rect
         style="fill:#ffffff"
         height="1.5"
         width="1.5"
         transform="matrix(0.7078,0.7064,-0.7064,0.7078,473.055,-123.6808)"
         y="509.20001"
         x="385.29999"
         id="XMLID_100_" /><rect
         style="fill:#ffffff"
         height="1.5"
         width="1.5"
         transform="matrix(-0.7078,0.7064,-0.7064,-0.7078,1020.4412,595.637)"
         y="508.10001"
         x="386.29999"
         id="XMLID_99_" /><rect
         style="fill:#ffffff"
         height="1.5"
         width="1.5"
         transform="matrix(-0.7078,0.7064,-0.7064,-0.7078,1022.0284,599.3081)"
         y="510.29999"
         x="386.29999"
         id="XMLID_98_" /><rect
         style="fill:#ffffff"
         height="1.5"
         width="1.5"
         transform="matrix(-0.7078,0.7064,-0.7064,-0.7078,1023.0989,596.6955)"
         y="509.20001"
         x="387.39999"
         id="XMLID_97_" /><rect
         style="fill:#ffffff"
         height="1.5"
         width="1.5"
         transform="matrix(0.7078,0.7064,-0.7064,0.7078,488.1552,-90.1326)"
         y="544.29999"
         x="352.29999"
         id="XMLID_96_" /><rect
         style="fill:#ffffff"
         height="1.5"
         width="1.5"
         transform="matrix(0.7078,0.7064,-0.7064,0.7078,488.6132,-89.0845)"
         y="545.29999"
         x="351.20001"
         id="XMLID_95_" /><rect
         style="fill:#ffffff"
         height="1.5"
         width="1.5"
         transform="matrix(0.7078,0.7064,-0.7064,0.7078,487.0993,-89.6743)"
         y="543.20001"
         x="351.20001"
         id="XMLID_94_" /><rect
         style="fill:#ffffff"
         height="1.5"
         width="1.5"
         transform="matrix(-0.7078,0.7064,-0.7064,-0.7078,984.1139,682.8461)"
         y="544.20001"
         x="350.10001"
         id="XMLID_93_" /><path
         inkscape:connector-curvature="0"
         style="fill:#ffffff"
         d="m 328.8,496.9 -11.4,11.4 1.1,1.1 12.6,-12.6 c -0.8,0 -1.6,0 -2.3,0.1 z"
         id="XMLID_92_" /><path
         inkscape:connector-curvature="0"
         style="fill:#ffffff"
         d="m 326.6,496.9 -10.3,10.3 1.1,1.1 11.4,-11.4 c -0.7,0 -1.5,0 -2.2,0 z"
         id="XMLID_91_" /><path
         inkscape:connector-curvature="0"
         style="fill:#ffffff"
         d="m 310,515.6 c 0,0.8 -0.1,1.5 -0.1,2.3 l 6.4,-6.4 -1.1,-1.1 z"
         id="XMLID_90_" /><path
         inkscape:connector-curvature="0"
         style="fill:#ffffff"
         d="m 310.2,513.3 c 0,0.8 -0.1,1.5 -0.1,2.3 l 5.2,-5.2 -1.1,-1.1 z"
         id="XMLID_89_" /><rect
         style="fill:#ffffff"
         height="1.5"
         width="1.5"
         transform="matrix(-0.7078,0.7064,-0.7064,-0.7078,900.6898,648.3168)"
         y="509.70001"
         x="315.5"
         id="XMLID_88_" /><rect
         style="fill:#ffffff"
         height="1.5"
         width="1.5"
         transform="matrix(0.7078,0.7064,-0.7064,0.7078,451.9476,-73.8381)"
         y="508.60001"
         x="314.5"
         id="XMLID_87_" /><rect
         style="fill:#ffffff"
         height="1.5"
         width="1.5"
         transform="matrix(-0.7078,0.7064,-0.7064,-0.7078,901.7568,645.7017)"
         y="508.60001"
         x="316.60001"
         id="XMLID_86_" /><rect
         style="fill:#ffffff"
         height="1.5"
         width="1.5"
         transform="matrix(-0.7078,0.7064,-0.7064,-0.7078,899.0948,644.6242)"
         y="507.5"
         x="315.5"
         id="XMLID_85_" /><path
         inkscape:connector-curvature="0"
         style="fill:#ffffff"
         d="m 525.1,511.4 13.4,13.8 c 0,0 0.1,0 0.1,-0.1 z"
         id="XMLID_84_" /><polygon
         style="fill:#ffffff"
         points="523,509.3 523.1,509.2 513.6,499.4 513.4,499.4 "
         id="XMLID_83_" /><polygon
         style="fill:#ffffff"
         points="524.1,508.2 524.1,508.1 515.7,499.4 515.5,499.4 "
         id="XMLID_82_" /><polygon
         style="fill:#ffffff"
         points="524.1,508.1 525.1,507.1 517.7,499.5 515.7,499.4 "
         id="XMLID_81_" /><polygon
         style="fill:#ffffff"
         points="523.1,509.2 524.1,508.2 515.5,499.4 513.6,499.4 "
         id="XMLID_80_" /><path
         inkscape:connector-curvature="0"
         style="fill:#ffffff"
         d="m 526.2,510.4 -1,1 13.4,13.8 c 0.4,-0.3 0.7,-0.6 1.1,-0.9 z"
         id="XMLID_79_" /><path
         inkscape:connector-curvature="0"
         style="fill:#ffffff"
         d="m 526.3,510.3 13.5,13.9 c 0.4,-0.3 0.7,-0.6 1.1,-0.9 l -13.6,-14 z"
         id="XMLID_78_" /><path
         inkscape:connector-curvature="0"
         style="fill:#ffffff"
         d="m 526.2,510.4 13.5,13.9 c 0,0 0.1,0 0.1,-0.1 z"
         id="XMLID_77_" /><rect
         style="fill:#ffffff"
         height="0.1"
         width="1.5"
         transform="matrix(0.6976,0.7165,-0.7165,0.6976,524.6913,-221.391)"
         y="510.79999"
         x="523.90002"
         id="XMLID_76_" /><rect
         style="fill:#ffffff"
         height="0.1"
         width="1.5"
         transform="matrix(0.6976,0.7165,-0.7165,0.6976,523.5429,-220.9378)"
         y="509.70001"
         x="522.79999"
         id="XMLID_75_" /><polygon
         style="fill:#ffffff"
         points="524.1,510.3 525.1,509.3 524.1,508.2 523.1,509.2 "
         id="XMLID_74_" /><polygon
         style="fill:#ffffff"
         points="525.2,509.2 526.2,508.2 525.1,507.1 524.1,508.1 "
         id="XMLID_73_" /><polygon
         style="fill:#ffffff"
         points="526.3,510.3 527.3,509.3 526.2,508.2 525.2,509.2 "
         id="XMLID_72_" /><polygon
         style="fill:#ffffff"
         points="525.2,511.4 526.2,510.4 525.1,509.3 524.1,510.3 "
         id="XMLID_71_" /><rect
         style="fill:#ffffff"
         height="0.1"
         width="1.5"
         transform="matrix(0.6976,0.7165,-0.7165,0.6976,523.0891,-222.0146)"
         y="508.60001"
         x="523.79999"
         id="XMLID_70_" /><rect
         style="fill:#ffffff"
         height="0.1"
         width="1.5"
         transform="matrix(0.6976,0.7165,-0.7165,0.6976,524.241,-222.4764)"
         y="509.79999"
         x="524.90002"
         id="XMLID_69_" /><path
         inkscape:connector-curvature="0"
         style="fill:#ffffff"
         d="m 540.1,526.9 1.5,1.5 0.1,-0.1 -1.6,-1.4 c 0.1,-0.1 0,-0.1 0,0 z"
         id="XMLID_68_" /><path
         inkscape:connector-curvature="0"
         style="fill:#ffffff"
         d="m 538.6,525.1 c 0,0 -0.1,0.1 0,0 l 1.5,1.7 c 0,0 0.1,0 0.1,-0.1 z"
         id="XMLID_67_" /><path
         inkscape:connector-curvature="0"
         style="fill:#ffffff"
         d="m 542.8,527.2 1,-1 -1.3,-1.3 c -0.4,0.3 -0.7,0.6 -1.1,0.9 z"
         id="XMLID_66_" /><path
         inkscape:connector-curvature="0"
         style="fill:#ffffff"
         d="m 541.3,525.9 1.4,1.4 -1.4,-1.4 c -0.4,0.3 -0.7,0.6 -1.1,0.9 l 1.5,1.5 1.1,-1.1 -1.5,-1.3 c 0.1,-0.1 0,0 0,0 z"
         id="XMLID_65_" /><path
         inkscape:connector-curvature="0"
         style="fill:#ffffff"
         d="m 539.8,524.2 1.6,1.6 c 0.4,-0.3 0.7,-0.6 1.1,-0.9 l -1.6,-1.6 c -0.4,0.3 -0.7,0.6 -1.1,0.9 z"
         id="XMLID_64_" /><path
         inkscape:connector-curvature="0"
         style="fill:#ffffff"
         d="m 541.3,525.9 c 0,0 0.1,-0.1 0,0 l -1.5,-1.7 c 0,0 -0.1,0 -0.1,0.1 z"
         id="XMLID_63_" /><path
         inkscape:connector-curvature="0"
         style="fill:#ffffff"
         d="m 538.6,525.1 1.6,1.7 c 0.4,-0.3 0.7,-0.6 1.1,-0.9 l -1.6,-1.6 c -0.4,0.2 -0.7,0.5 -1.1,0.8 z"
         id="XMLID_62_" /><path
         inkscape:connector-curvature="0"
         style="fill:#ffffff"
         d="m 522.3,478.1 c -0.2,0.1 -0.4,0.2 -0.6,0.3 -1.3,0.8 -2.8,1.4 -4.3,1.9 -0.4,0.1 -0.8,0.3 -1.2,0.4 -1.9,0.5 -3.9,0.9 -5.9,0.9 v 0 c -0.1,0 -0.3,0 -0.4,0 -5.7,0 -11.6,-2.2 -16.3,-7.8 h -0.5 l 18.8,19.3 26.8,0.3 9,-9 2.2,2.2 -6.9,6.9 27.8,0.3 c 3.3,-4 6.4,-8.1 9.4,-12.4 0.3,-1.1 0.6,-2.2 0.7,-3 -2.8,1.2 -6,1.9 -9.3,1.9 -6.3,0 -12.9,-2.7 -17.8,-9.8 l -25.9,1.4 c -1.4,2.7 -3.2,4.7 -5.6,6.2 z"
         id="XMLID_59_" /><path
         inkscape:connector-curvature="0"
         style="fill:#ffffff"
         d="m 337.3,490.5 c 8,-0.2 16,-0.3 24,-0.3 1.3,0 2.6,0 3.9,0 l -3.5,-3.5 2.2,-2.2 5.7,5.7 c 6.3,0.1 12.7,0.2 19,0.5 5,0.2 10,0.4 14.9,0.6 l 13.4,-13.4 -29.4,1.6 c -1.2,0.3 -2.3,0.5 -3.6,0.6 -1.6,0.1 -3.2,0.2 -4.7,0.2 -1.2,0 -2.5,-0.1 -3.7,-0.2 l -29.5,1.8 z"
         id="XMLID_58_" /><path
         inkscape:connector-curvature="0"
         style="fill:#ffffff"
         d="m 407.6,491.6 c 9.9,0.4 19.7,0.7 29.6,1 l -6,-5.9 2.1,-2.2 8.3,8.2 c 7.6,0.3 15.4,0.4 23,0.4 1.5,0 3,0 4.4,0 l 8.6,-8.6 2.2,2.2 -6.4,6.4 c 2.8,0 5.5,-0.1 8.1,-0.1 l 25.7,0.3 -18.5,-19 -24,1.3 c -1.2,1.5 -2.5,2.8 -4.2,3.9 -3.5,2.2 -7.9,3.6 -12.4,3.6 -5,0 -10.1,-1.7 -14.5,-5.8 l -12.4,0.7 z"
         id="XMLID_57_" /><polygon
         style="fill:#ffffff"
         points="511.9,493.3 493.1,474 492.9,474 511.7,493.3 "
         id="XMLID_53_" /><path
         inkscape:connector-curvature="0"
         style="fill:#ffffff"
         d="m 432.3,485.6 7.2,7.1 c 0.5,0 1,0 1.5,0.1 0.3,0 0.5,0 0.8,0 l -8.3,-8.2 -2.1,2.2 6,5.9 c 0.7,0 1.5,0.1 2.2,0.1 z"
         id="XMLID_52_" /><path
         inkscape:connector-curvature="0"
         style="fill:#ffffff"
         d="m 362.7,485.6 4.6,4.6 c 0.7,0 1.5,0 2.2,0 l -5.7,-5.7 -2.2,2.2 3.5,3.5 c 0.7,0 1.4,0 2.2,0 z"
         id="XMLID_51_" /><path
         inkscape:connector-curvature="0"
         style="fill:#ffffff"
         d="m 478.9,485.6 -7.5,7.5 c 0.7,0 1.5,0 2.2,0 l 6.4,-6.4 -2.2,-2.2 -8.6,8.6 c 0.7,0 1.5,0 2.2,0 z"
         id="XMLID_49_" /><polygon
         style="fill:#ffffff"
         points="549.9,486.7 547.7,484.6 538.7,493.6 540.8,493.6 548.8,485.6 540.8,493.6 543,493.6 "
         id="XMLID_48_" /><path
         inkscape:connector-curvature="0"
         style="fill:#ffffff"
         d="m 405.6,491.5 c 0.7,0 1.4,0.1 2.1,0.1 l 13.8,-13.8 -2.3,0.1 z"
         id="XMLID_47_" /><path
         inkscape:connector-curvature="0"
         style="fill:#ffffff"
         d="m 419.1,478 -2.3,0.1 -13.4,13.4 c 0.7,0 1.4,0.1 2.1,0.1 z"
         id="XMLID_46_" /><path
         inkscape:connector-curvature="0"
         style="fill:#ffffff"
         d="m 335.1,490.6 8.6,-8.6 -2.3,0.1 -8.5,8.5 c 0.7,0 1.4,0 2.2,0 z"
         id="XMLID_42_" /><path
         inkscape:connector-curvature="0"
         style="fill:#ffffff"
         d="m 346,481.9 -2.3,0.1 -8.6,8.6 c 0.7,0 1.5,0 2.2,-0.1 z"
         id="XMLID_40_" /><path
         inkscape:connector-curvature="0"
         style="fill:#ffffff"
         d="m 578.5,492.3 c -0.1,0.1 -0.1,0.2 -0.2,0.3 0.1,-0.2 0.2,-0.3 0.4,-0.5 0.2,-0.3 0.4,-0.6 0.6,-0.9 -0.2,0.2 -0.3,0.5 -0.5,0.7 -0.2,0.2 -0.3,0.3 -0.3,0.4 z"
         id="XMLID_38_" /><path
         inkscape:connector-curvature="0"
         style="fill:#ffffff"
         d="m 575.6,491.4 c 1.1,-1.8 3.5,-5.3 3.8,-5.8 -0.2,0.2 -0.3,0.4 -0.3,0.4 -0.1,0 -0.1,-0.1 0,-0.3 -1.6,2.3 -3.2,4.5 -4.9,6.7 z"
         id="XMLID_37_" /><path
         inkscape:connector-curvature="0"
         style="fill:#ffffff"
         d="m 581,488.6 c -0.2,0.3 -0.5,0.6 -0.7,1 0.3,-0.4 0.5,-0.7 0.7,-1 z"
         id="XMLID_36_" /><path
         inkscape:connector-curvature="0"
         style="fill:#ffffff"
         d="m 570.7,493.9 h 1 l 2.3,-1.5 c 1.7,-2.2 3.3,-4.4 4.9,-6.7 0.1,-0.7 0.7,-2.5 1.2,-4.2 -2.9,4.3 -6.1,8.4 -9.4,12.4 z"
         id="XMLID_32_" /><g
         style="fill:#ffffff"
         id="XMLID_256_"><path
           inkscape:connector-curvature="0"
           style="fill:#ffffff"
           d="m 595.6,468.5 c -12.9,22.7 -30.1,42.8 -50.3,59.1 l 4.6,4.8 -2.2,2.1 -4.8,-5 c -12.2,9.5 -25.4,17.7 -39.5,24.3 l 5.9,5.9 -2.1,2.2 -6.8,-6.7 c -9.6,4.3 -19.5,7.9 -29.8,10.7 l -13.8,13.8 -1,-1 -1,1 -8.7,-8.7 c -9.8,1.4 -19.8,2.2 -29.9,2.2 -7.3,0 -14.5,-0.4 -21.7,-1.1 l -7.7,7.7 -1.1,-1.1 -0.1,-0.1 -0.1,0.1 -1.1,1.1 -11,-10.9 c -11.4,-2.4 -22.5,-5.8 -33.2,-10 l -6,6 -2.2,-2.2 5.1,-5.1 c -10.1,-4.2 -19.7,-9.1 -28.9,-14.8 -0.3,4.7 -0.5,9.3 -0.8,14 32.1,19 69.6,29.8 109.7,29.8 84.4,0 157.4,-48.3 193.1,-118.8 z"
           id="XMLID_259_" /><path
           inkscape:connector-curvature="0"
           style="fill:#ffffff"
           d="m 332.9,490.6 8.5,-8.5 -47.7,2.6 h -0.3 l -34.8,1.9 c 0,0.1 0,0.1 0,0.2 l -0.1,3.5 -0.1,3.7 -0.3,5.8 -0.3,2.9 v 0.8 c 1,4.7 0.4,9.3 0.5,14 0.3,13.1 0.7,26.2 1,39.4 0.1,4.2 0.9,10.9 1.7,15 3.2,15.8 6.5,31.7 9.7,47.5 1.3,6.3 2.6,12.4 3.9,18.7 2.1,-12.9 4.1,-26 6.2,-39 0.3,0 0.2,0 0.6,0 2.5,16 5,31 7.6,46.6 0.1,0.6 0.3,0.9 0.5,0.9 0.3,0 0.5,-0.6 0.6,-1.1 1.9,-12.9 3.9,-27.8 5.5,-40.7 1.8,-14 4.5,-27.8 5.3,-41.9 0.2,-3.2 0.4,-6.4 0.5,-9.6 0.3,-4.7 0.5,-9.4 0.8,-14.2 0.1,-1.2 0.1,-2.4 0.2,-3.7 0.1,-1.1 0.1,-2.3 0.2,-3.4 0.2,-2.5 0.3,-5 0.4,-7.5 0,-0.8 0.1,-1.5 0.1,-2.3 0,-0.8 0.1,-1.5 0.1,-2.3 0.4,-6.6 0.8,-13.1 1.2,-19.7 0,-0.7 0.1,-1.4 0.1,-2 0,-0.7 0.1,-1.4 0.1,-2 0,-0.7 0.1,-1.3 0.1,-2 0.1,-2.2 0.9,-2.6 2.6,-2.6 8.8,-0.5 17.2,-0.7 25.6,-1 z"
           id="XMLID_260_" /></g><polygon
         style="fill:#ffffff"
         points="488.9,474.2 507.4,493.2 507.6,493.2 489,474.2 "
         id="XMLID_27_" /><polygon
         style="fill:#ffffff"
         points="511.7,493.3 492.9,474 491,474.1 509.7,493.3 "
         id="XMLID_26_" /><polygon
         style="fill:#ffffff"
         points="509.5,493.3 490.9,474.1 489,474.2 507.6,493.2 "
         id="XMLID_25_" /><polygon
         style="fill:#ffffff"
         points="491,474.1 490.9,474.1 509.5,493.3 509.7,493.3 "
         id="XMLID_24_" /></g><path
       inkscape:connector-curvature="0"
       style="fill:#ffffff"
       d="m 175.7,640.00002 c 4.8,-0.3 7.7,-3.5 8.6,-6.6 0.2,-0.7 0.3,-1.5 0.3,-2.1 l -0.3,-6.4 c -7.3,0.2 -15.5,2 -15.1,9.1 0.1,4.3 3.1,6.2 6.5,6 z"
       id="XMLID_23_" /><path
       inkscape:connector-curvature="0"
       style="fill:#ffffff"
       d="m 283.5,634.30002 c 4.8,-0.3 7.7,-3.5 8.6,-6.6 0.2,-0.7 0.3,-1.5 0.3,-2.1 l -0.3,-6.4 c -7.3,0.2 -15.5,2 -15.1,9.1 0.1,4.2 3.1,6.1 6.5,6 z"
       id="XMLID_22_" /><path
       inkscape:connector-curvature="0"
       style="fill:#ffffff"
       d="m 265.3,684.80002 c -5.9,0.3 -9.7,7.7 -9,21.1 0.7,12.9 5,19.9 11.1,19.6 6.8,-0.4 9.7,-8.5 9,-21.1 -0.6,-12.2 -4.1,-20 -11.1,-19.6 z"
       id="XMLID_21_" /><path
       inkscape:connector-curvature="0"
       style="fill:#ffffff"
       d="m 434.4,625.10002 c 4.1,-0.2 7.7,-3 8.9,-7.3 0.3,-1.2 0.4,-2.5 0.3,-3.6 l -0.4,-6.6 c -0.1,-1.1 -0.2,-2.1 -0.5,-3 -1.4,-3.8 -4.9,-6.8 -9.7,-6.6 -6.4,0.3 -10.7,6 -10.2,14.5 0.4,7.2 4.4,13 11.6,12.6 z"
       id="XMLID_20_" /><path
       inkscape:connector-curvature="0"
       style="fill:#ffffff"
       d="m 316.1,621.80002 c 0,0.8 0.2,1.7 0.4,2.4 1.5,4.6 5.6,7.6 10.5,7.3 7,-0.4 10.9,-6.3 10.4,-14.7 -0.4,-7.4 -4.5,-13.5 -11.7,-13.1 -4.6,0.2 -8.7,3.6 -9.8,8.8 -0.1,0.8 -0.3,1.7 -0.2,2.8 z"
       id="XMLID_19_" /><g
       transform="translate(-132.9,273.30002)"
       style="fill:#ffffff"
       id="g8901"><path
         inkscape:connector-curvature="0"
         style="fill:#ffffff"
         id="path8895"
         d="m 471.8,428.6 c -5.6,2 -8.4,6 -8.1,10.6 0.1,5 4.1,9 10.3,8.6 5.9,-0.4 9.5,-4.3 9.2,-9.3 -0.4,-5.9 -4.7,-8.4 -11.4,-9.9 z" /><path
         inkscape:connector-curvature="0"
         style="fill:#ffffff"
         id="path8897"
         d="M 158.8,302.9 126.2,480 680,451.3 712.6,274.2 Z m 465.2,-1.1 5.2,-0.3 -18.4,56.3 -5.1,0.3 z m -59.5,17.7 c 6.4,-0.3 10.1,2.8 11.8,5.8 h 0.2 v -5.6 l 5.9,-0.3 c 0,2.7 0,5.6 0.2,10.1 l 1.1,21.4 c 0.4,8.4 -0.9,13.7 -4.4,17.1 -3.4,3.5 -8.5,4.9 -13.1,5.1 -4.4,0.2 -9.3,-0.6 -12.4,-2.4 l 1.4,-5.2 c 2.5,1.4 6.4,2.6 11,2.3 6.8,-0.4 11.7,-4.2 11.2,-13.5 l -0.2,-4.1 H 577 c -1.9,3.5 -5.7,6.5 -11.4,6.8 -9.1,0.5 -16.1,-6.9 -16.6,-17.1 -0.7,-12.5 7.1,-20 15.5,-20.4 z m -32.6,2.5 0.6,7.2 h 0.3 c 1.4,-5 5.3,-8.4 9.8,-8.6 0.8,0 1.3,0 1.9,0.1 l 0.3,6.3 c -0.7,-0.1 -1.4,-0.2 -2.3,-0.1 -4.7,0.2 -7.9,4 -8.5,9.1 -0.1,0.9 -0.2,2 -0.1,3.1 l 1,19.6 -6.6,0.4 -1.3,-25.3 c -0.2,-4.3 -0.5,-8.1 -0.9,-11.5 z m -41,2.2 1.1,20.4 c 0.4,7 2.8,11.6 8.8,11.3 4.5,-0.2 7.4,-3.5 8.5,-6.6 0.3,-1 0.5,-2.2 0.4,-3.5 l -1.2,-22.6 6.7,-0.4 1.4,26.8 c 0.2,3.8 0.5,7.1 0.8,10 l -5.9,0.3 -0.7,-6 h -0.2 c -1.6,3.1 -5.3,7.1 -11.8,7.5 -5.8,0.3 -12.9,-2.5 -13.6,-15.4 l -1.1,-21.5 z m -44,-14.9 1.2,23.1 h 0.2 c 2.1,-4.2 6.3,-7.1 12.2,-7.4 9.1,-0.5 16,6.8 16.5,18 0.7,13.2 -7.2,20.1 -15.5,20.6 -5.3,0.3 -9.7,-1.5 -12.7,-6.3 h -0.2 v 6.1 l -5.8,0.3 c 0,-2.5 0,-6.3 -0.2,-9.5 l -2.4,-44.5 z m -22.5,31.1 c -0.2,-3 -1.3,-8.5 -8.8,-8.1 -3.4,0.2 -6.9,1.4 -9.4,3.2 l -1.8,-4.3 c 2.9,-2.1 7.3,-3.7 11.9,-3.9 11.3,-0.6 14.4,6.9 14.8,14.3 l 0.7,13.8 c 0.2,3.2 0.5,6.3 1.1,8.8 l -6.1,0.3 -0.8,-4.6 h -0.2 c -1.9,3 -5.7,5.8 -11,6.1 -7.5,0.4 -11.5,-4.7 -11.8,-10 -0.5,-8.9 7.2,-14.2 21.4,-14.9 z m -51.2,-27.2 1.8,34.1 h 0.2 c 0.8,-1.3 2.1,-3 3,-4.4 l 10.1,-13.3 8.1,-0.4 -13.4,15.9 17.3,20.8 -8.1,0.4 -13.6,-17 -3.2,4 0.7,13.8 -6.6,0.4 -2.9,-54 z m -22.7,17.7 c 4,-0.2 7.5,0.6 9.4,1.4 l -1.2,5.3 c -1.6,-0.8 -4.2,-1.5 -7.8,-1.3 -8.4,0.4 -12.7,6.9 -12.3,14.6 0.5,8.5 6.2,13.5 13.5,13.1 3.8,-0.2 6.3,-1.3 8.1,-2.3 l 1.4,5 c -1.7,1 -5.5,2.4 -10.5,2.7 -11.1,0.6 -18.7,-6.6 -19.3,-17.8 -0.6,-11.4 6.7,-20.1 18.7,-20.7 z m -33.8,15.2 c -0.2,-3 -1.3,-8.5 -8.8,-8.1 -3.4,0.2 -6.9,1.4 -9.4,3.2 l -1.8,-4.3 c 2.9,-2.1 7.3,-3.7 11.9,-3.9 11.3,-0.6 14.4,6.9 14.8,14.3 l 0.7,13.8 c 0.2,3.2 0.5,6.3 1.1,8.8 l -6.1,0.3 -0.8,-4.6 h -0.2 c -1.9,3 -5.7,5.8 -11,6.1 -7.4,0.4 -11.5,-4.7 -11.8,-10 -0.5,-8.9 7.2,-14.2 21.4,-14.9 z m -56.4,-26.9 1.2,23 h 0.2 c 1,-2 2.5,-3.7 4.5,-5 1.9,-1.2 4.2,-2.1 6.7,-2.3 4.9,-0.3 13,2.4 13.7,15.1 l 1.2,21.9 -6.7,0.4 -1.1,-21.1 c -0.3,-5.9 -2.8,-10.8 -9.1,-10.5 -4.3,0.2 -7.6,3.5 -8.6,7.2 -0.3,0.9 -0.4,1.9 -0.3,3.2 l 1.2,22.2 -6.7,0.4 -2.9,-54 z m -32.6,15.3 0.3,5.2 -29,16.5 v 0.2 l 30.5,13.3 0.3,5.2 -36.3,-16.3 -0.2,-4.1 z m 117.8,125 -0.2,-4.1 5,-5.4 c 12,-12.7 17.3,-19.4 17,-26.8 -0.3,-5 -2.9,-9.5 -10.3,-9.1 -4.5,0.2 -8.1,2.7 -10.3,4.7 l -2.4,-4.6 c 3.3,-3.1 8,-5.5 13.7,-5.8 10.6,-0.6 15.5,6.5 15.9,13.6 0.5,9.1 -5.7,16.9 -15.6,27.4 l -3.8,3.9 v 0.2 l 22.2,-1.2 0.3,5.5 z m 54.7,-2.1 c -9.7,0.5 -16.7,-8.2 -17.7,-24.5 -0.9,-16.6 5.8,-26.1 15.8,-26.6 10.4,-0.6 16.8,8.4 17.7,24.2 0.9,16.7 -4.8,26.3 -15.8,26.9 z m 37.8,-2.8 -2.3,-43.2 h -0.2 l -8.3,5.1 -1.6,-5 10.5,-6.4 5.7,-0.3 2.6,49.4 z m 36.2,-1.9 c -10.2,0.7 -16.7,-5 -17.2,-12.1 -0.4,-6.1 3,-10.7 8.8,-13.7 l -0.1,-0.2 c -5.6,-2.2 -8.2,-6.2 -8.4,-10.4 -0.5,-7.7 5.7,-13.4 14.2,-13.9 9.4,-0.6 14.5,5 14.9,11 0.3,4.1 -1.5,8.7 -7.3,11.9 v 0.2 c 6.2,2 10.2,6 10.6,11.9 0.7,8.5 -6.2,14.7 -15.5,15.3 z m -296.1,-45.6 -0.2,-3 479.1,-26.5 0.2,3 z m 458.7,-53.7 -0.3,-5.2 29.2,-16.5 v -0.2 l -30.8,-13.3 -0.3,-5.2 36.2,16.2 0.2,4.3 z" /><path
         inkscape:connector-curvature="0"
         style="fill:#ffffff"
         id="path8899"
         d="m 480.2,414.5 c -0.3,-3.9 -2.8,-7.8 -8.8,-7.4 -5.5,0.4 -8.2,4.1 -7.9,8.3 0.3,4.9 4.2,7.2 9.9,8.4 4.1,-1.7 7.1,-4.9 6.8,-9.3 z" /></g></g></svg>