<svg id="Layer_3" data-name="Layer 3" xmlns="http://www.w3.org/2000/svg" viewBox="0 0 1817.75 1008.05">
  <title>logo-color</title>
  <g>
    <rect x="977.61" y="404.79" width="829.95" height="20.37" style="fill: #ffd166"/>
    <rect x="967.43" width="20.37" height="829.95" style="fill: #ef476f"/>
    <rect x="1797.38" width="20.37" height="829.95" style="fill: #26547c"/>
  </g>
  <g>
    <rect width="20.37" height="829.95" style="fill: #26547c"/>
    <polygon points="29.68 0 0.87 0 430.25 429.38 444.65 414.98 29.68 0" style="fill: #ef476f"/>
    <polygon points="415.85 414.98 430.25 429.38 859.63 0 830.83 0 415.85 414.98" style="fill: #a34eaf"/>
    <rect x="840.14" width="20.37" height="829.95" style="fill: #06d6a0"/>
  </g>
  <g>
    <path d="M79.65,905.94,123,1020.36l45-114.42h18.28v130.5H173.78V923.67h-.37l-44.59,112.77h-11.7L74.17,923.67H73.8v112.77H61.37V905.94Z" transform="translate(-51.13 -30.95)" style="fill: #404040"/>
    <path d="M393.29,905.94v10.6H315.61V963.7h72.74v10.6H315.61v51.54H394.2v10.6h-91V905.94Z" transform="translate(-51.13 -30.95)" style="fill: #404040"/>
    <path d="M511.91,1010.3a27.52,27.52,0,0,0,9,10.79,37.61,37.61,0,0,0,13.62,5.75,77,77,0,0,0,16.81,1.74,47.28,47.28,0,0,0,11.15-1.46,38.73,38.73,0,0,0,11.24-4.66,28.56,28.56,0,0,0,8.69-8.23,20.86,20.86,0,0,0,3.47-12.15,17.76,17.76,0,0,0-2.47-9.5,22.69,22.69,0,0,0-6.4-6.77,38,38,0,0,0-8.68-4.47,84.77,84.77,0,0,0-9.32-2.84L530,971.38a87.87,87.87,0,0,1-11.06-3.66,31.29,31.29,0,0,1-9.41-5.85,27.91,27.91,0,0,1-6.49-9,30.58,30.58,0,0,1-2.47-13,41.38,41.38,0,0,1,1.83-11.15,31,31,0,0,1,6.86-12.06,39.69,39.69,0,0,1,13.8-9.6q8.76-3.93,22.48-3.93A65.38,65.38,0,0,1,564,905.76a45.61,45.61,0,0,1,15.36,7.68,36.94,36.94,0,0,1,14.44,30.34H581.36A30.33,30.33,0,0,0,578,930.71a29.14,29.14,0,0,0-7.86-9.32A34.43,34.43,0,0,0,559,915.72a45.27,45.27,0,0,0-13.25-1.92,54.91,54.91,0,0,0-12.34,1.37A31,31,0,0,0,523,919.56a22.68,22.68,0,0,0-7.22,8A25,25,0,0,0,513,939.76a18.86,18.86,0,0,0,1.56,8,16.66,16.66,0,0,0,4.29,5.75,22.54,22.54,0,0,0,6.3,3.84,47.7,47.7,0,0,0,7.59,2.38l31.81,7.86A91.46,91.46,0,0,1,577.61,972a43,43,0,0,1,10.78,6.59,27.85,27.85,0,0,1,7.32,9.59,32.3,32.3,0,0,1,2.65,13.71,50.84,50.84,0,0,1-.46,5.85,30.16,30.16,0,0,1-2.19,7.77,39.29,39.29,0,0,1-4.94,8.31,31.09,31.09,0,0,1-8.77,7.58,50.77,50.77,0,0,1-13.8,5.49,80.67,80.67,0,0,1-19.74,2.1,82.62,82.62,0,0,1-21.39-2.65,46.22,46.22,0,0,1-16.81-8.13,35.79,35.79,0,0,1-10.69-14.08q-3.75-8.58-3.2-20.65H508.8Q508.61,1003.54,511.91,1010.3Z" transform="translate(-51.13 -30.95)" style="fill: #404040"/>
    <path d="M761.57,905.94l51.18,130.5H799.4l-15.9-40.57H724.1l-15.72,40.57H695.23l52.45-130.5Zm17.73,79.33-25.22-66.9-26.14,66.9Z" transform="translate(-51.13 -30.95)" style="fill: #404040"/>
    <path d="M928.44,905.94V962.6h77.49V905.94h12.43v130.5h-12.43V973.2H928.44v63.24H916V905.94Z" transform="translate(-51.13 -30.95)" style="fill: #404040"/>
    <path d="M1188.16,905.94l51.17,130.5H1226l-15.9-40.57h-59.4L1135,1036.44h-13.16l52.46-130.5Zm17.73,79.33-25.23-66.9-26.13,66.9Z" transform="translate(-51.13 -30.95)" style="fill: #404040"/>
    <path d="M1432.61,932a36.66,36.66,0,0,0-9.14-10,40.93,40.93,0,0,0-11.87-6.13,44,44,0,0,0-13.62-2.1q-13,0-22.3,4.94a44.24,44.24,0,0,0-15.26,13.07,56.09,56.09,0,0,0-8.77,18.36,78.88,78.88,0,0,0,0,42,56,56,0,0,0,8.77,18.46,44.24,44.24,0,0,0,15.26,13.07q9.33,4.94,22.3,4.93a39.58,39.58,0,0,0,16.45-3.29,39.11,39.11,0,0,0,12.61-8.95,46.12,46.12,0,0,0,8.59-13.25,55.38,55.38,0,0,0,4.2-16.36h12.43a70.49,70.49,0,0,1-5.66,21.75,53.53,53.53,0,0,1-11.34,16.45,48.13,48.13,0,0,1-16.36,10.42A57.45,57.45,0,0,1,1398,1039q-15.36,0-27-5.57a56,56,0,0,1-19.28-14.9A63.23,63.23,0,0,1,1340.22,997a88.61,88.61,0,0,1,0-51.54,64.41,64.41,0,0,1,11.52-21.66,55.33,55.33,0,0,1,19.28-15q11.61-5.58,27-5.58a61.11,61.11,0,0,1,18.18,2.74,52.71,52.71,0,0,1,16.09,8.14,47.37,47.37,0,0,1,12.06,13.25,44.52,44.52,0,0,1,6.12,18.09H1438A41.79,41.79,0,0,0,1432.61,932Z" transform="translate(-51.13 -30.95)" style="fill: #404040"/>
    <path d="M1575.08,905.94v70.19l75.85-70.19h16.82l-58.31,53.92,61,76.58H1654.4l-54.28-68-25,23.21v44.78h-12.43V905.94Z" transform="translate(-51.13 -30.95)" style="fill: #404040"/>
    <path d="M1781.43,1010.3a27.54,27.54,0,0,0,9,10.79,37.61,37.61,0,0,0,13.62,5.75,77,77,0,0,0,16.81,1.74,47.28,47.28,0,0,0,11.15-1.46,38.73,38.73,0,0,0,11.24-4.66,28.53,28.53,0,0,0,8.68-8.23,20.86,20.86,0,0,0,3.48-12.15,17.85,17.85,0,0,0-2.47-9.5,22.69,22.69,0,0,0-6.4-6.77,38,38,0,0,0-8.68-4.47,84.77,84.77,0,0,0-9.32-2.84l-29.06-7.12a87.87,87.87,0,0,1-11.06-3.66,31.29,31.29,0,0,1-9.41-5.85,27.76,27.76,0,0,1-6.49-9,30.58,30.58,0,0,1-2.47-13,41.38,41.38,0,0,1,1.83-11.15,31,31,0,0,1,6.85-12.06,39.88,39.88,0,0,1,13.8-9.6q8.78-3.93,22.48-3.93a65.4,65.4,0,0,1,18.46,2.56,45.61,45.61,0,0,1,15.36,7.68,37,37,0,0,1,14.43,30.34h-12.42a30.33,30.33,0,0,0-3.38-13.07,29.4,29.4,0,0,0-7.86-9.32,34.43,34.43,0,0,0-11.15-5.67,45.27,45.27,0,0,0-13.25-1.92,54.91,54.91,0,0,0-12.34,1.37,31,31,0,0,0-10.42,4.39,22.68,22.68,0,0,0-7.22,8,24.91,24.91,0,0,0-2.74,12.25,19,19,0,0,0,1.55,8,16.81,16.81,0,0,0,4.3,5.75,22.54,22.54,0,0,0,6.3,3.84,47.7,47.7,0,0,0,7.59,2.38l31.8,7.86a91.59,91.59,0,0,1,13.07,4.47,43.13,43.13,0,0,1,10.78,6.59,27.7,27.7,0,0,1,7.31,9.59,32.15,32.15,0,0,1,2.65,13.71,50.44,50.44,0,0,1-.45,5.85,29.81,29.81,0,0,1-2.2,7.77,38.81,38.81,0,0,1-4.93,8.31,31.09,31.09,0,0,1-8.77,7.58,50.77,50.77,0,0,1-13.8,5.49A80.78,80.78,0,0,1,1818,1039a82.56,82.56,0,0,1-21.39-2.65,46.14,46.14,0,0,1-16.81-8.13,35.79,35.79,0,0,1-10.69-14.08q-3.75-8.58-3.2-20.65h12.43Q1778.14,1003.54,1781.43,1010.3Z" transform="translate(-51.13 -30.95)" style="fill: #404040"/>
  </g>
</svg>
