<svg id="Layer_1" data-name="Layer 1" xmlns="http://www.w3.org/2000/svg" viewBox="0 0 283 133"><defs><style>.cls-1{fill:#f33;}.cls-2{fill:#fff;stroke:#fff;stroke-miterlimit:10;stroke-width:0.5px;}</style></defs><path class="cls-1" d="M4.87,129.17v-27h.41c4.67,0,7.11-2.84,7.11-7.62V90H42.17C44.1,90,45,88.52,45,86.79s-.92-3.25-2.85-3.25H7.31V58h8.44V68.9L21.54,58H49.79c11.29,0,17,9.46,17,18.81s-5.69,18.8-17,18.8H28.45a2.66,2.66,0,0,0-2.74,2.74v3.76H51.93c3,0,3.56-1,3.56-3V97.87H65.55v31.3Z"/><path class="cls-1" d="M73.37,106.81V80.38c0-16.87,14.44-23.17,32.63-23.17s32.62,6.3,32.62,23.17v26.43c0,17.08-14.43,23.17-32.62,23.17S73.37,123.89,73.37,106.81Zm55-10.27c2.13,0,3.15-1.83,3.15-3.65s-1-3.66-3.15-3.66H83.64c-2.14,0-3.15,1.83-3.15,3.66s1,3.65,3.15,3.65Z"/><path class="cls-1" d="M146.25,129.17v-27h.4c4.68,0,7.12-2.84,7.12-7.62V90h29.78c1.93,0,2.84-1.52,2.84-3.25s-.91-3.25-2.84-3.25H148.69V58h8.43V68.9L162.91,58h28.26c11.28,0,17,9.46,17,18.81s-5.69,18.8-17,18.8H169.83a2.67,2.67,0,0,0-2.75,2.74v3.76H193.3c2.95,0,3.56-1,3.56-3V97.87h10.06v31.3Z"/><path class="cls-1" d="M214.75,106.81V80.38c0-16.87,14.43-23.17,32.62-23.17S280,63.51,280,80.38v26.43c0,17.08-14.43,23.17-32.63,23.17S214.75,123.89,214.75,106.81Zm55-10.27c2.14,0,3.16-1.83,3.16-3.65s-1-3.66-3.16-3.66H225c-2.13,0-3.15,1.83-3.15,3.66s1,3.65,3.15,3.65Z"/><path class="cls-2" d="M27.29,47.26V43.67h6.76V28.8a1.54,1.54,0,0,0-1.7-1.7H15.41a1.54,1.54,0,0,0-1.7,1.7V43.67h6.76v3.59H5V43.67H8A1.54,1.54,0,0,0,9.69,42V8.21H5V4.62H20.47V8.21H13.71V21.8a1.54,1.54,0,0,0,1.7,1.7H32.35a1.54,1.54,0,0,0,1.7-1.7V8.21H27.29V4.62H42.77V8.21h-4.7V42a1.54,1.54,0,0,0,1.71,1.71h3v3.59Z"/><path class="cls-2" d="M72.25,47.26V43.67H79.5V27.1H58.24V43.67h7.25v3.59H49.77V44.1H50c2.74,0,4.2-.86,4.2-3.72V17.66c0-11.82,6.46-13.53,14.38-13.53h.54c8,0,14.38,1.71,14.38,13.53V40.38c0,2.86,1.46,3.72,4.2,3.72H88v3.16ZM79.5,23.5V17.66c0-7.13-4-9.93-9.62-9.93H67.93c-6.71,0-9.69,2.8-9.69,9.93V23.5Z"/><path class="cls-2" d="M109.11,47.26c-10,0-15-10.66-15-21.32s5-21.32,15-21.32h7.06l4,2.68V4.62h3.65v9.44H120.2V8.82a.57.57,0,0,0-.55-.61H109.53c-7.61,0-11.45,8.9-11.45,17.73s3.84,17.73,11.45,17.73h14.32v3.59Z"/><path class="cls-2" d="M165.58,47.26c-3.11,0-5.42-.55-7.13-3.47L148.65,27h-7.86V43.67h6.51v3.59H132.07V44.1h.25c2.86,0,4.45-.86,4.45-3.72V8.21h-4.7V4.62H147.3V8.21h-6.51V23.5h7.55L159.92,8.21h-5.73V4.62h15.66V8.21h-2.26c-1.89,0-3.11.19-4.08,1.47l-11.45,15.1,10.05,17.3c.79,1.35,1.89,1.59,3.47,1.59h4.87v3.59Z"/><path class="cls-2" d="M228.45,14.06V10.77c0-1.46-.43-2.56-2.19-2.56H216.08V43.67h5.36v3.59H206.7V44.1h1.59c2.49,0,3.77-.86,3.77-3.72V8.21H201.83c-1.77,0-2.13,1.1-2.13,2.56v3.29H196V4.62h36.07v9.44Z"/><path class="cls-2" d="M271.52,47.26c-3.78,0-5.6-.73-7.13-3.71l-7.06-13.89-7.56,14H257v3.59H237V43.67h5.6c1.95,0,2.93-.43,3.66-1.83l8.95-16.51L247.46,10c-.73-1.4-1.71-1.83-3.66-1.83H237V4.62h6.88c3.78,0,5.61.73,7.13,3.72l6.46,12.79,6.94-12.92h-6.58V4.62h19.38V8.21h-5.61c-1.95,0-2.92.49-3.65,1.83l-8.29,15.41,8.29,16.39c.73,1.4,1.7,1.83,3.65,1.83h5.61v3.59Z"/></svg>