<?xml version="1.0" encoding="utf-8"?>
<!-- Generator: Adobe Illustrator 17.0.0, SVG Export Plug-In . SVG Version: 6.00 Build 0)  -->
<!DOCTYPE svg PUBLIC "-//W3C//DTD SVG 1.1//EN" "http://www.w3.org/Graphics/SVG/1.1/DTD/svg11.dtd">
<svg version="1.1" id="Layer_1" xmlns="http://www.w3.org/2000/svg" xmlns:xlink="http://www.w3.org/1999/xlink" x="0px" y="0px"
	 width="201px" height="215.5px" viewBox="0 0 201 215.5" enable-background="new 0 0 201 215.5" xml:space="preserve">
<g>
	<g>
		<g>
			<polygon fill="#FF7040" points="93.39,64.777 93.39,57.639 86.276,57.639 86.276,64.777 72.053,64.777 72.053,93.225 
				79.164,93.225 79.164,71.891 100.502,71.891 100.502,64.777 			"/>
			<polygon fill="#FF4046" points="86.276,43.403 86.276,50.516 79.164,50.516 79.164,57.639 72.053,57.639 72.053,64.777 
				86.276,64.777 86.276,57.639 93.39,57.639 93.39,43.403 			"/>
			<rect x="93.39" y="36.291" fill="#FF4046" width="7.112" height="7.112"/>
			<rect x="114.725" y="57.639" fill="#FF4046" width="7.112" height="7.139"/>
			<rect x="107.612" y="50.516" fill="#FF4046" width="7.112" height="7.123"/>
			<polygon fill="#FF7040" points="121.837,71.891 121.837,64.777 107.612,64.777 107.612,71.891 114.725,71.891 114.725,79.003 
				121.837,79.003 121.837,93.225 128.948,93.225 128.948,71.891 			"/>
			<polygon fill="#FFAF40" points="114.725,79.003 114.725,71.891 79.164,71.891 79.164,100.341 86.276,100.341 86.276,79.003 
				107.612,79.003 107.612,86.116 114.725,86.116 114.725,100.341 121.837,100.341 121.837,79.003 			"/>
			<path fill="#FFEF40" d="M107.612,86.116v-7.113H86.276v28.451h28.448V86.116H107.612z M107.612,100.341H93.39V86.116h7.112v7.109
				h7.11V100.341z"/>
			<polygon fill="#FFFFFF" points="100.502,93.225 100.502,86.116 93.39,86.116 93.39,100.341 107.612,100.341 107.612,93.225 			
				"/>
		</g>
		<g>
			<path fill="#806D60" d="M157.432,139.497c0,5.896-4.77,10.667-10.668,10.667l0,0c-5.895,0-10.681-4.771-10.681-10.667l0,0
				c0-5.898,4.786-10.689,10.681-10.689l0,0C152.661,128.808,157.432,133.599,157.432,139.497L157.432,139.497z"/>
			<path fill="#806D60" d="M51.266,129.227l0.002,0.009c0.111-0.032,0.226-0.059,0.338-0.088L51.266,129.227z"/>
			<path fill="#806D60" d="M157.432,118.121c0-5.895-4.77-10.667-10.668-10.667c-0.957,0-1.88,0.138-2.763,0.374l-0.004-0.015
				L52.252,129c0.644-0.122,1.307-0.192,1.986-0.192c5.897,0,10.678,4.791,10.678,10.689c0,4.938-3.357,9.074-7.911,10.293
				l0.004,0.014l92.572-21.366l-0.005-0.018C154.104,127.182,157.432,123.044,157.432,118.121z"/>
			<path fill="#A68E7C" d="M64.916,139.497c0,5.896-4.78,10.667-10.678,10.667l0,0c-5.897,0-10.666-4.771-10.666-10.667l0,0
				c0-5.898,4.769-10.689,10.666-10.689l0,0C60.136,128.808,64.916,133.599,64.916,139.497L64.916,139.497z"/>
			<path fill="#A68E7C" d="M136.083,139.497c0-5.898,4.786-10.689,10.681-10.689c0.678,0,1.338,0.07,1.98,0.191l-91.735-21.186
				l-0.004,0.007c-0.89-0.213-1.789-0.366-2.767-0.366c-5.897,0-10.414,4.772-10.414,10.667c0,4.87,3.659,8.985,7.94,10.267
				l-0.043,0.036c0.281,0.086,0.419,0.164,0.708,0.188l91.567,21.192l0.004-0.013C139.446,148.573,136.083,144.435,136.083,139.497z
				"/>
			<path fill="#A68E7C" d="M149.732,129.235l0.002-0.008l-0.32-0.074C149.52,129.181,149.627,129.205,149.732,129.235z"/>
		</g>
	</g>
	<g>
		<path fill="#806D60" d="M191.712,58.476c-0.623-1.32-1.247-2.624-1.89-3.908l-1.269,0.655c0.649,1.264,1.273,2.543,1.865,3.843
			L191.712,58.476z"/>
		<path fill="#806D60" d="M191.639,142.369c0.597-1.31,1.16-2.637,1.729-3.941l-1.326-0.561c-0.538,1.322-1.116,2.625-1.703,3.911
			L191.639,142.369z"/>
		<path fill="#806D60" d="M197.537,74.721c-0.357-1.381-0.771-2.787-1.191-4.143l-1.362,0.424c0.42,1.334,0.805,2.713,1.159,4.07
			L197.537,74.721z"/>
		<path fill="#806D60" d="M194.97,66.457c-0.501-1.345-0.995-2.708-1.561-4.015l-1.29,0.521c0.518,1.322,1.043,2.653,1.499,3.981
			L194.97,66.457z"/>
		<path fill="#806D60" d="M197.974,83.412l1.391-0.248c-0.253-1.413-0.503-2.85-0.823-4.242l-1.377,0.317
			C197.445,80.603,197.723,81.994,197.974,83.412z"/>
		<path fill="#806D60" d="M183.143,43.447c-0.811-1.174-1.654-2.365-2.531-3.491l-1.11,0.861c0.859,1.109,1.685,2.279,2.486,3.433
			L183.143,43.447z"/>
		<path fill="#806D60" d="M172.194,30.135c-1.034-1.042-2.06-2.04-3.107-3.012l-0.957,1.036c1.029,0.955,2.036,1.973,3.022,2.981
			L172.194,30.135z"/>
		<path fill="#806D60" d="M177.95,36.558c-0.923-1.121-1.849-2.222-2.816-3.273l-1.046,0.951c0.936,1.056,1.88,2.136,2.754,3.24
			L177.95,36.558z"/>
		<path fill="#806D60" d="M165.895,24.248c-1.092-0.954-2.215-1.88-3.354-2.743l-0.855,1.091c1.088,0.885,2.191,1.799,3.274,2.712
			L165.895,24.248z"/>
		<path fill="#806D60" d="M187.735,50.76c-0.691-1.251-1.455-2.485-2.204-3.694l-1.191,0.739c0.735,1.224,1.482,2.439,2.159,3.675
			L187.735,50.76z"/>
		<path fill="#806D60" d="M183.11,157.334c0.816-1.205,1.598-2.395,2.354-3.605l-1.197-0.771c-0.74,1.218-1.547,2.389-2.346,3.565
			L183.11,157.334z"/>
		<path fill="#806D60" d="M199.058,91.856l1.413-0.141c-0.139-1.435-0.286-2.856-0.463-4.271l-1.4,0.176
			C198.78,89.012,198.921,90.408,199.058,91.856z"/>
		<path fill="#806D60" d="M0.981,113.16c0.177,1.425,0.389,2.846,0.638,4.281l1.392-0.246c-0.237-1.404-0.451-2.809-0.63-4.209
			L0.981,113.16z"/>
		<path fill="#806D60" d="M159.118,18.893c-1.186-0.84-2.357-1.649-3.548-2.432l-0.797,1.173c1.195,0.77,2.346,1.583,3.511,2.423
			L159.118,18.893z"/>
		<path fill="#806D60" d="M0.254,104.561c0.057,1.439,0.162,2.868,0.268,4.306l1.412-0.12c-0.108-1.396-0.211-2.819-0.242-4.255
			L0.254,104.561z"/>
		<path fill="#806D60" d="M8.857,137.626l-1.306,0.542c0.527,1.352,1.099,2.648,1.723,3.97l1.263-0.587
			C9.953,140.258,9.4,138.942,8.857,137.626z"/>
		<path fill="#806D60" d="M199.4,100.341v-0.012h1.427v0.012c0-1.441-0.036-2.873-0.087-4.295l-1.438,0.031
			C199.367,97.515,199.4,98.921,199.4,100.341z"/>
		<path fill="#806D60" d="M12.426,145.394l-1.262,0.63c0.633,1.276,1.321,2.543,2.044,3.796l1.233-0.681
			C13.728,147.912,13.055,146.658,12.426,145.394z"/>
		<path fill="#806D60" d="M2.438,121.67c0.324,1.418,0.644,2.805,0.999,4.198l1.395-0.37c-0.38-1.351-0.7-2.753-1.013-4.13
			L2.438,121.67z"/>
		<path fill="#806D60" d="M7.35,133.642c-0.491-1.327-0.945-2.692-1.365-4.035l-1.341,0.419c0.426,1.357,0.854,2.759,1.352,4.09
			L7.35,133.642z"/>
		<path fill="#806D60" d="M196.116,125.789l1.361,0.355c0.359-1.374,0.723-2.794,1.011-4.196l-1.374-0.282
			C196.788,123.041,196.475,124.404,196.116,125.789z"/>
		<path fill="#806D60" d="M193.581,133.899l1.317,0.494c0.498-1.367,0.966-2.714,1.395-4.107l-1.374-0.423
			C194.494,131.233,194.037,132.587,193.581,133.899z"/>
		<path fill="#806D60" d="M200.74,104.868l-1.442-0.073c-0.034,1.414-0.146,2.82-0.253,4.255l1.409,0.107
			C200.561,107.737,200.674,106.308,200.74,104.868z"/>
		<path fill="#806D60" d="M16.629,152.779l-1.221,0.779c0.791,1.213,1.572,2.407,2.385,3.598l1.156-0.818
			C18.15,155.185,17.381,154.003,16.629,152.779z"/>
		<path fill="#806D60" d="M197.935,117.471l1.39,0.237c0.253-1.402,0.47-2.815,0.655-4.242l-1.4-0.194
			C198.397,114.685,198.181,116.076,197.935,117.471z"/>
		<path fill="#806D60" d="M187.7,150.017c0.689-1.254,1.386-2.517,2.049-3.779l-1.263-0.639c-0.653,1.263-1.34,2.503-2.017,3.725
			L187.7,150.017z"/>
		<path fill="#806D60" d="M21.5,40.817l-1.112-0.861c-0.872,1.126-1.715,2.313-2.527,3.484l1.155,0.803
			C19.816,43.093,20.645,41.925,21.5,40.817z"/>
		<path fill="#806D60" d="M12.468,55.18L11.2,54.525c-0.657,1.277-1.287,2.573-1.885,3.89l1.299,0.588
			C11.2,57.711,11.818,56.433,12.468,55.18z"/>
		<path fill="#806D60" d="M16.675,47.79l-1.195-0.741c-0.75,1.207-1.509,2.435-2.21,3.684l1.245,0.718
			C15.191,50.225,15.938,49.015,16.675,47.79z"/>
		<path fill="#806D60" d="M46.227,17.632l-0.786-1.179c-1.193,0.784-2.366,1.599-3.553,2.439l0.828,1.164
			C43.885,19.218,45.041,18.403,46.227,17.632z"/>
		<path fill="#806D60" d="M39.311,22.599l-0.853-1.092c-1.146,0.863-2.267,1.792-3.354,2.746l0.932,1.055
			C37.118,24.399,38.221,23.485,39.311,22.599z"/>
		<path fill="#806D60" d="M32.868,28.167l-0.959-1.037c-1.052,0.975-2.075,1.972-3.104,3.005l1.041,1.014
			C30.828,30.135,31.836,29.123,32.868,28.167z"/>
		<path fill="#806D60" d="M26.912,34.245l-1.047-0.96c-0.97,1.061-1.893,2.157-2.818,3.28l1.108,0.917
			C25.028,36.38,25.968,35.299,26.912,34.245z"/>
		<path fill="#806D60" d="M2.412,87.508L1.009,87.33c-0.178,1.411-0.335,2.848-0.469,4.307l1.408,0.105
			C2.092,90.334,2.233,88.918,2.412,87.508z"/>
		<path fill="#806D60" d="M1.701,96.052l-1.447-0.047c-0.039,1.424-0.08,2.897-0.081,4.324H1.59
			C1.591,98.902,1.628,97.451,1.701,96.052z"/>
		<path fill="#806D60" d="M6.053,70.893l-1.379-0.425c-0.427,1.394-0.826,2.776-1.181,4.172l1.378,0.358
			C5.245,73.603,5.633,72.259,6.053,70.893z"/>
		<path fill="#806D60" d="M8.921,62.887l-1.323-0.529c-0.532,1.344-1.047,2.662-1.53,4.038l1.323,0.481
			C7.875,65.535,8.398,64.199,8.921,62.887z"/>
		<path fill="#806D60" d="M3.862,79.125L2.486,78.84c-0.324,1.394-0.574,2.796-0.827,4.211l1.391,0.248
			C3.298,81.908,3.583,80.519,3.862,79.125z"/>
		<path fill="#806D60" d="M69.169,6.483l-0.456-1.332c-1.354,0.433-2.73,0.931-4.05,1.463l0.486,1.303
			C66.485,7.432,67.84,6.942,69.169,6.483z"/>
		<path fill="#806D60" d="M100.502,1.417c0.731,0,1.451,0.008,2.19,0.026l0.015-1.414c-0.696-0.019-1.413-0.027-2.1-0.027
			c-0.757-0.007-1.474,0.006-2.218,0.025l0.034,1.413C99.125,1.425,99.797,1.417,100.502,1.417z"/>
		<path fill="#806D60" d="M119.862,1.861c-1.414-0.278-2.843-0.5-4.264-0.716l-0.211,1.396c1.396,0.211,2.818,0.459,4.192,0.72
			L119.862,1.861z"/>
		<path fill="#806D60" d="M111.312,0.568c-1.423-0.141-2.852-0.25-4.289-0.359l-0.106,1.411c1.452,0.109,2.853,0.215,4.246,0.383
			L111.312,0.568z"/>
		<path fill="#806D60" d="M53.56,13.267l-0.687-1.252c-1.27,0.693-2.522,1.387-3.752,2.145l0.707,1.215
			C51.061,14.63,52.311,13.952,53.56,13.267z"/>
		<path fill="#806D60" d="M136.433,6.621c-1.354-0.502-2.687-1-4.075-1.466l-0.454,1.367c1.36,0.455,2.71,0.938,4.008,1.43
			L136.433,6.621z"/>
		<path fill="#806D60" d="M144.32,10.053c-1.294-0.628-2.572-1.221-3.898-1.783l-0.56,1.291c1.274,0.574,2.563,1.161,3.837,1.777
			L144.32,10.053z"/>
		<path fill="#806D60" d="M128.251,3.893c-1.401-0.416-2.779-0.775-4.169-1.097l-0.355,1.367c1.405,0.353,2.759,0.707,4.136,1.093
			L128.251,3.893z"/>
		<path fill="#806D60" d="M151.904,14.172c-1.227-0.755-2.474-1.462-3.741-2.136l-0.685,1.25c1.243,0.681,2.471,1.359,3.715,2.102
			L151.904,14.172z"/>
		<path fill="#806D60" d="M61.208,9.552l-0.557-1.314c-1.336,0.563-2.655,1.161-3.928,1.789l0.632,1.287
			C58.617,10.693,59.893,10.106,61.208,9.552z"/>
		<path fill="#806D60" d="M85.697,2.524L85.49,1.13c-1.429,0.214-2.839,0.453-4.234,0.714l0.243,1.416
			C82.91,2.982,84.295,2.737,85.697,2.524z"/>
		<path fill="#806D60" d="M77.349,4.141l-0.314-1.371c-1.414,0.322-2.809,0.704-4.171,1.106l0.384,1.353
			C74.59,4.843,75.981,4.493,77.349,4.141z"/>
		<path fill="#806D60" d="M94.163,1.613l-0.07-1.409c-1.464,0.106-2.899,0.213-4.316,0.354l0.142,1.44
			C91.349,1.823,92.751,1.721,94.163,1.613z"/>
	</g>
	<g>
		<path fill="#FF7040" d="M29.71,190.668c0,2.053-0.28,3.963-0.83,5.731c-0.537,1.732-1.335,3.264-2.379,4.561
			c-1.023,1.294-2.262,2.298-3.712,3.008c-1.454,0.733-3.073,1.087-4.899,1.087c-3.966,0-8.434-0.479-13.443-1.507v-8.619v-24.875
			c-0.676-0.1-1.242-0.211-1.664-0.292c-0.422-0.048-0.699-0.102-0.873-0.134c-0.191-0.031-0.325-0.057-0.396-0.073
			c-0.889-0.186-1.341-0.733-1.341-1.68v-3.159h4.274h6.597v15.747c1.098-1.147,2.325-2.09,3.69-2.751
			c1.389-0.702,2.98-1.038,4.834-1.038c1.483,0,2.873,0.293,4.109,0.906c1.238,0.618,2.313,1.529,3.227,2.697
			c0.875,1.204,1.581,2.665,2.087,4.378C29.457,186.402,29.71,188.418,29.71,190.668z M22.898,190.668
			c0-1.604-0.154-2.986-0.392-4.117c-0.26-1.096-0.633-2.019-1.11-2.728c-0.496-0.675-1.072-1.2-1.772-1.505
			c-0.689-0.344-1.466-0.495-2.349-0.495c-1.357,0-2.54,0.306-3.515,0.878c-0.957,0.573-1.877,1.392-2.716,2.448v14.366
			c1.804,0.324,3.566,0.486,5.346,0.486c0.99,0,1.902-0.184,2.7-0.553c0.799-0.37,1.491-0.939,2.043-1.728
			c0.549-0.757,0.984-1.731,1.304-2.911C22.719,193.653,22.898,192.246,22.898,190.668z"/>
		<path fill="#FF7040" d="M46.867,201.496v3.161h-4.034h-6.632h-4.037v-3.161c0-0.907,0.42-1.491,1.322-1.681
			c0.094-0.019,0.185-0.038,0.355-0.046c0.139-0.021,0.414-0.08,0.793-0.159c0.384-0.048,0.892-0.157,1.566-0.262v-16.936
			c-0.676-0.101-1.185-0.212-1.566-0.278c-0.379-0.059-0.654-0.115-0.793-0.148c-0.172-0.033-0.263-0.055-0.355-0.057
			c-0.902-0.204-1.322-0.753-1.322-1.68v-3.154h4.037h6.632v22.253c0.669,0.104,1.189,0.214,1.567,0.262
			c0.381,0.082,0.656,0.139,0.791,0.159c0.173,0.008,0.268,0.027,0.358,0.046C46.441,200.005,46.867,200.589,46.867,201.496z
			 M43.479,170.665c-0.236,0.518-0.561,0.959-0.938,1.328c-0.381,0.368-0.835,0.684-1.354,0.904
			c-0.513,0.214-1.054,0.327-1.674,0.327c-0.559,0-1.084-0.113-1.611-0.327c-0.494-0.221-0.932-0.536-1.334-0.904
			c-0.369-0.369-0.647-0.81-0.872-1.328c-0.225-0.493-0.356-1.036-0.356-1.601c0-0.583,0.132-1.165,0.356-1.664
			c0.225-0.538,0.503-0.99,0.872-1.357c0.402-0.37,0.84-0.688,1.334-0.908c0.525-0.216,1.051-0.325,1.611-0.325
			c0.62,0,1.161,0.109,1.674,0.325c0.521,0.222,0.975,0.538,1.354,0.908c0.377,0.367,0.701,0.818,0.938,1.357
			c0.228,0.499,0.334,1.081,0.334,1.664C43.814,169.629,43.707,170.172,43.479,170.665z"/>
		<path fill="#FF7040" d="M53.925,203.073c-1.288-1.367-1.934-3.233-1.934-5.608v-15.396h-2.796c-0.346,0-0.654-0.136-0.903-0.354
			c-0.266-0.216-0.386-0.591-0.386-1.045v-2.638l4.414-0.722l1.391-7.54c0.074-0.347,0.239-0.635,0.494-0.831
			c0.246-0.197,0.592-0.273,0.979-0.273h3.433v8.655h7.221v4.751h-7.221v14.95c0,0.86,0.206,1.505,0.626,1.997
			c0.423,0.496,1.018,0.746,1.712,0.746c0.406,0,0.775-0.06,1.027-0.177c0.288-0.076,0.534-0.198,0.742-0.29
			c0.204-0.125,0.381-0.21,0.534-0.327c0.184-0.077,0.341-0.136,0.492-0.136c0.194,0,0.346,0.057,0.493,0.136
			c0.109,0.117,0.252,0.253,0.399,0.45l1.959,3.238c-0.947,0.8-2.063,1.405-3.313,1.814c-1.248,0.413-2.547,0.617-3.863,0.617
			C57.036,205.089,55.216,204.404,53.925,203.073z"/>
		<path fill="#FF7040" d="M91.277,200.562c-0.748,0.866-1.538,1.563-2.396,2.146c-0.861,0.601-1.721,1.053-2.654,1.414
			c-0.934,0.336-1.869,0.589-2.837,0.721c-1.01,0.171-1.97,0.216-2.939,0.216c-1.68,0-3.298-0.302-4.803-0.938
			c-1.496-0.637-2.784-1.582-3.912-2.791c-1.128-1.21-1.995-2.706-2.638-4.483c-0.655-1.743-1.003-3.777-1.003-6.024
			c0-2.012,0.303-3.887,0.874-5.624c0.572-1.736,1.427-3.237,2.565-4.502c1.14-1.264,2.518-2.244,4.175-2.967
			c1.658-0.702,3.572-1.055,5.745-1.055c2.207,0,5.082,0.637,8.654,1.975v8.497H89.88h-0.653h-2.222
			c-0.675,0-1.095-0.354-1.248-1.021c-0.059-0.431-0.225-1.735-0.432-3.884c-1.383-0.338-2.565-0.528-3.475-0.528
			c-1.18,0-2.193,0.213-3.075,0.635c-0.844,0.42-1.587,1.039-2.158,1.819c-0.577,0.778-1.009,1.745-1.308,2.847
			c-0.297,1.133-0.43,2.402-0.43,3.81c0,1.466,0.146,2.785,0.478,3.909c0.293,1.162,0.75,2.109,1.332,2.918
			c0.61,0.768,1.311,1.351,2.152,1.753c0.837,0.398,1.802,0.599,2.857,0.599c1.053,0,1.898-0.116,2.531-0.384
			c0.649-0.268,1.222-0.531,1.672-0.863c0.428-0.293,0.832-0.594,1.149-0.864c0.326-0.23,0.712-0.382,1.122-0.382
			c0.519,0,0.917,0.205,1.195,0.616L91.277,200.562z"/>
		<path fill="#FF7040" d="M120.342,201.449v3.152h-3.351h-0.709h-2.237c-0.636,0-1.121-0.08-1.476-0.267
			c-0.376-0.182-0.624-0.573-0.827-1.155l-0.58-1.938c-0.692,0.624-1.364,1.162-2.044,1.646c-0.673,0.453-1.372,0.873-2.069,1.186
			c-0.729,0.314-1.474,0.552-2.271,0.732c-0.812,0.161-1.701,0.221-2.704,0.221c-1.145,0-2.221-0.148-3.191-0.442
			c-1.006-0.336-1.848-0.817-2.531-1.445c-0.72-0.628-1.255-1.4-1.643-2.317c-0.4-0.947-0.613-2.046-0.613-3.28
			c0-1.042,0.276-2.065,0.839-3.075c0.534-1.009,1.454-1.939,2.722-2.754c1.266-0.813,2.951-1.502,5.051-2.024
			c2.1-0.56,4.717-0.834,7.838-0.834v-1.62c0-1.855-0.382-3.215-1.147-4.119c-0.803-0.902-1.909-1.355-3.393-1.355
			c-1.076,0-1.979,0.149-2.672,0.376c-0.729,0.253-1.347,0.547-1.886,0.841c-0.511,0.329-1.009,0.625-1.466,0.85
			c-0.428,0.257-0.915,0.405-1.474,0.405c-0.42,0-0.826-0.139-1.132-0.373c-0.341-0.236-0.569-0.5-0.766-0.865l-1.232-2.117
			c3.162-2.905,6.979-4.354,11.454-4.354c1.594,0,3.02,0.274,4.28,0.79c1.258,0.543,2.327,1.26,3.209,2.218
			c0.881,0.926,1.556,2.06,2.015,3.375c0.435,1.316,0.655,2.743,0.655,4.28v12.223c0.617,0.127,1.086,0.188,1.438,0.262
			c0.313,0.072,0.504,0.1,0.566,0.1C119.899,199.978,120.342,200.526,120.342,201.449z M110.545,192.918
			c-1.938,0-3.536,0.133-4.832,0.354c-1.303,0.25-2.34,0.58-3.118,0.95c-0.775,0.372-1.36,0.817-1.673,1.341
			c-0.314,0.481-0.51,1.054-0.51,1.642c0,1.159,0.366,1.996,1.035,2.518c0.689,0.484,1.599,0.74,2.716,0.74
			c0.65,0,1.274-0.059,1.872-0.177c0.562-0.11,1.086-0.304,1.613-0.544c0.518-0.255,0.987-0.575,1.47-0.928
			c0.484-0.351,0.934-0.778,1.427-1.287V192.918z"/>
		<path fill="#FF7040" d="M170.333,201.496v3.163H166.3h-6.635v-17.533c0-1.771-0.377-3.095-1.134-3.961
			c-0.792-0.895-1.892-1.342-3.375-1.342c-0.689,0-1.318,0.106-1.887,0.337c-0.596,0.236-1.098,0.594-1.537,1.027
			c-0.441,0.422-0.77,0.988-1.028,1.657c-0.26,0.649-0.367,1.414-0.367,2.28v12.224c0.657,0.106,1.186,0.214,1.565,0.258
			c0.379,0.083,0.654,0.139,0.789,0.163c0.175,0.004,0.269,0.027,0.36,0.046c0.882,0.188,1.315,0.773,1.315,1.68v3.162h-4.027
			h-6.667v-17.532c0-1.84-0.362-3.196-1.085-4.039c-0.762-0.843-1.864-1.263-3.305-1.263c-0.928,0-1.825,0.239-2.653,0.726
			c-0.83,0.448-1.593,1.1-2.318,1.919v14.881c0.675,0.104,1.181,0.214,1.566,0.258c0.412,0.083,0.65,0.139,0.822,0.163
			c0.138,0.004,0.23,0.027,0.32,0.044c0.903,0.188,1.357,0.771,1.357,1.68v3.162h-4.063h-6.627h-4.038v-3.162
			c-0.003-0.904,0.451-1.491,1.316-1.68c0.093-0.017,0.2-0.04,0.356-0.044c0.138-0.024,0.414-0.08,0.794-0.163
			c0.38-0.044,0.928-0.153,1.571-0.258v-16.936c-0.645-0.105-1.194-0.213-1.571-0.278c-0.38-0.063-0.656-0.118-0.794-0.151
			c-0.156-0.031-0.266-0.052-0.356-0.054c-0.865-0.207-1.319-0.753-1.316-1.68v-3.154h4.038h4.047c0.861,0,1.414,0.41,1.69,1.211
			l0.427,2.035c0.496-0.522,0.977-1.028,1.524-1.481c0.509-0.453,1.098-0.833,1.689-1.138c0.591-0.344,1.236-0.604,1.935-0.788
			c0.661-0.188,1.436-0.26,2.257-0.26c1.742,0,3.155,0.443,4.279,1.401c1.094,0.921,1.927,2.174,2.505,3.743
			c0.429-0.927,0.947-1.701,1.594-2.359c0.643-0.657,1.36-1.174,2.12-1.583c0.754-0.41,1.563-0.732,2.439-0.93
			c0.87-0.196,1.745-0.274,2.627-0.274c1.519,0,2.85,0.218,4.038,0.675c1.179,0.473,2.159,1.165,2.956,2.063
			c0.821,0.877,1.443,1.977,1.861,3.271c0.42,1.298,0.63,2.777,0.63,4.44v12.228c0.644,0.101,1.185,0.214,1.564,0.255
			c0.38,0.083,0.656,0.139,0.79,0.166c0.173,0.003,0.268,0.024,0.359,0.042C169.889,200.005,170.333,200.589,170.333,201.496z"/>
		<path fill="#FF7040" d="M200.827,190.668c0,2.053-0.28,3.964-0.828,5.734c-0.541,1.731-1.355,3.263-2.381,4.559
			c-1.023,1.294-2.26,2.298-3.713,3.008c-1.456,0.736-3.073,1.087-4.9,1.087c-1.529,0-2.858-0.243-3.942-0.688
			c-1.087-0.484-2.04-1.147-2.901-1.992v5.975c0.679,0.105,1.187,0.213,1.583,0.257c0.398,0.084,0.637,0.139,0.809,0.173
			c0.138,0.02,0.239,0.02,0.321,0.031c0.904,0.196,1.355,0.774,1.355,1.684v3.159h-4.068h-6.607h-4.058v-3.159
			c0-0.904,0.449-1.487,1.332-1.684c0.078-0.011,0.206-0.011,0.344-0.031c0.136-0.034,0.41-0.089,0.79-0.173
			c0.381-0.045,0.93-0.152,1.592-0.257v-25.935c-0.666-0.104-1.211-0.213-1.592-0.281c-0.38-0.059-0.654-0.115-0.79-0.148
			c-0.138-0.031-0.27-0.053-0.344-0.057c-0.883-0.204-1.332-0.75-1.332-1.68v-3.154h4.058h4.028c0.43,0,0.805,0.092,1.107,0.286
			c0.319,0.195,0.514,0.518,0.582,0.928l0.556,2.56c1.081-1.273,2.354-2.301,3.803-3.118c1.452-0.777,3.137-1.167,5.041-1.167
			c1.497,0,2.887,0.307,4.124,0.933c1.239,0.634,2.313,1.535,3.225,2.733c0.877,1.197,1.584,2.666,2.086,4.404
			C200.574,186.4,200.827,188.423,200.827,190.668z M194.015,190.668c0-1.604-0.155-2.982-0.411-4.117
			c-0.242-1.096-0.617-2.019-1.096-2.728c-0.492-0.671-1.069-1.2-1.768-1.505c-0.692-0.342-1.47-0.495-2.351-0.495
			c-1.355,0-2.543,0.306-3.512,0.879c-0.961,0.572-1.88,1.391-2.716,2.45v12.354c0.743,0.949,1.583,1.604,2.437,1.961
			c0.891,0.357,1.861,0.536,2.875,0.536c0.99,0,1.909-0.186,2.716-0.555c0.807-0.366,1.507-0.939,2.056-1.726
			c0.552-0.757,0.985-1.733,1.306-2.911C193.833,193.653,194.015,192.248,194.015,190.668z"/>
	</g>
</g>
</svg>
