<!-- <svg id="Layer_1" data-name="Layer 1" xmlns="http://www.w3.org/2000/svg" viewBox="0 0 512 512"><defs><style>.cls-1{fill:#fefefd;stroke:#000;}.cls-1,.cls-3{stroke-miterlimit:10;}.cls-2{fill:#333;}.cls-3{fill:none;stroke:#2f9fa7;stroke-width:0.62px;}.cls-4{fill:#2f9fa7;}</style></defs><title>icon</title><rect class="cls-1" x="0.5" y="0.5" width="512" height="512"/><path class="cls-2" d="M31.08,254.66c3.42,6.12,9.2,11.2,14.45,15.7,4.11,3.53,9.21,8.56,14.83,9.26,2,.25,3.77-1.91,3.73-3.73-.25-13.68-1.59-27.3-1.89-41l-5.62,3.22c10.83,8.31,14.06,24.23,27.17,30.09,2.4,1.07,5.77-.13,5.62-3.22-.88-17.82-5.7-35.16-6.61-52.95-.25-4.78-7.71-4.81-7.46,0,.9,17.8,5.72,35.13,6.61,52.95l5.61-3.22c-6.53-2.92-10.41-9.23-14.28-14.94-3.77-5.56-7.51-11-12.89-15.15-2.3-1.76-5.67.64-5.62,3.22.31,13.67,1.65,27.29,1.9,41l3.73-3.73c-.28,0-3-2-3.88-2.56A87.17,87.17,0,0,1,49,263.51c-4.13-3.7-8.74-7.72-11.47-12.61-2.35-4.2-8.79-.44-6.45,3.76Z"/><path class="cls-2" d="M79.19,215.78A134,134,0,0,0,99,215.07c9.5-1.08,17.5-2.92,22.14-12,4.51-8.83,5.6-28.05-7.76-30.2-14.48-2.33-14.65,23.72-14.76,32.37-.25,19.34,4.73,38.27,9.38,56.89,1,4,7.52,3.25,7.33-1a79.32,79.32,0,0,1,1.25-18.91c.63-3.18,2.65-16.3,6.58-16.49,6.14-.3,5.54,17.5,6.8,21.34,2.32,7.07,9.38,9.11,15.31,5.59,5.49-3.26,12.62-8.18,15.33-14.19,1.95-4.35-4.47-8.15-6.44-3.77-1.53,3.39-5,6-7.84,8.22-1.56,1.2-5.28,4.61-7.21,4.14-3.65-.89-3.31-11.13-3.82-13.91-.67-3.67-1.64-7.68-4-10.69a9.83,9.83,0,0,0-17,1.7c-5.36,11.22-7,24.68-6.49,37l7.33-1c-4-15.86-8.21-31.86-9-48.28a92.41,92.41,0,0,1,1.91-24.77c.76-3.39,3.39-10.43,7.15-4.07a15.07,15.07,0,0,1,1.51,10c-.74,4.47-3,10.35-7.4,12.3-3.82,1.68-8.4,2.12-12.51,2.5a139.12,139.12,0,0,1-17.68.49c-4.81-.17-4.8,7.29,0,7.46Z"/><path class="cls-2" d="M450.56,256.7c8.11,2.53,27.2,7,27.44-7,.1-6.16-4.48-9.92-10.38-10.25-6.08-.33-11.58,2.76-15.83,6.86-6.38,6.17-13.34,16.44-9,25.46,5.73,11.78,19.37,8.8,28.47,3.13,4.06-2.54.32-9-3.77-6.45-5,3.1-13.83,7.42-17.75.52-2.56-4.51.93-9.33,3.54-13a24.12,24.12,0,0,1,8.29-7.75c1.84-.93,7.32-2.71,8.8-.15,1.79,3.11-4.1,4.38-6,4.33a31.45,31.45,0,0,1-6.83-1.49c-1.69-.45-3.4-.84-5.06-1.36-4.6-1.43-6.56,5.77-2,7.2Z"/><path class="cls-2" d="M365.86,224.88c3.47-1.29,6.29-3.79,9.22-6,.71-.52,4.15-2.27,4.47-3.09.73-.34.36-.64-1.09-.9q-1.84-1.75-1.43.41a13.74,13.74,0,0,0-.42,3.44c-1,10.5-4.27,20.8-8,30.62-1.5,3.91,5.08,6.73,6.82,2.88,4.4-9.8,10.84-22.09,19.62-28.62.92-.69,2.75-1.74,3.26-1.39.82.57.47,5.32.34,6.8a74.38,74.38,0,0,1-4.42,18.41c-1.24,3.43,3.88,6.47,6.23,3.63,6.87-8.31,13-19,21.95-25.27,1.72-1.21,4.44-3,6.58-3,4.32,0,3.13,4.78,1.68,7.32-2,3.53-4.49,6.85-6.7,10.27a139,139,0,0,0-7.71,13c-1.51,3-3.46,6.65-3,10.12,1,8,11.79,3,16.07,1.31,4.92-1.94,9.75-4.09,14.59-6.22,3-1.33,6.3-3.22,9.6-3.85,4.71-.91,2.71-8.1-2-7.2-7.44,1.44-14.91,6.28-21.87,9.14-2,.84-4.09,1.66-6.17,2.39-.95.33-4.19.7-4.76,1.39-.27.33,1.09,2.55,2.05,1.41s1.58-4.07,2.38-5.59c4.29-8.22,10.26-15.42,14.67-23.55,2.8-5.18,2.4-11-2.12-15s-10.1-2.17-14.87.37c-10.95,5.83-17.95,18.42-25.64,27.72l6.23,3.63c2.52-7,11.74-38.22-5.44-34.5-6.56,1.43-11.52,8.52-15.2,13.57a112.82,112.82,0,0,0-11.8,20l6.82,2.88A159.72,159.72,0,0,0,382,231.45c1.29-5.39,3-12.18,2.47-17.74-1.38-13.59-16.21,2.34-20.6,4s-2.53,8.88,2,7.19Z"/><path class="cls-2" d="M298.73,202.62c-3.21-7.82-10.69-13.31-18.88-8.18-6.54,4.1-10,14.74-3.82,20.64,3.78,3.58,9.17,4.27,13.91,5.78,5.78,1.84,8.1,7.18,6.51,12.89-1,3.71-6,10.66-9.95,5.79-4.32-5.26,2.15-11.83,6.34-14.48,11.13-7.05,26.88-2.28,38.53.68l-1.64-6.24c-6.57,7.64-10.53,23.2.31,29a15.83,15.83,0,0,0,17.2-1.57c4.27-3.26,6.21-8.6,7.4-13.67,2.45-10.51,2.61-26.17-6.5-33.85-8.74-7.36-24.37-2.55-21.16,10.54,3.42,13.94,25.73,17.87,37.58,15.28,4.69-1,2.71-8.22-2-7.19-4.47,1-9.45.36-13.85-.66-4.81-1.12-12.81-3.4-14.42-8.86-1.79-6.08,5.48-6.27,8.89-3.5,3.21,2.59,4.58,8.09,5.18,12,1.05,6.89.19,19.26-5.68,24-3.6,2.9-10.87,2.72-11.83-2.76-.78-4.46,1.25-10.12,4.13-13.47,1.76-2.05,1.25-5.5-1.64-6.24-12-3-25.28-6.44-37.59-3-10.29,2.91-21.4,13.83-17,25.28,4.22,10.89,17.15,9,22.5.28,5.8-9.43,3.3-22.63-7.6-26.85-4.67-1.81-15.66-2.21-13-9.65,2.22-6.19,8.45-5.76,10.81,0,1.8,4.38,9,2.46,7.19-2Z"/><path class="cls-2" d="M159.85,220.28C154.59,228,151.62,239.2,156,248c3.88,7.79,13,9.41,20.2,5.09,8.46-5.09,10.29-14.85,8.48-24-1.7-8.59-5.76-20.6-13.76-25.38-6.24-3.73-16.3-2.52-19,5.09-3.11,8.73,5,16.16,13.1,17,9.22,1,19.35-3.14,27.47-7.15,8.36-4.13,16.21-9.82,21.94-17.25,5.43-7,8.74-16.05,7.45-25-1.18-8.21-8.77-16.17-17.64-13s-9.15,14.45-9.28,22.13a130.71,130.71,0,0,0,4.42,35.86c2.37,8.91,5.3,21,12.76,27.14,6.58,5.46,16.3,3.06,22.47-1.91,7.29-5.86,12.65-14.45,15.85-23.17,2.45-6.68,5.08-19.19-5.28-20.28-8.63-.91-14.44,9.38-13.79,16.88.85,9.67,8.78,18.66,18.39,20.28s16.34-3.48,21.44-11.06c3.56-5.28,8.33-11.92,8.9-18.4.42-4.79-7-4.76-7.46,0-.3,3.37-3.41,7.36-5.1,10.18a50,50,0,0,1-6,8.81c-9,9.55-27.75-3.66-21.87-15.24.55-1.08,2.23-3.54,3.67-3.75,3.43-.52,1.78,4.4,1.24,6.51a48.49,48.49,0,0,1-8.1,16.48c-3.47,4.71-7.67,9.11-13.65,10.13-7.14,1.23-9.9-6.17-12.05-11.69a123.36,123.36,0,0,1-8.35-43.16c0-4.91-1-13.07,2.37-17.13,2.64-3.2,6.68-1.51,8.53,1.64s1.59,7.92.87,11.46c-2.27,11.11-11.68,19.36-21.06,24.8-5.92,3.44-31.2,15.82-34.15,4-.91-3.66,2.54-5.21,5.7-4.62,3.65.68,5.93,4,7.56,7.1,3.52,6.57,7.16,15.91,5.3,23.38-1.3,5.2-8.76,11.8-13.77,6.65-5.56-5.72-1.1-16.91,2.56-22.27,2.72-4-3.74-7.7-6.44-3.76Z"/><line class="cls-3" x1="142.42" y1="289.4" x2="142.42" y2="289.4"/><path class="cls-4" d="M138.77,182.32c3.72,3.53,9.94,7.07,13.66,10.6"/><path class="cls-4" d="M136.57,184.52c4.26,3.91,9.41,6.69,13.66,10.6,2.94,2.7,7.35-1.68,4.4-4.4-4.26-3.91-9.41-6.69-13.66-10.6-2.95-2.7-7.35,1.68-4.4,4.4Z"/><path class="cls-4" d="M162.73,168.71c-.08,5.13-.16,14-.24,19.13"/><path class="cls-4" d="M159.62,168.71c-.09,6.37-.14,12.75-.24,19.13,0,4,6.16,4,6.22,0,.1-6.38.14-12.76.24-19.13.06-4-6.16-4-6.22,0Z"/><path class="cls-4" d="M181.12,176.64,174,190.32"/><path class="cls-4" d="M178.43,175.07l-7.08,13.68c-1.83,3.55,3.53,6.7,5.37,3.14l7.08-13.68c1.84-3.55-3.52-6.7-5.37-3.14Z"/><path class="cls-4" d="M321.92,171.57l8.41,12.91"/><path class="cls-4" d="M319.23,173.14l8.41,12.91c2.18,3.34,7.57.23,5.37-3.14L324.6,170c-2.17-3.35-7.56-.23-5.37,3.13Z"/><path class="cls-4" d="M348.16,164.52c-1.26,5-3.11,12.38-4.38,17.35"/><path class="cls-4" d="M345.16,163.7c-1.47,5.78-2.9,11.56-4.37,17.34-1,3.88,5,5.54,6,1.66,1.47-5.78,2.91-11.57,4.38-17.35,1-3.88-5-5.54-6-1.65Z"/><path class="cls-4" d="M367,175.92l-10.06,11.66"/><path class="cls-4" d="M364.79,173.72l-10.06,11.66c-2.6,3,1.78,7.44,4.4,4.4l10.06-11.66c2.6-3-1.78-7.44-4.4-4.4Z"/><path class="cls-4" d="M182.73,276.24c.14,10.79.23,21.58.36,32.38,0,3.2,5,3.21,5,0-.14-10.8-.23-21.59-.36-32.38,0-3.2-5-3.21-5,0Z"/><path class="cls-4" d="M200.17,276.51c.14,10.79.23,21.59.36,32.38,0,3.2,5,3.21,5,0-.14-10.79-.23-21.59-.36-32.38,0-3.2-5-3.21-5,0Z"/><path class="cls-4" d="M291.09,276.35c.14,10.79.23,21.59.36,32.38,0,3.2,5,3.21,5,0-.13-10.79-.22-21.59-.35-32.38,0-3.2-5-3.21-5,0Z"/><path class="cls-4" d="M226.47,276.18l-10.41,32c-1,3.05,3.81,4.36,4.8,1.32l10.4-32c1-3.05-3.8-4.36-4.79-1.32Z"/><path class="cls-4" d="M226.83,277.55l12.49,31.88c1.15,2.94,6,1.66,4.79-1.33l-12.48-31.87c-1.16-3-6-1.67-4.8,1.32Z"/><path class="cls-4" d="M308.42,275.39l-16.23,18.5c-2.1,2.4,1.4,5.93,3.52,3.52l16.22-18.5c2.11-2.4-1.4-5.93-3.51-3.52Z"/><path class="cls-4" d="M292.62,295.25,309,310.35c2.35,2.17,5.88-1.34,3.52-3.52l-16.36-15.1c-2.35-2.17-5.88,1.34-3.52,3.52Z"/><path class="cls-4" d="M344.09,282.09c-3.14-10.95-22.55-9.73-20.52,2.7.82,5,6.88,8.62,11,10.79a10.31,10.31,0,0,1,2.3,1.15c3.09,2.79,2.52,9-2.38,9.39-5.1.45-8.22-4.11-9.05-8.44-.61-3.14-5.41-1.81-4.8,1.32,1.08,5.63,4.6,10.16,10.3,11.57s11.23-1.16,12.68-7.07c1.26-5.18-2-9.95-6.37-12.18-2.26-1.16-5.8-3.13-7.41-5.09-5.14-6.28,7.39-10.15,9.49-2.82.88,3.07,5.68,1.77,4.8-1.32Z"/><path class="cls-4" d="M277.56,284.18c-1.28-7.29-8-10.92-15.14-9-8.07,2.14-10.55,12.67-10.26,20s4.2,15.06,12.22,15.85c7.19.71,13.2-3.4,13.48-10.82.12-3.21-4.86-3.2-5,0-.18,4.82-4.76,6.77-9.08,5.72-5.14-1.25-6.85-7.5-6.67-12.19.17-4.48,1.31-11.75,6-13.61s8.83.81,9.63,5.42c.55,3.14,5.35,1.81,4.8-1.33Z"/><path class="cls-4" d="M186.58,301.33H202.9c3.2,0,3.2-5,0-5H186.58c-3.2,0-3.21,5,0,5Z"/><path class="cls-4" d="M221.69,301.33H238c3.2,0,3.21-5,0-5H221.69c-3.2,0-3.21,5,0,5Z"/><path class="cls-4" d="M146.78,296.39H163.1c3.2,0,3.21-5,0-5H146.78c-3.2,0-3.2,5,0,5Z"/><path class="cls-4" d="M364.17,296.39h16.32c3.2,0,3.21-5,0-5H364.17c-3.2,0-3.21,5,0,5Z"/></svg> -->
<!-- Why are you looking here? Oh well, here's a little something: SGFja1RYIDIwMTggaXMgT2N0b2JlciAyMCBpbiB0aGUgQVQmVCBjZW50ZXIuIE1vcmUgcHV6emxlcyB0byBjb21lLg== -->
<svg version="1.2" baseProfile="tiny" xmlns="http://www.w3.org/2000/svg" xmlns:xlink="http://www.w3.org/1999/xlink" x="0px"
	 y="0px" viewBox="0 0 512 512" xml:space="preserve">
<g id="Layer_1">
	<g>
		<path fill="#FFFFFF" d="M455.8,299.9c-11.4,0-21-4.8-27.5-13.4c-3.1,0.9-6.4,1.5-9.9,1.5c-11,0-20-6.3-23.6-15.9
			c-2.9-0.4-5.7-1.3-8.2-2.7c-3.9,3-8.9,4.7-14.2,4.7c-6.9,0-13.5-3-18.1-8c-5.2,2.8-11.1,4.3-17,4.3c-5.8,0-11.6-1.4-16.7-4.2
			c-3.4-1.8-6.4-4.1-8.9-6.8c-6.3,5.7-14.4,9-22.8,9c-8.9,0-17-3.7-22.7-10c-4.7,1.7-9.3,2.3-13.1,2.3c-1.3,0-2.7-0.1-4-0.2
			c-0.7,0.6-1.4,1.2-2.1,1.8c-7.4,6-16.9,9.4-26,9.4c-8.2,0-15.7-2.7-21.8-7.7c-1-0.8-1.9-1.6-2.8-2.5c-2.8,3.5-6.1,6.4-10.1,8.8
			c-5.7,3.4-12.1,5.2-18.5,5.2c-5.6,0-11-1.4-15.7-3.9c-4.1,1.8-8.5,2.8-12.9,2.8c-2.6,0-5-0.3-7.4-0.9c-0.9,1.4-1.9,2.8-3.1,4
			c-4.5,4.7-10.8,7.3-17.3,7.3c-3.5,0-6.9-0.8-10-2.2c-4.3,3.8-10.1,6-16,6c-1.6,0-3.3-0.2-4.9-0.5c-1,1.6-2.1,3.1-3.5,4.5
			c-4.4,4.5-10.3,7.1-16.5,7.1c-0.9,0-1.9-0.1-2.8-0.2c-11-1.4-18.9-8.2-24.1-12.8c-0.5-0.4-0.9-0.8-1.3-1.2
			c-5.4-4.6-13.6-11.6-18.9-21.1c-4.1-7.4-4.1-16.2,0.2-23.5c4.3-7.3,12.3-11.9,20.7-11.9c0.3,0,0.6,0,0.9,0c1-4,3.1-7.8,6.1-10.8
			c3.7-3.8,8.6-6.3,13.7-7c0.2-9.4,5.8-17.7,14.5-21.2c2.9-1.2,5.9-1.8,9.1-1.8c0.2,0,0.5,0,0.7,0c0.3-2.4,0.8-4.9,1.3-7.3
			c1.6-6.7,4-12.2,7.4-16.6c5.8-7.5,14-11.7,23.2-11.7c1.6,0,3.3,0.1,4.9,0.4c10.4,1.7,18.7,7.8,23.5,17.2c2.7,5.4,4,11.3,4.2,17.2
			c5.3-3.7,11.9-5.9,19.1-5.9c4,0,8,0.7,11.7,2c0.2-9.9,1.7-31.6,22.5-39.1c3.5-1.2,7.1-1.9,10.7-1.9c16.5,0,30.9,13.3,33.4,30.9
			c0.5,3.2,0.6,6.4,0.4,9.6c0.7,0,1.4-0.1,2.1-0.1c1,0,2.1,0.1,3.2,0.2c4.4,0.5,8.4,1.8,11.9,3.9c2.6-3.8,6-7.1,10-9.6
			c5.3-3.3,11.2-5.1,17-5.1c10.8,0,20.6,5.6,27,15.1c6-7.4,15.2-11.6,25.3-11.6c8.3,0,16.3,2.9,22.5,8.2c2.5,2.1,4.7,4.6,6.6,7.3
			c3.8-1.8,8-3.1,12.7-3.1c6.9,0,12.3,2.6,16.2,6.5c0.7,0,1.4-0.1,2-0.1c5.6,0,10.9,1.6,15.2,4.6c5.5-2.6,10.6-3.8,15.7-3.8
			c7.2,0,13.9,2.5,19.4,7.4c5.4,4.8,8.8,10.9,10.1,17.5c2.5-0.5,5.1-0.8,7.7-0.8c0.7,0,1.3,0,2,0.1c17,1,29.6,14.1,29.3,30.5
			c-0.1,6.4-2,12.3-5.5,17.1c2,9.7-2.2,19.4-10.7,24.7C477,294.9,467.3,299.9,455.8,299.9z"/>
		<path fill="#2F9FA7" d="M478,249.7c0.1-6.2-4.5-9.9-10.4-10.2c-6.1-0.3-11.6,2.8-15.8,6.9c-0.5,0.5-1,1-1.5,1.5
			c-7,1.7-14,6.2-20.6,8.9c-2,0.8-4.1,1.7-6.2,2.4c-0.3,0.1-0.9,0.2-1.6,0.4c0.4-1.1,0.8-2.3,1.2-3.2c4.3-8.2,10.3-15.4,14.7-23.5
			c2.8-5.2,2.4-11-2.1-15c-4.5-4-10.1-2.2-14.9,0.4c-6,3.2-10.8,8.4-15.1,13.9c1.3-9.7,0.2-19.2-9.7-17.1c-5.1,1.1-9.2,5.6-12.5,9.9
			c0.8-3.8,1.3-7.7,1-11.2c-1.4-13.6-16.2,2.3-20.6,4c-0.2,0.1-0.4,0.2-0.6,0.3c-0.2,0-0.5,0-0.7,0.1c-2.1,0.5-4.3,0.6-6.6,0.4
			c-0.4-7.3-2.5-14.6-7.9-19.1c-8.7-7.4-24.4-2.5-21.2,10.5c0.8,3.3,2.7,6.1,5.3,8.3c-11.6-2.9-24.3-6-36.2-2.8
			c-0.8-0.4-1.6-0.9-2.4-1.2c-4.7-1.8-15.7-2.2-13-9.7c2.2-6.2,8.5-5.8,10.8,0c1.8,4.4,9,2.5,7.2-2l0.1,0
			c-3.2-7.8-10.7-13.3-18.9-8.2c-4.8,3-7.9,9.5-6.8,15.1c-0.2,0.4-0.3,0.8-0.4,1.3c-0.3,3.4-3.4,7.4-5.1,10.2
			c-1.7,3.1-3.7,6.1-6,8.8c-4,4.2-9.8,4-14.6,1.5c1.4-2.6,2.5-5.2,3.5-7.9c2.5-6.7,5.1-19.2-5.3-20.3c-8.6-0.9-14.4,9.4-13.8,16.9
			c0.4,4.7,2.5,9.3,5.7,12.9c-0.2,0.3-0.4,0.6-0.6,0.9c-3.5,4.7-7.7,9.1-13.6,10.1c-7.1,1.2-9.9-6.2-12-11.7
			c-2.7-6.9-4.7-14-6.1-21.3c3.6-2.8,6.9-6,9.7-9.6c5.4-7,8.7-16,7.5-25c-1.2-8.2-8.8-16.2-17.6-13c-8.9,3.2-9.1,14.5-9.3,22.1
			c-0.1,7.5,0.4,15,1.6,22.3c-1.1,0.7-2.2,1.4-3.3,2c-2.2,1.3-7.2,3.8-12.7,5.9c-2.3-5-5.4-9.6-9.6-12.1c-6.2-3.7-16.3-2.5-19,5.1
			c-2.2,6.1,1.1,11.5,6.1,14.6c-1.9,3.4-3.2,7.3-3.8,11.3c0,0,0,0,0,0c-1.5,3.4-5,6-7.8,8.2c-1.6,1.2-5.3,4.6-7.2,4.1
			c-3.6-0.9-3.3-11.1-3.8-13.9c-0.7-3.7-1.6-7.7-4-10.7c-3.1-4.4-9.3-5.5-13.7-2.3c-1.4,1-2.6,2.4-3.3,4c-2,4.2-3.5,8.8-4.6,13.5
			c-1.7-7.8-3-15.7-3.5-23.7c6.3-1.4,11.5-4.2,14.9-10.8c4.5-8.8,5.6-28-7.8-30.2c-14.5-2.3-14.7,23.7-14.8,32.4c0,0.8,0,1.6,0,2.4
			c-0.6,0.1-1.3,0.1-1.9,0.2c-5.9,0.5-11.8,0.7-17.7,0.5c-0.6,0-1.2,0.1-1.7,0.3c-1.3,0.5-2.2,1.6-2.1,3.3c0.8,15.3,4.4,30.2,6,45.4
			c-3.1-3.1-5.6-7-8.1-10.6c-3.8-5.6-7.5-11-12.9-15.2c-2.3-1.8-5.7,0.6-5.6,3.2c0.3,11.6,1.3,23.1,1.7,34.7
			c-2.6-1.9-5.1-3.9-7.4-6.1c-4.1-3.7-8.7-7.7-11.5-12.6c-2.4-4.2-8.8-0.4-6.5,3.8c3.4,6.1,9.2,11.2,14.5,15.7
			c4.1,3.5,9.2,8.6,14.8,9.3c2,0.2,3.8-1.9,3.7-3.7c-0.2-10.6-1-21.1-1.5-31.7c6.7,8.5,10.8,19.4,21.2,24c2.4,1.1,5.8-0.1,5.6-3.2
			c-0.8-16.5-5-32.6-6.3-49.1c5.3,0.1,10.6-0.2,15.9-0.8c1.1,15.9,5.2,31.6,9.1,47.1c1,4,7.5,3.2,7.3-1c-0.3-6.3,0.1-12.7,1.2-18.9
			c0.6-3.2,2.6-16.3,6.6-16.5c6.1-0.3,5.5,17.5,6.8,21.3c2.3,7.1,9.4,9.1,15.3,5.6c3.1-1.8,6.7-4.2,9.8-7c0.3,0.8,0.6,1.6,1,2.3
			c3.9,7.8,13,9.4,20.2,5.1c8.5-5.1,10.3-14.8,8.5-24c-0.4-2-0.9-4.1-1.6-6.3c3.3-1.2,6.5-2.7,9.4-4.1c1.9-0.9,3.7-1.9,5.5-3
			c0.4,1.9,0.9,3.8,1.4,5.8c2.4,8.9,5.3,21,12.8,27.1c6.6,5.5,16.3,3.1,22.5-1.9c3.1-2.5,5.9-5.5,8.3-8.8c2.1,1.2,4.5,2.1,6.9,2.5
			c9.6,1.6,16.3-3.5,21.4-11.1c2.4-3.6,5.5-7.9,7.3-12.3c2.6,1.5,5.5,2.3,8.4,3.1c-6.6,4.9-11.3,12.7-8.2,20.8
			c4.2,10.9,17.2,9,22.5,0.3c3.7-6,4-13.6,0.9-19.4c7.9-1.1,16.6,0.8,24.3,2.7c-4.2,8.1-5.2,19.3,3.6,24c5.5,2.9,12.3,2.3,17.2-1.6
			c4.3-3.3,6.2-8.6,7.4-13.7c0.5-2.2,0.9-4.7,1.2-7.3c3.2,0.1,6.2-0.2,8.7-0.7c0.2,0,0.3-0.1,0.5-0.2c0.3,0,0.5-0.1,0.8-0.2l0,0
			c3.5-1.3,6.3-3.8,9.2-6c0.3-0.2,0.9-0.5,1.6-1c0,0.3,0,0.5,0,0.8c-1,10.5-4.3,20.8-8,30.6c-1.5,3.9,5.1,6.7,6.8,2.9
			c4.4-9.8,10.8-22.1,19.6-28.6c0.9-0.7,2.8-1.7,3.3-1.4c0.8,0.6,0.5,5.3,0.3,6.8c-0.7,6.3-2.2,12.5-4.4,18.4
			c-1.2,3.4,3.9,6.5,6.2,3.6c6.9-8.3,13-19,22-25.3c1.7-1.2,4.4-3,6.6-3c4.3,0,3.1,4.8,1.7,7.3c-2,3.5-4.5,6.8-6.7,10.3
			c-2.8,4.2-5.4,8.5-7.7,13c-1.5,3-3.5,6.7-3,10.1c1,8,11.8,3,16.1,1.3c4.5-1.8,9-3.7,13.4-5.7c-1.6,4.1-2,8.5,0,12.7
			c5.7,11.8,19.4,8.8,28.5,3.1c4.1-2.5,0.3-9-3.8-6.5c-5,3.1-13.8,7.4-17.8,0.5c-2.3-4,0.2-8.3,2.6-11.7
			C461.2,259.8,477.8,262.7,478,249.7z M108,187.1c0.8-3.4,3.4-10.4,7.2-4.1c1.6,3.1,2.2,6.6,1.5,10c-0.7,4.5-3,10.4-7.4,12.3
			c-1,0.5-2.1,0.8-3.3,1.1C106,200,106.6,193.5,108,187.1z M164.8,209.3c3.6,0.7,5.9,4,7.6,7.1c0.3,0.5,0.6,1.1,0.9,1.7
			c-6.7,1.6-12.8,1.2-14.1-4.2C158.2,210.3,161.6,208.7,164.8,209.3z M177.6,239.8c-1.3,5.2-8.8,11.8-13.8,6.6
			c-5-5.2-1.9-14.8,1.5-20.6c3.5,0.3,7.1-0.1,10.7-0.9C177.8,229.9,178.8,235.2,177.6,239.8z M202.5,189.1c0-4.9-1-13.1,2.4-17.1
			c2.6-3.2,6.7-1.5,8.5,1.6c1.8,3.2,1.6,7.9,0.9,11.5c-1.4,6.9-5.6,12.8-10.9,17.5C202.9,198.1,202.6,193.7,202.5,189.1z
			 M239.7,214.6c0.5-1.1,2.2-3.5,3.7-3.8c3.4-0.5,1.8,4.4,1.2,6.5c-0.9,3.1-2,6.1-3.5,9C238.6,223,237.6,218.7,239.7,214.6z
			 M296.5,233.8c-1,3.7-6,10.7-10,5.8c-4.3-5.3,2.2-11.8,6.3-14.5c0.6-0.4,1.3-0.7,1.9-1.1C296.9,226.5,297.5,230.1,296.5,233.8z
			 M343.2,205c3.2,2.6,4.6,8.1,5.2,12c0,0.1,0,0.2,0,0.3c-4.8-1.1-12.5-3.4-14.1-8.8C332.5,202.4,339.8,202.2,343.2,205z M342.7,241
			c-3.6,2.9-10.9,2.7-11.8-2.8c-0.8-4.5,1.2-10.1,4.1-13.5c1-1.1,1.3-2.7,0.8-4c3.8,2.2,8.3,3.7,12.9,4.5
			C348.3,231.3,346.6,237.9,342.7,241z M470.4,248.1c1.8,3.1-4.1,4.4-6,4.3c-2.3-0.2-4.5-0.7-6.7-1.4c1.2-1,2.5-2,3.9-2.7
			C463.4,247.3,468.9,245.5,470.4,248.1z"/>
		<path fill="#FFFFFF" d="M152.3,216c-5.8,0-11.3-2.2-15.6-6.1c-1.2-1.1-3-2.4-4.9-3.7c-2.7-1.9-5.7-4.1-8.8-6.9
			c-7-6.5-9.3-16.3-5.9-25.1c3.5-8.9,12.2-14.9,21.7-14.9c5.7,0,11.2,2.1,15.5,6l0.1,0.1c1.2,1.1,3,2.4,4.9,3.7
			c2.7,1.9,5.7,4.1,8.8,6.9c7,6.5,9.3,16.3,5.9,25.1C170.6,210,161.8,216,152.3,216C152.3,216,152.3,216,152.3,216z"/>
		<path fill="#2F9FA7" d="M150.2,195.1c2.9,2.7,7.3-1.7,4.4-4.4c-4.3-3.9-9.4-6.7-13.7-10.6c-3-2.7-7.4,1.7-4.4,4.4
			C140.8,188.4,146,191.2,150.2,195.1z"/>
		<path fill="#FFFFFF" d="M162.5,210.8c-12.9,0-23.1-10.1-23.1-23l0-0.3c0.1-3.5,0.1-7,0.1-10.6c0-2.8,0.1-5.7,0.1-8.5
			c0.2-12.7,10.4-22.7,23.2-22.7c6.2,0,12.2,2.5,16.5,6.9c4.3,4.4,6.6,10.2,6.5,16.4c0,3.2-0.1,6.3-0.1,9.5c0,3.2-0.1,6.5-0.1,9.7
			C185.4,200.9,175.2,210.8,162.5,210.8z"/>
		<path fill="#2F9FA7" d="M165.6,187.8c0.1-6.4,0.1-12.8,0.2-19.1c0.1-4-6.2-4-6.2,0c-0.1,6.4-0.1,12.8-0.2,19.1
			C159.4,191.8,165.5,191.8,165.6,187.8z"/>
		<path fill="#FFFFFF" d="M174.3,213.5c-8.1,0-15.7-4.3-20-11.3c-4.2-6.9-4.5-15.4-0.8-22.6l7.1-13.7c4-7.6,11.7-12.4,20.2-12.4
			c8.1,0,15.7,4.3,20,11.3c4.2,6.9,4.5,15.4,0.7,22.6l-7.1,13.7C190.5,208.7,182.8,213.5,174.3,213.5
			C174.3,213.5,174.3,213.5,174.3,213.5z"/>
		<path fill="#2F9FA7" d="M176.7,191.9l7.1-13.7c1.8-3.5-3.5-6.7-5.4-3.1l-7.1,13.7C169.5,192.3,174.9,195.5,176.7,191.9z"/>
		<path fill="#FFFFFF" d="M330.2,207.5c-7.8,0-15-3.9-19.3-10.5l-11.7-17.9v-2.8c-1.1-5.2-0.4-10.7,2.2-15.5
			c4.1-7.5,12-12.2,20.6-12.2c7.8,0,15.1,3.9,19.3,10.6l8.4,12.9c4.6,7,5,16,1,23.3C346.7,202.8,338.8,207.5,330.2,207.5
			C330.2,207.5,330.2,207.5,330.2,207.5z"/>
		<path fill="#2F9FA7" d="M319.2,173.1l8.4,12.9c2.2,3.3,7.6,0.2,5.4-3.1l-8.4-12.9C322.4,166.6,317,169.8,319.2,173.1L319.2,173.1z
			"/>
		<path fill="#FFFFFF" d="M344,204.9c-7.2,0-14.1-3.4-18.5-9c-4.4-5.6-5.8-12.9-4-19.8c0.7-2.8,1.4-5.7,2.2-8.5
			c0.7-2.9,1.5-5.8,2.2-8.7l3.8-15.1h8.5c3-1.4,6.3-2.2,9.8-2.2c7.2,0,14.1,3.4,18.5,9c4.4,5.6,5.8,12.9,4,19.8
			c-0.7,2.8-1.4,5.7-2.2,8.6c-0.7,2.9-1.5,5.8-2.2,8.7C363.5,197.8,354.4,204.9,344,204.9z"/>
		<path fill="#2F9FA7" d="M346.8,182.7c1.5-5.8,2.9-11.6,4.4-17.4c1-3.9-5-5.5-6-1.6h0c-1.5,5.8-2.9,11.6-4.4,17.3
			C339.8,184.9,345.8,186.6,346.8,182.7z"/>
		<path fill="#FFFFFF" d="M357.1,210.8c-9,0-17.2-5.4-21-13.7c-3.8-8.4-2.4-17.9,3.6-24.8l10-11.6c4.4-5.1,10.6-8,17.2-8
			c9,0,17.2,5.4,21,13.7c3.8,8.4,2.4,17.9-3.6,24.8l-10,11.6C369.9,207.9,363.7,210.8,357.1,210.8
			C357.1,210.8,357.1,210.8,357.1,210.8z"/>
		<path fill="#2F9FA7" d="M359.1,189.8l10.1-11.7c2.6-3-1.8-7.4-4.4-4.4l-10.1,11.7C352.1,188.4,356.5,192.8,359.1,189.8z"/>
		<path fill="#FFFFFF" d="M203,331.3c-3.2,0-6.2-0.7-9-1.9c-2.6,1-5.5,1.6-8.5,1.6c-12.3,0-22.4-10-22.5-22.2
			c-0.1-4.8-0.1-9.5-0.2-14.3c-0.1-6-0.1-12-0.2-18l0-0.3c0-12.4,10.1-22.4,22.5-22.4c3.2,0,6.2,0.7,9,1.9c2.6-1,5.4-1.6,8.4-1.6
			c12.3,0,22.4,10,22.5,22.2c0.1,4.8,0.1,9.5,0.2,14.3c0.1,6,0.1,12,0.2,18l0,0.3c0,6.6-2.8,12.8-7.8,17
			C213.7,329.4,208.5,331.3,203,331.3C203,331.3,203,331.3,203,331.3z"/>
		<path fill="#2F9FA7" d="M200.2,276.5c0.1,6.6,0.2,13.2,0.2,19.8H188c-0.1-6.7-0.1-13.4-0.2-20.1c0-3.2-5-3.2-5,0
			c0.1,10.8,0.2,21.6,0.4,32.4c0,3.2,5,3.2,5,0c0-2.4-0.1-4.9-0.1-7.3h12.4c0,2.5,0.1,5,0.1,7.6c0,3.2,5,3.2,5,0
			c-0.1-10.8-0.2-21.6-0.4-32.4C205.2,273.3,200.2,273.3,200.2,276.5z"/>
		<path fill="#FFFFFF" d="M218.5,331.2c-7.3,0-14.1-3.5-18.4-9.3c-4.1-5.7-5.3-13.2-3.1-20l10.4-32c3-9.3,11.6-15.5,21.4-15.5
			c2.1,0,4.1,0.3,6.1,0.8c7,1.8,12.7,6.9,15.4,13.8l7.6,19.3c0.7,1.4,1.3,2.9,1.7,4.5l3.1,8c2.7,6.8,1.9,14.5-2.1,20.5
			c-4.2,6.2-11.2,9.9-18.8,9.9c0,0,0,0,0,0c-4.2,0-8.2-1.1-11.6-3.1C226.8,330,222.7,331.2,218.5,331.2z"/>
		<path fill="#2F9FA7" d="M240.4,298.6c0-0.5-0.2-1.1-0.6-1.5l-8.2-20.9c-0.4-0.9-1.1-1.5-1.9-1.6c-1.2-0.4-2.8,0-3.3,1.6l-10.4,32
			c-1,3,3.8,4.4,4.8,1.3l2.7-8.2h12.6l3.2,8.1c1.2,2.9,6,1.7,4.8-1.3L240.4,298.6z M225.1,296.3l4.1-12.6l4.9,12.6H225.1z"/>
		<path fill="#FFFFFF" d="M294,331.1c-12.3,0-22.4-10-22.5-22.2c-0.1-4.7-0.1-9.5-0.2-14.2c-0.1-6-0.1-12-0.2-18l-0.3-20.3h12.5
			c3.1-1.5,6.6-2.4,10.3-2.4c3.2,0,6.3,0.7,9.1,1.9c2.3-0.8,4.8-1.3,7.4-1.3c8.8,0,16.8,5.2,20.5,13.4c3.6,8,2.2,17.5-3.6,24.2
			l-0.4,0.5c6.4,6.3,8.5,15.6,5.2,24c-3.4,8.6-11.9,14.5-21.1,14.5c0,0,0,0,0,0c-2.8,0-5.5-0.5-8.1-1.5
			C299.9,330.6,297,331.1,294,331.1z"/>
		<path fill="#2F9FA7" d="M298.7,294l13.3-15.1c2.1-2.4-1.4-5.9-3.5-3.5h0l-12.2,13.9c0-4.3-0.1-8.6-0.1-12.9c0-3.2-5-3.2-5,0h0
			c0.1,10.8,0.2,21.6,0.4,32.4c0,3.2,5,3.2,5,0c0-3.3-0.1-6.7-0.1-10l12.7,11.7c2.4,2.2,5.9-1.3,3.5-3.5L298.7,294z"/>
		<path fill="#FFFFFF" d="M334,330.9c-2.6,0-5.3-0.3-7.8-1c-12.9-3.2-22.5-13.6-25.1-27.2c-1.1-5.4-0.1-11,2.7-15.7
			c-1.1-8.2,1.1-16.1,6.3-22.2c5.6-6.5,14-10.3,23.2-10.3c8,0,15.3,2.8,20.8,7.5h5.2l4.2,14.5c1.5,5.2,1.1,10.5-1,15.2
			c1.7,5.2,2.1,10.9,0.7,16.4C359.7,321.8,348,330.9,334,330.9C334,330.9,334,330.9,334,330.9z"/>
		<path fill="#2F9FA7" d="M339.3,283.4c0.9,3.1,5.7,1.8,4.8-1.3l0,0c-3.1-11-22.5-9.7-20.5,2.7c0.8,5,6.9,8.6,11,10.8
			c0.8,0.3,1.6,0.7,2.3,1.1c3.1,2.8,2.5,9-2.4,9.4c-5.1,0.5-8.2-4.1-9-8.4c-0.6-3.1-5.4-1.8-4.8,1.3c1.1,5.6,4.6,10.2,10.3,11.6
			c5.7,1.4,11.2-1.2,12.7-7.1c1.3-5.2-2-10-6.4-12.2c-2.3-1.2-5.8-3.1-7.4-5.1C324.7,280,337.2,276.1,339.3,283.4z"/>
		<path fill="#FFFFFF" d="M266,331.1c-1.2,0-2.4-0.1-3.5-0.2c-17.1-1.7-29.5-16.1-30.2-35c-0.7-16.5,6.9-35.3,25.1-40.1
			c2.9-0.8,5.9-1.2,8.9-1.2c15.6,0,28.4,10.7,31.1,26.1l1.1,6.4l-1.4,3c-0.2,0.6-0.3,1.3-0.6,1.9c1.1,2.8,1.6,5.8,1.5,9
			C297.2,318.2,283.5,331.1,266,331.1C266,331.1,266,331.1,266,331.1z"/>
		<path fill="#2F9FA7" d="M272.9,300.2c-0.2,4.8-4.8,6.8-9.1,5.7c-5.1-1.2-6.9-7.5-6.7-12.2c0.2-4.5,1.3-11.8,6-13.6
			s8.8,0.8,9.6,5.4c0.5,3.1,5.4,1.8,4.8-1.3l0,0c-1.3-7.3-8-10.9-15.1-9c-8.1,2.1-10.5,12.7-10.3,20c0.3,7.3,4.2,15.1,12.2,15.8
			c7.2,0.7,13.2-3.4,13.5-10.8C278,297,273,297,272.9,300.2z"/>
		<path fill="#FFFFFF" d="M146.8,316.4c-12.4,0-22.4-10.1-22.4-22.5c0-5.4,1.9-10.6,5.4-14.7c4.2-5,10.4-7.8,17-7.8h16.3
			c6.6,0,12.8,2.8,17,7.8c3.5,4.1,5.4,9.3,5.4,14.7c0,12.4-10.1,22.5-22.4,22.5H146.8z"/>
		<path fill="#2F9FA7" d="M163.1,291.4h-16.3c-3.2,0-3.2,5,0,5h16.3C166.3,296.4,166.3,291.4,163.1,291.4z"/>
		<path fill="#FFFFFF" d="M364.2,316.4c-12.3,0-22.4-10.1-22.4-22.5c0-5.4,1.9-10.6,5.3-14.6c4.2-5,10.4-7.9,17.1-7.9h16.3
			c6.6,0,12.8,2.8,17,7.8c3.5,4.1,5.4,9.3,5.4,14.7c0,12.4-10,22.5-22.4,22.5H364.2z"/>
		<path fill="#2F9FA7" d="M380.5,291.4h-16.3c-3.2,0-3.2,5,0,5h16.3C383.7,296.4,383.7,291.4,380.5,291.4z"/>
	</g>
</g>
<g id="Layer_2">
	<g>
		<path fill="#333333" d="M31.1,254.7c3.4,6.1,9.2,11.2,14.4,15.7c4.1,3.5,9.2,8.6,14.8,9.3c2,0.2,3.8-1.9,3.7-3.7
			c-0.2-13.7-1.6-27.3-1.9-41l-5.6,3.2c10.8,8.3,14.1,24.2,27.2,30.1c2.4,1.1,5.8-0.1,5.6-3.2c-0.9-17.8-5.7-35.2-6.6-53
			c-0.2-4.8-7.7-4.8-7.5,0c0.9,17.8,5.7,35.1,6.6,53l5.6-3.2c-6.5-2.9-10.4-9.2-14.3-14.9c-3.8-5.6-7.5-11-12.9-15.1
			c-2.3-1.8-5.7,0.6-5.6,3.2c0.3,13.7,1.7,27.3,1.9,41l3.7-3.7c-0.3,0-3-2-3.9-2.6c-2.6-1.9-5.1-3.9-7.5-6.1
			c-4.1-3.7-8.7-7.7-11.5-12.6C35.2,246.7,28.7,250.5,31.1,254.7z"/>
		<path fill="#333333" d="M79.2,215.8c6.6,0.3,13.2,0,19.8-0.7c9.5-1.1,17.5-2.9,22.1-12c4.5-8.8,5.6-28-7.8-30.2
			c-14.5-2.3-14.7,23.7-14.8,32.4c-0.2,19.3,4.7,38.3,9.4,56.9c1,4,7.5,3.2,7.3-1c-0.3-6.3,0.1-12.7,1.2-18.9
			c0.6-3.2,2.7-16.3,6.6-16.5c6.1-0.3,5.5,17.5,6.8,21.3c2.3,7.1,9.4,9.1,15.3,5.6c5.5-3.3,12.6-8.2,15.3-14.2
			c2-4.4-4.5-8.1-6.4-3.8c-1.5,3.4-5,6-7.8,8.2c-1.6,1.2-5.3,4.6-7.2,4.1c-3.6-0.9-3.3-11.1-3.8-13.9c-0.7-3.7-1.6-7.7-4-10.7
			c-3.1-4.4-9.3-5.5-13.7-2.3c-1.4,1-2.6,2.4-3.3,4c-5.4,11.2-7,24.7-6.5,37l7.3-1c-4-15.9-8.2-31.9-9-48.3
			c-0.5-8.3,0.1-16.6,1.9-24.8c0.8-3.4,3.4-10.4,7.2-4.1c1.6,3.1,2.2,6.6,1.5,10c-0.7,4.5-3,10.4-7.4,12.3
			c-3.8,1.7-8.4,2.1-12.5,2.5c-5.9,0.5-11.8,0.7-17.7,0.5c-4.8-0.2-4.8,7.3,0,7.5L79.2,215.8z"/>
		<path fill="#333333" d="M450.6,256.7c8.1,2.5,27.2,7,27.4-7c0.1-6.2-4.5-9.9-10.4-10.2c-6.1-0.3-11.6,2.8-15.8,6.9
			c-6.4,6.2-13.3,16.4-9,25.5c5.7,11.8,19.4,8.8,28.5,3.1c4.1-2.5,0.3-9-3.8-6.5c-5,3.1-13.8,7.4-17.8,0.5c-2.6-4.5,0.9-9.3,3.5-13
			c2.1-3.2,4.9-5.9,8.3-7.8c1.8-0.9,7.3-2.7,8.8-0.1c1.8,3.1-4.1,4.4-6,4.3c-2.3-0.2-4.6-0.7-6.8-1.5c-1.7-0.4-3.4-0.8-5.1-1.4
			C447.9,248.1,445.9,255.3,450.6,256.7L450.6,256.7z"/>
		<path fill="#333333" d="M365.9,224.9c3.5-1.3,6.3-3.8,9.2-6c0.7-0.5,4.1-2.3,4.5-3.1c0.7-0.3,0.4-0.6-1.1-0.9
			c-1.2-1.2-1.7-1-1.4,0.4c-0.3,1.1-0.4,2.3-0.4,3.4c-1,10.5-4.3,20.8-8,30.6c-1.5,3.9,5.1,6.7,6.8,2.9c4.4-9.8,10.8-22.1,19.6-28.6
			c0.9-0.7,2.8-1.7,3.3-1.4c0.8,0.6,0.5,5.3,0.3,6.8c-0.7,6.3-2.2,12.5-4.4,18.4c-1.2,3.4,3.9,6.5,6.2,3.6c6.9-8.3,13-19,22-25.3
			c1.7-1.2,4.4-3,6.6-3c4.3,0,3.1,4.8,1.7,7.3c-2,3.5-4.5,6.9-6.7,10.3c-2.8,4.2-5.4,8.5-7.7,13c-1.5,3-3.5,6.6-3,10.1
			c1,8,11.8,3,16.1,1.3c4.9-1.9,9.8-4.1,14.6-6.2c3-1.3,6.3-3.2,9.6-3.9c4.7-0.9,2.7-8.1-2-7.2c-7.4,1.4-14.9,6.3-21.9,9.1
			c-2,0.8-4.1,1.7-6.2,2.4c-1,0.3-4.2,0.7-4.8,1.4c-0.3,0.3,1.1,2.5,2,1.4s1.6-4.1,2.4-5.6c4.3-8.2,10.3-15.4,14.7-23.6
			c2.8-5.2,2.4-11-2.1-15s-10.1-2.2-14.9,0.4c-11,5.8-18,18.4-25.6,27.7l6.2,3.6c2.5-7,11.7-38.2-5.4-34.5
			c-6.6,1.4-11.5,8.5-15.2,13.6c-4.6,6.2-8.6,12.9-11.8,20l6.8,2.9c2.5-6.5,4.6-13.2,6.2-20c1.3-5.4,3-12.2,2.5-17.7
			c-1.4-13.6-16.2,2.3-20.6,4S361.3,226.6,365.9,224.9L365.9,224.9z"/>
		<path fill="#333333" d="M298.7,202.6c-3.2-7.8-10.7-13.3-18.9-8.2c-6.5,4.1-10,14.7-3.8,20.6c3.8,3.6,9.2,4.3,13.9,5.8
			c5.8,1.8,8.1,7.2,6.5,12.9c-1,3.7-6,10.7-10,5.8c-4.3-5.3,2.1-11.8,6.3-14.5c11.1-7.1,26.9-2.3,38.5,0.7l-1.6-6.2
			c-6.6,7.6-10.5,23.2,0.3,29c5.5,2.9,12.3,2.3,17.2-1.6c4.3-3.3,6.2-8.6,7.4-13.7c2.5-10.5,2.6-26.2-6.5-33.9
			c-8.7-7.4-24.4-2.6-21.2,10.5c3.4,13.9,25.7,17.9,37.6,15.3c4.7-1,2.7-8.2-2-7.2c-4.5,1-9.5,0.4-13.9-0.7
			c-4.8-1.1-12.8-3.4-14.4-8.9c-1.8-6.1,5.5-6.3,8.9-3.5c3.2,2.6,4.6,8.1,5.2,12c1,6.9,0.2,19.3-5.7,24c-3.6,2.9-10.9,2.7-11.8-2.8
			c-0.8-4.5,1.2-10.1,4.1-13.5c1.8-2,1.2-5.5-1.6-6.2c-12-3-25.3-6.4-37.6-3c-10.3,2.9-21.4,13.8-17,25.3c4.2,10.9,17.1,9,22.5,0.3
			c5.8-9.4,3.3-22.6-7.6-26.9c-4.7-1.8-15.7-2.2-13-9.6c2.2-6.2,8.5-5.8,10.8,0C293.3,209,300.5,207.1,298.7,202.6L298.7,202.6z"/>
		<path fill="#333333" d="M159.9,220.3c-5.3,7.7-8.2,18.9-3.9,27.7c3.9,7.8,13,9.4,20.2,5.1c8.5-5.1,10.3-14.9,8.5-24
			c-1.7-8.6-5.8-20.6-13.8-25.4c-6.2-3.7-16.3-2.5-19,5.1c-3.1,8.7,5,16.2,13.1,17c9.2,1,19.4-3.1,27.5-7.1
			c8.4-4.1,16.2-9.8,21.9-17.2c5.4-7,8.7-16.1,7.4-25c-1.2-8.2-8.8-16.2-17.6-13s-9.1,14.4-9.3,22.1c-0.2,12.1,1.3,24.2,4.4,35.9
			c2.4,8.9,5.3,21,12.8,27.1c6.6,5.5,16.3,3.1,22.5-1.9c7.3-5.9,12.6-14.4,15.9-23.2c2.4-6.7,5.1-19.2-5.3-20.3
			c-8.6-0.9-14.4,9.4-13.8,16.9c0.9,9.7,8.8,18.7,18.4,20.3s16.3-3.5,21.4-11.1c3.6-5.3,8.3-11.9,8.9-18.4c0.4-4.8-7-4.8-7.5,0
			c-0.3,3.4-3.4,7.4-5.1,10.2c-1.7,3.1-3.7,6.1-6,8.8c-9,9.6-27.8-3.7-21.9-15.2c0.6-1.1,2.2-3.5,3.7-3.8c3.4-0.5,1.8,4.4,1.2,6.5
			c-1.6,6-4.4,11.6-8.1,16.5c-3.5,4.7-7.7,9.1-13.6,10.1c-7.1,1.2-9.9-6.2-12-11.7c-5.3-13.8-8.2-28.4-8.4-43.2
			c0-4.9-1-13.1,2.4-17.1c2.6-3.2,6.7-1.5,8.5,1.6s1.6,7.9,0.9,11.5c-2.3,11.1-11.7,19.4-21.1,24.8c-5.9,3.4-31.2,15.8-34.1,4
			c-0.9-3.7,2.5-5.2,5.7-4.6c3.6,0.7,5.9,4,7.6,7.1c3.5,6.6,7.2,15.9,5.3,23.4c-1.3,5.2-8.8,11.8-13.8,6.6
			c-5.6-5.7-1.1-16.9,2.6-22.3c2.7-4-3.7-7.7-6.4-3.8L159.9,220.3z"/>
		<path fill="#2F9FA7" d="M138.8,182.3c3.7,3.5,9.9,7.1,13.7,10.6"/>
		<path fill="#2F9FA7" d="M136.6,184.5c4.3,3.9,9.4,6.7,13.7,10.6c2.9,2.7,7.4-1.7,4.4-4.4c-4.3-3.9-9.4-6.7-13.7-10.6
			C138,177.4,133.6,181.8,136.6,184.5z"/>
		<path fill="#2F9FA7" d="M162.7,168.7c-0.1,5.1-0.2,14-0.2,19.1"/>
		<path fill="#2F9FA7" d="M159.6,168.7c-0.1,6.4-0.1,12.8-0.2,19.1c0,4,6.2,4,6.2,0c0.1-6.4,0.1-12.8,0.2-19.1
			C165.9,164.7,159.7,164.7,159.6,168.7z"/>
		<path fill="#2F9FA7" d="M181.1,176.6l-7.1,13.7"/>
		<path fill="#2F9FA7" d="M178.4,175.1l-7.1,13.7c-1.8,3.6,3.5,6.7,5.4,3.1l7.1-13.7C185.6,174.7,180.3,171.5,178.4,175.1
			L178.4,175.1z"/>
		<path fill="#2F9FA7" d="M321.9,171.6l8.4,12.9"/>
		<path fill="#2F9FA7" d="M319.2,173.1l8.4,12.9c2.2,3.3,7.6,0.2,5.4-3.1l-8.4-12.9C322.4,166.6,317,169.8,319.2,173.1L319.2,173.1z
			"/>
		<path fill="#2F9FA7" d="M348.2,164.5c-1.3,5-3.1,12.4-4.4,17.4"/>
		<path fill="#2F9FA7" d="M345.2,163.7c-1.5,5.8-2.9,11.6-4.4,17.3c-1,3.9,5,5.5,6,1.7c1.5-5.8,2.9-11.6,4.4-17.4
			C352.2,161.5,346.2,159.8,345.2,163.7L345.2,163.7z"/>
		<path fill="#2F9FA7" d="M367,175.9l-10.1,11.7"/>
		<path fill="#2F9FA7" d="M364.8,173.7l-10.1,11.7c-2.6,3,1.8,7.4,4.4,4.4l10.1-11.7C371.8,175.1,367.4,170.7,364.8,173.7z"/>
		<path fill="#2F9FA7" d="M182.7,276.2c0.1,10.8,0.2,21.6,0.4,32.4c0,3.2,5,3.2,5,0c-0.1-10.8-0.2-21.6-0.4-32.4
			C187.7,273,182.7,273,182.7,276.2z"/>
		<path fill="#2F9FA7" d="M200.2,276.5c0.1,10.8,0.2,21.6,0.4,32.4c0,3.2,5,3.2,5,0c-0.1-10.8-0.2-21.6-0.4-32.4
			C205.2,273.3,200.2,273.3,200.2,276.5z"/>
		<path fill="#2F9FA7" d="M291.1,276.4c0.1,10.8,0.2,21.6,0.4,32.4c0,3.2,5,3.2,5,0c-0.1-10.8-0.2-21.6-0.4-32.4
			C296.1,273.1,291.1,273.1,291.1,276.4L291.1,276.4z"/>
		<path fill="#2F9FA7" d="M226.5,276.2l-10.4,32c-1,3,3.8,4.4,4.8,1.3l10.4-32C232.3,274.5,227.5,273.1,226.5,276.2z"/>
		<path fill="#2F9FA7" d="M226.8,277.5l12.5,31.9c1.1,2.9,6,1.7,4.8-1.3l-12.5-31.9C230.5,273.2,225.6,274.6,226.8,277.5
			L226.8,277.5z"/>
		<path fill="#2F9FA7" d="M308.4,275.4l-16.2,18.5c-2.1,2.4,1.4,5.9,3.5,3.5l16.2-18.5C314,276.5,310.5,273,308.4,275.4L308.4,275.4
			z"/>
		<path fill="#2F9FA7" d="M292.6,295.2l16.4,15.1c2.4,2.2,5.9-1.3,3.5-3.5l-16.4-15.1C293.8,289.6,290.3,293.1,292.6,295.2
			L292.6,295.2z"/>
		<path fill="#2F9FA7" d="M344.1,282.1c-3.1-11-22.5-9.7-20.5,2.7c0.8,5,6.9,8.6,11,10.8c0.8,0.3,1.6,0.7,2.3,1.1
			c3.1,2.8,2.5,9-2.4,9.4c-5.1,0.5-8.2-4.1-9-8.4c-0.6-3.1-5.4-1.8-4.8,1.3c1.1,5.6,4.6,10.2,10.3,11.6s11.2-1.2,12.7-7.1
			c1.3-5.2-2-10-6.4-12.2c-2.3-1.2-5.8-3.1-7.4-5.1c-5.1-6.3,7.4-10.1,9.5-2.8C340.2,286.5,345,285.2,344.1,282.1L344.1,282.1z"/>
		<path fill="#2F9FA7" d="M277.6,284.2c-1.3-7.3-8-10.9-15.1-9c-8.1,2.1-10.6,12.7-10.3,20s4.2,15.1,12.2,15.9
			c7.2,0.7,13.2-3.4,13.5-10.8c0.1-3.2-4.9-3.2-5,0c-0.2,4.8-4.8,6.8-9.1,5.7c-5.1-1.2-6.9-7.5-6.7-12.2c0.2-4.5,1.3-11.8,6-13.6
			s8.8,0.8,9.6,5.4C273.3,288.7,278.1,287.4,277.6,284.2L277.6,284.2z"/>
		<path fill="#2F9FA7" d="M186.6,301.3h16.3c3.2,0,3.2-5,0-5h-16.3C183.4,296.3,183.4,301.3,186.6,301.3z"/>
		<path fill="#2F9FA7" d="M221.7,301.3H238c3.2,0,3.2-5,0-5h-16.3C218.5,296.3,218.5,301.3,221.7,301.3z"/>
		<path fill="#2F9FA7" d="M146.8,296.4h16.3c3.2,0,3.2-5,0-5h-16.3C143.6,291.4,143.6,296.4,146.8,296.4z"/>
		<path fill="#2F9FA7" d="M364.2,296.4h16.3c3.2,0,3.2-5,0-5h-16.3C361,291.4,361,296.4,364.2,296.4z"/>
	</g>
</g>
</svg>
