<svg xmlns="http://www.w3.org/2000/svg" viewBox="0 0 145.29 193.52"><defs><style>.cls-1{stroke:#426092;}.cls-1,.cls-2,.cls-3{stroke-width:0px;}.cls-2{fill:#231f20;}.cls-2,.cls-3{stroke:#f1e8b8;}.cls-4,.cls-5,.cls-6{fill:#fff;}.cls-5,.cls-6{stroke:#fff;}.cls-5{stroke-miterlimit:10;}.cls-7{fill:#313131;}.cls-8{fill:none;stroke:#393838;stroke-width:0.5px;}.cls-9{stroke:#000;}</style></defs><g id="Layer_2" data-name="Layer 2"><g id="Posts"><path d="M63,78c-.55,1.34-1.1,2.61-1.5,4s-.87,2.61-1.26,4a35.39,35.39,0,0,0-.95,3.95A13.78,13.78,0,0,0,59,91.77,4.55,4.55,0,0,0,59,93.28L59.51,96l-2.45-.71a3.66,3.66,0,0,0-1.34,0,6.18,6.18,0,0,0-1.66.4A20,20,0,0,0,50.66,97a35,35,0,0,0-3.32,1.89c-1.1.64-2.21,1.51-3.32,2.22a20.11,20.11,0,0,1,5.38-6.17,15.19,15.19,0,0,1,3.71-2.05,21.45,21.45,0,0,1,2.13-.63l.56-.08h.63a4.81,4.81,0,0,1,1.42.16l-2,2a4.81,4.81,0,0,1-.15-1.42,6.26,6.26,0,0,1,.08-1.26,10,10,0,0,1,.47-2.29,22.73,22.73,0,0,1,1.58-4.11,22,22,0,0,1,2.21-3.79A15.46,15.46,0,0,1,63,78Z"/><path class="cls-1" d="M49.16,57.09a15.14,15.14,0,0,0-2.77,1.35c-.71.39-11,10.66-22.9,22.67C2.71,102,1.76,103.07,1,104.81A9.41,9.41,0,0,0,0,109.23c-.08,2.53-.08,2.69,2.14,11.14C12.58,159.79,15.59,170.85,16.22,172a13.67,13.67,0,0,0,5.37,5.21c.95.39,4.34,1.5,7.58,2.37s16.2,4.34,28.68,7.74c20.7,5.61,23,6.16,24.88,6.16a10.56,10.56,0,0,0,6.56-2c1-.63,9.8-9.32,24.41-24.1,21.8-22,22.91-23.14,23-24.17a2.6,2.6,0,0,0-1.5-2.84c-2-1-.71-2.14-26.07,23.38-25,25.2-23.78,24.09-26.47,24.09-.55,0-9.4-2.29-19.74-5s-23.15-6.24-28.6-7.74-10.19-2.85-10.59-3A8.34,8.34,0,0,1,20.88,169c-.24-.48-6.72-24.81-14.38-53.88-1.18-4.5-1.26-4.82-1-6.24a8.7,8.7,0,0,1,1-2.45c.32-.55,10-10.35,21.41-21.88C42.05,70.29,49,63.41,49.79,63c1.9-1,3.08-1,6.48-.08s4.19.87,5.29-.16a2.24,2.24,0,0,0,.71-2c0-1.9-.63-2.45-4.42-3.4C54.29,56.38,51.53,56.3,49.16,57.09Z"/><path class="cls-2" d="M141.11.37a3.31,3.31,0,0,0-1.5,2.53,3.22,3.22,0,0,0,2.92,2.93,3.19,3.19,0,0,0,2.61-2A2.84,2.84,0,0,0,141.11.37Z"/><path class="cls-2" d="M129,12.54a3.29,3.29,0,0,0-1.5,2.53,2.94,2.94,0,0,0,3.39,2.76,3.53,3.53,0,0,0,2.21-2.29,3,3,0,0,0-1.42-3A2.72,2.72,0,0,0,129,12.54Z"/><path class="cls-3" d="M117.89,24.71c-.71.31-7.43,7-9.32,9.24-1.19,1.42-1.19,2.61.07,3.79a2.38,2.38,0,0,0,2.06.87c1.1,0,1.18-.08,5.84-4.74a57.74,57.74,0,0,0,5.14-5.61,2.56,2.56,0,0,0-.63-3A3.14,3.14,0,0,0,117.89,24.71Z"/><path class="cls-3" d="M97.43,46.11C95.29,47.85,77,66.5,76.49,67.36A2.81,2.81,0,0,0,77.68,71c2,1,1.74,1.18,13.51-10.67l10.74-10.9v-1.1c0-1.43-.32-2.06-1.34-2.61A2.64,2.64,0,0,0,97.43,46.11Z"/><path class="cls-3" d="M125.23,51.41a2.7,2.7,0,0,0-1.5,2.68,2.53,2.53,0,0,0,1.9,2.53,2.69,2.69,0,0,0,3.63-2.21A2.64,2.64,0,0,0,128,51.49,2.24,2.24,0,0,0,125.23,51.41Z"/><path class="cls-3" d="M114,62.86c-.4.08-2.53,2-5.69,5.22l-5.06,5v1.19c0,2.21,1.9,3.63,3.72,2.84,1.1-.47,10.11-9.64,10.5-10.66A2.9,2.9,0,0,0,114,62.86Z"/><path class="cls-3" d="M137.16,71.39a2.14,2.14,0,0,0-.87,2.06,2.28,2.28,0,0,0,.87,2,2.8,2.8,0,0,0,4.43-3.32A2.74,2.74,0,0,0,137.16,71.39Z"/><path d="M93.87,83.56a34.48,34.48,0,0,0-2.05,4.26c-.63,1.43-1.11,2.93-1.66,4.35s-1,2.92-1.42,4.34a10.44,10.44,0,0,0-.48,2.14,8.79,8.79,0,0,0-.15,1.81l.15,2.53L86,102.2a7.58,7.58,0,0,0-1.66-.31,7.47,7.47,0,0,0-1.89,0,21.53,21.53,0,0,0-3.87.63,18.69,18.69,0,0,0-3.87,1.42,40.62,40.62,0,0,0-3.8,2,18,18,0,0,1,6.8-5.69,17,17,0,0,1,4.42-1.35,12.59,12.59,0,0,1,2.37-.15,7.77,7.77,0,0,1,2.53.39l-2.13,1.66-.08-.79a1.93,1.93,0,0,1,.08-.71,7.83,7.83,0,0,1,.23-1.34,13.07,13.07,0,0,1,.71-2.45,29.9,29.9,0,0,1,2-4.51,27.36,27.36,0,0,1,2.61-4.1A19.55,19.55,0,0,1,93.87,83.56Z"/><path class="cls-3" d="M122.31,87.11a2.61,2.61,0,0,0-1.89,2.69,2.92,2.92,0,0,0,2.76,2.84A3,3,0,0,0,126,89.8,2.85,2.85,0,0,0,122.31,87.11Z"/><path class="cls-3" d="M110.38,99c-.71.16-9,8.22-9.63,9.4-1.27,2.45.94,5.14,3.39,4.11,1.19-.55,9.56-9.16,9.8-10a3.25,3.25,0,0,0-1-2.92A3.66,3.66,0,0,0,110.38,99Z"/><path class="cls-3" d="M119.86,123.06a2.85,2.85,0,0,0-.23,4.9,3.29,3.29,0,0,0,1.42.55,3.21,3.21,0,0,0,2.92-2.92,3.06,3.06,0,0,0-1.74-2.53A2.13,2.13,0,0,0,119.86,123.06Z"/><path d="M109.28,163.74,103,171l29.71-27.31c-4,3.55-8.53,3.71-18.33-4.59-3.84-3.25-7-1.5-30.18,2.29-21.09,3.47-29.83,4.41-37.47-.69a23.28,23.28,0,0,1-3.41-2.77c-13.48-10.76-27-2.35-32.27,3.39l8.85,30.49,62.8,17.85,2-1.87-2,.06Z"/><polygon points="103.03 170.99 88.58 184.28 84.77 187.78 88.66 187.68 103.03 170.99"/><polygon points="103.03 170.99 109.28 163.74 82.81 187.84 84.77 187.78 88.58 184.28 103.03 170.99"/><path d="M46.58,140.61l.35.06a8.32,8.32,0,0,1,2.13.87l3.32,1.9-1-3.71a12.58,12.58,0,0,1-.08-6.4,29.48,29.48,0,0,1,2.29-6.48,54.27,54.27,0,0,1,3.4-6.24c1.26-2.06,2.61-4,3.87-6.16-1.82,1.58-3.55,3.31-5.29,5a41.9,41.9,0,0,0-4.35,6,29.32,29.32,0,0,0-2.92,7,16.18,16.18,0,0,0-.44,5.17h0a10.16,10.16,0,0,0-3.51-.12,10.48,10.48,0,0,0-1.14.25c.43.34.87.71,1.3,1.1C45.16,139.54,45.86,140.09,46.58,140.61Z"/><path class="cls-4" d="M37.37,140.44a9.08,9.08,0,0,0-1.19.79L35,142.1c-.4.31-.71.63-1.11.94a40.2,40.2,0,0,0-3.95,4.11c.79-.47,1.58-1,2.37-1.5l2.37-1.42a40,40,0,0,1,4.9-2.45,14.51,14.51,0,0,1,5-1.26,7.61,7.61,0,0,1,2,.09c-.72-.52-1.42-1.07-2.1-1.67-.43-.39-.87-.76-1.3-1.1a18.64,18.64,0,0,0-4.55,1.81A6.23,6.23,0,0,0,37.37,140.44Z"/><path class="cls-5" d="M49.48,165.4c-2.61-4.11-3.72-12.4,12.79-12.88C62.12,158.37,59.27,169,49.48,165.4Z"/><path class="cls-6" d="M62.59,152.29c-1-1-2.69-3.24-1.11-3.87S62.83,150.71,62.59,152.29Z"/><path class="cls-6" d="M62.91,152.52c1.34-.63,4-1.42,4,.32S64.33,153.31,62.91,152.52Z"/><circle class="cls-7" cx="50.58" cy="162.64" r="0.79"/><path class="cls-8" d="M52.24,166.51a5,5,0,0,0,1.66-2.77"/><path class="cls-9" d="M111.49,137c1.34-.63,4-1.42,4,.32S112.91,137.91,111.49,137Z"/><path class="cls-6" d="M98.06,150c-1.26-3.95-1.26-10.27,12.8-12.88C110.7,142.89,107.38,150.07,98.06,150Z"/><path class="cls-9" d="M111.17,136.8c-1-1-2.68-3.24-1.1-3.87S111.49,135.22,111.17,136.8Z"/><circle class="cls-7" cx="99.17" cy="147.15" r="0.79"/><path class="cls-8" d="M101.22,150.07a5,5,0,0,0,1.66-2.76"/><path class="cls-6" d="M73.81,174.64c-3.32-4,3.31-14.77,16.19-15.64C90.48,165.72,79.65,177.8,73.81,174.64Z"/><path class="cls-6" d="M90.32,158.76c-1-1-2.69-3.23-1.11-3.87S90.63,157.18,90.32,158.76Z"/><path class="cls-6" d="M90.71,159c1.35-.63,4-1.42,4,.32S92.06,159.79,90.71,159Z"/><circle class="cls-7" cx="75.54" cy="172.43" r="0.79"/><path class="cls-8" d="M76.89,175.51a7,7,0,0,0,2-3"/><path d="M34.7,110.18a19.81,19.81,0,0,0-.55,2.53,11.91,11.91,0,0,0-.24,2.37v2.45c0,.79.08,1.66.08,2.53v1.58H32.41c-1.74,0-3.39-.32-4.82-.32a10.29,10.29,0,0,0-2.21.16,13.34,13.34,0,0,0-2.37.71,6.36,6.36,0,0,1,1.74-2.06,7.7,7.7,0,0,1,2.53-1.26,15.62,15.62,0,0,1,2.68-.39c.87-.08,1.66,0,2.45,0l-1.58,1.58c0-.87,0-1.74.08-2.69a12.68,12.68,0,0,1,.55-2.77,10.29,10.29,0,0,1,1.27-2.6A7.13,7.13,0,0,1,34.7,110.18Z"/><path d="M88.66,121.4c-.63,1.42-1.19,2.76-1.74,4.11s-1,2.68-1.5,4a25.38,25.38,0,0,0-1,4,9.14,9.14,0,0,0,.16,3.63l1.11,3.63-3.32-1.81a11,11,0,0,0-2.61-1,5.67,5.67,0,0,0-2.76.32,22.4,22.4,0,0,0-2.93,1.34c-1,.55-2,1.18-3,1.74a18.88,18.88,0,0,1,2.13-2.85,14,14,0,0,1,2.85-2.37,8,8,0,0,1,4-1.1,10.14,10.14,0,0,1,3.87,1.1L81.71,138a10.24,10.24,0,0,1-.24-5.14,21.82,21.82,0,0,1,1.5-4.5,21.18,21.18,0,0,1,2.45-3.87A17,17,0,0,1,88.66,121.4Z"/></g></g></svg>