<svg id="Layer_3" data-name="Layer 3" xmlns="http://www.w3.org/2000/svg" viewBox="0 0 714 395.95">
  <title>logo</title>
  <g>
    <rect x="384" y="159" width="326" height="8" style="fill: #fff"/>
    <rect x="380" width="8" height="326" style="fill: #fff"/>
    <rect x="706" width="8" height="326" style="fill: #fff"/>
  </g>
  <g>
    <rect width="8" height="326" style="fill: #fff"/>
    <polygon points="11.66 0 0.34 0 169 168.66 174.66 163 11.66 0" style="fill: #fff"/>
    <polygon points="163.34 163 169 168.66 337.66 0 326.34 0 163.34 163" style="fill: #fff"/>
    <rect x="330" width="8" height="326" style="fill: #fff"/>
  </g>
  <g>
    <path d="M614.2,720.69l17,44.94,17.66-44.94h7.18V772h-4.88v-44.3H651L633.52,772h-4.6l-16.87-44.3h-.14V772H607V720.69Z" transform="translate(-603 -377)" style="fill: #fff"/>
    <path d="M737.4,720.69v4.16H706.89v18.53h28.57v4.16H706.89v20.25h30.87V772H702V720.69Z" transform="translate(-603 -377)" style="fill: #fff"/>
    <path d="M784,761.68a10.87,10.87,0,0,0,3.55,4.24,14.79,14.79,0,0,0,5.35,2.26,30.27,30.27,0,0,0,6.61.68,18.82,18.82,0,0,0,4.38-.57,15.29,15.29,0,0,0,4.41-1.83,11.31,11.31,0,0,0,3.41-3.23,8.21,8.21,0,0,0,1.37-4.78,7,7,0,0,0-1-3.73,9,9,0,0,0-2.52-2.66,14.85,14.85,0,0,0-3.41-1.76,34.47,34.47,0,0,0-3.66-1.11l-11.41-2.8a34.43,34.43,0,0,1-4.34-1.43,12.3,12.3,0,0,1-3.7-2.3,10.88,10.88,0,0,1-2.55-3.52,12,12,0,0,1-1-5.1,16.28,16.28,0,0,1,.72-4.38,12.12,12.12,0,0,1,2.69-4.73,15.62,15.62,0,0,1,5.42-3.77,21.7,21.7,0,0,1,8.83-1.55,25.76,25.76,0,0,1,7.25,1,17.79,17.79,0,0,1,6,3,14.5,14.5,0,0,1,5.67,11.92h-4.88a11.79,11.79,0,0,0-1.33-5.13,11.53,11.53,0,0,0-3.08-3.66,13.53,13.53,0,0,0-4.38-2.23,17.88,17.88,0,0,0-5.21-.75,21.37,21.37,0,0,0-4.84.54,12,12,0,0,0-4.1,1.72,9,9,0,0,0-2.83,3.12,9.78,9.78,0,0,0-1.08,4.81,7.33,7.33,0,0,0,.61,3.12,6.68,6.68,0,0,0,1.69,2.27,8.83,8.83,0,0,0,2.48,1.5,17.89,17.89,0,0,0,3,.94l12.49,3.08a36.35,36.35,0,0,1,5.13,1.76,17.42,17.42,0,0,1,4.24,2.59,10.94,10.94,0,0,1,2.87,3.77,12.68,12.68,0,0,1,1,5.38,19.42,19.42,0,0,1-.18,2.3,11.77,11.77,0,0,1-.86,3.05A15.25,15.25,0,0,1,815,767a12.17,12.17,0,0,1-3.45,3,19.75,19.75,0,0,1-5.42,2.16,31.64,31.64,0,0,1-7.75.82,32.06,32.06,0,0,1-8.4-1,18.18,18.18,0,0,1-6.61-3.19,14.16,14.16,0,0,1-4.19-5.53,18,18,0,0,1-1.26-8.11h4.88A14.4,14.4,0,0,0,784,761.68Z" transform="translate(-603 -377)" style="fill: #fff"/>
    <path d="M882.06,720.69,902.16,772h-5.24L890.67,756H867.34L861.17,772H856l20.6-51.26Zm7,31.16-9.9-26.28-10.27,26.28Z" transform="translate(-603 -377)" style="fill: #fff"/>
    <path d="M947.6,720.69V743H978V720.69h4.88V772H978V747.11H947.6V772h-4.88V720.69Z" transform="translate(-603 -377)" style="fill: #fff"/>
    <path d="M1049.62,720.69l20.1,51.26h-5.24L1058.23,756H1034.9L1028.73,772h-5.17l20.6-51.26Zm7,31.16-9.9-26.28-10.27,26.28Z" transform="translate(-603 -377)" style="fill: #fff"/>
    <path d="M1145.64,730.92a14.46,14.46,0,0,0-3.59-3.91,16.05,16.05,0,0,0-4.67-2.41,17.24,17.24,0,0,0-5.34-.82,18.51,18.51,0,0,0-8.76,1.93,17.52,17.52,0,0,0-6,5.14,22.16,22.16,0,0,0-3.44,7.21,30.87,30.87,0,0,0,0,16.48,22.17,22.17,0,0,0,3.44,7.25,17.39,17.39,0,0,0,6,5.13,18.39,18.39,0,0,0,8.76,1.94,15.62,15.62,0,0,0,6.46-1.29,15.25,15.25,0,0,0,5-3.52,18,18,0,0,0,3.37-5.2,21.51,21.51,0,0,0,1.66-6.43h4.88a27.69,27.69,0,0,1-2.23,8.54,21,21,0,0,1-4.45,6.47,18.94,18.94,0,0,1-6.43,4.09A22.43,22.43,0,0,1,1132,773a24.14,24.14,0,0,1-10.59-2.19,21.89,21.89,0,0,1-7.58-5.85,24.74,24.74,0,0,1-4.52-8.47,34.67,34.67,0,0,1,0-20.24,25.21,25.21,0,0,1,4.52-8.51,21.87,21.87,0,0,1,7.58-5.89,25.62,25.62,0,0,1,17.73-1.11,20.9,20.9,0,0,1,6.32,3.19,18.58,18.58,0,0,1,4.73,5.21,17.59,17.59,0,0,1,2.41,7.11h-4.88A16.48,16.48,0,0,0,1145.64,730.92Z" transform="translate(-603 -377)" style="fill: #fff"/>
    <path d="M1201.6,720.69v27.57l29.79-27.57H1238l-22.9,21.18,24,30.08h-6.32l-21.32-26.71-9.84,9.12V772h-4.88V720.69Z" transform="translate(-603 -377)" style="fill: #fff"/>
    <path d="M1282.65,761.68a10.81,10.81,0,0,0,3.56,4.24,14.72,14.72,0,0,0,5.35,2.26,30.18,30.18,0,0,0,6.6.68,18.82,18.82,0,0,0,4.38-.57,15.47,15.47,0,0,0,4.42-1.83,11.42,11.42,0,0,0,3.41-3.23,8.28,8.28,0,0,0,1.36-4.78,7,7,0,0,0-1-3.73,9,9,0,0,0-2.51-2.66,15.05,15.05,0,0,0-3.41-1.76,35.94,35.94,0,0,0-3.66-1.11l-11.42-2.8a34.43,34.43,0,0,1-4.34-1.43,12.3,12.3,0,0,1-3.7-2.3,11,11,0,0,1-2.55-3.52,12.15,12.15,0,0,1-1-5.1,16.28,16.28,0,0,1,.72-4.38,12.24,12.24,0,0,1,2.69-4.73,15.72,15.72,0,0,1,5.42-3.77,21.7,21.7,0,0,1,8.83-1.55,25.71,25.71,0,0,1,7.25,1,17.79,17.79,0,0,1,6,3,14.54,14.54,0,0,1,5.68,11.92h-4.89a11.78,11.78,0,0,0-1.32-5.13,11.43,11.43,0,0,0-3.09-3.66,13.53,13.53,0,0,0-4.38-2.23,17.87,17.87,0,0,0-5.2-.75,21.39,21.39,0,0,0-4.85.54A11.88,11.88,0,0,0,1287,726a8.89,8.89,0,0,0-2.84,3.12,9.78,9.78,0,0,0-1.08,4.81,7.48,7.48,0,0,0,.61,3.12,6.68,6.68,0,0,0,1.69,2.27,8.83,8.83,0,0,0,2.48,1.5,17.89,17.89,0,0,0,3,.94l12.49,3.08a36.35,36.35,0,0,1,5.13,1.76,17.05,17.05,0,0,1,4.24,2.59,10.82,10.82,0,0,1,2.87,3.77,12.68,12.68,0,0,1,1,5.38,19.42,19.42,0,0,1-.18,2.3,11.77,11.77,0,0,1-.86,3.05,15.25,15.25,0,0,1-1.94,3.27,12.12,12.12,0,0,1-3.44,3,19.88,19.88,0,0,1-5.42,2.16,31.78,31.78,0,0,1-7.76.82,32.11,32.11,0,0,1-8.4-1,18.13,18.13,0,0,1-6.6-3.19,14.08,14.08,0,0,1-4.2-5.53,18.17,18.17,0,0,1-1.26-8.11h4.88A14.4,14.4,0,0,0,1282.65,761.68Z" transform="translate(-603 -377)" style="fill: #fff"/>
  </g>
</svg>
