<?xml version="1.0" encoding="utf-8"?>
<!-- Generator: Adobe Illustrator 21.1.0, SVG Export Plug-In . SVG Version: 6.00 Build 0)  -->
<svg version="1.1" xmlns="http://www.w3.org/2000/svg" xmlns:xlink="http://www.w3.org/1999/xlink" x="0px" y="0px"
	 viewBox="0 0 720 720" style="enable-background:new 0 0 720 720;" xml:space="preserve">
<style type="text/css">
	.st0{display:none;}
	.st1{display:inline;fill:#E5AD88;}
	.st2{display:inline;fill:#B77A58;}
	.st3{display:inline;}
	.st4{fill:#E5AD88;}
	.st5{fill:#070707;}
	.st6{fill:#FFFFFF;}
	.st7{clip-path:url(#SVGID_2_);fill:#AA7557;}
	.st8{clip-path:url(#SVGID_2_);fill:none;}
	.st9{clip-path:url(#SVGID_4_);fill:#FFFFFF;}
	.st10{clip-path:url(#SVGID_4_);fill:#3D3D3D;}
	.st11{clip-path:url(#SVGID_6_);fill:#AA7557;}
	.st12{clip-path:url(#SVGID_6_);fill:none;}
	.st13{clip-path:url(#SVGID_8_);fill:#FFFFFF;}
	.st14{clip-path:url(#SVGID_8_);fill:#3D3D3D;}
	.st15{clip-path:url(#SVGID_10_);fill:url(#SVGID_11_);}
	.st16{clip-path:url(#SVGID_10_);fill:none;}
	.st17{clip-path:url(#SVGID_13_);fill:url(#SVGID_14_);}
	.st18{clip-path:url(#SVGID_13_);fill:url(#SVGID_15_);}
	.st19{clip-path:url(#SVGID_17_);fill:url(#SVGID_18_);}
	.st20{clip-path:url(#SVGID_17_);fill:none;}
	.st21{clip-path:url(#SVGID_20_);fill:url(#SVGID_21_);}
	.st22{clip-path:url(#SVGID_20_);fill:url(#SVGID_22_);}
	.st23{fill:none;stroke:#E5AD88;stroke-miterlimit:10;}
	.st24{fill:none;stroke:#845440;stroke-miterlimit:10;}
	.st25{fill:none;stroke:#E27940;stroke-miterlimit:10;}
	.st26{display:inline;fill:#0064A4;}
	.st27{fill:#FFFFFF;stroke:#FFFFFF;stroke-width:4;stroke-miterlimit:10;}
	.st28{stroke:#FFFFFF;stroke-width:4;stroke-miterlimit:10;}
	.st29{clip-path:url(#SVGID_24_);stroke:#FFFFFF;stroke-width:4;stroke-miterlimit:10;}
	.st30{display:inline;fill:#FFFFFF;stroke:#000000;stroke-width:4;stroke-miterlimit:10;}
	.st31{stroke:#000000;stroke-miterlimit:10;}
	.st32{fill:#FFFFFF;stroke:#000000;stroke-miterlimit:10;}
	.st33{fill:#F8F8F8;stroke:#000000;stroke-miterlimit:10;}
	.st34{clip-path:url(#SVGID_26_);fill:#FFFFFF;stroke:#000000;stroke-miterlimit:10;}
	.st35{display:inline;fill:none;stroke:#0C0C0C;stroke-miterlimit:10;}
	.st36{fill:none;stroke:#0C0C0C;stroke-miterlimit:10;}
	.st37{display:inline;fill:#E83A3A;}
	.st38{display:inline;fill:#FFFFFF;}
	.st39{display:inline;fill:none;stroke:#FFFFFF;stroke-width:4;stroke-miterlimit:10;}
	.st40{display:inline;fill:none;}
	.st41{display:inline;fill:#FFFFFF;stroke:#FFFFFF;stroke-width:4;stroke-miterlimit:10;}
	.st42{display:inline;stroke:#FFFFFF;stroke-width:4;stroke-miterlimit:10;}
	.st43{fill:none;}
</style>
<g id="Layer_1" class="st0">
	
		<image style="display:inline;overflow:visible;" width="1152" height="2048" xlink:href="5762FB49.jpg"  transform="matrix(1 0 0 1 -216 -664)">
	</image>
</g>
<g id="Layer_2" class="st0">
	<path class="st1" d="M467.9,158.2c0,0,29.1-36.7,34.3-27.1c3.7,6.9-1.1,43.7-1.1,43.7"/>
	<path class="st2" d="M478.5,168c0,0,19.9-36,23.5-36.7c3.5-0.6-0.8,42.2-0.8,42.2"/>
	<polygon class="st2" points="420,253.4 418.7,312.1 362.5,320.4 356.4,280.3 	"/>
	<polygon class="st2" points="301.3,393 359.2,378 377.8,462 339.5,483 	"/>
	<g class="st3">
		<path class="st4" d="M506.8,347.2c1.8,8.1,3,16.7,1.9,25.3C495.2,476.5,384,480,385.1,477.3c1.6-3.7-156.7,17.9-150.8,63.8
			c4.5,35.5,78.3,81.8,131.7,85.3c77.9,5.1,184.7-61.6,190.7-151.7C560.6,415.4,531.9,371.1,506.8,347.2z"/>
		<path class="st4" d="M365.5,129.5c-132.7,0-247.7,102-247.7,233.7c0,73.8,49.3,147.8,103,172.3c138,63,179.4-85.3,179.4-85.3
			l-27.1-52.4L332.3,416c0,0-17.6-19.3-15.9-54.4c1.4-28.4,9.4-39.7,21.9-54.6c12.9,8.1,27.2,24.4,27.2,24.4l38.5-17.6v-41
			c4.8-0.4,9.6-0.5,14.6-0.1c17,1.1,48.5,7.5,95.2,39.3c41.5,28.3,61.9,71.6,62,71.6c4.8-0.2,23.1-5.6,23.5-5.6
			C586,192.7,473.3,129.5,365.5,129.5z"/>
	</g>
	<g class="st3">
		<circle class="st5" cx="509.8" cy="231.5" r="17"/>
		<circle class="st6" cx="517.3" cy="231.5" r="9.5"/>
	</g>
	<path class="st1" d="M447,150.7c0,0,29.1-36.7,34.3-27.1c3.7,6.9-1.1,43.7-1.1,43.7L447,150.7z"/>
	<path class="st2" d="M457.7,160.5c0,0,11.8-38.3,23.5-36.7c3.5,0.5-0.8,42.2-0.8,42.2L457.7,160.5z"/>
</g>
<g id="Layer_3" class="st0">
	<g class="st3">
		<defs>
			<path id="SVGID_1_" d="M363.5,129.4c-132.7,0-247.7,102-247.7,233.7c0,73.8,49.3,147.8,103,172.3c138,63,179.4-85.3,179.4-85.3
				L371,397.6l-40.8,18.3c0,0-17.6-19.3-15.9-54.4c1.4-28.4,9.4-39.7,21.9-54.6c12.9,8.1,27.2,24.4,27.2,24.4l38.5-17.6v-41
				c4.8-0.4,9.6-0.5,14.6-0.1c17,1.1,48.5,7.5,95.2,39.3c41.5,28.3,61.9,71.6,62,71.6c4.8-0.2,23.1-5.6,23.5-5.6
				C584,192.6,471.2,129.4,363.5,129.4z"/>
		</defs>
		<clipPath id="SVGID_2_">
			<use xlink:href="#SVGID_1_"  style="overflow:visible;"/>
		</clipPath>
		<path class="st7" d="M399.6,450.4c-25,37.7-92.6,101-187.9,45.9c-38.2-22-55.1-45.1-68.7-83.3c-19-53.6-3.5-143.5,31.7-198.5
			c-63.2,65.5-65.6,161.6-43.6,223.7c7.4,20.9,19.8,38.1,34.2,53.5c10.5,12.9,22.2,24,34.5,32.7c0,0,0,0,0,0v0
			c6.8,4.8,13.7,8.9,20.8,12.1c23.7,10.8,44.6,15.4,62.8,15.6c4.3,0,8.5-0.2,12.5-0.6C374.3,543.2,400,451.2,400,451.2L399.6,450.4z
			"/>
		<path class="st8" d="M368.5,134.5c-132.7,0-247.7,102-247.7,233.7c0,73.8,49.3,147.8,103,172.3c138,63,179.4-85.3,179.4-85.3
			L376,402.7L335.2,421c0,0-17.6-19.3-15.9-54.4c1.4-28.4,9.4-39.7,21.9-54.6c12.9,8.1,27.2,24.4,27.2,24.4l38.5-17.6v-41
			c4.8-0.4,9.6-0.5,14.6-0.1c17,1.1,48.5,7.5,95.2,39.3c41.5,28.3,61.9,71.6,62,71.6c4.8-0.2,23.1-5.6,23.5-5.6
			C589,197.7,476.2,134.5,368.5,134.5z"/>
	</g>
</g>
<g id="Layer_4" class="st0">
	<g class="st3">
		<defs>
			<path id="SVGID_3_" d="M365.5,129.4c-132.7,0-247.7,102-247.7,233.7c0,73.8,49.3,147.8,103,172.3c138,63,179.4-85.3,179.4-85.3
				l-27.1-52.4l-40.8,18.3c0,0-17.6-19.3-15.9-54.4c1.4-28.4,9.4-39.7,21.9-54.6c12.9,8.1,27.2,24.4,27.2,24.4l38.5-17.6v-41
				c4.8-0.4,9.6-0.5,14.6-0.1c17,1.1,48.5,7.5,95.2,39.3c41.5,28.3,61.9,71.6,62,71.6c4.8-0.2,23.1-5.6,23.5-5.6
				C586,192.6,473.3,129.4,365.5,129.4z"/>
		</defs>
		<clipPath id="SVGID_4_">
			<use xlink:href="#SVGID_3_"  style="overflow:visible;"/>
		</clipPath>
		<path class="st9" d="M464.9,284.7c0,0-42.2-148-179.5-58.7c-31.6,20.5-26.2,41.1-18.8,48c14,13.3,74.1,4.7,129.1,3
			C437.1,275.8,463.1,283.6,464.9,284.7z"/>
		<path class="st10" d="M467.9,286.9c0,0-18.4-105.9-133-65.3c-17.7,6.3-33.6,19.4-49.4,31.8c24,6.6,56.4,20.8,78.6,18.3
			C429.7,264.5,465.7,285.3,467.9,286.9z"/>
	</g>
</g>
<g id="Layer_8" class="st0">
	<path class="st1" d="M470.4,156.5c0,0,29.1-36.7,34.3-27.1c3.7,6.9-1.1,43.7-1.1,43.7"/>
	<path class="st2" d="M481,166.3c0,0,19.9-36,23.5-36.7c3.5-0.6-0.8,42.2-0.8,42.2"/>
	<polygon class="st2" points="422.6,251.7 421.3,310.4 365.1,318.7 359,278.6 	"/>
	<polygon class="st2" points="303.8,391.3 361.7,376.3 380.3,460.3 342.1,481.3 	"/>
	<g class="st3">
		<path class="st4" d="M509.3,345.5c1.8,8.1,3,16.7,1.9,25.3c-13.4,104-124.7,107.5-123.5,104.8c1.6-3.7-156.7,17.9-150.8,63.8
			c4.5,35.5,78.3,81.8,131.7,85.3c77.9,5.1,184.7-61.6,190.7-151.7C563.2,413.8,534.4,369.4,509.3,345.5z"/>
		<path class="st4" d="M368,127.8c-132.7,0-247.7,102-247.7,233.7c0,73.8,49.3,147.8,103,172.3c138,63,179.4-85.3,179.4-85.3
			L375.6,396l-40.8,18.3c0,0-17.6-19.3-15.9-54.4c1.4-28.4,9.4-39.7,21.9-54.6c12.9,8.1,27.2,24.4,27.2,24.4l38.5-17.6v-41
			c4.8-0.4,9.6-0.5,14.6-0.1c17,1.1,48.5,7.5,95.2,39.3c41.5,28.3,61.9,71.6,62,71.6c4.8-0.2,23.1-5.6,23.5-5.6
			C588.5,191,475.8,127.8,368,127.8z"/>
	</g>
	<g class="st3">
		<circle class="st5" cx="512.3" cy="229.8" r="17"/>
		<circle class="st6" cx="519.8" cy="229.8" r="9.5"/>
	</g>
	<path class="st1" d="M449.6,149c0,0,29.1-36.7,34.3-27.1c3.7,6.9-1.1,43.7-1.1,43.7L449.6,149z"/>
	<path class="st2" d="M460.2,158.8c0,0,11.8-38.3,23.5-36.7c3.5,0.5-0.8,42.2-0.8,42.2L460.2,158.8z"/>
	<g class="st3">
		<defs>
			<path id="SVGID_5_" d="M366,127.7c-132.7,0-247.7,102-247.7,233.7c0,73.8,49.3,147.8,103,172.3c138,63,179.4-85.3,179.4-85.3
				l-27.1-52.4l-40.8,18.3c0,0-17.6-19.3-15.9-54.4c1.4-28.4,9.4-39.7,21.9-54.6c12.9,8.1,27.2,24.4,27.2,24.4l38.5-17.6v-41
				c4.8-0.4,9.6-0.5,14.6-0.1c17,1.1,48.5,7.5,95.2,39.3c41.5,28.3,61.9,71.6,62,71.6c4.8-0.2,23.1-5.6,23.5-5.6
				C586.5,190.9,473.8,127.7,366,127.7z"/>
		</defs>
		<clipPath id="SVGID_6_">
			<use xlink:href="#SVGID_5_"  style="overflow:visible;"/>
		</clipPath>
		<path class="st11" d="M402.2,448.8c-25,37.7-92.6,101-187.9,45.9c-38.2-22-55.1-45.1-68.7-83.3c-19-53.6-3.5-143.5,31.7-198.5
			c-63.2,65.5-65.6,161.6-43.6,223.7c7.4,20.9,19.8,38.1,34.2,53.5c10.5,12.9,22.2,24,34.5,32.7c0,0,0,0,0,0v0
			c6.8,4.8,13.7,8.9,20.8,12.1c23.7,10.8,44.6,15.4,62.8,15.6c4.3,0,8.5-0.2,12.5-0.6c78.4-8.3,104.1-100.3,104.1-100.3L402.2,448.8
			z"/>
		<path class="st12" d="M371,132.8c-132.7,0-247.7,102-247.7,233.7c0,73.8,49.3,147.8,103,172.3c138,63,179.4-85.3,179.4-85.3
			L378.6,401l-40.8,18.3c0,0-17.6-19.3-15.9-54.4c1.4-28.4,9.4-39.7,21.9-54.6c12.9,8.1,27.2,24.4,27.2,24.4l38.5-17.6v-41
			c4.8-0.4,9.6-0.5,14.6-0.1c17,1.1,48.5,7.5,95.2,39.3c41.5,28.3,61.9,71.6,62,71.6c4.8-0.2,23.1-5.6,23.5-5.6
			C591.5,196,478.8,132.8,371,132.8z"/>
	</g>
	<g class="st3">
		<defs>
			<path id="SVGID_7_" d="M368,127.7c-132.7,0-247.7,102-247.7,233.7c0,73.8,49.3,147.8,103,172.3c138,63,179.4-85.3,179.4-85.3
				l-27.1-52.4l-40.8,18.3c0,0-17.6-19.3-15.9-54.4c1.4-28.4,9.4-39.7,21.9-54.6c12.9,8.1,27.2,24.4,27.2,24.4l38.5-17.6v-41
				c4.8-0.4,9.6-0.5,14.6-0.1c17,1.1,48.5,7.5,95.2,39.3c41.5,28.3,61.9,71.6,62,71.6c4.8-0.2,23.1-5.6,23.5-5.6
				C588.5,190.9,475.8,127.7,368,127.7z"/>
		</defs>
		<clipPath id="SVGID_8_">
			<use xlink:href="#SVGID_7_"  style="overflow:visible;"/>
		</clipPath>
		<path class="st13" d="M467.4,283c0,0-42.2-148-179.5-58.7c-31.6,20.5-26.2,41.1-18.8,48c14,13.3,74.1,4.7,129.1,3
			C439.6,274.1,465.6,282,467.4,283z"/>
		<path class="st14" d="M470.4,285.2c0,0-18.4-105.9-133-65.3c-17.7,6.3-33.6,19.4-49.4,31.8c24,6.6,56.4,20.8,78.6,18.3
			C432.2,262.8,468.2,283.6,470.4,285.2z"/>
	</g>
</g>
<g id="Layer_6" class="st0">
	<path class="st1" d="M440.9,176.2c0,0,29.1-36.7,34.3-27.1c3.7,6.9-1.1,43.7-1.1,43.7"/>
	<path class="st2" d="M451.5,186c0,0,19.9-36,23.5-36.7c3.5-0.6-0.8,42.2-0.8,42.2"/>
	<polygon class="st2" points="393,271.4 391.7,330.1 335.5,338.4 329.4,298.3 	"/>
	<polygon class="st2" points="274.3,411 332.2,396 350.8,480 312.5,501 	"/>
	<g class="st3">
		<path class="st4" d="M479.8,365.2c1.8,8.1,3,16.7,1.9,25.3C468.2,494.5,357,498,358.1,495.3c1.6-3.7-156.7,17.9-150.8,63.8
			c4.5,35.5,78.3,81.8,131.7,85.3c77.9,5.1,184.7-61.6,190.7-151.7C533.6,433.4,504.9,389.1,479.8,365.2z"/>
		<path class="st4" d="M338.5,147.5c-132.7,0-247.7,102-247.7,233.7c0,73.8,49.3,147.8,103,172.3c138,63,179.4-85.3,179.4-85.3
			l-27.1-52.4L305.3,434c0,0-17.6-19.3-15.9-54.4c1.4-28.4,9.4-39.7,21.9-54.6c12.9,8.1,27.2,24.4,27.2,24.4l38.5-17.6v-41
			c4.8-0.4,9.6-0.5,14.6-0.1c17,1.1,48.5,7.5,95.2,39.3c41.5,28.3,61.9,71.6,62,71.6c4.8-0.2,23.1-5.6,23.5-5.6
			C559,210.7,446.3,147.5,338.5,147.5z"/>
	</g>
	<g class="st3">
		<circle class="st5" cx="482.8" cy="249.5" r="17"/>
		<circle class="st6" cx="490.3" cy="249.5" r="9.5"/>
	</g>
	<path class="st1" d="M420,168.7c0,0,29.1-36.7,34.3-27.1c3.7,6.9-1.1,43.7-1.1,43.7L420,168.7z"/>
	<path class="st2" d="M430.7,178.5c0,0,11.8-38.3,23.5-36.7c3.5,0.5-0.8,42.2-0.8,42.2L430.7,178.5z"/>
	<g class="st3">
		<defs>
			<path id="SVGID_9_" d="M336.5,147.4c-132.7,0-247.7,102-247.7,233.7c0,73.8,49.3,147.8,103,172.3c138,63,179.4-85.3,179.4-85.3
				L344,415.6l-40.8,18.3c0,0-17.6-19.3-15.9-54.4c1.4-28.4,9.4-39.7,21.9-54.6c12.9,8.1,27.2,24.4,27.2,24.4l38.5-17.6v-41
				c4.8-0.4,9.6-0.5,14.6-0.1c17,1.1,48.5,7.5,95.2,39.3c41.5,28.3,61.9,71.6,62,71.6c4.8-0.2,23.1-5.6,23.5-5.6
				C557,210.6,444.2,147.4,336.5,147.4z"/>
		</defs>
		<clipPath id="SVGID_10_">
			<use xlink:href="#SVGID_9_"  style="overflow:visible;"/>
		</clipPath>
		
			<radialGradient id="SVGID_11_" cx="216.9999" cy="416.0005" r="205.6433" fx="245.3768" fy="457.7312" gradientUnits="userSpaceOnUse">
			<stop  offset="0.2408" style="stop-color:#E5AD88"/>
			<stop  offset="0.5084" style="stop-color:#E5AD88"/>
			<stop  offset="0.52" style="stop-color:#E1AA85"/>
			<stop  offset="0.6125" style="stop-color:#C99271"/>
			<stop  offset="0.7099" style="stop-color:#B88262"/>
			<stop  offset="0.8146" style="stop-color:#AD785A"/>
			<stop  offset="0.9394" style="stop-color:#AA7557"/>
		</radialGradient>
		<path class="st15" d="M372.6,468.4c-25,37.7-92.6,101-187.9,45.9c-38.2-22-55.1-45.1-68.7-83.3c-19-53.6-3.5-143.5,31.7-198.5
			C84.5,298,82.1,394.1,104.1,456.2c7.4,20.9,19.8,38.1,34.2,53.5c10.5,12.9,22.2,24,34.5,32.7c0,0,0,0,0,0v0
			c6.8,4.8,13.7,8.9,20.8,12.1c23.7,10.8,44.6,15.4,62.8,15.6c4.3,0,8.5-0.2,12.5-0.6C347.3,561.2,373,469.2,373,469.2L372.6,468.4z
			"/>
		<path class="st16" d="M341.5,152.5c-132.7,0-247.7,102-247.7,233.7c0,73.8,49.3,147.8,103,172.3c138,63,179.4-85.3,179.4-85.3
			L349,420.7L308.2,439c0,0-17.6-19.3-15.9-54.4c1.4-28.4,9.4-39.7,21.9-54.6c12.9,8.1,27.2,24.4,27.2,24.4l38.5-17.6v-41
			c4.8-0.4,9.6-0.5,14.6-0.1c17,1.1,48.5,7.5,95.2,39.3c41.5,28.3,61.9,71.6,62,71.6c4.8-0.2,23.1-5.6,23.5-5.6
			C562,215.7,449.2,152.5,341.5,152.5z"/>
	</g>
	<g class="st3">
		<defs>
			<path id="SVGID_12_" d="M338.5,147.4c-132.7,0-247.7,102-247.7,233.7c0,73.8,49.3,147.8,103,172.3c138,63,179.4-85.3,179.4-85.3
				l-27.1-52.4l-40.8,18.3c0,0-17.6-19.3-15.9-54.4c1.4-28.4,9.4-39.7,21.9-54.6c12.9,8.1,27.2,24.4,27.2,24.4l38.5-17.6v-41
				c4.8-0.4,9.6-0.5,14.6-0.1c17,1.1,48.5,7.5,95.2,39.3c41.5,28.3,61.9,71.6,62,71.6c4.8-0.2,23.1-5.6,23.5-5.6
				C559,210.6,446.3,147.4,338.5,147.4z"/>
		</defs>
		<clipPath id="SVGID_13_">
			<use xlink:href="#SVGID_12_"  style="overflow:visible;"/>
		</clipPath>
		<linearGradient id="SVGID_14_" gradientUnits="userSpaceOnUse" x1="233.8618" y1="259.0238" x2="437.8828" y2="259.0238">
			<stop  offset="0" style="stop-color:#E5AD88"/>
			<stop  offset="7.053924e-02" style="stop-color:#E3BCA2"/>
			<stop  offset="0.1522" style="stop-color:#E2C8B8"/>
			<stop  offset="0.2487" style="stop-color:#E1D2C9"/>
			<stop  offset="0.368" style="stop-color:#E1D9D4"/>
			<stop  offset="0.5353" style="stop-color:#E0DDDB"/>
			<stop  offset="1" style="stop-color:#E0DEDD"/>
		</linearGradient>
		<path class="st17" d="M437.9,302.7c0,0-42.2-148-179.5-58.7c-31.6,20.5-26.2,41.1-18.8,48c14,13.3,74.1,4.7,129.1,3
			C410.1,293.8,436.1,301.6,437.9,302.7z"/>
		<linearGradient id="SVGID_15_" gradientUnits="userSpaceOnUse" x1="258.5" y1="267.6172" x2="440.8721" y2="267.6172">
			<stop  offset="0" style="stop-color:#E0DEDD"/>
			<stop  offset="2.380115e-02" style="stop-color:#D2CFCE"/>
			<stop  offset="9.692109e-02" style="stop-color:#ADA7A4"/>
			<stop  offset="0.1765" style="stop-color:#8C847F"/>
			<stop  offset="0.2617" style="stop-color:#706661"/>
			<stop  offset="0.3543" style="stop-color:#5A4E47"/>
			<stop  offset="0.4572" style="stop-color:#483B34"/>
			<stop  offset="0.576" style="stop-color:#3C2E26"/>
			<stop  offset="0.725" style="stop-color:#35261E"/>
			<stop  offset="1" style="stop-color:#33241C"/>
		</linearGradient>
		<path class="st18" d="M440.9,304.9c0,0-18.4-105.9-133-65.3c-17.7,6.3-33.6,19.4-49.4,31.8c24,6.6,56.4,20.8,78.6,18.3
			C402.7,282.5,438.7,303.3,440.9,304.9z"/>
	</g>
</g>
<g id="Layer_7" class="st0">
	<path class="st1" d="M440.9,176.2c0,0,29.1-36.7,34.3-27.1c3.7,6.9-1.1,43.7-1.1,43.7"/>
	<path class="st2" d="M451.5,186c0,0,19.9-36,23.5-36.7c3.5-0.6-0.8,42.2-0.8,42.2"/>
	<polygon class="st2" points="393,271.4 391.7,330.1 335.5,338.4 329.4,298.3 	"/>
	<polygon class="st2" points="274.3,411 332.2,396 350.8,480 312.5,501 	"/>
	<g class="st3">
		<path class="st4" d="M479.8,365.2c1.8,8.1,3,16.7,1.9,25.3C468.2,494.5,357,498,358.1,495.3c1.6-3.7-156.7,17.9-150.8,63.8
			c4.5,35.5,78.3,81.8,131.7,85.3c77.9,5.1,184.7-61.6,190.7-151.7C533.6,433.4,504.9,389.1,479.8,365.2z"/>
		<path class="st4" d="M338.5,147.5c-132.7,0-247.7,102-247.7,233.7c0,73.8,49.3,147.8,103,172.3c138,63,179.4-85.3,179.4-85.3
			l-27.1-52.4L305.3,434c0,0-17.6-19.3-15.9-54.4c1.4-28.4,9.4-39.7,21.9-54.6c12.9,8.1,27.2,24.4,27.2,24.4l38.5-17.6v-41
			c4.8-0.4,9.6-0.5,14.6-0.1c17,1.1,48.5,7.5,95.2,39.3c41.5,28.3,61.9,71.6,62,71.6c4.8-0.2,23.1-5.6,23.5-5.6
			C559,210.7,446.3,147.5,338.5,147.5z"/>
	</g>
	<g class="st3">
		<circle class="st5" cx="482.8" cy="249.5" r="17"/>
		<circle class="st6" cx="490.3" cy="249.5" r="9.5"/>
	</g>
	<path class="st1" d="M420,168.7c0,0,29.1-36.7,34.3-27.1c3.7,6.9-1.1,43.7-1.1,43.7L420,168.7z"/>
	<path class="st2" d="M430.7,178.5c0,0,11.8-38.3,23.5-36.7c3.5,0.5-0.8,42.2-0.8,42.2L430.7,178.5z"/>
	<g class="st3">
		<defs>
			<path id="SVGID_16_" d="M336.5,147.4c-132.7,0-247.7,102-247.7,233.7c0,73.8,49.3,147.8,103,172.3c138,63,179.4-85.3,179.4-85.3
				L344,415.6l-40.8,18.3c0,0-17.6-19.3-15.9-54.4c1.4-28.4,9.4-39.7,21.9-54.6c12.9,8.1,27.2,24.4,27.2,24.4l38.5-17.6v-41
				c4.8-0.4,9.6-0.5,14.6-0.1c17,1.1,48.5,7.5,95.2,39.3c41.5,28.3,61.9,71.6,62,71.6c4.8-0.2,23.1-5.6,23.5-5.6
				C557,210.6,444.2,147.4,336.5,147.4z"/>
		</defs>
		<clipPath id="SVGID_17_">
			<use xlink:href="#SVGID_16_"  style="overflow:visible;"/>
		</clipPath>
		
			<radialGradient id="SVGID_18_" cx="216.9999" cy="416.0005" r="205.6433" fx="245.3768" fy="457.7312" gradientUnits="userSpaceOnUse">
			<stop  offset="0.2408" style="stop-color:#E5AD88"/>
			<stop  offset="0.5084" style="stop-color:#E5AD88"/>
			<stop  offset="0.52" style="stop-color:#E1AA85"/>
			<stop  offset="0.6125" style="stop-color:#C99271"/>
			<stop  offset="0.7099" style="stop-color:#B88262"/>
			<stop  offset="0.8146" style="stop-color:#AD785A"/>
			<stop  offset="0.9394" style="stop-color:#AA7557"/>
		</radialGradient>
		<path class="st19" d="M372.6,468.4c-25,37.7-92.6,101-187.9,45.9c-38.2-22-55.1-45.1-68.7-83.3c-19-53.6-3.5-143.5,31.7-198.5
			C84.5,298,82.1,394.1,104.1,456.2c7.4,20.9,19.8,38.1,34.2,53.5c10.5,12.9,22.2,24,34.5,32.7c0,0,0,0,0,0v0
			c6.8,4.8,13.7,8.9,20.8,12.1c23.7,10.8,44.6,15.4,62.8,15.6c4.3,0,8.5-0.2,12.5-0.6C347.3,561.2,373,469.2,373,469.2L372.6,468.4z
			"/>
		<path class="st20" d="M341.5,152.5c-132.7,0-247.7,102-247.7,233.7c0,73.8,49.3,147.8,103,172.3c138,63,179.4-85.3,179.4-85.3
			L349,420.7L308.2,439c0,0-17.6-19.3-15.9-54.4c1.4-28.4,9.4-39.7,21.9-54.6c12.9,8.1,27.2,24.4,27.2,24.4l38.5-17.6v-41
			c4.8-0.4,9.6-0.5,14.6-0.1c17,1.1,48.5,7.5,95.2,39.3c41.5,28.3,61.9,71.6,62,71.6c4.8-0.2,23.1-5.6,23.5-5.6
			C562,215.7,449.2,152.5,341.5,152.5z"/>
	</g>
	<g class="st3">
		<defs>
			<path id="SVGID_19_" d="M338.5,147.4c-132.7,0-247.7,102-247.7,233.7c0,73.8,49.3,147.8,103,172.3c138,63,179.4-85.3,179.4-85.3
				l-27.1-52.4l-40.8,18.3c0,0-17.6-19.3-15.9-54.4c1.4-28.4,9.4-39.7,21.9-54.6c12.9,8.1,27.2,24.4,27.2,24.4l38.5-17.6v-41
				c4.8-0.4,9.6-0.5,14.6-0.1c17,1.1,48.5,7.5,95.2,39.3c41.5,28.3,61.9,71.6,62,71.6c4.8-0.2,23.1-5.6,23.5-5.6
				C559,210.6,446.3,147.4,338.5,147.4z"/>
		</defs>
		<clipPath id="SVGID_20_">
			<use xlink:href="#SVGID_19_"  style="overflow:visible;"/>
		</clipPath>
		<linearGradient id="SVGID_21_" gradientUnits="userSpaceOnUse" x1="233.8618" y1="259.0238" x2="437.8828" y2="259.0238">
			<stop  offset="0" style="stop-color:#E5AD88"/>
			<stop  offset="7.053924e-02" style="stop-color:#E3BCA2"/>
			<stop  offset="0.1522" style="stop-color:#E2C8B8"/>
			<stop  offset="0.2487" style="stop-color:#E1D2C9"/>
			<stop  offset="0.368" style="stop-color:#E1D9D4"/>
			<stop  offset="0.5353" style="stop-color:#E0DDDB"/>
			<stop  offset="1" style="stop-color:#E0DEDD"/>
		</linearGradient>
		<path class="st21" d="M437.9,302.7c0,0-42.2-148-179.5-58.7c-31.6,20.5-26.2,41.1-18.8,48c14,13.3,74.1,4.7,129.1,3
			C410.1,293.8,436.1,301.6,437.9,302.7z"/>
		<linearGradient id="SVGID_22_" gradientUnits="userSpaceOnUse" x1="258.5" y1="267.6172" x2="440.8721" y2="267.6172">
			<stop  offset="0" style="stop-color:#E0DEDD"/>
			<stop  offset="2.380115e-02" style="stop-color:#D2CFCE"/>
			<stop  offset="9.692109e-02" style="stop-color:#ADA7A4"/>
			<stop  offset="0.1765" style="stop-color:#8C847F"/>
			<stop  offset="0.2617" style="stop-color:#706661"/>
			<stop  offset="0.3543" style="stop-color:#5A4E47"/>
			<stop  offset="0.4572" style="stop-color:#483B34"/>
			<stop  offset="0.576" style="stop-color:#3C2E26"/>
			<stop  offset="0.725" style="stop-color:#35261E"/>
			<stop  offset="1" style="stop-color:#33241C"/>
		</linearGradient>
		<path class="st22" d="M440.9,304.9c0,0-18.4-105.9-133-65.3c-17.7,6.3-33.6,19.4-49.4,31.8c24,6.6,56.4,20.8,78.6,18.3
			C402.7,282.5,438.7,303.3,440.9,304.9z"/>
	</g>
	<g class="st3">
		<g>
			<g>
				<path class="st4" d="M469.2,431.5c0-0.1,0-0.8,0.1-1.9c0-0.3,0.1-0.6,0.1-0.9c0-0.3,0-0.7,0-1.1c0-0.8,0-1.6,0-2.5
					c0-0.5,0-1,0-1.5c0-0.5-0.1-1.1-0.1-1.6c-0.1-1.1-0.2-2.3-0.3-3.5c-0.1-1.2-0.3-2.5-0.4-3.8c-0.2-1.3-0.3-2.6-0.5-4
					c-0.2-1.3-0.4-2.7-0.6-4c-0.2-1.3-0.3-2.7-0.5-4c-0.4-2.5-0.5-5-0.7-7c-0.2-2-0.1-3.8-0.2-4.9c0-1.2,0-1.8,0-1.8
					s0.4,0.6,1.1,1.5c0.7,1,1.6,2.3,2.8,3.9c2.5,3.2,5.9,7.1,9.5,11.2c0.9,1,1.8,2.1,2.7,3.1c0.9,1.1,1.8,2.1,2.6,3.2
					c0.8,1.1,1.6,2.2,2.4,3.2c0.4,0.5,0.8,1,1.1,1.5c0.3,0.5,0.7,1,1,1.5c0.6,1,1.2,1.9,1.8,2.7c0.3,0.4,0.5,0.8,0.7,1.2
					c0.2,0.4,0.4,0.8,0.6,1.1c0.7,1.4,1.1,2.2,1.2,2.5c0.2,0.8-1,1.9-3.1,2.9c-2.1,1-5.1,1.9-8.5,2.6s-6.5,1-8.8,1.1
					C470.9,432.2,469.4,432,469.2,431.5z"/>
			</g>
		</g>
	</g>
	<g class="st3">
		<g>
			<path class="st23" d="M464,387"/>
		</g>
	</g>
	<g class="st3">
		<g>
			<g>
				<path class="st4" d="M435.7,484.2c0,0,0.1,0,0.2,0c0.2-0.1,0.4-0.1,0.8-0.4c0.7-0.5,1.9-1.7,3.1-3.7c1.2-2,2.5-4.8,3.6-8
					c1.1-3.2,2.1-6.8,2.9-10.5c1.6-7.4,2.4-15.1,2.4-20.8c0-2.9-0.1-5.3-0.3-7c-0.1-0.8-0.2-1.5-0.3-2c-0.1-0.5-0.1-0.7-0.1-0.7
					s0.1,0.2,0.4,0.6c0.3,0.4,0.6,1,1,1.7c0.9,1.5,2,3.8,3.1,6.6c2.3,5.6,4.7,13.4,6.3,21.6c1.5,8.2,2.2,17,1.1,24.6
					c-0.5,3.8-1.5,7.3-2.8,10c-0.6,1.3-1.3,2.5-1.8,3.3c-0.5,0.8-1,1.4-1.1,1.6c-0.3,0.4-0.7,0.7-1.2,0.9c-0.5,0.2-1,0.4-1.5,0.4
					c-1.1,0.1-2.2-0.1-3.4-0.7c-2.4-1.1-4.4-3.6-6.1-6.6s-3-5.9-4.2-7.8c-0.6-0.9-1.1-1.7-1.5-2.2c-0.2-0.2-0.4-0.4-0.5-0.5
					C435.7,484.3,435.7,484.2,435.7,484.2z"/>
			</g>
		</g>
	</g>
	<g class="st3">
		<g>
			<path class="st23" d="M446,428"/>
		</g>
	</g>
	<g class="st3">
		<g>
			<g>
				<path class="st4" d="M409.7,492c0.1-0.1,0.6-0.4,1.5-0.8c0.9-0.5,2.2-1.3,3.7-2.6c3.1-2.4,6.9-6.8,10.2-11.8
					c3.4-4.9,6.2-10.4,8.1-14.6c0.5-1.1,0.9-2,1.2-2.9c0.4-0.9,0.7-1.6,0.9-2.3c0.5-1.3,0.7-2,0.7-2s0.1,0.8,0.4,2.1
					c0.1,0.7,0.2,1.5,0.3,2.5c0.1,1,0.2,2.1,0.3,3.3c0.4,4.8,0.6,11.3-0.1,18c-0.7,6.7-2.1,13.7-4.4,19.2c-0.3,0.7-0.6,1.4-0.8,2
					c-0.3,0.6-0.5,1.3-0.9,1.8c-0.6,1.2-1.1,2.2-1.7,3.1c-1.2,1.7-2,2.8-2.2,3c-0.9,0.8-2.7,0.5-4.7-0.7c-2-1.3-4.2-3.5-6.2-6.3
					s-3.7-5.5-4.9-7.5C410,493.5,409.3,492.3,409.7,492z"/>
			</g>
		</g>
	</g>
	<g class="st3">
		<g>
			<path class="st23" d="M437,452"/>
		</g>
	</g>
	<g class="st3">
		<g>
			<g>
				<path class="st4" d="M392.2,493.8c0.1-0.2,1.7-0.2,4.3-1.6c1.3-0.6,2.8-1.6,4.4-2.9c1.6-1.3,3.3-2.8,4.9-4.5
					c3.2-3.4,6.1-7.3,8-10.5c1-1.6,1.8-2.9,2.3-3.9c0.5-1,0.8-1.5,0.8-1.5s0.1,0.6,0.2,1.7c0.1,1.1,0.3,2.7,0.4,4.6
					c0.3,3.8,0.3,9.1-0.4,14.6c-0.3,2.7-0.9,5.5-1.6,8.2c-0.8,2.7-1.7,5.2-2.8,7.5c-0.5,1.1-1.1,2.2-1.7,3.1c-0.6,0.9-1,1.8-1.6,2.4
					c-1,1.4-1.7,2.2-1.9,2.4c-0.8,0.6-2.4,0-4.1-1.5c-1.8-1.5-3.7-4-5.5-6.9c-1.8-2.9-3.3-5.7-4.4-7.7
					C392.6,495.2,392,493.9,392.2,493.8z"/>
			</g>
		</g>
	</g>
	<g class="st3">
		<g>
			<path class="st23" d="M417,466"/>
		</g>
	</g>
	<g class="st3">
		<g>
			<g>
				<path class="st4" d="M364.2,497.4c0.1-0.1,1.4,0.1,3.7-0.3c1.1-0.2,2.5-0.7,4.1-1.3c1.5-0.7,3.2-1.5,4.9-2.5
					c3.4-1.9,6.9-4.3,9.6-5.8c1.3-0.8,2.5-1.4,3.3-1.8c0.8-0.4,1.2-0.6,1.2-0.6s-0.7,1.9-1.4,4.8c-0.8,2.9-1.5,6.8-2.7,11
					c-0.6,2.1-1.3,4.2-2.1,6.3c-0.9,2.1-1.8,4.1-3,5.8c-2.1,3.5-4.5,5.8-4.8,5.9c-0.7,0.4-2-0.5-3.4-2.3c-1.5-1.8-3.1-4.5-4.6-7.6
					c-1.5-3.1-2.8-6-3.6-8.1C364.5,498.8,364,497.5,364.2,497.4z"/>
			</g>
		</g>
	</g>
	<g class="st3">
		<g>
			<path class="st23" d="M392,483"/>
		</g>
	</g>
	<g class="st3">
		<g>
			<g>
				<path class="st4" d="M451,453.2c0-0.1,0.2-0.2,0.7-0.6c0.4-0.3,0.9-0.9,1.5-1.6c0.3-0.4,0.6-0.8,0.9-1.3c0.3-0.5,0.7-1,1-1.6
					c0.3-0.6,0.6-1.2,0.9-1.8c0.2-0.3,0.3-0.7,0.5-1c0.1-0.3,0.3-0.7,0.4-1c0.2-0.7,0.5-1.4,0.7-2.1c0.2-0.7,0.4-1.4,0.5-2.1
					c0.4-1.4,0.5-2.8,0.7-4c0.2-1.2,0.1-2.2,0.2-2.9c0-0.7,0-1.2,0-1.2s0.3,0.2,0.9,0.7c0.6,0.4,1.5,1,2.5,1.9
					c0.9,0.9,2.2,1.9,3.3,3.1c0.6,0.6,1.2,1.3,1.8,2c0.6,0.7,1.1,1.5,1.7,2.2c0.3,0.4,0.6,0.8,0.8,1.2c0.3,0.4,0.5,0.8,0.7,1.2
					c0.5,0.8,1,1.7,1.4,2.5c0.4,0.9,0.8,1.7,1.2,2.5c0.4,0.8,0.7,1.6,0.9,2.4c0.5,1.6,0.9,3,1.1,4.1c0.2,1.1,0.2,1.8,0.2,2
					c-0.1,0.6-1.6,0.9-3.9,0.7c-2.3-0.2-5.3-0.7-8.7-1.6c-3.3-0.8-6.4-1.7-8.5-2.4C452.3,453.9,450.9,453.4,451,453.2z"/>
			</g>
		</g>
	</g>
	<g class="st3">
		<g>
			<g>
				<path class="st4" d="M476.4,410.5c0,0,0.2,0,0.5,0c0.3,0.1,0.9-0.1,1.3-0.8c0.4-0.7,0.7-2,0.8-3.6c0.1-1.6-0.1-3.5-0.4-5.4
					c-0.6-3.9-1.7-8-2.4-11c-0.8-3.1-1.1-5.1-1.1-5.1s1.7,1.2,4.3,2.9c2.6,1.7,6.2,3.9,9.8,6.7c3.6,2.8,7.2,6.3,9.5,10.8
					c1.1,2.2,1.8,4.7,2.1,6.6c0.3,1.9,0.2,3.1,0.1,3.4c-0.2,1.1-1.8,1.7-4.2,1.6c-2.4-0.1-5.4-0.8-8.7-1.9c-3.2-1.1-6.1-2.3-8.2-3
					c-1.1-0.4-1.9-0.6-2.5-0.8C476.7,410.6,476.4,410.5,476.4,410.5z"/>
			</g>
		</g>
	</g>
	<g class="st3">
		<g>
			<path class="st23" d="M476,390"/>
		</g>
	</g>
	<g class="st3">
		<g>
			<g>
				<path class="st4" d="M463.8,451.6c0-0.1,0.3-0.4,0.6-1.2c0.3-0.8,0.8-2.1,1.1-3.9c0.6-3.6,0.4-9.2-0.7-14.8
					c-1.1-5.7-3.1-11.3-5.1-15.3c-1-2-2-3.6-2.7-4.7c-0.4-0.6-0.7-1-0.9-1.2c-0.2-0.3-0.3-0.4-0.3-0.4s0.2,0.1,0.5,0.2
					c0.3,0.1,0.8,0.3,1.4,0.7c1.2,0.6,3,1.6,5,2.9c4,2.7,8.9,7,13.3,12.2c4.4,5.2,8.2,11.2,10.4,16.9c1.1,2.8,1.8,5.6,2.1,7.7
					c0.3,2.1,0.3,3.7,0.3,4c-0.2,1.3-1.8,2.3-4.2,2.6c-2.4,0.3-5.5-0.2-8.8-1.2c-3.3-1-6.3-2.1-8.4-2.9
					C465.1,452.4,463.7,451.9,463.8,451.6z"/>
			</g>
		</g>
	</g>
	<g class="st3">
		<g>
			<g>
				<path class="st4" d="M400.1,506.5c-0.2-0.1-0.8-0.6-1.6-1.6c-0.8-1-1.9-2.4-2.7-4.2c-1-1.9-1.5-4-1.6-6
					c-0.2-1.9-0.1-3.8,0.2-5.5c0.5-3.4,1.4-6.4,2-8.6c0.3-1.1,0.6-2,0.8-2.6c0.2-0.6,0.3-1,0.3-1s0.3,0.3,0.7,0.7
					c0.5,0.5,1.1,1.2,1.9,2c1.6,1.6,3.7,3.8,6,5.4c1.1,0.8,2.2,1.4,3.2,1.7c1,0.3,1.8,0.2,2.2-0.2c0.5-0.3,0.9-0.6,1.1-0.9
					c0.2-0.3,0.3-0.4,0.3-0.4s-0.7,1.2-1.6,3.1c-0.9,1.9-2.1,4.6-3.5,7.5c-1.5,3.2-3.1,6-4.5,7.9
					C402.1,505.9,400.8,506.8,400.1,506.5z"/>
			</g>
		</g>
	</g>
	<g class="st3">
		<g>
			<g>
				<path class="st4" d="M400.3,501.6C400.2,501.6,400.2,501.7,400.3,501.6l-0.1,0.1l0,0l0,0c-1.1-1.4,1.5,1.9,1.2,1.6l0,0l-0.1-0.1
					c-0.1-0.1-0.1-0.2-0.2-0.3c-0.1-0.2-0.3-0.4-0.5-0.6c-0.1-0.1-0.2-0.2-0.3-0.3l-0.1-0.2c0,0,0,0,0,0c0,0,0,0.1,0.1,0.1
					c0.1,0,0.2,0,0.3,0c0.5-0.1,1.6-0.7,2.9-1.9c2.7-2.5,6.1-7.4,9.1-12.6c3-5.2,5.6-10.8,7.3-15.1c0.9-2.1,1.5-4,1.9-5.2
					c0.4-1.3,0.6-2,0.6-2s0.2,0.8,0.5,2.1c0.3,1.4,0.6,3.3,0.9,5.7c0.6,4.7,1,11.1,0.9,17.8c-0.1,6.6-0.8,13.5-2.6,19.4
					c-0.9,2.9-2.2,5.7-3.6,7.8c-0.4,0.5-0.7,1-1.1,1.5c-0.4,0.5-0.8,0.9-1.1,1.2c-0.3,0.3-0.6,0.6-0.8,0.8c-0.2,0.2-0.4,0.4-0.5,0.4
					c-1.7,1.3-3.7,0.6-5.5-1c-1.9-1.7-3.4-4.5-4.6-7.7c-1.2-3.2-2.1-6.1-2.9-8.2C401.3,502.7,400.6,501.4,400.3,501.6z"/>
			</g>
		</g>
	</g>
	<g class="st3">
		<g>
			<g>
				<path class="st4" d="M424.4,490.8c0,0,0.3,0,0.9-0.1c0.6-0.2,1.6-0.7,2.9-1.8c2.5-2.2,5.7-6.9,8.2-12.1
					c2.6-5.2,4.5-10.9,5.8-15.3c0.6-2.2,1.1-4,1.4-5.3c0.3-1.3,0.4-2.1,0.4-2.1s0.3,0.7,0.7,2c0.4,1.3,0.9,3.2,1.5,5.5
					c1.1,4.6,2.2,10.8,2.6,17.5c0.4,6.6,0,13.7-1.9,19.8c-0.9,3-2.2,5.7-3.5,7.7c-1.3,2-2.5,3.3-2.8,3.5c-0.5,0.5-1.4,0.7-2.3,0.5
					c-0.9-0.1-1.9-0.6-2.9-1.3c-2-1.5-3.8-4-5.4-7.1s-2.8-6-3.9-8c-0.5-1-1-1.8-1.3-2.4C424.5,491.1,424.4,490.8,424.4,490.8z"/>
			</g>
		</g>
	</g>
	<g class="st3">
		<g>
			<path class="st23" d="M443,452.5"/>
		</g>
	</g>
	<g class="st3">
		<g>
			<path class="st24" d="M624,306"/>
		</g>
	</g>
	<g class="st3">
		<g>
			<path class="st24" d="M587,459"/>
		</g>
	</g>
	<g class="st3">
		<g>
			<path class="st25" d="M531,576"/>
		</g>
	</g>
</g>
<g id="Layer_11" class="st0">
	<path class="st26" d="M655.4,308.8c-7.9-40.1-23.9-77.3-46.3-109.8l34.1-34.1l-78.7-78.7l-34.7,34.7c-32-21.4-68.5-36.7-107.8-44.2
		V24.2H310.8v52.4c-38.9,7.4-75,22.5-106.9,43.6l-35.6-35.6l-78.7,78.7l34.7,34.7c-22.7,32.7-39,70.2-46.9,110.7H30.7v111.3H77
		c7.4,39.8,22.8,76.8,44.5,109.2L89.7,561l78.7,78.7l31.2-31.2c32.9,22.7,70.6,38.8,111.3,46.6v40.6h111.3v-40.6
		c41-7.9,79.1-24.2,112.2-47.2l30.3,30.3l78.7-78.7l-31.1-31.1c21.4-32.2,36.6-68.9,43.9-108.4h46.2V308.8H655.4z"/>
</g>
<g id="Layer_12" class="st0">
	<path class="st3" d="M650.5,317c-7.9-40.1-23.9-77.3-46.3-109.8l34.1-34.1l-78.7-78.7l-34.7,34.7c-32-21.4-68.5-36.7-107.8-44.2
		V32.5H305.8v52.4c-38.9,7.4-75,22.5-106.9,43.6l-35.6-35.6l-78.7,78.7l34.7,34.7C96.7,239,80.5,276.5,72.5,317H25.7v111.3H72
		c7.4,39.8,22.8,76.8,44.5,109.2l-31.7,31.7l78.7,78.7l31.2-31.2c32.9,22.7,70.6,38.8,111.3,46.6V704h111.3v-40.6
		c41-7.9,79.1-24.2,112.2-47.2l30.3,30.3l78.7-78.7l-31.1-31.1c21.4-32.2,36.6-68.9,43.9-108.4h46.2V317H650.5z"/>
</g>
<g id="Layer_10" class="st0">
	<g class="st3">
		<path class="st27" d="M455.1,186c0,0,26.5-32.7,30.1-23.8c3.3,8.3-0.9,38.4-0.9,38.4"/>
		<path class="st28" d="M483.3,199.2l-19.4-4.8c0,0,18-31.2,21.5-31.5c3,8.9-1,36.3-1,36.3"/>
		<polygon class="st28" points="411.1,266.6 409.9,318.2 360.5,325.5 355.2,290.3 		"/>
		<polygon class="st28" points="308.7,392.3 359.6,379.2 375.9,453 342.3,471.4 		"/>
		<g>
			<path class="st27" d="M489.3,352.1c1.6,7.2,2.6,14.7,1.6,22.2c-11.8,91.4-109.5,94.4-108.5,92c1.4-3.3-137.6,15.7-132.5,56.1
				c4,31.2,68.8,71.9,115.7,75c68.4,4.5,162.2-54.2,167.5-133.3C536.6,412.1,511.3,373.1,489.3,352.1z"/>
			<path class="st27" d="M365.2,160.8c-116.6,0-217.6,89.6-217.6,205.3c0,64.8,43.3,129.9,90.5,151.4c121.2,55.3,157.6-75,157.6-75
				l-23.8-46.1l-35.8,16c0,0-15.5-16.9-14-47.8c1.2-25,8.3-34.9,19.3-48c11.3,7.1,23.9,21.5,23.9,21.5l33.8-15.4v-36
				c4.2-0.4,8.5-0.4,12.8-0.1c14.9,1,42.6,6.6,83.6,34.5c36.5,24.8,54.4,62.9,54.4,62.9c4.3-0.2,20.3-4.9,20.6-4.9
				C558.9,216.4,459.8,160.8,365.2,160.8z"/>
		</g>
		<g>
			<circle class="st5" cx="491.9" cy="250.5" r="14.9"/>
			<circle class="st6" cx="496.6" cy="250.5" r="8.3"/>
		</g>
		<g>
			<defs>
				<path id="SVGID_23_" d="M365.2,160.4c-116.1,0-218.2,90.8-218.2,205.8c0,65,43.4,130.2,90.7,151.8
					C359.2,573.5,396,442.1,396,442.1l-23.4-45.6l-36.6,16.2c0,0-15.5-17-14-47.9c1.2-25,8.3-35,19.3-48.1
					c11.3,7.1,17.8-13.9,17.8-13.9l11-18.8l-27.7-77.3c-3.3-21.4,65.3,79.6,69.6,79.9c14.9,1,42.7,6.6,83.8,34.6
					c36.5,24.9,54.5,63.1,54.6,63.1c4.3-0.2,20.3-4.9,20.7-4.9C559.3,216.1,460.1,160.4,365.2,160.4z"/>
			</defs>
			<clipPath id="SVGID_24_">
				<use xlink:href="#SVGID_23_"  style="overflow:visible;"/>
			</clipPath>
			<path class="st29" d="M395.6,442.6c-6.2,9.4-95.7,78.3-163.9,38.9c-33.6-19.4-48.5-39.7-60.5-73.4
				c-16.7-47.2-3.1-126.3,27.9-174.8C143.5,291,81.2,351.5,136.7,440.5c10.3,16.6,70.7,105.5,178.2,80.3
				C383.4,504.7,395.6,442.6,395.6,442.6L395.6,442.6z"/>
			<use xlink:href="#SVGID_23_"  style="overflow:visible;fill:none;stroke:#FFFFFF;stroke-width:4;stroke-miterlimit:10;"/>
		</g>
		<path class="st28" d="M464.3,302.8c0,0-16-94.8-116.7-59.2c-15.5,5.5-29.5,17.1-43.4,28c21.1,5.8,50.2,18.9,69.7,16.8
			c29.8-3.3,52.2-1.6,67.5,4.9C455.5,299.2,464.3,302.8,464.3,302.8z"/>
		<path class="st28" d="M464.8,193.5"/>
		<path class="st27" d="M436.8,179.5c0,0,25.5-32.2,30.1-23.8c3.3,6-0.9,38.4-0.9,38.4L436.8,179.5z"/>
		<path class="st28" d="M445,187.1c0,0,12.9-35,21.6-30.8c2.2,0.3,2.2,20.2-0.7,37C461.5,191,445,187.1,445,187.1z"/>
	</g>
</g>
<g id="Layer_13" class="st0">
	<path class="st30" d="M648.2,304.9c-7.9-40.1-23.9-77.3-46.3-109.8L636,161l-78.7-78.7L522.6,117c-32-21.4-68.5-36.7-107.8-44.2
		V20.4H303.6v52.4c-38.9,7.4-75,22.5-106.9,43.6l-35.6-35.6l-78.7,78.7l34.7,34.7c-22.7,32.7-39,70.2-46.9,110.7H23.5v111.3h46.2
		c7.4,39.8,22.8,76.8,44.5,109.2l-31.7,31.7l78.7,78.7l31.2-31.2c32.9,22.7,70.6,38.8,111.3,46.6v40.6h111.3v-40.6
		c41-7.9,79.1-24.2,112.2-47.2l30.3,30.3l78.7-78.7l-31.1-31.1c21.4-32.2,36.6-68.9,43.9-108.4H695V304.9H648.2z"/>
	<g class="st3">
		<path class="st31" d="M453.3,178.2c0,0,26.5-32.7,30.1-23.8c3.3,8.3-0.9,38.4-0.9,38.4"/>
		<path class="st32" d="M481.5,191.4l-19.4-4.8c0,0,18-31.2,21.5-31.5c3,8.9-1,36.3-1,36.3"/>
		<polygon class="st32" points="409.3,258.9 408.2,310.4 358.8,317.7 353.5,282.5 		"/>
		<polygon class="st32" points="307,384.5 357.8,371.4 374.2,445.2 340.6,463.6 		"/>
		<g>
			<path class="st31" d="M487.5,344.3c1.6,7.2,2.6,14.7,1.6,22.2c-11.8,91.4-109.5,94.4-108.5,92c1.4-3.3-137.6,15.7-132.5,56.1
				c4,31.2,68.8,71.9,115.7,75c68.4,4.5,162.2-54.2,167.5-133.3C534.8,404.3,509.6,365.3,487.5,344.3z"/>
			<path class="st31" d="M363.4,153c-116.6,0-217.6,89.6-217.6,205.3c0,64.8,43.3,129.9,90.5,151.4c121.2,55.3,157.6-75,157.6-75
				l-23.8-46.1l-35.8,16c0,0-15.5-16.9-14-47.8c1.2-25,8.3-34.9,19.3-48c11.3,7.1,23.9,21.5,23.9,21.5l33.8-15.4v-36
				c4.2-0.4,8.5-0.4,12.8-0.1c14.9,1,42.6,6.6,83.6,34.5c36.5,24.8,54.4,62.9,54.4,62.9c4.3-0.2,20.3-4.9,20.6-4.9
				C557.1,208.6,458.1,153,363.4,153z"/>
		</g>
		<g>
			<circle class="st33" cx="490.1" cy="242.7" r="14.9"/>
			<circle class="st31" cx="494.8" cy="242.7" r="8.3"/>
		</g>
		<g>
			<defs>
				<path id="SVGID_25_" d="M363.4,152.6c-116,0-218.2,90.8-218.2,205.8c0,65,43.4,130.2,90.7,151.8
					c121.5,55.5,158.3-75.9,158.3-75.9l-23.4-45.6l-36.6,16.2c0,0-15.5-17-14-47.9c1.2-25,8.3-35,19.3-48.1
					c11.3,7.1,24,21.5,24,21.5l4.8-54.2l-27.7-77.3c-3.3-21.4,65.3,79.6,69.6,79.9c14.9,1,42.7,6.6,83.8,34.6
					c36.5,24.9,54.5,63.1,54.6,63.1c4.3-0.2,20.3-4.9,20.7-4.9C557.6,208.3,458.3,152.6,363.4,152.6z"/>
			</defs>
			<clipPath id="SVGID_26_">
				<use xlink:href="#SVGID_25_"  style="overflow:visible;"/>
			</clipPath>
			<path class="st34" d="M393.9,434.8c-6.2,9.4-95.7,78.3-163.9,38.9c-33.6-19.4-48.5-39.7-60.5-73.4
				c-16.7-47.2-3.1-126.3,27.9-174.8C141.7,283.2,79.5,343.7,135,432.7c10.3,16.6,70.7,105.5,178.2,80.3
				C381.6,496.9,393.9,434.8,393.9,434.8L393.9,434.8z"/>
			<use xlink:href="#SVGID_25_"  style="overflow:visible;fill:none;stroke:#000000;stroke-miterlimit:10;"/>
		</g>
		<path class="st32" d="M462.5,295c0,0-16-94.8-116.7-59.2c-15.5,5.5-29.5,17.1-43.4,28c21.1,5.8,50.2,18.9,69.7,16.8
			c29.8-3.3,52.2-1.6,67.5,4.9C453.8,291.4,462.5,295,462.5,295z"/>
		<path class="st32" d="M463.1,185.7"/>
		<path class="st31" d="M435,171.7c0,0,25.5-32.2,30.1-23.8c3.3,6-0.9,38.4-0.9,38.4L435,171.7z"/>
		<path class="st32" d="M443.3,179.3c0,0,12.9-35,21.6-30.8c2.2,0.3,2.2,20.2-0.7,37C459.8,183.2,443.3,179.3,443.3,179.3z"/>
	</g>
</g>
<g id="Layer_9" class="st0">
	<path class="st35" d="M306.3,409c-9-7.3-14.6-33.5-14.6-33.5l41.5-8.1l6,26.9"/>
	<g class="st3">
		<circle class="st5" cx="483.8" cy="224.5" r="17"/>
		<circle class="st6" cx="491.3" cy="224.5" r="9.5"/>
	</g>
	<path class="st35" d="M312.3,300c12.9,8.1,27.2,24.4,27.2,24.4l38.5-17.6v-41c4.8-0.4,9.6-0.5,14.6-0.1c17,1.1,48.5,7.5,95.2,39.3
		c41.5,28.3,61.9,71.6,62,71.6c4.8-0.2,23.1-5.6,23.5-5.6c-7.4-103.9-46.1-169.4-97.7-207c0.9-7.8,2.7-25.8,1.7-35.2
		c-0.1-2.5-0.4-4.2-1-4.5c0-0.1-0.1-0.2-0.1-0.3c-2.7-4.9-11.5,2.3-19.6,10.5c0.1-2.7,0.2-5.4,0.2-7.8c0.1-5.8-0.3-10-1.4-10.2
		c0,0,0,0-0.1,0c-3.9-7-20.6,11-29.2,21c-27.9-10.5-57.4-15.1-86.6-15.1c-132.7,0-247.7,102-247.7,233.7
		c0,86.8,48.6,145.8,103,172.3c4.6,2.2,9.1,4,13.6,5.6c4.5,35.5,78.3,81.8,131.7,85.3c77.9,5.1,184.7-61.6,190.7-151.7
		c4-59.3-24.8-103.7-49.9-127.5c1.7,7.6,2.8,15.6,2,23.7c-0.9-0.6-1.7-1.1-2.4-1.5c-2.6-1.7-4.3-2.9-4.3-2.9s0.4,2.1,1.1,5.1
		c0.7,3.1,1.8,7.2,2.4,11c0.2,1.6,0.4,3.1,0.4,4.4c0,0,0,0,0,0c-3.5-4-6.7-7.7-9.1-10.7c-1.2-1.6-2.1-2.9-2.8-3.9
		c-0.7-1-1.1-1.5-1.1-1.5s0,0.7,0,1.8c0.1,1.2,0,2.9,0.2,4.9c0.2,2,0.4,4.5,0.7,7c0.2,1.3,0.3,2.6,0.5,4c0.2,1.3,0.4,2.7,0.6,4
		c0.2,1.4,0.4,2.7,0.5,4c0.1,1.3,0.3,2.6,0.4,3.8c0,0.1,0,0.2,0,0.3c-2.3-2-4.5-3.8-6.4-5.1c-2-1.4-3.7-2.3-5-2.9
		c-0.6-0.3-1.1-0.5-1.4-0.7c-0.3-0.1-0.5-0.2-0.5-0.2s0.1,0.2,0.3,0.4c0.2,0.3,0.5,0.7,0.9,1.2c0.8,1.1,1.8,2.7,2.7,4.7
		c2,4,4,9.6,5.1,15.3c0.4,2,0.7,4,0.9,5.9c-1.1-1.2-2.3-2.2-3.2-3c-1-0.9-1.9-1.5-2.5-1.9c-0.6-0.4-0.9-0.7-0.9-0.7s0,0.4,0,1.2
		c0,0.7,0,1.7-0.2,2.9c-0.2,1.2-0.3,2.5-0.7,4c-0.2,0.7-0.3,1.4-0.5,2.1c-0.2,0.7-0.5,1.4-0.7,2.1c-0.1,0.3-0.2,0.7-0.4,1
		c-0.2,0.3-0.3,0.7-0.5,1c-0.2,0.5-0.5,0.9-0.7,1.4c-0.9-2.9-1.9-5.6-2.8-7.9c-1.1-2.8-2.3-5-3.1-6.6c-0.4-0.8-0.8-1.3-1-1.7
		c-0.3-0.4-0.4-0.6-0.4-0.6s0,0.2,0.1,0.7c0.1,0.4,0.2,1.1,0.3,2c0.2,1.7,0.3,4.1,0.3,7c0,5.8-0.8,13.5-2.4,20.8
		c0,0.1-0.1,0.3-0.1,0.4c0-0.1-0.1-0.3-0.1-0.4c-0.5-2.3-1.1-4.2-1.5-5.5c-0.4-1.3-0.7-2-0.7-2s-0.1,0.8-0.4,2.1
		c-0.3,1.3-0.7,3.2-1.4,5.3c-0.5,1.7-1.1,3.6-1.8,5.6c-1,0.8-2.1,1.6-3.1,2.4c0-2.4-0.2-4.6-0.3-6.5c-0.1-1.2-0.2-2.3-0.3-3.3
		c-0.1-1-0.2-1.8-0.3-2.5c-0.2-1.4-0.4-2.1-0.4-2.1s-0.3,0.7-0.7,2c-0.2,0.6-0.5,1.4-0.9,2.3c-0.3,0.9-0.8,1.9-1.2,2.9
		c-1.9,4.2-4.7,9.7-8.1,14.6c-0.2,0.3-0.5,0.7-0.7,1c0,0,0,0,0,0c-0.1-1.8-0.3-3.5-0.5-5.1c-0.3-2.4-0.6-4.3-0.9-5.7
		c-0.3-1.4-0.5-2.1-0.5-2.1s-0.2,0.8-0.6,2c-0.4,1.3-1.1,3.1-1.9,5.2c-0.6,1.5-1.4,3.3-2.2,5.1c0-0.7-0.1-1.4-0.1-2
		c-0.1-1.9-0.3-3.5-0.4-4.6c-0.1-1.1-0.2-1.7-0.2-1.7s-0.3,0.5-0.8,1.5c-0.5,1-1.3,2.3-2.3,3.9c-2,3.1-4.8,7.1-8,10.5c0,0,0,0,0,0
		c-2.1-1.6-4.1-3.6-5.6-5.1c-0.8-0.8-1.5-1.5-1.9-2c-0.5-0.5-0.7-0.7-0.7-0.7s-0.1,0.4-0.3,1c-0.2,0.6-0.5,1.5-0.8,2.6
		c-0.7,2.2-1.6,5.2-2,8.6c-0.1,0.4-0.1,0.8-0.1,1.2c-1.7,0.5-3.4,1-5.1,1.4c0.2-0.7,0.3-1.4,0.5-2c0.7-2.9,1.4-4.8,1.4-4.8
		s-0.5,0.2-1.2,0.6c-0.8,0.4-1.9,1-3.3,1.8c-2.7,1.6-6.2,3.9-9.6,5.8c-1,0.6-1.9,1.1-2.9,1.5c-5.2,0.7-9.4,1-12.2,1
		c8-15.7,11.3-27.7,11.3-27.7l-27.1-52.4L306.3,409c0,0-17.6-19.3-15.9-54.4C291.8,326.2,299.8,314.9,312.3,300z"/>
	<g class="st3">
		<path class="st36" d="M377.9,266.1v41l14.7-1.7l0.9-39.4c-0.3,0-0.7-0.1-1-0.1C387.6,265.6,382.7,265.7,377.9,266.1z"/>
	</g>
	<g class="st3">
		<g>
			<path class="st23" d="M465,362"/>
		</g>
	</g>
	<g class="st3">
		<g>
			<path class="st24" d="M681,301"/>
		</g>
	</g>
	<g class="st3">
		<g>
			<path class="st24" d="M588,434"/>
		</g>
	</g>
	<g class="st3">
		<g>
			<path class="st25" d="M532,551"/>
		</g>
	</g>
	<path class="st35" d="M333.2,367.3l6,26.9c0,0-16.4,6.1-32.8,14.7"/>
	<path class="st35" d="M438,277.3c0,0-45.2-153.1-182.5-63.7c-31.6,20.5-26.2,41-18.8,48c14,13.3,74.1,4.7,129.1,3
		C407.2,263.4,436.2,276.3,438,277.3z"/>
	<path class="st35" d="M438,277.3c0,0-18.4-108.7-133-68.1c-17.7,6.3-33.6,19.4-49.4,31.8c24,6.6,56.4,20.8,78.6,18.3
		C399.8,252.1,435.8,275.7,438,277.3z"/>
	<path class="st35" d="M372.9,444.3c-25,37.7-92.6,101-187.9,45.9c-38.2-22-55.1-45.1-68.7-83.3c-19-53.6-3.5-143.5,31.7-198.5
		c-63.2,65.5-67.3,159-42.1,223.9c8.3,21.4,31.9,60.5,69.1,84.9c45.6,30,74.1,26.2,109.4,18.9c68.8-14.1,88.9-91.1,88.9-91.1
		L372.9,444.3z"/>
</g>
<g id="Layer_15" class="st0">
	<rect class="st37" width="720" height="720"/>
</g>
<g id="Layer_16" class="st0">
	<circle class="st38" cx="361.4" cy="361.5" r="292.2"/>
	<rect x="299.5" y="9.5" class="st38" width="123.8" height="704"/>
	
		<rect x="299.5" y="9.5" transform="matrix(0.7071 -0.7071 0.7071 0.7071 -149.7675 361.4292)" class="st38" width="123.8" height="704"/>
	<rect x="9.4" y="299.6" class="st38" width="704" height="123.8"/>
	
		<rect x="9.4" y="299.6" transform="matrix(0.7071 -0.7071 0.7071 0.7071 -149.7677 361.4265)" class="st38" width="704" height="123.8"/>
</g>
<g id="Layer_17" class="st0">
</g>
<g id="Layer_14">
	<g class="st0">
		<polygon class="st39" points="308.6,382.9 357,370.4 372.6,440.6 340.6,458.2 		"/>
		<g class="st3">
			<path class="st27" d="M476.1,197.4c-0.1,0.9,0.8,2.7,0.8,2.8c-0.1,0.9-1-1.2-1-1.2C476,198.6,476,198,476.1,197.4
				c-5.1-3.7-10.3-7-15.6-10.1c5.3-8.8,13.3-22.6,15.6-22.8c-0.1-0.2,0.8-0.3,0.7-0.4c-1.8-4.4-9.6,1.6-16.5,8.6
				c-0.2,6.3-0.9,13.8-2.1,20.7c-4.2-2.1-19.9-5.9-19.9-5.9s12.3-33.3,20.5-29.4c0.7,0.1,1.2,2.4,1.4,5.9c-0.1-2.9-0.5-5.2-1.1-6.4
				c-3.2-5.9-17.2,9.2-24.4,17.5c-23.3-8.7-48-12.6-72.4-12.6c-62.6,0-119.5,27.6-158.1,71l1.4,1.3c-29.3,47-40.8,120.3-25.5,163.4
				c11.9,33.5,26.7,51.5,56.7,68.8c12.4,7.2,26.7,10.8,42.5,10.8c54,0,109.3-42.6,109.8-43l1.2-1c0.7-2,1.3-3.4,1.3-3.4l-22.9-43.5
				l-34.1,15.3c0,0-14.7-16.1-13.3-45.5c1.2-23.8,7.9-33.2,18.3-45.7c10.8,6.8,22.7,20.4,22.7,20.4l32.2-14.7v-2.9v-31.4
				c0.1,0,0.2,0,0.3,0c-7.4,0.1-15.4,0.6-24.1,1.6c-3.9,0.4-8.1,0.2-12.6-0.4c-17.2-2.4-37.9-11.2-53.8-15.6
				c13.2-10.4,26.5-21.4,41.3-26.6c93.7-33.2,110.4,52.4,111.1,56.2c8.9,4.5,18.8,10.2,29.6,17.6c34.7,23.6,51.8,59.9,51.8,59.9
				c4-0.2,19.3-4.7,19.6-4.7C551.6,283.5,519.2,228.8,476.1,197.4z M483,262.6c-8.1,0-14.7-6.6-14.7-14.7c0-8.1,6.6-14.7,14.7-14.7
				c8.1,0,14.7,6.6,14.7,14.7C497.7,256,491.1,262.6,483,262.6z"/>
			<path class="st6" d="M483,233.2c-8.1,0-14.7,6.6-14.7,14.7c0,8.1,6.6,14.7,14.7,14.7c8.1,0,14.7-6.6,14.7-14.7
				C497.7,239.8,491.1,233.2,483,233.2z M483,262.1c-7.9,0-14.2-6.4-14.2-14.2c0-7.8,6.4-14.2,14.2-14.2c7.9,0,14.2,6.4,14.2,14.2
				C497.2,255.7,490.8,262.1,483,262.1z"/>
			<path class="st6" d="M483,233.7c-7.9,0-14.2,6.4-14.2,14.2c0,7.9,6.4,14.2,14.2,14.2c7.9,0,14.2-6.4,14.2-14.2
				C497.2,240,490.8,233.7,483,233.7z M483,261.6c-7.6,0-13.7-6.2-13.7-13.7c0-7.6,6.2-13.7,13.7-13.7c7.6,0,13.7,6.2,13.7,13.7
				C496.7,255.5,490.5,261.6,483,261.6z"/>
		</g>
		<circle class="st38" cx="486.5" cy="247.9" r="7.9"/>
		<path class="st39" d="M394.8,282.4c-0.1,0-0.2,0-0.3,0v31.4l10.4-1.5l0.7-29.7C402.2,282.5,398.6,282.4,394.8,282.4z"/>
		<path class="st40" d="M280.7,508.7c10.2,0,20.9-1.4,33.9-4.5c33.7-7.9,52.5-27.9,62.5-43.2c4-7,7.2-14.4,9.3-19.3
			c-15.2,10.6-61.4,40-107,40c-16.5,0-31.4-3.8-44.4-11.3c-30.9-17.9-46.2-36.4-58.4-70.9c-13.7-38.6-6.4-100.9,15.7-147.9
			c-22.8,31.8-35.1,69.2-35.1,107.4c0,24,5.5,48,14.9,69.4c13.2,30,34.1,55,58.7,68.1c3.7,2,7.6,3.7,11.5,5.1
			C255.2,506.3,267.8,508.7,280.7,508.7z"/>
		<path class="st41" d="M380.2,463c-10.3,16-29.9,36.7-64.8,44.9c-13.2,3.1-24.3,4.6-34.7,4.6c-9.3,0-18.4-1.2-27.6-3.5
			c6.4,29.4,66.2,66.3,109.7,69.2c65.2,4.3,154.4-51.5,159.4-126.9c3.3-49.6-20.7-86.7-41.7-106.6c1.5,6.8,2.5,13.9,1.6,21.2
			c-9.4,72.8-76.1,86.7-97,88C383.6,456.7,382,459.8,380.2,463L380.2,463z"/>
		<path class="st38" d="M390.3,436.3c0,0-2.8,8.1-7.4,17.5c0.7,0,1.4,0,2.2-0.1c4.3-8.9,6.9-16.4,7-16.8l1.7-6.5l-3.4,3.4
			c-0.3,0.9-0.7,2-1.2,3.3C389.9,436.6,390.3,436.3,390.3,436.3z"/>
		<path class="st38" d="M241.5,503.4c-49.1-17.9-86.3-82.6-86.3-144.5c0-0.1,0-0.3,0-0.4c0-0.2,0-0.3,0-0.5
			c0-48,18.3-91.3,48.1-124.9l-0.8-0.6c-31.8,35.5-49.3,80.4-49.3,126.4c0,30.5,8.9,62.4,25,89.7c16.4,27.7,38.6,47.8,62.6,56.6
			c4.1,1.5,8.1,2.7,12.2,3.8c-0.1-0.7-0.3-1.4-0.4-2.1C249,505.9,245.3,504.8,241.5,503.4z"/>
		<path class="st38" d="M279.3,477.8c-15.8,0-30.1-3.6-42.5-10.8c-30-17.3-44.9-35.4-56.7-68.8c-15.3-43.1-3.8-116.4,25.5-163.4
			l-2.3-1.7c-29.8,33.6-48.1,76.9-48.1,124.9c0,0.2,0,0.3,0,0.5c0.1-47.7,18.7-91.1,48.8-124.7c-28.9,46.2-41.5,120.5-25.7,165
			c11.4,32,25.6,51.4,57.6,69.9c60.7,35.1,143-23.7,153.4-31.5c0.5-1.3,0.9-2.4,1.2-3.3l-1.2,1C388.6,435.3,333.3,477.8,279.3,477.8
			z"/>
		<path class="st38" d="M378.6,462c-10.9,17-30.3,36.2-63.7,44.1c-20.4,4.8-39.8,6.8-62.3,0.8c0.1,0.7,0.2,1.4,0.4,2.1
			c9.2,2.4,18.4,3.5,27.6,3.5c10.5,0,21.5-1.4,34.7-4.6c34.9-8.2,54.5-29,64.8-44.9l0.1-0.1c1.8-3.1,3.4-6.2,4.8-9.1
			c-0.8,0-1.5,0.1-2.2,0.1C381.6,456.5,380.2,459.3,378.6,462z"/>
		<path class="st38" d="M241.5,503.4c3.8,1.4,7.5,2.5,11.1,3.5c0,0,0-0.1,0-0.1c-3.7-1.4-7.5-2.9-11.3-4.7
			c-3.6-1.6-7.1-3.5-10.6-5.6c-24.5-13.1-45.5-38.1-58.7-68.1c-10.4-21.6-16.8-45.8-16.8-69.9c0,0.1,0,0.3,0,0.4
			C155.2,420.8,192.4,485.5,241.5,503.4z"/>
		<path class="st38" d="M382.9,453.9c4.6-9.4,7.4-17.5,7.4-17.5s-0.4,0.3-1.1,0.8c-1.5,4.2-3.9,10-7.3,16.7
			C382.2,453.9,382.5,453.9,382.9,453.9z"/>
		<path class="st38" d="M157.1,358.9c0-38.2,12.3-75.7,35.1-107.4c-22.2,47-29.4,109.3-15.7,147.9c12.2,34.5,27.5,53,58.4,70.9
			c13,7.5,27.9,11.3,44.4,11.3c45.6,0,91.7-29.4,107-40c-2,5-5.2,12.3-9.3,19.3c-9.9,15.4-28.8,35.3-62.5,43.2
			c-12.9,3-23.7,4.5-33.9,4.5c-12.9,0-25.5-2.3-38.5-7.1c-3.9-1.4-7.7-3.1-11.5-5.1c3.5,2.1,7,4,10.6,5.6c3.9,1.8,7.6,3.3,11.3,4.7
			c0,0,0,0.1,0,0.1c22.5,5.9,41.9,3.9,62.3-0.8c33.4-7.8,52.7-27.1,63.7-44.1c1.6-2.7,3-5.4,4.3-8.1c-0.3,0-0.7,0-1,0
			c3.4-6.7,5.8-12.6,7.3-16.7c-10.4,7.8-92.7,66.6-153.4,31.5c-32-18.5-46.2-37.8-57.6-69.9c-15.8-44.5-3.2-118.8,25.7-165
			c-30.1,33.7-48.7,77-48.8,124.7c0.1,24.1,6.4,48.2,16.8,69.9C162.6,406.9,157.1,382.9,157.1,358.9z"/>
		<path class="st42" d="M456.7,297.7c0,0,0-0.1,0-0.1c-10.6-5.3-19.8-8.8-27.7-11.1"/>
		<path class="st42" d="M405.6,282.3l0,0.4c7.6,0.4,17.4,2.3,23.3,3.8c-7.9-2.1-17.3-3.8-22.2-4.1
			C406.4,282.3,406,282.3,405.6,282.3z"/>
		<path class="st42" d="M394.8,282.4c3.8,0,7.4,0.1,10.8,0.2l0-0.4C402,282.1,398.4,282.2,394.8,282.4z"/>
		<path class="st28" d="M457.2,193.6"/>
		<path class="st28" d="M476.8,164.5C476.8,164.5,476.8,164.5,476.8,164.5C476.8,164.5,476.8,164.6,476.8,164.5
			C476.8,164.6,476.8,164.5,476.8,164.5z"/>
		<path class="st27" d="M474.8,199.1l-3.6-0.9l4.5,2.3c0,0,0.1-0.5,0.2-1.4c0,0,0,0.1,0,0.1H474.8z"/>
		<path class="st27" d="M475.9,199c0-0.2,0.1-0.7,0.2-1.6c0,0,0,0,0,0C476,198,476,198.6,475.9,199z"/>
		<path class="st43" d="M458,191.6c0.7-1.2,1.6-2.6,2.6-4.3c-0.5-0.3-0.9-0.5-1.4-0.8c0.4-4,0.8-8.9,1.1-13.7
			c-6.4,6.5-12.3,13.7-12.3,13.7L458,191.6z"/>
		<path class="st43" d="M476.9,200.2c0-0.2-0.9-1.9-0.8-2.8c0,0,0,0,0,0c-0.1,0.6-0.1,1.2-0.2,1.6
			C475.9,199,476.8,201.1,476.9,200.2z"/>
		<path class="st41" d="M476.8,164.1c2.5,6.3,0.2,26.1-0.7,33.3c0,0,0,0,0,0C476.9,191.6,479.7,171.4,476.8,164.1z"/>
		<path class="st42" d="M460.2,172.8c0,0,0.1-0.1,0.1-0.1c0.1-3.3,0.1-6.2,0-8.6C460.4,166.7,460.4,169.7,460.2,172.8z"/>
	</g>
	<path class="st6" d="M114,189.5C90.8,224,75.5,262.4,68.3,301.9H19.1l0,113.3h49.9c7.7,38.5,22.9,75.8,45.8,109.5l-37.8,37.8
		l80.1,80.1l37.8-37.8c33.4,22.6,70.3,37.8,108.4,45.6l0,51.2l113.3,0l0-50c39.9-7.2,78.6-22.5,113.5-45.9l33.7,33.7l80.1-80.1
		L610.8,526c23.3-34,38.9-71.7,46.6-110.7h45.7V301.9l-44.9,0c-7.4-40-22.9-78.8-46.6-113.7l29.3-29.3l-80.1-80.1L531.5,108
		c-35.2-23.9-74.4-39.5-114.8-46.8V17.6l-113.3,0l0,44.8c-38.6,7.8-76,23.3-109.7,46.4l-33.3-33.3l-80.1,80.1L114,189.5z
		 M360.2,606.9c-136.7,0-247.6-110.8-247.6-247.6c0-136.7,110.8-247.6,247.6-247.6c136.7,0,247.6,110.8,247.6,247.6
		C607.8,496.1,496.9,606.9,360.2,606.9z"/>
</g>
</svg>
