<svg id="Layer_1" data-name="Layer 1" xmlns="http://www.w3.org/2000/svg" viewBox="0 0 781.58 332.48"><title>quill_dark_rectangle</title><g id="HACKTX"><path d="M48.47,274.64H12.92V48.47H48.47V145.4H88.85V48.47H125V274.64H88.85V177.71H48.47Z" style="fill:#1e082d"/><path d="M265.91,274.64H230.05l-6.14-41H180.29l-6.14,41H141.52L177.71,48.47h52Zm-81.1-71.73h34.25L201.94,88.53Z" style="fill:#1e082d"/><path d="M385.14,190.31v30.05c0,36.19-18.09,56.86-53,56.86s-53-20.67-53-56.86V102.75c0-36.19,18.1-56.87,53-56.87s53,20.68,53,56.87v22h-33.6V100.49c0-16.16-7.11-22.3-18.42-22.3s-18.41,6.14-18.41,22.3V222.62c0,16.16,7.1,22,18.41,22s18.42-5.81,18.42-22V190.31Z" style="fill:#1e082d"/><path d="M453.31,184.49l-11,20.68v69.47H406.79V48.47h35.54V147l46.53-98.54H524.4L475,149.28,524.4,274.64H487.89Z" style="fill:#1e082d"/><path d="M530.21,48.47H640.07V80.78H602.91V274.64H567.37V80.78H530.21Z" style="fill:#1e082d"/><path d="M774.15,48.47,737,158.32l39.74,116.32H739.26l-29.08-89.5-29.41,89.5H647.5l39.74-116.32L650.08,48.47h36.83l26.82,83.36L741.2,48.47Z" style="fill:#1e082d"/></g></svg>