<svg id="svg" version="1.1" width="400" height="400" viewBox="0 0 400 400" xmlns="http://www.w3.org/2000/svg" xmlns:xlink="http://www.w3.org/1999/xlink" ><g id="svgg"><path id="path0" d="" stroke="none" fill="#ffffff" fill-rule="evenodd"></path><path id="path1" d="M135.816 167.416 C 132.709 170.945,128.544 175.665,126.561 177.905 L 122.955 181.979 127.728 187.459 C 132.313 192.724,132.559 192.948,134.000 193.165 C 134.825 193.289,137.225 193.664,139.333 193.999 C 141.442 194.335,145.342 194.938,148.000 195.341 L 152.833 196.073 159.167 194.677 C 162.650 193.909,165.665 193.231,165.868 193.170 C 166.099 193.100,165.688 191.475,164.756 188.779 C 163.943 186.426,162.227 181.425,160.943 177.667 C 159.659 173.908,158.434 170.659,158.221 170.446 C 157.880 170.105,141.827 161.000,141.567 161.000 C 141.510 161.000,138.922 163.887,135.816 167.416 M257.167 161.557 C 256.112 162.116,241.902 170.054,241.737 170.177 C 241.641 170.248,239.265 176.991,236.514 185.000 C 235.727 187.292,234.775 190.029,234.400 191.083 L 233.717 193.000 234.442 193.145 C 235.656 193.389,241.160 194.626,244.257 195.352 L 247.181 196.037 251.341 195.365 C 254.859 194.797,261.033 193.858,266.095 193.121 C 268.138 192.824,277.292 182.201,276.379 181.186 C 275.511 180.220,265.517 168.876,261.751 164.583 C 260.022 162.612,258.509 161.006,258.387 161.013 C 258.266 161.021,257.717 161.265,257.167 161.557 M176.190 247.046 C 174.288 252.774,171.001 263.177,171.005 263.457 C 171.007 263.664,175.320 265.439,180.588 267.403 C 185.856 269.366,192.369 271.805,195.060 272.823 L 199.953 274.674 208.227 271.544 C 212.777 269.822,219.360 267.329,222.856 266.003 L 229.212 263.593 227.497 258.380 C 226.554 255.513,225.358 251.779,224.839 250.083 C 224.320 248.387,223.778 247.000,223.635 247.000 C 223.491 247.000,218.162 250.820,211.792 255.490 C 204.690 260.695,200.073 263.872,199.855 263.703 C 199.660 263.550,194.475 259.784,188.333 255.333 C 182.192 250.882,176.981 247.095,176.754 246.916 C 176.473 246.695,176.293 246.736,176.190 247.046 " stroke="none" fill="#231f20" fill-rule="evenodd"></path><path id="path2" d="M196.065 246.663 L 176.630 246.833 188.348 255.333 C 194.792 260.008,200.190 263.799,200.343 263.758 C 200.496 263.716,205.740 259.929,211.996 255.341 C 218.253 250.753,223.522 247.000,223.706 247.000 C 223.889 247.000,223.947 246.850,223.833 246.667 C 223.710 246.467,222.002 246.365,219.564 246.413 C 217.329 246.456,206.754 246.569,196.065 246.663 " stroke="none" fill="#383435" fill-rule="evenodd"></path><path id="path3" d="M186.107 246.583 C 191.574 246.635,200.424 246.635,205.774 246.583 C 211.123 246.532,206.650 246.490,195.833 246.490 C 185.017 246.490,180.640 246.532,186.107 246.583 " stroke="none" fill="#4a4136" fill-rule="evenodd"></path><path id="path4" d="" stroke="none" fill="#786143" fill-rule="evenodd"></path><path id="path5" d="" stroke="none" fill="#896f4a" fill-rule="evenodd"></path><path id="path6" d="M217.431 246.247 C 218.676 246.312,220.626 246.311,221.764 246.246 C 222.902 246.182,221.883 246.129,219.500 246.130 C 217.117 246.130,216.185 246.183,217.431 246.247 " stroke="none" fill="#9f8756" fill-rule="evenodd"></path><path id="path7" d="" stroke="none" fill="#bf8080" fill-rule="evenodd"></path><path id="path8" d="M285.962 106.768 C 284.016 109.920,279.304 117.600,275.491 123.833 C 271.678 130.067,268.363 135.470,268.123 135.841 C 267.732 136.449,267.896 136.778,269.785 139.175 C 278.650 150.421,288.928 163.495,294.804 171.000 C 296.455 173.108,300.054 177.683,302.802 181.167 C 305.550 184.650,308.632 188.585,309.649 189.912 L 311.500 192.323 311.586 175.535 L 311.673 158.747 306.312 144.623 C 303.363 136.856,299.755 127.350,298.294 123.500 C 296.833 119.650,295.204 115.375,294.675 114.000 C 294.145 112.625,292.866 109.250,291.832 106.500 C 290.798 103.750,289.851 101.395,289.726 101.268 C 289.602 101.140,287.908 103.615,285.962 106.768 M103.683 118.250 C 100.150 127.554,95.250 140.457,92.794 146.922 L 88.327 158.678 88.414 175.557 L 88.500 192.436 110.167 164.863 C 122.083 149.698,131.882 137.076,131.940 136.815 C 131.999 136.554,127.519 128.951,121.984 119.920 C 116.449 110.889,111.626 103.013,111.266 102.417 C 110.906 101.821,110.498 101.333,110.359 101.333 C 110.219 101.333,107.215 108.946,103.683 118.250 M132.765 137.111 C 137.285 148.955,141.326 160.205,141.188 160.564 C 141.086 160.830,141.154 160.944,141.346 160.826 C 141.532 160.711,145.471 162.728,150.098 165.308 L 158.513 170.000 199.896 170.000 L 241.280 170.000 245.390 167.696 C 247.650 166.429,251.514 164.261,253.976 162.878 L 258.451 160.364 261.917 151.099 C 263.823 146.003,265.809 140.709,266.330 139.334 C 266.852 137.959,267.252 136.807,267.218 136.774 C 267.185 136.741,262.960 137.607,257.829 138.699 C 252.698 139.790,247.450 140.896,246.167 141.156 C 244.883 141.417,242.408 141.942,240.667 142.324 C 238.925 142.706,229.019 144.808,218.653 146.996 L 199.806 150.973 196.653 150.304 C 194.919 149.936,192.825 149.500,192.000 149.335 C 191.175 149.169,188.325 148.568,185.667 148.000 C 183.008 147.431,176.933 146.138,172.167 145.125 C 167.400 144.112,161.775 142.916,159.667 142.467 C 157.558 142.018,154.783 141.437,153.500 141.176 C 152.217 140.916,149.367 140.314,147.167 139.839 C 144.967 139.364,142.117 138.758,140.833 138.491 C 139.550 138.225,137.176 137.718,135.558 137.365 C 133.534 136.922,132.663 136.843,132.765 137.111 M272.543 187.570 L 267.684 193.136 275.549 208.651 C 279.875 217.185,283.509 224.269,283.624 224.393 C 283.739 224.518,289.983 217.716,297.500 209.279 C 305.017 200.841,311.299 193.856,311.461 193.755 C 311.986 193.429,312.352 191.933,301.875 232.956 C 300.435 238.595,299.808 236.752,306.351 246.096 C 307.918 248.335,311.656 253.692,314.656 258.000 C 317.657 262.308,320.922 266.996,321.912 268.417 C 322.940 269.891,323.952 271.000,324.270 271.000 C 324.740 271.000,331.280 268.753,337.917 266.311 C 341.327 265.056,345.840 263.421,348.917 262.327 C 351.352 261.460,351.304 261.644,350.355 256.796 C 350.000 254.983,349.094 249.975,348.343 245.667 C 345.859 231.431,345.878 231.507,344.259 229.645 C 343.475 228.744,335.933 220.220,327.500 210.705 L 312.167 193.404 310.167 192.728 C 309.067 192.356,303.442 190.528,297.667 188.664 C 281.573 183.470,277.852 182.257,277.618 182.125 C 277.500 182.058,275.216 184.508,272.543 187.570 M120.333 182.824 C 119.692 183.083,112.342 185.496,104.000 188.186 C 95.658 190.876,88.716 193.146,88.572 193.231 C 88.428 193.317,89.348 194.537,90.615 195.943 C 91.882 197.349,98.104 204.320,104.440 211.434 C 110.776 218.548,116.067 224.372,116.196 224.376 C 116.326 224.380,119.996 217.360,124.352 208.775 L 132.272 193.167 127.629 187.833 C 122.701 182.173,122.421 181.981,120.333 182.824 M233.338 193.473 C 233.336 194.008,231.218 206.008,228.633 220.140 C 226.048 234.271,223.937 245.983,223.942 246.167 C 223.949 246.461,226.401 253.951,228.946 261.448 C 229.809 263.992,230.306 264.652,247.316 285.854 C 256.932 297.839,264.836 307.609,264.880 307.564 C 264.925 307.520,264.296 303.362,263.483 298.325 C 262.669 293.288,261.692 287.217,261.310 284.833 C 260.929 282.450,260.339 278.775,260.001 276.667 C 259.662 274.558,259.061 270.808,258.666 268.333 C 258.270 265.858,257.742 262.558,257.493 261.000 C 255.949 251.365,253.422 235.491,252.132 227.333 C 251.306 222.108,250.126 214.758,249.510 211.000 C 248.894 207.242,248.133 202.517,247.820 200.500 C 247.113 195.951,247.879 196.530,240.324 194.831 C 236.779 194.034,233.781 193.189,233.625 192.944 C 233.434 192.643,233.342 192.814,233.338 193.473 M166.167 193.280 C 165.983 193.457,162.986 194.226,159.506 194.989 C 156.026 195.753,153.116 196.440,153.039 196.516 C 152.963 196.593,152.397 199.770,151.781 203.578 C 151.165 207.385,150.293 212.750,149.843 215.500 C 149.393 218.250,148.486 223.875,147.827 228.000 C 147.169 232.125,146.418 236.700,146.158 238.167 C 145.785 240.267,141.800 264.977,138.497 285.667 C 137.420 292.415,136.296 299.463,135.683 303.317 C 135.320 305.599,135.063 307.507,135.112 307.556 C 135.160 307.605,142.918 298.015,152.350 286.246 C 161.783 274.476,169.725 264.606,170.000 264.312 C 170.275 264.018,170.519 263.640,170.542 263.472 C 170.565 263.304,171.815 259.360,173.320 254.707 L 176.057 246.248 171.376 220.374 C 168.801 206.143,166.651 194.153,166.597 193.729 C 166.534 193.224,166.385 193.069,166.167 193.280 M74.156 209.087 C 66.645 217.564,59.110 226.030,57.410 227.902 L 54.320 231.305 53.681 234.569 C 53.330 236.364,52.720 239.708,52.326 242.000 C 51.931 244.292,51.331 247.667,50.991 249.500 C 49.398 258.089,48.887 261.331,49.094 261.538 C 50.160 262.605,75.861 271.285,76.374 270.752 C 76.820 270.289,94.081 245.687,98.083 239.810 C 99.264 238.076,99.248 237.742,97.693 231.634 C 96.974 228.810,94.937 220.800,93.167 213.833 C 91.397 206.867,89.567 199.667,89.100 197.833 C 88.633 196.000,88.152 194.314,88.031 194.088 C 87.895 193.831,82.644 199.508,74.156 209.087 M191.250 246.250 C 195.696 246.302,202.971 246.302,207.417 246.250 C 211.862 246.197,208.225 246.154,199.333 246.154 C 190.442 246.154,186.804 246.197,191.250 246.250 M189.553 306.875 C 183.898 313.950,179.398 319.856,179.553 320.000 C 179.707 320.144,181.633 320.895,183.833 321.670 C 186.033 322.445,190.571 324.060,193.918 325.259 L 200.003 327.440 210.028 323.807 C 221.644 319.597,220.930 319.927,220.309 319.051 C 218.990 317.193,200.225 294.001,200.044 294.005 C 199.928 294.008,195.207 299.800,189.553 306.875 " stroke="none" fill="#c19a61" fill-rule="evenodd"></path><path id="path9" d="" stroke="none" fill="#aaaa55" fill-rule="evenodd"></path><path id="path10" d="M109.861 101.214 C 109.746 101.516,109.730 101.841,109.825 101.937 C 109.921 102.033,110.000 101.920,110.000 101.687 C 110.000 101.430,110.216 101.345,110.547 101.472 C 111.005 101.648,111.025 101.599,110.673 101.174 C 110.148 100.542,110.119 100.543,109.861 101.214 M241.000 142.000 C 240.340 142.211,240.305 142.267,240.833 142.267 C 241.200 142.267,241.875 142.147,242.333 142.000 C 242.993 141.789,243.028 141.733,242.500 141.733 C 242.133 141.733,241.458 141.853,241.000 142.000 M88.080 176.472 C 88.008 192.591,88.072 195.738,88.425 193.429 C 88.483 193.045,88.749 192.455,89.016 192.116 C 89.460 191.551,89.452 191.538,88.920 191.955 C 88.370 192.386,88.335 191.513,88.250 175.455 L 88.160 158.500 88.080 176.472 M311.822 175.667 C 311.822 185.108,311.864 188.971,311.916 184.250 C 311.969 179.529,311.969 171.804,311.916 167.083 C 311.864 162.363,311.822 166.225,311.822 175.667 M97.500 190.000 C 97.080 190.181,97.018 190.286,97.333 190.286 C 97.608 190.286,98.133 190.158,98.500 190.000 C 98.920 189.819,98.982 189.714,98.667 189.714 C 98.392 189.714,97.867 189.842,97.500 190.000 M267.667 193.451 C 267.667 193.814,270.655 199.667,270.840 199.667 C 270.989 199.667,268.108 193.700,267.795 193.361 C 267.724 193.285,267.667 193.325,267.667 193.451 M310.315 194.916 C 309.234 196.092,309.228 196.110,310.219 195.216 C 311.171 194.358,311.287 194.326,311.432 194.884 C 311.525 195.240,311.577 195.113,311.557 194.583 C 311.537 194.079,311.508 193.667,311.493 193.667 C 311.477 193.667,310.947 194.229,310.315 194.916 M313.333 194.833 C 313.955 195.475,314.539 196.000,314.631 196.000 C 314.722 196.000,314.289 195.475,313.667 194.833 C 313.045 194.192,312.461 193.667,312.369 193.667 C 312.278 193.667,312.711 194.192,313.333 194.833 M307.649 197.917 L 306.500 199.167 307.750 198.018 C 308.913 196.949,309.153 196.667,308.899 196.667 C 308.843 196.667,308.281 197.229,307.649 197.917 M316.000 197.833 C 316.622 198.475,317.206 199.000,317.297 199.000 C 317.389 199.000,316.955 198.475,316.333 197.833 C 315.711 197.192,315.128 196.667,315.036 196.667 C 314.944 196.667,315.378 197.192,316.000 197.833 M304.982 200.917 L 303.833 202.167 305.083 201.018 C 306.247 199.949,306.487 199.667,306.232 199.667 C 306.176 199.667,305.614 200.229,304.982 200.917 M318.667 200.833 C 319.289 201.475,319.872 202.000,319.964 202.000 C 320.056 202.000,319.622 201.475,319.000 200.833 C 318.378 200.192,317.794 199.667,317.703 199.667 C 317.611 199.667,318.045 200.192,318.667 200.833 M321.000 203.500 C 321.622 204.142,322.206 204.667,322.297 204.667 C 322.389 204.667,321.955 204.142,321.333 203.500 C 320.711 202.858,320.128 202.333,320.036 202.333 C 319.944 202.333,320.378 202.858,321.000 203.500 M302.151 204.083 L 300.833 205.500 302.250 204.182 C 303.567 202.957,303.820 202.667,303.568 202.667 C 303.513 202.667,302.876 203.304,302.151 204.083 M323.000 205.771 C 323.000 205.828,323.487 206.316,324.083 206.854 L 325.167 207.833 324.188 206.750 C 323.275 205.740,323.000 205.513,323.000 205.771 M299.315 207.250 L 298.167 208.500 299.417 207.351 C 300.580 206.282,300.820 206.000,300.565 206.000 C 300.510 206.000,299.947 206.563,299.315 207.250 M325.667 208.771 C 325.667 208.828,326.154 209.316,326.750 209.854 L 327.833 210.833 326.854 209.750 C 325.942 208.740,325.667 208.513,325.667 208.771 M296.649 210.250 L 295.500 211.500 296.750 210.351 C 297.913 209.282,298.153 209.000,297.899 209.000 C 297.843 209.000,297.281 209.563,296.649 210.250 M278.000 214.000 C 278.920 215.833,279.748 217.333,279.839 217.333 C 279.931 217.333,279.253 215.833,278.333 214.000 C 277.413 212.167,276.586 210.667,276.494 210.667 C 276.402 210.667,277.080 212.167,278.000 214.000 M329.000 212.500 C 329.622 213.142,330.206 213.667,330.297 213.667 C 330.389 213.667,329.955 213.142,329.333 212.500 C 328.711 211.858,328.128 211.333,328.036 211.333 C 327.944 211.333,328.378 211.858,329.000 212.500 M293.982 213.250 L 292.833 214.500 294.083 213.351 C 295.247 212.282,295.487 212.000,295.232 212.000 C 295.176 212.000,294.614 212.563,293.982 213.250 M331.667 215.500 C 332.289 216.142,332.872 216.667,332.964 216.667 C 333.056 216.667,332.622 216.142,332.000 215.500 C 331.378 214.858,330.794 214.333,330.703 214.333 C 330.611 214.333,331.045 214.858,331.667 215.500 M291.151 216.417 L 289.833 217.833 291.250 216.516 C 292.567 215.290,292.820 215.000,292.568 215.000 C 292.513 215.000,291.876 215.637,291.151 216.417 M305.857 216.190 C 305.735 216.679,305.699 217.143,305.777 217.222 C 305.856 217.300,306.020 216.965,306.143 216.476 C 306.265 215.988,306.301 215.524,306.223 215.445 C 306.144 215.367,305.980 215.702,305.857 216.190 M334.333 218.500 C 334.955 219.142,335.539 219.667,335.631 219.667 C 335.722 219.667,335.289 219.142,334.667 218.500 C 334.045 217.858,333.461 217.333,333.369 217.333 C 333.278 217.333,333.711 217.858,334.333 218.500 M288.484 219.417 L 287.167 220.833 288.583 219.516 C 289.901 218.290,290.153 218.000,289.901 218.000 C 289.847 218.000,289.209 218.637,288.484 219.417 M337.000 221.500 C 337.622 222.142,338.206 222.667,338.297 222.667 C 338.389 222.667,337.955 222.142,337.333 221.500 C 336.711 220.858,336.128 220.333,336.036 220.333 C 335.944 220.333,336.378 220.858,337.000 221.500 M285.818 222.417 L 284.500 223.833 285.917 222.516 C 287.234 221.290,287.487 221.000,287.234 221.000 C 287.180 221.000,286.542 221.637,285.818 222.417 M339.667 224.500 C 340.289 225.142,340.872 225.667,340.964 225.667 C 341.056 225.667,340.622 225.142,340.000 224.500 C 339.378 223.858,338.794 223.333,338.703 223.333 C 338.611 223.333,339.045 223.858,339.667 224.500 M342.333 227.500 C 342.955 228.142,343.539 228.667,343.631 228.667 C 343.722 228.667,343.289 228.142,342.667 227.500 C 342.045 226.858,341.461 226.333,341.369 226.333 C 341.278 226.333,341.711 226.858,342.333 227.500 M253.744 237.333 C 253.744 237.975,253.813 238.237,253.896 237.917 C 253.980 237.596,253.980 237.071,253.896 236.750 C 253.813 236.429,253.744 236.692,253.744 237.333 " stroke="none" fill="#cda968" fill-rule="evenodd"></path><path id="path11" d="" stroke="none" fill="#ff8080" fill-rule="evenodd"></path><path id="path12" d="" stroke="none" fill="#bfbf80" fill-rule="evenodd"></path><path id="path13" d="M240.500 73.023 C 238.483 73.165,234.058 73.519,230.667 73.810 C 217.006 74.979,208.666 75.660,205.511 75.865 C 203.683 75.983,201.958 76.126,201.677 76.181 C 201.397 76.237,200.905 76.294,200.586 76.308 C 200.039 76.332,200.001 78.445,199.920 113.608 L 199.833 150.882 202.333 150.278 C 203.708 149.946,208.058 149.003,212.000 148.182 C 215.942 147.360,224.117 145.632,230.167 144.341 C 236.217 143.049,243.717 141.464,246.833 140.818 C 249.950 140.172,255.838 138.928,259.917 138.053 C 264.124 137.151,267.333 136.610,267.333 136.802 C 267.333 136.988,267.608 136.601,267.945 135.942 C 269.759 132.383,289.510 100.733,289.813 100.899 C 290.007 101.006,289.942 100.860,289.667 100.574 C 289.392 100.288,284.817 97.328,279.500 93.996 C 274.183 90.664,269.533 87.638,269.167 87.272 C 267.482 85.590,246.194 72.667,245.186 72.715 C 244.625 72.741,242.517 72.880,240.500 73.023 M129.667 87.334 C 127.953 87.722,122.848 88.741,110.500 91.157 C 91.746 94.827,87.891 95.632,87.636 95.933 C 87.457 96.143,85.318 98.928,78.626 107.667 C 77.432 109.225,70.687 118.000,63.636 127.167 C 56.585 136.333,49.609 145.408,48.135 147.333 C 44.358 152.264,34.176 165.507,32.628 167.500 C 26.942 174.827,24.351 178.333,24.624 178.333 C 24.877 178.333,57.365 168.352,84.112 160.057 L 88.057 158.833 91.150 150.667 C 95.736 138.558,100.545 125.901,101.852 122.500 C 102.486 120.850,104.620 115.238,106.595 110.029 L 110.184 100.558 120.130 94.312 C 128.532 89.036,131.782 86.858,130.988 87.034 C 130.903 87.053,130.308 87.188,129.667 87.334 M110.291 164.938 C 98.259 180.281,88.444 192.869,88.480 192.912 C 88.516 192.955,90.785 192.252,93.523 191.349 C 96.260 190.446,103.225 188.190,109.000 186.334 C 114.775 184.479,120.175 182.724,121.000 182.434 C 122.550 181.890,141.222 161.318,141.130 160.256 C 141.070 159.567,132.534 136.998,132.342 137.022 C 132.246 137.034,122.322 149.596,110.291 164.938 M312.000 175.846 L 312.000 192.770 311.256 192.135 C 310.800 191.746,310.670 191.706,310.920 192.031 C 311.144 192.323,311.229 192.660,311.108 192.781 C 310.988 192.901,311.136 193.000,311.439 193.000 C 311.747 193.000,319.364 201.306,328.711 211.833 C 337.908 222.192,345.528 230.667,345.645 230.667 C 345.762 230.667,349.097 225.004,353.057 218.083 C 357.017 211.162,363.734 199.447,367.984 192.050 C 372.234 184.652,375.663 178.564,375.605 178.520 C 375.509 178.447,313.930 159.456,312.583 159.083 C 312.033 158.931,312.000 159.889,312.000 175.846 M158.667 170.250 C 158.667 170.387,177.252 170.500,199.968 170.500 C 222.684 170.500,241.200 170.387,241.115 170.250 C 241.030 170.112,222.445 170.000,199.814 170.000 C 177.183 170.000,158.667 170.112,158.667 170.250 M86.812 194.417 L 85.833 195.500 86.917 194.521 C 87.926 193.608,88.153 193.333,87.896 193.333 C 87.838 193.333,87.351 193.821,86.812 194.417 M166.805 194.250 C 166.965 195.013,168.147 201.404,168.825 205.167 C 168.924 205.717,169.525 209.017,170.159 212.500 C 170.794 215.983,171.394 219.283,171.493 219.833 C 171.591 220.383,172.205 223.758,172.857 227.333 C 174.487 236.278,174.913 238.662,175.546 242.389 C 175.847 244.161,176.185 245.741,176.296 245.899 C 176.621 246.359,223.692 246.010,223.824 245.547 C 223.884 245.338,224.323 242.992,224.799 240.333 C 225.276 237.675,226.186 232.650,226.823 229.167 C 227.460 225.683,228.061 222.383,228.159 221.833 C 228.258 221.283,228.872 217.908,229.524 214.333 C 230.175 210.758,230.919 206.633,231.175 205.167 C 231.432 203.700,232.016 200.481,232.472 198.012 C 233.462 192.660,233.685 193.012,230.094 194.259 C 228.484 194.818,221.058 197.390,213.592 199.974 L 200.017 204.672 194.175 202.669 C 190.962 201.568,185.671 199.753,182.417 198.636 C 164.510 192.491,166.558 193.066,166.805 194.250 M266.000 193.562 C 265.542 193.638,262.692 194.072,259.667 194.527 C 247.088 196.418,247.331 196.366,247.499 197.137 C 247.583 197.520,248.715 204.508,250.016 212.667 C 251.317 220.825,252.676 229.300,253.037 231.500 C 253.397 233.700,253.791 236.475,253.912 237.667 C 254.079 239.308,254.177 239.596,254.316 238.854 C 254.610 237.289,283.187 224.579,283.982 225.660 C 284.267 226.047,287.344 231.980,290.821 238.844 C 294.297 245.709,297.242 251.214,297.366 251.079 C 297.753 250.654,300.425 239.928,300.665 237.833 C 300.855 236.177,305.022 219.400,310.489 198.282 C 311.388 194.806,311.501 194.048,311.055 194.455 C 310.750 194.735,304.575 201.638,297.333 209.795 C 290.092 217.953,284.017 224.636,283.833 224.646 C 283.650 224.657,282.675 223.051,281.667 221.077 C 280.658 219.104,277.066 212.054,273.683 205.411 C 270.301 198.768,267.376 193.354,267.183 193.379 C 266.991 193.404,266.458 193.486,266.000 193.562 M90.000 195.771 C 90.000 195.828,90.487 196.316,91.083 196.854 L 92.167 197.833 91.188 196.750 C 90.275 195.740,90.000 195.513,90.000 195.771 M92.667 198.771 C 92.667 198.828,93.154 199.316,93.750 199.854 L 94.833 200.833 93.854 199.750 C 92.942 198.740,92.667 198.513,92.667 198.771 M81.479 200.417 L 80.500 201.500 81.583 200.521 C 82.593 199.608,82.820 199.333,82.562 199.333 C 82.505 199.333,82.017 199.821,81.479 200.417 M101.000 208.104 C 101.000 208.162,101.487 208.649,102.083 209.188 L 103.167 210.167 102.188 209.083 C 101.275 208.074,101.000 207.847,101.000 208.104 M103.667 211.104 C 103.667 211.162,104.154 211.649,104.750 212.188 L 105.833 213.167 104.854 212.083 C 103.942 211.074,103.667 210.847,103.667 211.104 M60.479 224.083 L 59.500 225.167 60.583 224.188 C 61.179 223.649,61.667 223.162,61.667 223.104 C 61.667 222.847,61.392 223.074,60.479 224.083 M115.377 224.168 L 116.253 225.167 109.471 238.492 L 102.689 251.818 103.800 253.826 C 104.411 254.930,106.679 258.983,108.840 262.833 C 111.000 266.683,113.103 270.433,113.511 271.167 C 113.920 271.900,116.050 275.725,118.245 279.667 C 120.439 283.608,123.509 289.083,125.066 291.833 C 126.623 294.583,128.308 297.583,128.811 298.500 C 134.666 309.176,134.824 309.407,134.916 307.417 C 134.947 306.729,136.342 297.692,138.014 287.333 C 139.687 276.975,141.344 266.700,141.696 264.500 C 142.049 262.300,143.147 255.475,144.137 249.333 C 145.128 243.192,145.914 238.158,145.886 238.148 C 141.577 236.615,116.845 225.006,116.886 224.537 C 116.924 224.095,116.838 224.029,116.571 224.295 C 116.305 224.562,115.972 224.458,115.352 223.916 L 114.500 223.169 115.377 224.168 M55.146 230.083 L 54.167 231.167 55.250 230.188 C 55.846 229.649,56.333 229.162,56.333 229.104 C 56.333 228.847,56.058 229.074,55.146 230.083 M224.167 265.965 C 221.417 267.024,214.854 269.521,209.583 271.513 L 200.000 275.135 200.000 284.291 C 200.000 292.525,199.941 293.517,199.417 294.140 C 198.842 294.823,198.844 294.825,199.527 294.250 C 200.211 293.674,200.356 293.837,210.693 306.800 L 221.167 319.934 223.667 320.769 C 225.042 321.228,228.117 322.205,230.500 322.940 C 232.883 323.674,236.998 324.953,239.643 325.781 C 243.518 326.994,244.561 327.210,245.007 326.894 C 248.982 324.067,265.537 308.480,265.380 307.712 C 265.233 306.997,265.174 306.953,265.064 307.477 C 264.932 308.100,264.909 308.098,264.381 307.422 C 259.514 301.203,229.500 264.005,229.360 264.020 C 229.254 264.031,226.917 264.906,224.167 265.965 " stroke="none" fill="#dbba70" fill-rule="evenodd"></path><path id="path14" d="" stroke="none" fill="#ffaa55" fill-rule="evenodd"></path><path id="path15" d="" stroke="none" fill="#cccc66" fill-rule="evenodd"></path><path id="path16" d="" stroke="none" fill="#ffbf80" fill-rule="evenodd"></path><path id="path17" d="M142.658 79.731 C 136.521 83.574,131.332 86.933,131.128 87.196 C 130.923 87.458,126.198 90.530,120.628 94.022 C 115.057 97.515,110.528 100.486,110.563 100.625 C 110.644 100.948,131.979 135.742,132.318 136.102 C 132.627 136.430,137.179 137.498,144.667 138.998 C 145.492 139.163,147.967 139.686,150.167 140.159 C 152.367 140.632,162.342 142.749,172.333 144.863 C 182.325 146.977,192.580 149.148,195.123 149.687 C 197.666 150.226,199.803 150.667,199.873 150.667 C 199.943 150.667,200.000 133.959,200.000 113.539 L 200.000 76.411 197.917 76.212 C 196.771 76.102,194.558 75.927,193.000 75.823 C 191.442 75.718,186.642 75.345,182.333 74.992 C 170.749 74.045,158.111 73.039,155.825 72.882 L 153.817 72.743 142.658 79.731 M269.520 87.578 C 269.898 87.902,274.625 90.928,280.024 94.303 L 289.840 100.440 294.148 111.803 C 296.517 118.053,298.860 124.217,299.354 125.500 C 299.849 126.783,302.912 134.829,306.161 143.380 L 312.069 158.927 313.785 159.425 C 314.728 159.700,328.913 164.070,345.306 169.138 C 361.699 174.206,375.238 178.309,375.394 178.258 C 375.549 178.206,370.831 171.864,364.910 164.165 C 358.989 156.466,344.873 138.092,333.540 123.333 C 322.208 108.575,312.669 96.266,312.343 95.980 C 311.980 95.662,307.954 94.717,301.958 93.543 C 296.573 92.488,290.817 91.343,289.167 90.998 C 287.517 90.653,282.642 89.685,278.333 88.847 C 274.025 88.010,270.125 87.249,269.667 87.157 C 268.835 86.990,268.835 86.991,269.520 87.578 M263.166 148.583 C 260.783 154.954,258.833 160.270,258.833 160.396 C 258.833 160.522,263.051 165.401,268.207 171.237 L 277.580 181.848 283.373 183.732 C 291.578 186.400,309.678 192.227,310.647 192.512 C 311.429 192.743,311.416 192.693,310.314 191.224 C 307.467 187.430,267.815 137.031,267.666 137.016 C 267.574 137.007,265.549 142.212,263.166 148.583 M85.333 159.652 C 81.211 161.011,26.567 177.863,25.230 178.188 C 24.019 178.482,23.237 176.924,33.906 195.477 C 38.974 204.290,45.572 215.775,48.568 221.000 C 51.564 226.225,54.185 230.500,54.392 230.500 C 54.600 230.500,62.240 222.100,71.371 211.833 L 87.972 193.167 87.986 176.083 C 87.997 162.619,87.912 159.005,87.583 159.024 C 87.354 159.037,86.342 159.319,85.333 159.652 M159.000 170.645 C 159.000 170.816,159.167 171.379,159.370 171.895 C 159.574 172.411,160.538 175.158,161.513 178.000 C 165.540 189.739,166.730 193.171,166.803 193.245 C 166.845 193.288,172.119 195.113,178.523 197.300 C 184.927 199.487,192.389 202.041,195.106 202.975 L 200.045 204.674 203.856 203.337 C 207.972 201.893,210.403 201.047,224.144 196.281 L 233.122 193.167 233.710 191.667 C 234.445 189.790,241.000 170.778,241.000 170.522 C 241.000 170.418,222.550 170.333,200.000 170.333 C 174.792 170.333,159.000 170.453,159.000 170.645 M124.545 209.043 C 120.056 217.889,116.715 224.849,116.878 225.012 C 117.037 225.170,119.192 226.212,121.667 227.326 C 139.357 235.291,145.702 238.076,145.842 237.936 C 145.930 237.848,146.367 235.464,146.813 232.638 C 149.080 218.273,152.367 197.752,152.498 197.149 C 152.637 196.507,152.335 196.418,147.573 195.707 C 137.120 194.146,133.815 193.641,133.167 193.504 C 132.587 193.382,131.461 195.410,124.545 209.043 M90.328 201.542 C 91.393 205.736,93.854 215.411,95.798 223.043 C 97.743 230.675,99.333 237.350,99.333 237.876 C 99.332 239.287,102.418 251.361,102.751 251.250 C 102.908 251.197,106.009 245.294,109.642 238.131 L 116.249 225.107 102.767 209.970 C 95.352 201.645,89.084 194.627,88.839 194.375 C 88.586 194.116,89.231 197.217,90.328 201.542 M268.833 231.470 C 257.084 236.733,254.481 238.017,254.397 238.588 C 254.309 239.178,255.453 246.530,260.998 281.000 C 261.337 283.108,261.916 286.708,262.284 289.000 C 264.656 303.769,265.388 308.165,265.491 308.268 C 265.618 308.396,267.225 305.674,270.076 300.500 C 271.906 297.178,278.711 284.992,287.572 269.167 C 290.138 264.583,293.384 258.785,294.785 256.282 L 297.332 251.731 291.937 241.115 C 284.527 226.536,283.829 225.217,283.475 225.127 C 283.306 225.084,276.717 227.938,268.833 231.470 M152.833 286.053 C 143.117 298.174,135.057 308.277,134.924 308.503 C 134.766 308.771,136.166 310.245,138.924 312.713 C 141.257 314.802,145.904 318.962,149.251 321.958 L 155.335 327.405 165.751 324.199 C 171.479 322.435,176.720 320.799,177.397 320.562 C 178.444 320.197,180.219 318.144,189.314 306.774 L 200.000 293.415 200.000 284.252 L 200.000 275.090 195.417 273.396 C 191.727 272.032,172.995 264.984,171.000 264.209 C 170.641 264.069,165.519 270.228,152.833 286.053 " stroke="none" fill="#f2d67e" fill-rule="evenodd"></path><path id="path18" d="" stroke="none" fill="#ffff00" fill-rule="evenodd"></path><path id="path19" d="" stroke="none" fill="#ffff80" fill-rule="evenodd"></path></g></svg>