<svg id="Layer_1" data-name="Layer 1" xmlns="http://www.w3.org/2000/svg" viewBox="0 0 1280 716.53"><defs><style>.cls-1{fill:#333;}.cls-2{fill:none;stroke:#2f9fa7;stroke-miterlimit:10;stroke-width:1.52px;}.cls-3{fill:#2f9fa7;}</style></defs><title>Wholesome Hacks Logo</title><path class="cls-1" d="M105.53,357.68c7.79,14.47,21.74,26.59,34,37.21a228.89,228.89,0,0,0,20.63,16.23c5.07,3.48,10.6,7,16.88,7.48,4.86.35,9.18-4.45,9.11-9.11-.53-33.38-4-66.63-4.64-100l-13.7,7.86c12.79,9.5,21.16,25.12,30.11,38.08,9.47,13.72,20.35,28.67,36.22,35.38,5.88,2.48,14-.22,13.71-7.87-1-23.09-4.48-46-8.26-68.74-3.32-20.08-6.94-40.16-7.88-60.53-.54-11.67-18.76-11.74-18.22,0,2,43.47,14.16,85.75,16.14,129.27l13.7-7.86c-14.77-6.25-24.06-20.51-32.74-33.32-9.82-14.5-19.34-29.56-33.59-40.14-5.65-4.2-13.83,1.49-13.7,7.87.66,33.37,4.1,66.62,4.63,100l9.11-9.1c3.47.24.83.22-.16-.32,1.82,1-.24-.18-1.36-.79a81.16,81.16,0,0,1-7.32-4.69,200.34,200.34,0,0,1-17.6-14.17c-6.23-5.5-12.27-11.24-17.94-17.31-4.94-5.29-8.13-8.61-11.37-14.62-5.55-10.33-21.28-1.15-15.73,9.19Z"/><path class="cls-1" d="M223,262.76a339.53,339.53,0,0,0,42.79-1.16c10.74-1,21.75-2.26,32.07-5.52,10.7-3.38,17.8-8.66,24-18.1,8.44-12.91,13.16-29.11,11.3-44.54s-11.37-35-29.23-35.78c-17.11-.77-24.92,16.66-28,30.73A247.29,247.29,0,0,0,270.5,247c1.1,43.84,12.29,86.62,22.85,128.92,2.45,9.82,18.42,8,17.89-2.42A190.41,190.41,0,0,1,320,305.29a129.84,129.84,0,0,1,5.46-14.84c1.33-2.89,2.45-3.87,5.56-3.32a10.6,10.6,0,0,1,3.87,1.66c-2-1.25.24.35.81,1,.95,1-1.16-1.83.16.21.3.46.59.91.87,1.38a35.16,35.16,0,0,1,1.69,3.39c3.23,8.13,4.53,17.13,5.53,25.77.93,8,1.2,17.14,5.53,24.18,4.83,7.86,15.29,15.17,24.9,12.84,5.05-1.22,9.94-4.58,14.21-7.42,12.79-8.51,28.12-19.44,34.11-34.15,1.86-4.55-2-10-6.36-11.2-5.22-1.43-9.34,1.79-11.21,6.36.88-2.15-.91,1.3-1.24,1.8-.92,1.41-.42.65-.17.32-.48.64-1,1.25-1.55,1.86a89.5,89.5,0,0,1-7.75,7.71,133.09,133.09,0,0,1-16.73,12.69c-2.19,1.4-4.45,2.65-6.72,3.91s1,.14-1,.44c-1.34.21,1.49.29,1.32-.09,0,0-1.53-.43-1.48-.4-2.94-2-5-3.72-5.73-6.74a91.12,91.12,0,0,1-1.73-10.77c-1.75-15-3.13-35.08-14.92-46.19a26.79,26.79,0,0,0-24.49-6.09c-11.16,3.09-15,15.19-18.44,24.87a204.77,204.77,0,0,0-11.43,79L310.91,371c-8.2-32.86-17-65.88-20.55-99.64a275.44,275.44,0,0,1-1-50,205.34,205.34,0,0,1,3.51-25.29c1.17-5.77,2.19-12.44,5.78-17.32,7.55-10.24,15.24,9.08,16.22,14.89,2.08,12.2-2.15,24.94-8.78,35.08A50.4,50.4,0,0,1,302,234.1c-1.12,1.3.26-.06-.14.22a25.78,25.78,0,0,1-2.38,1.51c-.65.37-1.33.7-2,1-1.47.73-.33.18-.79.36-1.92.74-3.89,1.38-5.87,1.94a131.53,131.53,0,0,1-25.58,4.26A342.39,342.39,0,0,1,223,244.55c-11.72-.43-11.71,17.79,0,18.21Z"/><path class="cls-1" d="M1129.55,362.65c5.88,1.84,11.94,3.21,17.89,4.78,13.58,3.58,26.18,3.82,38.71-3.31,12-6.8,14.28-26.05,4.44-35.73-8.36-8.23-21-9.4-31.92-6.74-20.8,5-36.67,24.49-45.79,42.85-3.33,6.71-6.48,13.69-5.85,21.35a38.29,38.29,0,0,0,8.57,21.1c16.9,20.75,45.35,12.34,64.59,0,9.84-6.3.72-22.08-9.2-15.73-7.64,4.89-16.83,9.88-25.62,10.32a28.85,28.85,0,0,1-5.09-.13c1.34.17-.2-.07-.39-.11-.89-.19-1.76-.44-2.63-.68-2-.56-.76,0-2.55-1.08-.61-.36-3.51-2.4-2.18-1.31a34.46,34.46,0,0,1-2.82-2.72c-.22-.24-1.68-2.24-.49-.55-.28-.4-.59-.82-.84-1.25-.62-1.07-1.24-2.13-1.78-3.24-1.06-2.16.54,1.76-.19-.49-.21-.67-.44-1.33-.63-2a28.91,28.91,0,0,1-.7-3.3c.41,2.64.09-.66.06-1.34,0-.39,0-.79,0-1.18,0-2-.59,2,0,.21.36-1.16.67-2.32,1.1-3.46.26-.7.53-1.39.82-2.07-.5,1.19.15-.29.21-.44.72-1.56,1.47-3.1,2.27-4.62a100.28,100.28,0,0,1,6.51-10.74,64.43,64.43,0,0,1,15.76-16.38c6.08-4.21,13.09-7,20.42-5.93.47.07,4.06,1.28,2.25.44,1.18.55,2.9,1.36,3.63,2.48.37.58.56,4.83-.3,6.21s-4.88,2.52-6.62,3.07a21.28,21.28,0,0,1-6.74,1.09c-5.57,0-11-1.87-16.35-3.29-4.57-1.22-9.22-2.26-13.74-3.68-11.21-3.51-16,14.07-4.84,17.57Z"/><path class="cls-1" d="M922.8,285c9.21-3,16.91-10.46,24.55-16.12,3.35-2.48,7.37-4.38,10.6-6.92a2.09,2.09,0,0,1-2.2.54c-5.82-1.52-4.92-4.65-5.6-2.23-.73,2.63-.8,6-1,8.69-2.35,26-10.3,51.57-19.66,75.86-3.67,9.54,12.46,16.46,16.65,7,9.55-21.52,22.71-43.26,38.41-60.72,1.8-2,3.66-3.95,5.62-5.79,1-1,2-1.88,3.1-2.77a8,8,0,0,1,1.87-1.4c1-.63,1.95-1.21,2.95-1.8.41-.24.85-.43,1.28-.64,1.17-.57-1.51.48-.3.15s2.86-1.52.88-.43c.23-.13.93,0,1.15-.05,1.21-.2-.95-.89-.22-.05,1.24,1.43,1.88-.76.54.07a5.94,5.94,0,0,1,1,.61c-.89-.66-.57-.89-.49-.21-.1-.89-.94-1.17-.29-.29a7.44,7.44,0,0,1,.64,1.22c-.9-1.88.28,1.45.45,2.23.38,1.7.14.57.08.16.09.61.14,1.24.18,1.85.1,1.49.14,3,.13,4.48a89.9,89.9,0,0,1-.67,10A190,190,0,0,1,992,340.12c-3.07,8.38,9.48,15.76,15.23,8.86,8.68-10.42,16.69-21.38,25.24-31.91,8.27-10.18,18.13-22.74,28.15-29.67,4.52-3.12,10-6.11,15.38-7.32,3-.69,3.39-.57,5.47,1.31a9.39,9.39,0,0,1,3.42,6.92c0,4-2.7,7.66-4.76,10.91-2.59,4.09-5.29,8.12-7.95,12.17-6.89,10.44-13.77,20.9-20.08,31.71C1046.91,352,1041,361.78,1038.9,372c-2,9.57,2.1,18.76,13,18.19,8.85-.46,17.78-4.47,25.89-7.69,12.59-5,25-10.51,37.35-16l7.88-3.44,3.71-1.59c-1.84.78,1-.4,1.49-.61,2.7-1.1,5.54-2.45,8.43-2.93,4.86-.8,7.57-6.82,6.36-11.21-1.41-5.15-6.33-7.16-11.2-6.36-7.1,1.17-14.27,5.35-20.78,8.19-10.1,4.4-21.36,9.45-30.66,13.32-9,3.73-18.1,7.55-27.58,9.82-.35.08-3,.52-1.16.28,2.1-.29-1,.14-1,0s-.77,0-.72,0,2.55.44,1.52.17c2.16.57,4.29,3.07,4.92,4.9-.61-1.75.18,2.45,0,0-.13-2.14-.33,1,0-.28.53-2,1.09-4,1.8-6,.19-.5.39-1,.59-1.5-.14.36-.66,1.51.09-.16q.74-1.67,1.53-3.3c1.31-2.69,2.71-5.34,4.16-8,3-5.5,6.28-10.89,9.61-16.23,6.28-10.05,12.92-19.88,19.38-29.82,7.09-10.89,13-22.82,6.51-35.7-3.79-7.56-11.75-14.24-20.4-14.67-8-.41-15.82,3.29-22.73,6.89-13.31,6.94-23.54,19.11-33,30.45-10.19,12.18-19.5,25.06-29.65,37.26l15.22,8.86a204.2,204.2,0,0,0,10.56-42.37c1.7-12.39,3.92-31.75-8.76-39.48-11.11-6.77-23-.35-31.69,7.14-11.21,9.63-20,22.33-28.09,34.6-7.89,12-15.36,24.62-21.21,37.79l16.65,7c8.64-22.43,16.06-46,19.27-69.93.7-5.23,1-10.48,1.69-15.71.76-6,.46-12.22-4.27-16.58-7.68-7.08-17.12-.43-23.81,4.43-4.39,3.18-8.65,6.54-13,9.74-1.88,1.37-3.78,2.73-5.74,4-.82.52-1.65,1-2.48,1.49-.3.18-.64.32-.95.49-1.13.61,2-.7.24-.14-11.1,3.61-6.35,21.2,4.85,17.57Z"/><path class="cls-1" d="M758.92,230.64c-4.84-12.5-13.48-23.67-27.75-24.85-11.3-.94-21.85,5.58-28.39,14.39-6.87,9.26-9.57,22.69-4.7,33.45,5.63,12.47,21.37,16.93,33.51,19.95,11.23,2.8,20.85,7.52,22.88,19.9,1.73,10.55-3.34,24.7-13.23,30.17a9,9,0,0,1-8.73,0c-3.44-1.89-5.64-5.19-6.32-9.9-1.94-13.3,10.66-24,21-29.94,11.42-6.49,25-7.23,37.86-6.62,18.14.86,36,5.45,53.53,9.92l-4-15.22C818,290.24,809,329.6,836,343.09c14.81,7.41,31.68,4.48,44-6.34,9.33-8.21,13.45-21.78,15.93-33.53,2.86-13.55,4-27.71,1.9-41.44-2-12.83-7-28.47-16.73-37.56-9.23-8.64-24.28-13.23-36.51-8.92-14.2,5-21,21.66-16,35.6,6.23,17.64,24.63,26.85,41.48,31.8,15.55,4.57,33.63,7,49.62,3.21,11.4-2.72,6.57-20.29-4.84-17.57-8.69,2.07-20,1.16-29.57-.69-11.8-2.29-25.19-6.06-34.05-14.64-5.14-5-9.62-14.53-2.49-19.71,4.43-3.22,13.86-.62,18.3,2.72,7.43,5.6,10.21,17.14,12.35,25.91,2.11,8.62,1.68,18.91.45,28.21-2.14,16.18-7.58,41.45-28.66,38.91a19.25,19.25,0,0,1-11.54-5.54,7.75,7.75,0,0,1-1.73-3.77,22.49,22.49,0,0,1-.67-6.66c.12-9.82,3.63-21,10.28-28.35,4.46-4.94,2.91-13.45-4-15.22-29.65-7.58-62.42-15.85-92.77-7-14.63,4.28-28.63,15-36.77,27.82-8.31,13.1-8.37,31.17,2.13,43.12a28,28,0,0,0,36,4.9c12.93-8.49,20.09-23.84,20.82-39,.68-14.42-6.61-29.39-19.1-36.91-11.29-6.79-26.57-5.77-37-13.91-3.76-2.94-3.47-7.31-2.33-11.49a20,20,0,0,1,7.29-10.48,24.88,24.88,0,0,1,3-1.72c-1.3.61,1.93-.59,2.61-.78.36-.09,1.77-.25,0-.07.69-.07,1.39,0,2.08-.08.26,0,2,.14.86,0s1,.25,1.27.31a8.72,8.72,0,0,1,4.56,2.83,24.46,24.46,0,0,1,5.15,8.43c1.78,4.59,6.12,7.76,11.21,6.36,4.38-1.2,8.14-6.59,6.36-11.2Z"/><path class="cls-1" d="M419.87,273.74c-13.37,18.86-20.28,47.77-8.7,69.15,11.17,20.61,36.71,20.63,53.58,7.37,19.47-15.31,20-41.27,13.69-63.36-3.37-11.81-7.93-24.06-14.11-34.71-5.53-9.52-13.39-18.13-23.95-22-20.2-7.34-45.2,6.07-41,29.62,2,11.13,10.51,20.23,20.77,24.4,11.68,4.76,24.51,3.59,36.55.91,38.26-8.51,77.85-30,100.3-62.91,11.6-17,17.92-39.22,13.57-59.66-4.69-22-30.93-39.4-50.76-23-7.74,6.4-11.3,16.6-12.75,26.24-1.84,12.24-1.85,24.84-1.49,37.19a320.81,320.81,0,0,0,11.84,77.46,308.11,308.11,0,0,0,13.3,37.65c3.87,9,9,18.2,16.72,24.49,17.17,14,41.51,6.65,56.93-6.42,16.31-13.84,28.28-33.33,36-53.12,3.53-9.1,6.11-18.89,6.48-28.69.47-12.32-7.88-22-20.21-22.83-8.44-.61-17.16,5.47-22.47,11.61a39.53,39.53,0,0,0-9.91,25.59c-.27,22.86,16.86,44.87,38.13,52.09,18.15,6.16,39.59.59,51.44-14.49a221.46,221.46,0,0,0,22.76-36.09c3.1-6.07,6.58-12.71,6.85-19.66.46-11.73-17.76-11.71-18.22,0-.05,1.44.12-.64.15-.78-.1.42-.15.88-.29,1.3-.4,1.13-.71,2.28-1.14,3.4-.57,1.5-1.83,4.08-3.08,6.54-2.94,5.74-6.18,11.32-9.53,16.82-4.72,7.75-10.62,18.53-17.53,22.87-11.7,7.35-28.17,4.78-38.36-4.73s-17.86-26.43-9.23-38.86a33.08,33.08,0,0,1,4.34-4.6c.37-.29,2.1-1.43,3-1.94s3-1,1.73-.93c.67,0,3.36,1.07,2.57.45s.62,1.05.8,1.73c.71,2.75-.35,6.83-.89,9.58-3.15,16.26-10.94,31.51-20.58,44.86a96.7,96.7,0,0,1-15.65,17c-5.4,4.58-11.25,6.84-18.18,8.19-6.68,1.3-11.62.09-16.39-4.91-5.23-5.49-8.48-12.78-11.28-19.73a302.76,302.76,0,0,1-21.82-122.19c.28-8.88-.1-35,14.68-33.35,17.33,2,16.41,26.1,13.5,38.32-7,29.3-33.67,50-59.19,63.1a168.26,168.26,0,0,1-43.64,15.41c-8.23,1.65-18.69,2.52-25.91-2.72-4.24-3.07-8.28-9.73-5.09-14.82,2.37-3.79,8.18-4.76,12.65-4.14,7.11,1,12.45,6.48,16.17,12.26,4.82,7.51,8.13,16,11.09,24.36,3.4,9.62,6.2,19.62,5.9,29.91-.39,13.57-9.33,28-24.09,28.58-16.08.68-17.46-21.07-15.38-32.72a63.79,63.79,0,0,1,11.08-25.95c2.85-4,.72-10.13-3.26-12.46-4.57-2.67-9.61-.76-12.47,3.27Z"/><line class="cls-2" x1="377.33" y1="442.49" x2="377.33" y2="442.49"/><path class="cls-3" d="M368.41,181.07c9.09,8.63,24.26,17.26,33.35,25.89"/><path class="cls-3" d="M363.05,186.44c10.35,9.6,23,16.3,33.35,25.88,7.15,6.64,17.92-4.07,10.73-10.73-10.35-9.6-23-16.3-33.35-25.88-7.16-6.64-17.92,4.07-10.73,10.73Z"/><path class="cls-3" d="M426.91,147.84c-.19,12.53-.39,34.18-.58,46.71"/><path class="cls-3" d="M419.32,147.84c-.24,15.57-.34,31.14-.58,46.71-.14,9.78,15,9.78,15.18,0,.24-15.57.34-31.14.58-46.71.14-9.77-15-9.77-15.18,0Z"/><path class="cls-3" d="M471.8,167.22l-17.29,33.39"/><path class="cls-3" d="M465.25,163.39,448,196.78c-4.48,8.66,8.61,16.35,13.11,7.66l17.29-33.39c4.48-8.67-8.61-16.35-13.11-7.66Z"/><path class="cls-3" d="M815.52,154.85l20.53,31.5"/><path class="cls-3" d="M809,158.68l20.52,31.5c5.32,8.15,18.47.55,13.11-7.66L822.07,151c-5.31-8.15-18.46-.55-13.1,7.67Z"/><path class="cls-3" d="M879.59,137.63c-3.1,12.15-7.6,30.2-10.69,42.35"/><path class="cls-3" d="M872.27,135.61c-3.59,14.11-7.1,28.24-10.69,42.35-2.41,9.47,12.23,13.51,14.64,4,3.59-14.11,7.1-28.24,10.69-42.35,2.4-9.47-12.23-13.51-14.64-4Z"/><path class="cls-3" d="M925.55,165.45,901,193.92"/><path class="cls-3" d="M920.18,160.08l-24.56,28.48c-6.35,7.36,4.34,18.14,10.73,10.73l24.56-28.47c6.35-7.37-4.34-18.15-10.73-10.74Z"/><path class="cls-3" d="M475.74,410.35c.33,26.35.54,52.7.87,79,.1,7.8,12.25,7.83,12.15,0-.33-26.35-.54-52.7-.87-79-.1-7.81-12.25-7.83-12.15,0Z"/><path class="cls-3" d="M518.32,411c.33,26.35.54,52.7.87,79.05.1,7.81,12.24,7.83,12.14,0-.33-26.35-.54-52.7-.87-79.05-.1-7.8-12.24-7.83-12.14,0Z"/><path class="cls-3" d="M740.27,410.62c.33,26.35.54,52.7.87,79.05.1,7.81,12.24,7.83,12.14,0-.33-26.35-.54-52.7-.87-79.05-.1-7.81-12.24-7.83-12.14,0Z"/><path class="cls-3" d="M582.51,410.21l-25.41,78c-2.43,7.45,9.29,10.64,11.71,3.23l25.41-78c2.42-7.45-9.3-10.64-11.71-3.23Z"/><path class="cls-3" d="M583.39,413.55l30.48,77.82c2.82,7.19,14.57,4.06,11.71-3.23L595.1,410.32c-2.82-7.19-14.57-4.06-11.71,3.23Z"/><path class="cls-3" d="M782.56,408.29l-39.62,45.16c-5.13,5.85,3.43,14.47,8.59,8.58l39.62-45.16c5.13-5.85-3.43-14.47-8.59-8.58Z"/><path class="cls-3" d="M744,456.76l39.93,36.86c5.74,5.3,14.35-3.27,8.59-8.59l-39.93-36.85c-5.74-5.3-14.35,3.27-8.59,8.58Z"/><path class="cls-3" d="M869.64,424.63c-5.95-27.55-54.81-23.46-50.08,6.55,1.85,11.74,14.38,18.48,23.4,24.53,4.25,2.85,7.78,2.67,10.62,6.87,4.11,6.08,4.68,13.84-1.74,18.61-5.24,3.9-15.13,1.77-19.7-2.48-4.86-4.52-7-9.68-8.13-16-1.39-7.68-13.1-4.43-11.71,3.23,2.15,11.9,9.46,23.16,21.36,27.17,13.12,4.44,27.17,1.62,33.23-12,5.28-11.88-.67-28.88-13.21-33.62-4.76-1.8-8.61-5.23-12.81-8.07-3.9-2.63-9-5.71-9.46-10.87-1.29-14.59,23.81-13.22,26.52-.65,1.65,7.63,13.36,4.4,11.71-3.23Z"/><path class="cls-3" d="M707.23,429.75c-2-13.79-12.44-22.55-26.33-23.24-16-.81-27.38,9.33-31.72,24.17-4.25,14.52-5.87,30,.1,44.24,2.8,6.66,7.06,13.21,13.6,16.69s13.53,4.14,20.68,3.42a25.92,25.92,0,0,0,17-7.8c5.62-5.37,7.21-10.85,7.42-18.47.21-7.82-11.94-7.81-12.15,0-.15,5.73-1.62,8.64-6.4,12.18-3.3,2.44-8.4,2.5-12.34,2.27-14.52-.82-19.81-16.52-19.73-29.08,0-6.46,1.59-13.27,3.33-19.48s4.75-12.41,11.08-14.8a22.19,22.19,0,0,1,16.8.9c4.77,2.25,6.26,7.37,7,12.23.47,3.27,4.58,5,7.47,4.24,3.49-.92,4.71-4.24,4.24-7.47Z"/><path class="cls-3" d="M485.12,471.6H525c7.81,0,7.83-12.14,0-12.14H485.12c-7.81,0-7.82,12.14,0,12.14Z"/><path class="cls-3" d="M570.84,471.6h39.85c7.81,0,7.82-12.14,0-12.14H570.84c-7.81,0-7.83,12.14,0,12.14Z"/><path class="cls-3" d="M388,459.55h39.84c7.82,0,7.83-12.14,0-12.14H388c-7.82,0-7.83,12.14,0,12.14Z"/><path class="cls-3" d="M918.67,459.55h39.84c7.82,0,7.83-12.14,0-12.14H918.67c-7.82,0-7.83,12.14,0,12.14Z"/></svg>