<svg id="Layer_14" data-name="Layer 14" xmlns="http://www.w3.org/2000/svg" viewBox="0 0 720 720"><defs><style>.cls-1,.cls-4{fill:none;}.cls-1,.cls-2,.cls-5{stroke:#fff;stroke-miterlimit:10;stroke-width:4px;}.cls-2,.cls-3{fill:#fff;}</style></defs><title>Artboard 1</title><polygon class="cls-1" points="305.97 384.12 356.83 370.94 373.17 444.73 339.57 463.18 305.97 384.12"/><path class="cls-2" d="M481.95,189.18c-.12.94.85,2.81.82,3-.12.94-1.06-1.23-1.06-1.26.06-.47.14-1.06.22-1.72a178.6,178.6,0,0,0-16.34-10.57c5.57-9.25,14-23.72,16.34-23.92-.07-.21.83-.28.76-.47-1.86-4.59-10.07,1.7-17.34,9.06A165.3,165.3,0,0,1,463.14,185c-4.39-2.24-20.86-6.19-20.86-6.19s12.92-35,21.59-30.85c.75.11,1.24,2.48,1.45,6.2-.13-3.05-.49-5.5-1.18-6.77-3.36-6.22-18.11,9.65-25.65,18.43-24.47-9.18-50.44-13.27-76.09-13.27a222.55,222.55,0,0,0-166.13,74.54l1.44,1.34c-30.82,49.36-42.84,126.36-26.81,171.63,12.46,35.18,28.06,54.1,59.59,72.32,13,7.54,28.07,11.36,44.65,11.36,56.78,0,114.82-44.71,115.4-45.17l1.29-1c.71-2.1,1.33-3.62,1.33-3.62l-24.11-45.75-35.84,16s-15.48-16.94-14-47.76c1.22-25,8.29-34.87,19.27-48,11.3,7.09,23.89,21.46,23.89,21.46l33.84-15.43v-36l.29,0a253.85,253.85,0,0,0-25.33,1.63,53.67,53.67,0,0,1-13.27-.44c-18-2.55-39.77-11.76-56.47-16.34,13.85-10.91,27.82-22.46,43.37-28,98.47-34.86,116,55,116.68,59A272.58,272.58,0,0,1,492.65,313c36.46,24.84,54.38,62.9,54.44,62.9,4.25-.19,20.29-4.9,20.61-4.92C561.21,279.67,527.23,222.13,481.95,189.18Zm7.19,68.49a15.43,15.43,0,1,1,15.44-15.43A15.45,15.45,0,0,1,489.14,257.67Z"/><path class="cls-3" d="M489.14,226.8a15.43,15.43,0,1,0,15.44,15.43A15.45,15.45,0,0,0,489.14,226.8Zm0,30.37a14.93,14.93,0,1,1,14.94-14.93A14.93,14.93,0,0,1,489.14,257.17Z"/><path class="cls-3" d="M489.14,227.3a14.93,14.93,0,1,0,14.94,14.93A14.93,14.93,0,0,0,489.14,227.3Zm0,29.37a14.43,14.43,0,1,1,14.44-14.43A14.45,14.45,0,0,1,489.14,256.67Z"/><circle class="cls-3" cx="492.85" cy="242.23" r="8.35"/><path class="cls-1" d="M396.53,278.54l-.29,0v33L407.17,310l.71-31.15C404.27,278.6,400.5,278.5,396.53,278.54Z"/><path class="cls-4" d="M276.61,516.19c10.67,0,22-1.49,35.56-4.68,35.37-8.31,55.21-29.28,65.62-45.42a170.64,170.64,0,0,0,9.72-20.32c-16,11.18-64.5,42-112.37,42-17.29,0-33-4-46.65-11.9C196,457.14,180,437.66,167.14,401.45c-14.38-40.6-6.76-106,16.52-155.42-23.92,33.37-36.89,72.72-36.89,112.87a182.62,182.62,0,0,0,15.7,72.94c13.87,31.48,35.87,57.76,61.65,71.53a93.8,93.8,0,0,0,12,5.41A116.28,116.28,0,0,0,276.61,516.19Z"/><path class="cls-2" d="M381.18,468.21c-10.81,16.76-31.39,38.56-68.1,47.19-13.9,3.27-25.49,4.79-36.48,4.79a116.46,116.46,0,0,1-29-3.69c6.69,30.87,69.55,69.69,115.28,72.69,68.45,4.49,162.22-54.16,167.5-133.27,3.48-52.09-21.77-91.06-43.81-112,1.6,7.16,2.62,14.65,1.64,22.25-9.87,76.47-79.9,91.06-101.91,92.4-1.49,3.1-3.18,6.37-5,9.59Z"/><path class="cls-3" d="M391.77,440.21A184.26,184.26,0,0,1,384,458.63c.69,0,1.45,0,2.27-.1a182.79,182.79,0,0,0,7.4-17.67l1.75-6.78-3.58,3.54c-.33,1-.73,2.13-1.22,3.46Z"/><path class="cls-3" d="M235.47,510.66c-51.55-18.81-90.7-86.75-90.7-151.76,0-.15,0-.31,0-.46s0-.36,0-.54c0-50.45,19.23-95.94,50.58-131.21l-.81-.61c-33.38,37.34-51.77,84.51-51.77,132.81,0,32.07,9.34,65.53,26.3,94.22,17.22,29.14,40.56,50.24,65.72,59.42a133.53,133.53,0,0,0,12.78,4c-.16-.73-.29-1.45-.39-2.17C243.36,513.33,239.47,512.12,235.47,510.66Z"/><path class="cls-3" d="M275.14,483.79c-16.58,0-31.6-3.82-44.65-11.36-31.53-18.22-47.13-37.14-59.59-72.32-16-45.28-4-122.27,26.81-171.63l-2.37-1.78C164,262,144.76,307.46,144.76,357.91c0,.18,0,.36,0,.54.12-50.14,19.64-95.66,51.25-131C165.7,276,152.47,354,169,400.78c11.93,33.67,26.87,54,60.47,73.38,63.77,36.84,150.18-24.92,161.12-33.08.49-1.33.89-2.49,1.22-3.46l-1.29,1C390,439.08,331.92,483.79,275.14,483.79Z"/><path class="cls-3" d="M379.5,467.13C368,485,347.69,505.21,312.63,513.46c-21.38,5-41.81,7.11-65.45.88.09.72.23,1.44.39,2.17a116.46,116.46,0,0,0,29,3.69c11,0,22.58-1.52,36.48-4.79,36.7-8.63,57.29-30.42,68.1-47.19l.05-.09c1.85-3.22,3.54-6.49,5-9.59-.83.05-1.59.08-2.27.1C382.63,461.41,381.13,464.29,379.5,467.13Z"/><path class="cls-3" d="M235.47,510.66c4,1.46,7.89,2.67,11.71,3.68v-.09q-5.82-2.18-11.91-4.95a107,107,0,0,1-11.13-5.93c-25.78-13.77-47.77-40-61.65-71.53-10.92-22.74-17.61-48.07-17.7-73.4,0,.15,0,.31,0,.46C144.76,423.91,183.91,491.85,235.47,510.66Z"/><path class="cls-3" d="M384,458.63a184.26,184.26,0,0,0,7.79-18.43l-1.16.88a165.84,165.84,0,0,1-7.67,17.56Z"/><path class="cls-3" d="M146.76,358.9c0-40.15,13-79.5,36.89-112.87-23.27,49.39-30.89,114.82-16.52,155.42C180,437.66,196,457.14,228.5,475.9c13.66,7.89,29.36,11.9,46.65,11.9,47.86,0,96.36-30.84,112.37-42a170.64,170.64,0,0,1-9.72,20.32c-10.42,16.14-30.25,37.1-65.62,45.42-13.59,3.2-24.89,4.68-35.56,4.68a116.28,116.28,0,0,1-40.45-7.41,93.8,93.8,0,0,1-12-5.41,107,107,0,0,0,11.13,5.93q6.1,2.78,11.91,4.95v.09c23.65,6.23,44.07,4.15,65.45-.88,35.06-8.24,55.38-28.5,66.87-46.33,1.63-2.84,3.13-5.72,4.49-8.5h-1a165.84,165.84,0,0,0,7.67-17.56c-10.93,8.16-97.35,69.93-161.12,33.08C195.89,454.75,181,434.45,169,400.78,152.47,354,165.7,276,196,227.42c-31.61,35.36-51.13,80.88-51.25,131,.09,25.33,6.78,50.66,17.7,73.4A182.62,182.62,0,0,1,146.76,358.9Z"/><path class="cls-5" d="M461.53,294.6l0-.15a172.9,172.9,0,0,0-29.13-11.68"/><path class="cls-5" d="M407.89,278.39v.41a144.91,144.91,0,0,1,24.5,4A148.89,148.89,0,0,0,409,278.44Z"/><path class="cls-5" d="M396.53,278.54c4,0,7.74.06,11.35.26v-.41A85.88,85.88,0,0,0,396.53,278.54Z"/><path class="cls-2" d="M482.69,154.2c2.6,6.62.18,27.37-.76,35h0C482.75,183.12,485.7,161.85,482.69,154.2Z"/><path class="cls-5" d="M465.23,163.39l.12-.12c.12-3.46.1-6.56,0-9.06C465.44,156.91,465.38,160.09,465.23,163.39Z"/><path class="cls-3" d="M101.51,180.85A313.37,313.37,0,0,0,53.46,299H1.84V418.05H54.31a313.34,313.34,0,0,0,48.1,115L62.74,572.71l84.2,84.2,39.67-39.67a313.34,313.34,0,0,0,113.87,47.87v53.81H419.56V666.39A313.45,313.45,0,0,0,538.8,618.14l35.42,35.42,84.2-84.2-35-35a313.31,313.31,0,0,0,49-116.32h48V299H673.28a313.47,313.47,0,0,0-48.95-119.45l30.74-30.74-84.2-84.2L540.13,95.32A313.49,313.49,0,0,0,419.56,46.17V.33H300.48V47.45a313.32,313.32,0,0,0-115.2,48.77l-35-35-84.2,84.2ZM360.16,619.41C216.5,619.41,100,503,100,359.3S216.5,99.19,360.16,99.19,620.27,215.64,620.27,359.3,503.81,619.41,360.16,619.41Z"/></svg>