<?xml version="1.0" encoding="utf-8"?>
<!-- Generator: Adobe Illustrator 25.0.0, SVG Export Plug-In . SVG Version: 6.00 Build 0)  -->
<svg version="1.1" id="Layer_1" xmlns="http://www.w3.org/2000/svg" xmlns:xlink="http://www.w3.org/1999/xlink" x="0px" y="0px"
	 viewBox="0 0 500 500" style="enable-background:new 0 0 500 500;" xml:space="preserve">
<style type="text/css">
	.st0{fill:#F9B147;}
	.st1{fill:#FFFFFF;}
	.st2{fill:#161616;}
	.st3{fill:none;stroke:#F9B147;stroke-width:7.616;stroke-miterlimit:10;}
</style>
<path class="st3" d="M476.58,488H23.42C17.14,488,12,482.86,12,476.58V23.42C12,17.14,17.14,12,23.42,12h453.15
	c6.28,0,11.42,5.14,11.42,11.42v453.15C488,482.86,482.86,488,476.58,488z"/>
<g>
	<g>
		<path class="st0" d="M73.4,276.14c4.59-5.09,8.64-9.34,14-12.02c8.12-4.06,16.46-5.46,25.12-1.84c4.79,2,7.7,5.74,9.31,10.58
			c0.32,0.96,0.09,2.47,1.19,2.75c1.34,0.34,1.77-1.2,2.47-2.04c7.9-9.52,18.02-14.36,30.4-13.03c10.74,1.15,17.13,9.41,17.32,21.14
			c0.14,8.71-1.65,17.2-3.23,25.7c-2.25,12.13-4.71,24.22-6.95,36.34c-0.4,2.18-1.22,2.92-3.49,2.82c-4.77-0.2-9.55-0.13-14.32-0.03
			c-2.02,0.04-2.46-0.46-2.05-2.54c3.02-15.73,5.93-31.48,8.76-47.25c0.61-3.4,0.97-6.84,0.69-10.37
			c-0.71-9.19-9.81-11.96-17.07-7.33c-8.8,5.61-12.89,14.44-14.99,24.1c-2.93,13.49-5.31,27.1-7.77,40.69
			c-0.39,2.13-1.18,2.77-3.27,2.71c-4.66-0.13-9.34-0.2-14,0.02c-2.85,0.13-2.92-0.87-2.46-3.27c3.19-16.45,6.26-32.92,9.26-49.4
			c0.58-3.21,0.71-6.53-0.2-9.74c-1.72-6.04-6.88-8.73-12.84-6.66c-7.09,2.46-11.21,8.04-14.66,14.22
			c-4.95,8.88-5.71,18.9-7.61,28.59c-1.56,7.96-3.03,15.94-4.35,23.94c-0.32,1.96-1.15,2.34-2.92,2.3
			c-4.77-0.1-9.55-0.14-14.32,0.01c-2.3,0.08-3-0.64-2.58-2.88c2.35-12.42,4.63-24.86,6.94-37.29c2.56-13.77,5.52-27.48,7.1-41.42
			c0.24-2.11,1.09-2.89,3.24-2.82c4.03,0.14,8.06,0.13,12.09,0.01c1.95-0.06,2.57,0.57,2.52,2.52
			C74.6,268.2,73.98,271.69,73.4,276.14z"/>
		<path class="st0" d="M195.71,307.96c0.82-14.67,7.77-31.25,25.42-41.41c13.72-7.9,28.33-9.34,42.62-1.12
			c8.65,4.98,13.35,12.95,14.72,22.82c2.1,15.02-1.35,28.65-10.24,40.95c-10.98,15.2-31.23,22.36-48.9,17.71
			C205.93,343.38,195.16,330.61,195.71,307.96z M257.97,295.96c0-1.27,0.15-2.55-0.03-3.8c-0.84-5.81-2.67-11.11-8.21-14.22
			c-6.92-3.89-16.53-1.78-22.13,4.83c-7.56,8.93-11.02,19.32-10.89,30.91c0.05,4.56,0.86,8.98,3.76,12.79
			c6.22,8.17,18.38,8.99,27.09-1.3C254.59,316.86,257.73,306.84,257.97,295.96z"/>
		<path class="st0" d="M414.22,312.06c-0.11,0-0.21,0-0.32,0c-6.37-0.01-6.8,0.56-5.26,6.9c1.78,7.29,7.02,11.94,14.62,12.98
			c8.54,1.17,16.64-0.5,24.48-3.78c3.33-1.39,3.53-1.35,3.75,2.2c0.18,2.85,0.35,5.69,1.1,8.46c0.53,1.94-0.16,3.15-2.1,3.93
			c-13.51,5.5-27.46,7.54-41.57,3.39c-9.29-2.73-15.42-9.3-18.63-18.76c-7.3-21.49,4.16-50.09,23.55-60.98
			c12.7-7.13,26.03-9.23,39.26-1.55c9.71,5.63,11.86,15.73,9.35,26.01c-2.53,10.38-10.94,14.72-20.26,17.64
			C433.09,311.33,423.64,311.62,414.22,312.06z M416.52,296.88c1.57-0.12,4.32-0.3,7.06-0.55c5.49-0.51,10.95-1.11,15.84-4.05
			c3.35-2.02,4.82-4.88,4.61-8.71c-0.2-3.56-2.06-5.81-5.31-7.16c-3.41-1.41-6.87-1.28-10.26-0.3c-8,2.32-13,7.93-16.42,15.23
			C409.67,296.39,409.94,296.9,416.52,296.88z"/>
		<path class="st0" d="M328.68,324.94c4.48-9.23,8.37-18.44,12.9-27.37c5.38-10.63,10.64-21.31,15.82-32.04
			c1.2-2.48,2.62-3.58,5.55-3.44c6.02,0.28,12.07,0.08,18.29,0.08c-0.19,1.74-1.07,2.93-1.76,4.17
			c-12.76,22.85-25.53,45.69-38.3,68.53c-1.84,3.3-3.75,6.56-5.52,9.89c-0.6,1.14-1.21,1.78-2.62,1.76
			c-5.62-0.08-11.24-0.06-16.86-0.01c-1.37,0.01-1.98-0.31-2.24-1.85c-4.54-26.69-9.16-53.37-13.79-80.05
			c-0.31-1.78,0.2-2.51,2.1-2.48c5.41,0.08,10.82,0.11,16.23,0.01c1.97-0.04,2.47,0.8,2.69,2.58c1.38,11.19,2.89,22.37,4.3,33.56
			C326.59,307.16,327.61,316.05,328.68,324.94z"/>
	</g>
	<g>
		<path class="st2" d="M163.97,218.04c1.32-2.89,2.36-5.1,3.34-7.34c8.02-18.39,16.07-36.77,23.98-55.2
			c0.87-2.02,1.95-2.65,4.01-2.54c2.76,0.15,5.53,0.04,8.63,0.04c-0.41,1.21-0.63,2.05-0.98,2.83
			c-10.85,24.74-21.75,49.46-32.52,74.23c-1.03,2.37-2.35,2.9-4.84,3.23c-5.43,0.72-7.74-1.55-9.71-6.4
			c-6.62-16.28-13.8-32.33-20.77-48.47c-0.37-0.87-0.81-1.71-1.22-2.56c-0.26,0.04-0.52,0.09-0.78,0.13c0,18.87,0,37.74,0,57.13
			c-3.82,0-7.17,0.06-10.51-0.07c-0.48-0.02-1.06-0.91-1.33-1.52c-0.22-0.5-0.06-1.17-0.06-1.77c0-24.47,0.05-48.94-0.07-73.41
			c-0.01-2.83,0.86-3.63,3.55-3.41c2.58,0.21,5.2,0.19,7.79,0c2.15-0.16,3.16,0.67,4,2.61c8.49,19.59,17.09,39.14,25.66,58.7
			C162.61,215.31,163.14,216.33,163.97,218.04z"/>
		<path class="st2" d="M100.2,176.42c-3.51,0-6.87,0.1-10.22-0.09c-0.64-0.04-1.51-1.08-1.79-1.84
			c-3.32-9.04-8.44-12.86-18.19-12.86c-3.84,0-7.79,0.39-11.5,1.32c-4.16,1.04-7.36,3.67-7.81,8.37c-0.5,5.14,1.24,8.53,6.32,10.62
			c5.87,2.42,12.02,4.16,18.03,6.26c4.69,1.64,9.45,3.17,14,5.14c8.19,3.53,13.22,9.58,13.12,18.8c-0.1,9.19-4.86,15.47-13.19,19.19
			c-7.91,3.53-16.3,3.5-24.68,3c-7.1-0.42-13.77-2.34-19.23-7.16c-5.18-4.58-7.51-10.59-8.42-17.28c-0.28-2.07,0.46-2.91,2.6-2.79
			c2.59,0.14,5.66-0.76,7.64,0.35c1.64,0.91,2.01,4.08,2.91,6.27c2.12,5.15,5.85,8.41,11.3,9.68c7.26,1.7,14.5,1.7,21.39-1.23
			c2.53-1.08,5.01-3.01,6.66-5.19c2.57-3.41,1.55-8.25-1.63-11.71c-3.19-3.47-7.53-4.71-11.77-6.13c-8.3-2.78-16.66-5.4-24.92-8.31
			c-6.39-2.25-10.67-6.74-11.69-13.51c-1.15-7.64,0.76-14.41,7.34-19.27c6.8-5.03,14.61-6.84,22.85-6.31
			c5.31,0.34,10.84,0.85,15.77,2.66C94.91,157.99,99.35,165.9,100.2,176.42z"/>
		<path class="st2" d="M363.7,196.05c0.88,0.53,1.32,0.92,1.83,1.09c6.66,2.18,9.41,7.18,10.13,13.71c0.43,3.94,0.67,7.93,1.5,11.79
			c0.75,3.52,2.18,6.89,3.37,10.51c-3.26,0-6.91,0.14-10.54-0.1c-0.87-0.06-2.17-1.27-2.38-2.16c-1.14-4.79-2.02-9.64-2.96-14.48
			c-0.34-1.75-0.42-3.56-0.87-5.27c-1.58-6.03-5.66-9.09-13.25-9.38c-6.98-0.27-13.98-0.03-20.97-0.09
			c-1.99-0.02-2.53,0.85-2.52,2.72c0.07,8.65-0.04,17.3,0.08,25.95c0.03,2.22-0.62,3.07-2.88,2.85c-2.84-0.27-6.61,0.68-8.28-0.79
			c-1.44-1.27-0.61-5.21-0.62-7.97c-0.04-9.84,0.05-19.69-0.07-29.53c-0.03-2.45,0.69-3.24,3.21-3.21
			c10.49,0.14,20.98-0.04,31.46,0.13c14.22,0.22,17.43-10.57,14.98-20.46c-1.31-5.27-5.67-7.6-10.54-7.85
			c-9.14-0.47-18.33-0.22-27.49-0.26c-1.5-0.01-3,0.11-4.49,0.05c-2.25-0.1-6.06,0.35-6.45-0.59c-1.01-2.38-0.6-5.41-0.5-8.17
			c0.02-0.53,1.27-1.47,1.94-1.46c13.47,0.11,27.02-0.55,40.38,0.75c15.84,1.54,21.01,13.14,19.4,26.11
			C376.16,188.01,371.95,193.43,363.7,196.05z"/>
		<path class="st2" d="M425.03,198.15c0-10.34,0.01-20.69,0-31.03c0-4.18-0.03-4.21-4.12-4.22c-6.79-0.01-13.59-0.07-20.38,0.03
			c-2.18,0.03-2.94-0.62-2.94-2.88c0.02-7.04-0.08-7.04,7.03-7.04c18.49,0,36.97,0.06,55.46-0.06c2.73-0.02,3.4,0.86,3.32,3.4
			c-0.24,7.67,0.96,6.46-6.45,6.55c-5.3,0.06-10.59,0.01-15.89,0.01c-4.67,0-4.68,0.01-4.68,4.53c-0.01,20.69-0.07,41.38,0.04,62.07
			c0.01,2.79-0.62,4.08-3.62,3.68c-1.57-0.21-3.21-0.19-4.79,0c-2.52,0.3-3.01-0.89-3-3.1c0.08-10.64,0.03-21.29,0.03-31.93
			C425.04,198.15,425.04,198.15,425.03,198.15z"/>
		<path class="st2" d="M299.38,233.15c-3.33,0-6.14-0.21-8.9,0.06c-2.78,0.28-4-0.77-4.94-3.33c-8.76-23.71-17.65-47.37-26.5-71.04
			c-0.68-1.82-1.35-3.65-2.16-5.84c3.67,0,6.87-0.2,10.01,0.12c0.96,0.1,2.18,1.48,2.6,2.54c6.67,16.98,13.22,34,19.81,51.01
			c2.93,7.58,5.89,15.15,8.83,22.73C298.54,230.48,298.87,231.61,299.38,233.15z"/>
		<path class="st2" d="M224,233.15c1.66-4.38,3.13-8.35,4.66-12.29c3.47-8.96,7.02-17.89,10.42-26.87c0.63-1.67,1.47-2.3,3.26-2.25
			c4.38,0.11,8.78-0.07,13.16,0.12c0.98,0.04,2.33,0.94,2.79,1.82c1.18,2.26,1.97,4.72,3.22,7.88c-3.47,0-6.5,0.22-9.48-0.06
			c-3.02-0.28-4.37,0.89-5.34,3.7c-2.92,8.52-6.2,16.92-9.22,25.41c-0.66,1.86-1.51,2.72-3.61,2.6
			C230.73,233.01,227.57,233.15,224,233.15z"/>
		<path class="st2" d="M194.59,190.77c4.15,0,8.1,0,12.3,0c0,14.22,0,28.37,0,42.74c-4.05,0-8.08,0-12.3,0
			C194.59,219.3,194.59,205.22,194.59,190.77z"/>
	</g>
</g>
</svg>
