<svg id="Layer_1" data-name="Layer 1" xmlns="http://www.w3.org/2000/svg" viewBox="0 0 500 500"><defs><style>.cls-1{fill:#f2d665;}.cls-2{fill:#c19a48;}.cls-3{fill:#dbba57;}.cls-4{fill:#231f07;}.cls-5{fill:#38341c;}</style></defs><title>HackUMBC.Logo.Gold.3</title><polygon class="cls-1" points="153.41 227.54 110.08 241.56 128.6 314.38 165.64 241.56 153.41 227.54"/><polyline class="cls-2" points="137.86 125.54 165.64 170.72 110.08 241.56 110.08 198.63 137.86 125.54"/><polygon class="cls-3" points="165.64 170.84 110.08 241.56 153.41 227.54 176.9 200.91 165.64 170.84"/><polygon class="cls-1" points="137.86 125.54 192.49 91.28 250 95.91 250 188.74 165.64 170.84 137.86 125.54"/><polygon class="cls-4" points="165.64 241.56 191 245.39 208.24 241.56 198.31 212.92 176.9 200.91 153.41 227.54 165.64 241.56"/><polygon class="cls-2" points="145.45 281.25 110.08 241.56 153.41 227.54 165.64 241.56 145.45 281.25"/><polygon class="cls-1" points="191 245.39 165.64 241.56 145.45 281.25 182.52 297.88 191 245.39"/><polygon class="cls-3" points="182.52 297.88 168.45 385.68 128.6 314.38 145.45 281.25 182.52 297.88"/><polygon class="cls-2" points="168.45 385.68 213.29 329.75 220.32 308.02 208.24 241.56 191 245.39 168.45 385.68"/><polygon class="cls-1" points="168.45 385.68 194.35 408.84 223.98 399.58 250 367.17 250 343.66 213.29 329.75 168.45 385.68"/><polygon class="cls-3" points="163.78 109.29 110.07 119.9 30.69 223.15 110.08 198.63 137.86 125.54 163.78 109.29"/><polygon class="cls-1" points="30.69 223.15 68.28 288.64 110.08 241.56 110.08 198.63 30.69 223.15"/><polygon class="cls-2" points="68.28 288.64 61.5 326.76 94.91 338.77 124.15 296.89 110.08 241.56 68.28 288.64"/><polygon class="cls-2" points="362.14 125.42 362.14 125.42 389.93 198.5 389.93 241.44 334.36 170.72 362.14 125.42"/><polygon class="cls-3" points="346.6 227.42 389.93 241.44 371.4 314.26 334.36 241.44 346.6 227.42"/><polygon class="cls-1" points="334.36 170.72 389.93 241.44 346.6 227.42 323.1 200.79 334.36 170.72"/><polygon class="cls-3" points="362.14 125.42 307.51 91.16 250 95.79 250 188.61 334.36 170.72 362.14 125.42"/><polygon class="cls-2" points="323.1 200.79 334.36 170.72 250 188.61 165.64 170.72 176.9 200.79 198.31 212.8 301.69 212.8 323.1 200.79"/><polygon class="cls-4" points="334.36 241.44 309 245.27 291.76 241.44 301.69 212.8 323.1 200.79 346.6 227.42 334.36 241.44"/><polygon class="cls-2" points="354.55 281.13 389.93 241.44 346.6 227.42 334.36 241.44 354.55 281.13"/><polygon class="cls-3" points="309 245.27 334.36 241.44 354.55 281.13 317.44 297.76 309 245.27"/><polygon class="cls-1" points="317.44 297.76 331.55 385.56 371.4 314.26 354.55 281.13 317.44 297.76"/><polygon class="cls-2" points="331.55 385.56 286.71 329.63 279.68 307.9 291.76 241.44 309 245.27 331.55 385.56"/><polygon class="cls-3" points="331.55 385.56 305.65 408.72 276.02 399.46 250 367.05 250 343.54 286.71 329.63 331.55 385.56"/><polygon class="cls-3" points="469.31 223.03 431.71 288.52 389.93 241.44 389.93 198.5 469.31 223.03"/><polygon class="cls-2" points="431.71 288.52 438.5 326.64 405.09 338.65 375.85 296.76 389.93 241.44 431.71 288.52"/><polygon class="cls-1" points="208.24 241.56 198.31 212.8 301.69 212.8 291.76 241.44 250 255.9 208.24 241.56"/><polygon class="cls-3" points="220.32 308.02 279.68 307.9 291.76 241.44 250 255.9 208.24 241.56 220.32 308.02"/><polygon class="cls-4" points="220.32 308.02 213.29 329.75 250 343.54 286.71 329.63 279.68 307.9 220.32 308.02"/><polygon class="cls-2" points="223.98 399.58 250 408.84 276.02 399.46 250 367.05 223.98 399.58"/><polygon class="cls-1" points="336.22 109.17 389.93 119.78 469.31 223.03 389.93 198.5 362.14 125.42 336.22 109.17"/><polygon class="cls-5" points="220.57 308.31 250.26 329.92 279.94 308.18 220.57 308.31"/></svg>