<?xml version="1.0" encoding="utf-8"?>
<!-- Generator: Adobe Illustrator 20.1.0, SVG Export Plug-In . SVG Version: 6.00 Build 0)  -->
<svg version="1.1" xmlns="http://www.w3.org/2000/svg" xmlns:xlink="http://www.w3.org/1999/xlink" x="0px" y="0px"
	 viewBox="0 0 352.3 266.7" style="enable-background:new 0 0 352.3 266.7;" xml:space="preserve">
<style type="text/css">
	.st0{fill:#AC834D;}
	.st1{fill:#F4E4C6;}
	.st2{fill:#D3B78B;}
	.st3{fill:#FBE299;}
	.st4{fill:#7D5B36;}
	.st5{fill:#C6A36C;}
	.st6{fill:#FFDE77;}
	.st7{fill:#F5E8CD;}
	.st8{fill:#CFAE79;}
	.st9{fill:#AF8751;}
	.st10{fill:#9B733F;}
	.st11{fill:#171514;}
	.st12{fill:#BC9C6E;}
	.st13{fill:#876231;}
	.st14{fill:#E6C596;}
	.st15{fill:#754C29;}
	.st16{fill:#BF9B66;}
	.st17{fill:#DAC089;}
	.st18{fill:#D3B889;}
	.st19{fill:#C09B6A;}
	.st20{fill:#EFDAB9;}
	.st21{fill:#C19D6D;}
	.st22{fill:#080809;}
	.st23{fill:#32322E;}
	.st24{fill:#1A1916;}
	.st25{fill:#1C1C18;}
	.st26{fill:#76522F;}
	.st27{fill:#4C4B4B;}
	.st28{fill:#686868;}
	.st29{fill:#896434;}
	.st30{fill:#A57E4E;}
	.st31{fill:#524A40;}
	.st32{fill:#FFFFFF;}
	.st33{fill:#D8BB85;}
</style>
<g id="HAF_1">
	<polygon class="st0" points="113.5,34.1 81.4,72.3 113.1,72.3 153.7,52.6 	"/>
	<polygon class="st1" points="156.6,103.9 153.7,52.6 135.9,84.4 	"/>
	<polygon class="st4" points="4.7,168.9 39.5,144.7 22.8,115.1 	"/>
	<polygon class="st5" points="4.7,168.9 37.8,186.6 53.4,194.4 59.5,180.1 	"/>
	<polygon class="st0" points="59.5,180.1 59.5,180.1 53.4,194.4 68.2,225.7 87.2,229.1 	"/>
	<polygon class="st0" points="39.5,144.7 4.7,168.9 59.5,180.1 59.5,180.1 	"/>
	<polygon class="st7" points="131.5,172.8 115.1,229.1 148.7,198.4 	"/>
	<polyline class="st3" points="132.8,134.6 131.5,172.8 155.2,167.9 	"/>
	<polygon class="st8" points="155.2,167.9 155.2,167.9 176.8,173.1 132.8,134.6 	"/>
	<polygon class="st3" points="72.6,149.3 90,188.6 90,188.6 115.8,149.3 	"/>
	<polygon class="st9" points="106.2,182.4 122.9,202.4 99.6,210.3 115.1,229.1 131.5,172.8 	"/>
	<polygon class="st10" points="106.2,182.4 90,188.6 90,188.6 99.6,210.3 106.2,182.4 	"/>
	<polygon class="st11" points="106.8,101.2 116.9,110.5 133.6,112.7 124.1,93.9 	"/>
	<line class="st6" x1="93.4" y1="109.1" x2="106.8" y2="101.2"/>
	<polygon class="st5" points="94.5,108 105,84.4 113.1,72.3 81.4,72.3 93.4,109.1 	"/>
	<polyline class="st3" points="124.1,93.9 114.4,73.4 135.9,84.4 153.7,52.6 113.1,72.3 123.3,94.3 94.5,108 	"/>
	<polygon class="st12" points="106.2,182.4 106.2,182.4 106.2,182.4 99.6,210.3 122.9,202.4 	"/>
	<polygon class="st0" points="156.6,103.9 135.9,84.4 133.6,112.7 132.8,134.6 	"/>
	<polygon class="st13" points="131.5,172.8 132.8,134.6 133.6,112.7 115.8,149.3 	"/>
	<polygon class="st14" points="91.6,138.3 115.8,149.3 108.4,136.1 	"/>
	<polygon class="st9" points="123.2,134.1 108.4,136.1 115.8,149.3 133.6,112.7 116.9,110.5 	"/>
	<polygon class="st15" points="93.4,109.1 123.8,94.1 105,84.4 93.4,108.9 	"/>
	<polygon class="st16" points="93.4,109.1 91.6,138.3 102.8,126 	"/>
	<polygon class="st17" points="93.4,109.1 102.8,126 116.9,110.5 110.4,99.7 	"/>
	<polygon class="st0" points="113.1,72.3 105,84.4 124.7,95.1 	"/>
	<polygon class="st13" points="113.1,72.3 133.6,112.7 135.9,84.4 	"/>
	<polygon class="st6" points="108.4,136.1 123.2,134.1 108.4,136.1 	"/>
	<polygon class="st2" points="106.2,182.4 131.5,172.8 115.8,149.3 90,188.6 106.2,182.4 106.2,182.4 	"/>
	<polygon class="st3" points="74.9,121 93.4,109.1 81.4,72.3 	"/>
	<polygon class="st2" points="91.6,138.3 93.4,109.1 74.9,121 	"/>
	<polygon class="st7" points="153.3,3.9 162.2,34.1 176.8,58.6 176.8,6.9 	"/>
	<polygon class="st3" points="113.5,34.1 153.7,52.6 162.2,34.1 	"/>
	<polygon class="st2" points="162.2,34.1 153.7,52.6 176.8,58.6 	"/>
	<polygon class="st18" points="153.3,3.9 113.5,34.1 162.2,34.1 	"/>
	<polygon class="st5" points="113.5,34.1 65.5,45.5 81.4,72.3 	"/>
	<polygon class="st19" points="153.7,52.6 156.6,103.9 176.8,83.7 	"/>
	<polygon class="st5" points="148.7,198.4 115.1,229.1 153.4,214.5 	"/>
	<polygon class="st20" points="153.4,214.5 115.1,229.1 122.7,251 153.4,214.6 	"/>
	<polygon class="st0" points="153.4,214.6 122.7,251 138,255.2 153.5,214.8 	"/>
	<polygon class="st21" points="153.5,214.8 138,255.2 143.4,252.5 143.4,252.5 143.4,252.5 161.7,242.9 	"/>
	<polygon class="st12" points="153,178.2 155.2,167.9 131.5,172.8 148.7,198.4 153,178.2 	"/>
	<polygon class="st20" points="155.2,167.9 153,178.2 176.8,173.1 	"/>
	<polygon class="st22" points="169.7,203.4 169.7,194.4 164.9,191.2 158.6,203.4 	"/>
	<polygon class="st23" points="149.1,196.3 158.6,203.4 164.9,191.2 153,178.2 148.7,198.4 153.4,214.5 153.7,214.4 158.6,203.4 	
		"/>
	<polygon class="st24" points="169.7,203.4 158.6,203.4 153.7,214.4 175.5,221.7 	"/>
	<polygon class="st6" points="153.4,214.6 153.7,214.4 153.4,214.5 	"/>
	<polygon class="st6" points="153.4,214.6 153.5,214.8 153.7,214.4 	"/>
	<polygon class="st20" points="175.5,221.7 153.7,214.4 153.5,214.8 161.7,242.9 176.8,235 176.8,225.7 	"/>
	<polygon class="st6" points="176.8,225.7 176.8,222.2 175.5,221.7 	"/>
	<polygon class="st1" points="132.8,134.6 176.8,173.1 156.6,103.9 	"/>
	<polygon class="st0" points="81.4,72.3 52.7,70.7 62.2,108 	"/>
	<polygon class="st4" points="62.2,108 70.2,139.9 72.6,149.3 74.9,121 81.4,72.3 	"/>
	<polygon class="st3" points="65.5,45.5 52.7,70.7 81.4,72.3 	"/>
	<polygon class="st3" points="65.5,45.5 113.5,34.1 87.2,23.4 	"/>
	<polygon class="st3" points="110.7,21.6 87.2,23.4 113.5,34.1 	"/>
	<polygon class="st1" points="110.7,21.6 113.5,34.1 153.3,3.9 	"/>
	<polygon class="st28" points="153,178.2 153,178.2 164.9,191.2 176.8,173.1 	"/>
	<polygon class="st12" points="72.6,149.3 115.8,149.3 91.6,138.3 	"/>
	<polygon class="st1" points="74.9,121 72.6,149.3 91.6,138.3 	"/>
	<polygon class="st13" points="22.8,115.1 39.5,144.7 59.5,180.1 72.6,149.3 	"/>
	<polygon class="st26" points="90,188.6 72.6,149.3 59.5,180.1 	"/>
	<polygon class="st29" points="59.5,180.1 87.2,229.1 90,188.6 	"/>
	<polygon class="st30" points="62.2,108 22.8,115.1 72.6,149.3 70.2,139.9 	"/>
	<polygon class="st29" points="22.8,115.1 62.2,108 52.7,70.7 	"/>
	<polygon class="st3" points="91.6,138.3 108.4,136.1 102.8,126 	"/>
	<polygon class="st6" points="116.9,110.5 102.8,126 102.8,126 	"/>
	<polygon class="st12" points="116.9,110.5 102.8,126 108.4,136.1 123.2,134.1 	"/>
	<polygon class="st15" points="93.4,108.9 102.8,107.2 117.9,95.1 	"/>
	<path class="st11" d="M133.1,112.5c0,0,1-19-10.9-19.7c-11.9-0.7-14.1,6.5-16.3,9.1S109.1,114.6,133.1,112.5z"/>
	<path class="st31" d="M133.2,112.4c0,0-7.5,6.3-21.6,1.2c0,0-9.9-5.4-13.1-5.9c0,0,4.4-2.8,7.5-5.9
		C105.9,101.8,107.5,114.4,133.2,112.4z"/>
	<path class="st32" d="M123,96.3c0,0,5.6,2.1,5.4,6.8L123,96.3z"/>
	<polygon class="st18" points="113.5,34.1 113.1,72.3 153.7,52.6 	"/>
	<polygon class="st7" points="132.8,134.6 131.5,172.8 155.2,167.9 	"/>
</g>
<g id="HALF_2">
	<polyline class="st3" points="176.8,173.1 197,103.9 176.8,116.4 176.8,116.4 156.6,103.9 176.8,173.1 	"/>
	<polygon class="st0" points="240.1,34.1 272.2,72.3 240.4,72.3 199.9,52.6 	"/>
	<polygon class="st1" points="197,103.9 199.9,52.6 217.7,84.4 	"/>
	<line class="st2" x1="176.8" y1="115.5" x2="176.8" y2="83.7"/>
	<polyline class="st2" points="176.8,115.5 176.8,116.4 197,103.9 176.8,83.7 176.8,83.7 156.6,103.9 176.8,116.4 	"/>
	<polygon class="st4" points="348.9,168.9 314.1,144.7 330.8,115.1 	"/>
	<polygon class="st5" points="348.9,168.9 315.8,186.6 300.2,194.4 294.1,180.1 	"/>
	<polygon class="st0" points="294.1,180.1 294.1,180.1 300.2,194.4 285.4,225.7 266.4,229.1 	"/>
	<polygon class="st0" points="314.1,144.7 348.9,168.9 294.1,180.1 294.1,180.1 	"/>
	<polygon class="st7" points="222.1,172.8 238.5,229.1 204.9,198.4 	"/>
	<polyline class="st3" points="220.8,134.6 222.1,172.8 198.4,167.9 	"/>
	<polygon class="st8" points="198.4,167.9 176.8,173.1 220.8,134.6 	"/>
	<polygon class="st3" points="281,149.3 263.6,188.6 263.6,188.6 237.8,149.3 	"/>
	<polygon class="st9" points="247.4,182.4 230.7,202.4 254,210.3 238.5,229.1 222.1,172.8 	"/>
	<polygon class="st10" points="247.4,182.4 263.6,188.6 263.6,188.6 254,210.3 247.4,182.4 	"/>
	<polygon class="st11" points="246.8,101.2 236.7,110.5 220,112.7 229.5,93.9 	"/>
	<line class="st6" x1="260.2" y1="109.1" x2="246.8" y2="101.2"/>
	<polygon class="st17" points="259.1,108 248.6,84.4 240.4,72.3 272.2,72.3 260.2,109.1 	"/>
	<polyline class="st3" points="229.5,93.9 239.2,73.4 217.7,84.4 199.9,52.6 240.4,72.3 230.3,94.3 259.1,108 	"/>
	<polygon class="st12" points="247.4,182.4 247.4,182.4 247.4,182.4 254,210.3 230.7,202.4 	"/>
	<polygon class="st0" points="197,103.9 217.7,84.4 220,112.7 220.8,134.6 	"/>
	<polygon class="st13" points="222.1,172.8 220.8,134.6 220,112.7 237.8,149.3 	"/>
	<polygon class="st14" points="262,138.3 237.8,149.3 245.1,136.1 	"/>
	<polygon class="st9" points="230.4,134.1 245.1,136.1 237.8,149.3 220,112.7 236.7,110.5 	"/>
	<polygon class="st26" points="260.2,109.1 229.8,94.1 248.6,84.4 260.2,108.9 	"/>
	<polygon class="st16" points="260.2,109.1 262,138.3 250.8,126 	"/>
	<polygon class="st17" points="260.2,109.1 250.8,126 236.7,110.5 243.2,99.7 	"/>
	<polygon class="st0" points="240.4,72.3 248.6,84.4 228.9,95.1 	"/>
	<polygon class="st13" points="240.4,72.3 220,112.7 217.7,84.4 	"/>
	<polygon class="st6" points="245.1,136.1 230.4,134.1 245.1,136.1 	"/>
	<polygon class="st2" points="247.4,182.4 222.1,172.8 237.8,149.3 263.6,188.6 247.4,182.4 247.4,182.4 	"/>
	<polygon class="st3" points="278.7,121 260.2,109.1 272.2,72.3 	"/>
	<polygon class="st2" points="262,138.3 260.2,109.1 278.7,121 	"/>
	<polygon class="st7" points="200.3,3.9 191.4,34.1 176.8,58.6 176.8,6.9 	"/>
	<polygon class="st3" points="240.1,34.1 199.9,52.6 191.4,34.1 	"/>
	<polygon class="st2" points="191.4,34.1 199.9,52.6 176.8,58.6 	"/>
	<polygon class="st18" points="200.3,3.9 240.1,34.1 191.4,34.1 	"/>
	<polygon class="st5" points="240.1,34.1 288.1,45.5 272.2,72.3 	"/>
	<polygon class="st19" points="199.9,52.6 197,103.9 176.8,83.7 	"/>
	<polygon class="st5" points="204.9,198.4 238.5,229.1 200.2,214.5 	"/>
	<polygon class="st20" points="200.2,214.5 238.5,229.1 230.8,251 200.1,214.6 	"/>
	<polygon class="st0" points="200.1,214.6 230.8,251 215.5,255.2 200.1,214.8 	"/>
	<polygon class="st21" points="200.1,214.8 215.5,255.2 210.2,252.5 210.2,252.5 210.2,252.5 191.9,242.9 	"/>
	<polygon class="st12" points="200.6,178.2 198.4,167.9 222.1,172.8 204.9,198.4 200.6,178.2 	"/>
	<polygon class="st20" points="198.4,167.9 200.6,178.2 176.8,173.1 	"/>
	<polygon class="st22" points="183.9,203.4 183.9,194.4 188.7,191.2 195,203.4 	"/>
	<polygon class="st23" points="204.5,196.3 195,203.4 188.7,191.2 200.6,178.2 204.9,198.4 200.2,214.5 199.9,214.4 195,203.4 	"/>
	<polygon class="st24" points="183.9,203.4 195,203.4 199.9,214.4 178.1,221.7 	"/>
	<polygon class="st6" points="200.1,214.6 199.9,214.4 200.2,214.5 	"/>
	<polygon class="st6" points="200.1,214.6 200.1,214.8 199.9,214.4 	"/>
	<polygon class="st20" points="178.1,221.7 199.9,214.4 200.1,214.8 191.9,242.9 176.8,235 176.8,225.7 	"/>
	<polygon class="st6" points="176.8,225.7 176.8,222.2 178.1,221.7 	"/>
	<polyline class="st25" points="176.8,222.2 178.1,221.7 183.9,203.4 183.9,194.4 176.8,188.6 176.8,188.6 169.7,194.4 169.7,203.4 
		175.5,221.7 176.8,222.2 	"/>
	<polyline class="st26" points="176.8,256.3 197,260.9 210.2,252.5 191.9,242.9 176.8,235 176.8,235 161.7,242.9 143.4,252.5 
		156.6,260.9 176.8,256.3 	"/>
	<polyline class="st27" points="176.8,188.6 183.9,194.4 188.7,191.2 176.8,173.1 176.8,173.1 164.9,191.2 169.7,194.4 176.8,188.6 
			"/>
	<polygon class="st1" points="220.8,134.6 176.8,173.1 197,103.9 	"/>
	<polyline class="st8" points="176.8,83.7 199.9,52.6 176.8,58.6 176.8,58.6 153.7,52.6 176.8,83.7 	"/>
	<polygon class="st4" points="291.4,108 283.3,139.9 281,149.3 278.7,121 272.2,72.3 	"/>
	<polygon class="st0" points="272.2,72.3 300.9,70.7 291.4,108 	"/>
	<polygon class="st3" points="288.1,45.5 300.9,70.7 272.2,72.3 	"/>
	<polygon class="st3" points="288.1,45.5 240.1,34.1 266.4,23.4 	"/>
	<polygon class="st3" points="242.8,21.6 266.4,23.4 240.1,34.1 	"/>
	<polygon class="st1" points="242.8,21.6 240.1,34.1 200.3,3.9 	"/>
	<polygon class="st28" points="200.6,178.2 200.6,178.2 188.7,191.2 176.8,173.1 	"/>
	<polygon class="st12" points="281,149.3 237.8,149.3 262,138.3 	"/>
	<polygon class="st1" points="278.7,121 281,149.3 262,138.3 	"/>
	<polygon class="st13" points="330.8,115.1 314.1,144.7 294.1,180.1 281,149.3 	"/>
	<polygon class="st26" points="263.6,188.6 281,149.3 294.1,180.1 	"/>
	<polygon class="st29" points="294.1,180.1 294.1,180.1 294.1,180.1 266.4,229.1 263.6,188.6 	"/>
	<polygon class="st30" points="291.4,108 330.8,115.1 281,149.3 283.3,139.9 	"/>
	<polygon class="st29" points="330.8,115.1 291.4,108 300.9,70.7 	"/>
	<polygon class="st3" points="262,138.3 245.1,136.1 250.8,126 	"/>
	<polygon class="st6" points="236.7,110.5 250.8,126 250.8,126 	"/>
	<polygon class="st12" points="236.7,110.5 250.8,126 245.1,136.1 230.4,134.1 	"/>
	<polygon class="st26" points="260.2,108.9 250.8,107.2 235.7,95.1 	"/>
	<path class="st11" d="M220.4,112.3c0,0-1-19,10.9-19.7s14.1,6.5,16.3,9.1C249.9,104.4,244.5,114.3,220.4,112.3z"/>
	<path class="st31" d="M220.4,112.1c0,0,7.5,6.3,21.6,1.2c0,0,11.1-4.7,14.4-5.2c0,0-6.5-3.4-8.7-6.6
		C247.7,101.6,246,114.1,220.4,112.1z"/>
	<path class="st32" d="M235.2,94.8c0,0,5.6,2.1,5.4,6.8L235.2,94.8z"/>
	<polygon class="st18" points="240.1,34.1 240.4,72.3 199.9,52.6 	"/>
	<polyline class="st7" points="198.3,167.9 220.7,134.6 222.1,172.8 198.3,167.9 	"/>
	<polyline class="st20" points="176.8,58.6 191.4,34.1 176.8,6.9 162.2,34.1 176.8,58.6 176.8,57.8 	"/>
</g>
</svg>
