<svg id="Layer_1" data-name="Layer 1" xmlns="http://www.w3.org/2000/svg" viewBox="0 0 153.25 154"><defs><style>.cls-1{fill:#dbba57;}.cls-2{fill:#38341c;}.cls-3{fill:#f2d665;}.cls-4{fill:#c19a48;}.cls-5{fill:#231f07;}</style></defs><title>Artboard 2</title><path class="cls-1" d="M93,117.26a8.21,8.21,0,0,1-2.44.77c-2,0-10.52-2.49-11.85-2.49a1.21,1.21,0,0,0-.79.38c-1,1.27-2.35,3.26-2.66,3.26s-.88-.48-1.36-1.15a46.26,46.26,0,0,1-4.73-9.17s3.66-2.39,3.49-4a2.75,2.75,0,0,0-2.58-2.42c1.21,2.85-.68,4-3,5.63a.73.73,0,0,0-.36.65c0,1.05,3.18,7.45,5.46,10.77A4.34,4.34,0,0,0,75,121.3c.83,0,4.11-3.92,4.88-3.92s7.77,3.21,10.28,3.21c1,0,3.44-2.59,3.44-2.78a.72.72,0,0,0-.53-.55"/><path class="cls-1" d="M68.82,98.11a2,2,0,0,0,.09-.55c0-.36-1.26-1.07-1.62-1.07s-.43.14-.53.5c-.37,1.25-2,7.34-2.9,10.91-.21.34-.39.66-.39.66-1.6,2.56-3.34,4-4.61,4a2,2,0,0,1-2-2.18c0-2.2,1.82-6.24,3-6.24a.49.49,0,0,1,.5.43c0,.53-.62,1.53-.62,2s.79.93,1.39.93,1.1-2,1.1-2.68c0-.88-1.56-2.08-2.94-2.08-2.1,0-4.12,3.09-4.74,6.06-1.13,2-2.31,3.74-3,3.74-.26,0-.57-.31-.57-.81,0-1.2,1.67-6.41,1.67-7.15s-1.2-.69-1.82-.69A6.3,6.3,0,0,0,48,102.8c-1.42,0-3.24,3-4.15,5.82-1.16,2.12-2.41,4-3.12,4a.79.79,0,0,1-.6-.81c0-1.27,1.6-6,1.6-7.13a2.3,2.3,0,0,0-1.89-1.86,6.05,6.05,0,0,0-3,1.22l1.61-5.91a2.05,2.05,0,0,0,.1-.55c0-.36-1.27-1.07-1.63-1.07-.21,0-.43.14-.52.5-.65,2.15-4.08,15.08-4.08,16,0,.48,1.15,1,1.56,1s.43-.24.5-.55c.17-.75,1.24-5.07,1.89-7.1a3.28,3.28,0,0,1,2.32-1.92.84.84,0,0,1,.74.77c0,.91-1.49,5.52-1.49,7.05,0,.86,1.85,1.75,2.66,1.75,1.11,0,2-.92,2.83-2.21A3.39,3.39,0,0,0,46,114c1.22,0,2.66-1.54,2.66-1.54a3.28,3.28,0,0,0,2.7,1.54c1.26,0,2.23-1.17,3.18-2.73A4.74,4.74,0,0,0,58.4,114c1.74,0,3.25-1.09,4.66-2.84a13.26,13.26,0,0,0-.35,1.81c0,.48,1.14,1,1.55,1s.43-.24.5-.55c.17-.75,1.1-4.25,1.82-6.86l.6-2.35s1.09-4.16,1.64-6.17M48.65,110.38c-.67,1.38-1.6,2.08-2.08,2.08a1,1,0,0,1-.82-1c0-2.29,1.84-7,3.13-7,.39,0,1.2.4,1.2.79a26.2,26.2,0,0,1-1.43,5.14"/><path class="cls-2" d="M75.72,112.66A5.08,5.08,0,0,1,74.38,109V97a.25.25,0,0,1,.09-.2.29.29,0,0,1,.21-.09h2.86a.29.29,0,0,1,.21.09.25.25,0,0,1,.09.2v12.32a2,2,0,0,0,.39,1.27,1.24,1.24,0,0,0,1,.49,1.2,1.2,0,0,0,1-.49,2,2,0,0,0,.38-1.27V97a.25.25,0,0,1,.09-.2.27.27,0,0,1,.21-.09h2.86a.29.29,0,0,1,.21.09.28.28,0,0,1,.08.2v12a5.08,5.08,0,0,1-1.33,3.69,5.19,5.19,0,0,1-7,0"/><path class="cls-2" d="M86.35,113.68a.28.28,0,0,1-.08-.2V96.93a.32.32,0,0,1,.08-.21.29.29,0,0,1,.21-.09h2.82a.36.36,0,0,1,.34.22l2.13,4.58c.05.1.1.1.14,0l2.14-4.58a.35.35,0,0,1,.34-.22h2.84a.29.29,0,0,1,.21.09.32.32,0,0,1,.08.21v16.55a.28.28,0,0,1-.08.2.29.29,0,0,1-.21.09H94.44a.29.29,0,0,1-.21-.09.28.28,0,0,1-.08-.2V102.9c0-.06,0-.1-.06-.11s-.07,0-.09.09l-1.91,3.79c-.06.15-.12.22-.17.22s-.09-.07-.17-.22l-1.88-3.84s-.07-.08-.1-.08,0,0,0,.1v10.63a.31.31,0,0,1-.29.29H86.56a.29.29,0,0,1-.21-.09"/><path class="cls-2" d="M108.27,112.55a5.15,5.15,0,0,1-3.55,1.22h-4.63a.29.29,0,0,1-.21-.09.28.28,0,0,1-.08-.2V96.93a.32.32,0,0,1,.08-.21.29.29,0,0,1,.21-.09h4.09A5.75,5.75,0,0,1,108,97.81a4.34,4.34,0,0,1,1.39,3.5,3.91,3.91,0,0,1-1.67,3.52c-.07,0-.07.1,0,.15a4.69,4.69,0,0,1,1.93,4.07,4.48,4.48,0,0,1-1.37,3.5m-5-12.83v3.84a.11.11,0,0,0,.12.12h.88a1.64,1.64,0,0,0,1.3-.52,2.17,2.17,0,0,0,.47-1.48,2.33,2.33,0,0,0-.46-1.55,1.62,1.62,0,0,0-1.31-.53h-.88a.11.11,0,0,0-.12.12m2.47,10.48a2.63,2.63,0,0,0,.47-1.67,2.82,2.82,0,0,0-.47-1.71,1.45,1.45,0,0,0-1.25-.64h-1.1a.11.11,0,0,0-.12.12v4.36a.11.11,0,0,0,.12.12h1.08a1.53,1.53,0,0,0,1.27-.58"/><path class="cls-2" d="M112.51,112.66a4.73,4.73,0,0,1-1.34-3.52v-7.93a4.61,4.61,0,0,1,1.34-3.47,5.5,5.5,0,0,1,7.1,0,4.6,4.6,0,0,1,1.33,3.47v.27a.29.29,0,0,1-.09.21.25.25,0,0,1-.2.09l-2.87.12c-.19,0-.29-.09-.29-.27V101a1.67,1.67,0,0,0-.39-1.15,1.34,1.34,0,0,0-1-.44,1.32,1.32,0,0,0-1,.44,1.67,1.67,0,0,0-.39,1.15v8.45a1.64,1.64,0,0,0,.39,1.14,1.33,1.33,0,0,0,1,.42,1.36,1.36,0,0,0,1-.42,1.64,1.64,0,0,0,.39-1.14v-.66a.3.3,0,0,1,.08-.21.29.29,0,0,1,.21-.09l2.87.12c.19,0,.29.09.29.27v.27a4.73,4.73,0,0,1-1.34,3.52,4.91,4.91,0,0,1-3.55,1.31,4.85,4.85,0,0,1-3.54-1.31"/><polygon class="cls-3" points="60.14 55.99 52.74 58.39 55.9 70.82 62.23 58.39 60.14 55.99"/><polygon class="cls-4" points="57.48 38.57 62.23 46.28 52.74 58.39 52.74 51.05 57.48 38.57"/><polygon class="cls-1" points="62.23 46.31 52.74 58.39 60.14 55.99 64.15 51.44 62.23 46.31"/><polygon class="cls-3" points="57.48 38.57 66.81 32.72 76.64 33.51 76.64 49.36 62.23 46.31 57.48 38.57"/><polygon class="cls-5" points="62.23 58.39 66.56 59.04 69.5 58.39 67.81 53.49 64.15 51.44 60.14 55.99 62.23 58.39"/><polygon class="cls-4" points="58.78 65.17 52.74 58.39 60.14 55.99 62.23 58.39 58.78 65.17"/><polygon class="cls-3" points="66.56 59.04 62.23 58.38 58.78 65.17 65.11 68 66.56 59.04"/><polygon class="cls-1" points="65.11 68 62.71 83 55.9 70.83 58.78 65.17 65.11 68"/><polygon class="cls-4" points="62.71 83 70.37 73.45 71.57 69.74 69.51 58.39 66.56 59.04 62.71 83"/><polygon class="cls-3" points="62.71 83 67.13 86.96 72.19 85.38 76.64 79.84 76.64 75.83 70.37 73.45 62.71 83"/><polygon class="cls-1" points="61.91 35.79 52.74 37.61 39.18 55.24 52.74 51.05 57.48 38.57 61.91 35.79"/><polygon class="cls-3" points="39.18 55.24 45.6 66.43 52.74 58.38 52.74 51.05 39.18 55.24"/><polygon class="cls-4" points="45.6 66.43 44.44 72.94 50.15 74.99 55.14 67.84 52.74 58.39 45.6 66.43"/><polygon class="cls-4" points="95.79 38.55 95.79 38.55 100.54 51.03 100.54 58.37 91.05 46.29 95.79 38.55"/><polygon class="cls-1" points="93.14 55.97 100.54 58.36 97.38 70.8 91.05 58.36 93.14 55.97"/><polygon class="cls-3" points="91.05 46.29 100.54 58.37 93.14 55.97 89.12 51.42 91.05 46.29"/><polygon class="cls-1" points="95.79 38.55 86.46 32.7 76.64 33.49 76.64 49.34 91.05 46.29 95.79 38.55"/><polygon class="cls-4" points="89.12 51.42 91.05 46.28 76.64 49.34 62.23 46.28 64.15 51.42 67.81 53.47 85.47 53.47 89.12 51.42"/><polygon class="cls-5" points="91.05 58.36 86.72 59.02 83.77 58.36 85.47 53.47 89.12 51.42 93.14 55.97 91.05 58.36"/><polygon class="cls-4" points="94.5 65.14 100.54 58.37 93.14 55.97 91.05 58.37 94.5 65.14"/><polygon class="cls-1" points="86.72 59.02 91.05 58.36 94.5 65.14 88.16 67.98 86.72 59.02"/><polygon class="cls-3" points="88.16 67.98 90.57 82.98 97.38 70.8 94.5 65.14 88.16 67.98"/><polygon class="cls-4" points="90.57 82.98 82.91 73.43 81.71 69.72 83.77 58.37 86.72 59.02 90.57 82.98"/><polygon class="cls-1" points="90.57 82.98 86.14 86.94 81.08 85.36 76.64 79.82 76.64 75.8 82.91 73.43 90.57 82.98"/><polygon class="cls-1" points="114.1 55.22 107.68 66.41 100.54 58.36 100.54 51.03 114.1 55.22"/><polygon class="cls-4" points="107.68 66.41 108.84 72.92 103.13 74.97 98.14 67.81 100.54 58.36 107.68 66.41"/><polygon class="cls-3" points="69.5 58.39 67.81 53.47 85.47 53.47 83.77 58.36 76.64 60.83 69.5 58.39"/><polygon class="cls-1" points="71.57 69.74 81.71 69.72 83.77 58.36 76.64 60.83 69.51 58.39 71.57 69.74"/><polygon class="cls-5" points="71.57 69.74 70.37 73.45 76.64 75.8 82.91 73.43 81.71 69.72 71.57 69.74"/><polygon class="cls-4" points="72.19 85.38 76.64 86.96 81.08 85.36 76.64 79.82 72.19 85.38"/><polygon class="cls-3" points="91.36 35.77 100.54 37.58 114.1 55.22 100.54 51.03 95.79 38.55 91.36 35.77"/><polygon class="cls-2" points="71.61 69.79 76.68 73.48 81.75 69.76 71.61 69.79"/></svg>