<?xml version="1.0" encoding="UTF-8"?>
<svg width="315px" height="267px" viewBox="0 0 315 267" version="1.1" xmlns="http://www.w3.org/2000/svg" xmlns:xlink="http://www.w3.org/1999/xlink">
    <!-- Generator: Sketch 52.6 (67491) - http://www.bohemiancoding.com/sketch -->
    <title>Group 31 Copy</title>
    <desc>Created with Sketch.</desc>
    <g id="Page-1" stroke="none" stroke-width="1" fill="none" fill-rule="evenodd">
        <g id="White-Wire-Flower" fill="#FFFFFF">
            <g id="Group-31-Copy">
                <path d="M156.35839,0 L137.934954,3.08556986 L114.089075,3.08556986 L86.6333249,37.779362 L125.62903,91.7071537 L77.46351,56.069327 L77.1079667,55.8062037 L14.3843026,85.2919081 L14.0975837,85.4266641 L7.03596142,106.418731 L0,121.218413 L50.7588956,148.243001 L127.352607,143.79546 L55.310355,174.966579 L62.3764271,251.224638 L85.9624352,260.857981 L91.4229999,263.137095 L108.8912,267 L115.549369,267 L184.83197,206.645077 L185.121952,206.392354 L182.610157,181.679417 L203.460692,219.863047 L285.732418,226.692218 L299.92597,206.283747 L303.786812,199.691253 L315,179.97855 L282.840457,109.754796 L285.697857,109.141634 L303.772572,59.8704257 L290.632746,46.0162646 L287.04646,42.1994171 L274.724665,27.5716349 L210.451116,19.1246496 L196.59249,49.0593425 L201.379347,25.6379536 L156.587409,0.130447339 L156.35839,0 Z M151.266273,124.628912 L88.4941057,37.8197739 L114.806095,4.57145123 L138.057919,4.57145123 L156.083389,1.55229362 L199.710503,26.3962716 L193.985765,54.4054548 L166.209626,114.686091 L166.205769,114.694411 L167.551999,115.318271 L211.338417,20.7397898 L273.961515,28.969858 L285.925986,43.1731663 L289.554991,47.036963 L302.062493,60.2243273 L284.587767,107.860486 L282.381974,108.333841 L281.071047,105.895159 L279.743804,106.557053 L313.33442,179.905304 L302.502584,198.947792 L298.692174,205.458571 L285.003532,225.140964 L204.378993,218.448332 L182.36764,178.138916 L177.192608,128.378159 L175.717185,128.530298 L183.568359,205.776517 L114.99462,265.514267 L109.052878,265.514267 L91.8718418,261.714803 L86.5275667,259.484421 L63.7701215,250.189379 L56.8867901,175.90274 L131.672823,143.544668 L159.638823,141.920762 L159.553089,140.437406 L51.0880365,146.735576 L1.9494812,120.573753 L8.3942053,107.017482 L8.41319135,106.977367 L15.3009726,86.5023346 L76.9376856,57.5275737 L128.440893,95.6348369 L128.455133,95.6155224 L150.064961,125.500443 L151.266273,124.628912 Z" id="Fill-1"></path>
                <polygon id="Fill-2" points="231.096303 189 177 147.203044 177.903548 146 232 187.796956"></polygon>
                <polygon id="Fill-3" points="245.375876 170 177 138.349834 177.624124 137 246 168.650166"></polygon>
                <polygon id="Fill-4" points="260.621685 151 171 127.438081 171.378315 126 261 149.561771"></polygon>
                <polygon id="Fill-5" points="298.628798 207 232 189.441441 232.371349 188 299 205.558559"></polygon>
                <polygon id="Fill-6" points="301.909941 200 258 150.005984 259.090059 149 303 198.994016"></polygon>
                <polygon id="Fill-7" points="184.890187 207 138.702292 203.596136 95.1061586 193.02582 95.0496154 193.00151 56 176.36285 56.5850732 175 95.5778478 191.614498 138.934566 202.126855 185 205.521677"></polygon>
                <polygon id="Fill-8" points="86.474518 260 85 259.809691 93.8316465 191.488157 94.0275947 191.305722 147.985767 141 149 142.086294 95.2376272 192.209432"></polygon>
                <polygon id="Fill-9" points="51.4264296 147 50 146.51643 59.6346244 119.101709 69.1873117 87.5232158 76.5290558 56 78 56.3303335 70.6476932 87.8997871 70.6407519 87.9224615 61.0663354 119.570015"></polygon>
                <polygon id="Fill-10" points="164.83033 133 60.6247538 120.848863 60.5773763 120.836743 8 107.451056 8.36169691 106 60.8915478 119.373717 165 131.513632"></polygon>
                <polygon id="Fill-11" points="171.260048 127 171 125.535382 280.739952 106 281 107.464618"></polygon>
                <polygon id="Fill-12" points="158.627712 128 65 103.456834 65.3722884 102 159 126.543166"></polygon>
                <polygon id="Fill-13" points="143.488059 116 69.6502109 89.5091028 9.32540248 102.744614 9 101.329223 69.7517971 88 69.9569001 88.0736926 144 114.638282"></polygon>
                <polygon id="Fill-14" points="141.656227 75 127 39.7039608 127.027305 39.5000747 131.781836 4 133.22855 4.2028405 128.501177 39.4988797 143 74.4161241"></polygon>
                <polygon id="Fill-15" points="171.549198 103 165.662533 35.2685303 138 4.99970094 139.069641 4 167.069786 34.6383962 173 102.870968"></polygon>
                <polygon id="Fill-16" points="127.598855 40 87 38.6197397 87.0495997 37.0929747 127.534914 38.469263 166.233293 33.7585041 200.639058 25 201 26.482615 166.503104 35.2640343"></polygon>
                <polygon id="Fill-17" points="151.58412 62 146 36.3323377 147.41588 36 153 61.6676623"></polygon>
                <polygon id="Fill-18" points="284.956935 109 261.172516 84.9658141 261.146387 84.9328128 236.499734 53.6298349 211 19.9071617 212.172525 19 237.663403 52.7110256 262.27507 83.9692054 286 107.943511"></polygon>
                <polygon id="Fill-19" points="196.733557 122 196 120.710837 261.033376 83.8877023 289.8154 46 291 46.895417 262.0331 85.0262457 261.899942 85.1015556"></polygon>
                <polygon id="Fill-20" points="171.056662 123 170 121.956598 236.698067 52.8831316 236.915633 52.8357857 286.689087 42 287 43.4602547 237.444112 54.2485452"></polygon>
                <polygon id="Fill-21" points="180.951364 125 180 123.851933 247.048636 67 248 68.1480669"></polygon>
                <polygon id="Fill-22" points="92.1624987 262 91 261.084706 137.44133 201.470386 163.664366 136.764058 159.780707 140.888668 115.901364 196.736569 114.742556 195.816526 158.662948 139.916522 158.685687 139.892474 168 130 138.731108 202.222542"></polygon>
                <polygon id="Fill-23" points="269.978176 129 172 127.507235 172.021972 126 270 127.492765"></polygon>
                <polygon id="Fill-24" points="204.088181 220 203 218.989983 231.14857 188.080895 257.54106 149.567132 279.684751 106 281 106.681254 258.812107 150.335539 258.784463 150.375832 232.306083 189.014952 232.271491 189.052858"></polygon>
                <path d="M147.402518,75.9112023 L154.330797,78.2738931 L156.803384,76.2142934 L161.014558,77.6771246 L165.76468,74.062254 L161.609045,72.6188676 L166.838874,68.4515193 L163.121033,64.0571614 L157.846921,67.90398 L156.639286,61.6909212 L149.376144,62.5386194 L150.547198,68.8834704 L144.621431,65.9916048 L143.677864,73.0481952 L150.357034,73.7946573 L147.402518,75.9112023 Z M154.630855,80 L144.095664,76.407352 L146.221393,74.884489 L142,74.4127224 L143.431568,63.7068473 L148.544099,66.2017932 L147.619193,61.1906048 L157.821892,60 L158.84973,65.2886619 L163.356518,62.0015741 L169,68.6722017 L164.728696,72.0756493 L168.956458,73.5441905 L161.271221,79.3928919 L157.098999,77.9437954 L154.630855,80 Z" id="Fill-25"></path>
                <path d="M147.402518,82.9112339 L154.330797,85.2739064 L156.803384,83.2143226 L161.014558,84.6769882 L165.76468,81.0622999 L161.609045,79.6189245 L166.838874,75.4516084 L163.121033,71.0572844 L157.846921,74.9040733 L156.639286,68.6910624 L149.376144,69.5385998 L150.547198,75.8835562 L144.621431,72.9917129 L143.677864,80.0482488 L150.357034,80.7947052 L147.402518,82.9112339 Z M154.630855,87 L144.095664,83.4073797 L146.221393,81.8845284 L142,81.4127655 L143.431568,70.706973 L148.544099,73.2018997 L147.619193,68.1907499 L157.821892,67 L158.84973,72.2887754 L163.356518,69.001713 L169,75.6722891 L164.728696,79.0757105 L168.956458,80.5442403 L161.271221,86.3928966 L157.098999,84.943657 L154.630855,87 Z" id="Fill-26"></path>
                <path d="M147.402518,91.9112339 L154.330797,94.2739064 L156.803384,92.2143226 L161.014558,93.6769882 L165.76468,90.0622999 L161.609045,88.6189245 L166.838874,84.4516084 L163.121033,80.0571301 L157.846921,83.9040733 L156.639286,77.6910624 L149.376144,78.5385998 L150.547198,84.8835562 L144.621431,81.9917129 L143.677864,89.0482488 L150.357034,89.7947052 L147.402518,91.9112339 Z M154.630855,96 L144.095664,92.4073797 L146.221393,90.8845284 L142,90.4127655 L143.431568,79.706973 L148.544099,82.2018997 L147.619193,77.1907499 L157.821892,76 L158.84973,81.2887754 L163.356518,78.001713 L169,84.6722891 L164.728696,88.0757105 L168.956458,89.5442403 L161.271221,95.3928966 L157.098999,93.943657 L154.630855,96 Z" id="Fill-27"></path>
                <path d="M147.402518,99.9112339 L154.330797,102.273906 L156.803384,100.214323 L161.014558,101.676988 L165.76468,98.0622999 L161.609045,96.6189245 L166.838874,92.4516084 L163.121033,88.0571301 L157.846921,91.9040733 L156.639286,85.6910624 L149.376144,86.5385998 L150.547198,92.8835562 L144.621431,89.9917129 L143.677864,97.0482488 L150.357034,97.7947052 L147.402518,99.9112339 Z M154.630855,104 L144.095664,100.40738 L146.221393,98.8845284 L142,98.4127655 L143.431568,87.706973 L148.544099,90.2018997 L147.619193,85.1907499 L157.821892,84 L158.84973,89.2887754 L163.356518,86.001713 L169,92.6722891 L164.728696,96.0757105 L168.956458,97.5442403 L161.271221,103.392897 L157.098999,101.943657 L154.630855,104 Z" id="Fill-28"></path>
                <polygon id="Fill-29" points="170 135 159.688924 130.070448 150 101.187937 151.452864 100.707869 160.93721 128.980379 167.382456 132.061842 156.625629 100.486907 158.076196 100"></polygon>
                <polygon id="Fill-30" points="168.561054 135 167.473971 134.034696 171.348762 129.348363 161 102.551263 162.328864 102 173 129.631264"></polygon>
            </g>
        </g>
    </g>
</svg>